M48
;Layer_Color=9474304
;FILE_FORMAT=2:5
INCH,LZ
;TYPE=PLATED
T1F00S00C0.01181
T2F00S00C0.02362
T3F00S00C0.03937
%
T01
X0008986Y0017585
Y0025527
Y0031821
Y0036846
Y0043399
X0018985Y0038521
Y0032659
X001926Y0025527
Y0017585
X0025959Y0022657
X0030959Y002261
X0030984Y0018374
X0041033Y0018065
X0041065Y0021772
X004522Y0010886
X0069504Y000646
X0061024Y0029309
T02
X0007Y0008
X0017
Y004737
X0007
T03
X0066452Y0018374
Y0028374
Y0038374
M30
