G04*
G04 #@! TF.GenerationSoftware,Altium Limited,Altium Designer,18.0.7 (293)*
G04*
G04 Layer_Color=33789*
%FSLAX25Y25*%
%MOIN*%
G70*
G01*
G75*
G36*
X61691Y26145D02*
X61695Y26139D01*
X61704Y26130D01*
X61713Y26114D01*
X61728Y26096D01*
X61740Y26074D01*
X61777Y26022D01*
X61814Y25961D01*
X61854Y25893D01*
X61891Y25817D01*
X61925Y25740D01*
Y25737D01*
X61928Y25731D01*
X61931Y25718D01*
X61937Y25703D01*
X61943Y25685D01*
X61949Y25663D01*
X61955Y25635D01*
X61962Y25608D01*
X61977Y25543D01*
X61989Y25473D01*
X61998Y25393D01*
X62002Y25313D01*
Y25286D01*
X61998Y25264D01*
Y25236D01*
X61995Y25206D01*
X61992Y25172D01*
X61986Y25135D01*
X61971Y25049D01*
X61949Y24960D01*
X61919Y24865D01*
X61876Y24773D01*
X61873Y24770D01*
X61870Y24764D01*
X61863Y24748D01*
X61851Y24733D01*
X61839Y24711D01*
X61823Y24690D01*
X61783Y24638D01*
X61731Y24576D01*
X61667Y24518D01*
X61593Y24460D01*
X61510Y24408D01*
X61507D01*
X61498Y24401D01*
X61486Y24395D01*
X61467Y24389D01*
X61446Y24380D01*
X61418Y24367D01*
X61387Y24358D01*
X61351Y24346D01*
X61314Y24334D01*
X61271Y24325D01*
X61179Y24303D01*
X61077Y24291D01*
X60970Y24285D01*
X60967D01*
X60958D01*
X60942D01*
X60921Y24288D01*
X60893D01*
X60862Y24291D01*
X60829Y24294D01*
X60792Y24300D01*
X60706Y24315D01*
X60614Y24337D01*
X60516Y24367D01*
X60420Y24408D01*
X60417D01*
X60408Y24414D01*
X60396Y24420D01*
X60378Y24429D01*
X60356Y24444D01*
X60334Y24460D01*
X60276Y24497D01*
X60215Y24549D01*
X60153Y24607D01*
X60095Y24681D01*
X60067Y24717D01*
X60043Y24760D01*
Y24764D01*
X60037Y24770D01*
X60031Y24785D01*
X60024Y24800D01*
X60012Y24822D01*
X60003Y24849D01*
X59991Y24880D01*
X59978Y24914D01*
X59969Y24951D01*
X59957Y24991D01*
X59935Y25083D01*
X59923Y25181D01*
X59917Y25292D01*
Y25328D01*
X59920Y25347D01*
Y25371D01*
X59926Y25424D01*
X59935Y25482D01*
X59948Y25550D01*
X59966Y25617D01*
X59991Y25685D01*
Y25688D01*
X59994Y25694D01*
X59997Y25703D01*
X60003Y25715D01*
X60018Y25746D01*
X60043Y25786D01*
X60071Y25832D01*
X60104Y25878D01*
X60141Y25924D01*
X60187Y25964D01*
X60193Y25967D01*
X60209Y25979D01*
X60236Y25998D01*
X60276Y26022D01*
X60322Y26047D01*
X60378Y26071D01*
X60442Y26096D01*
X60516Y26117D01*
X60583Y25875D01*
X60580D01*
X60577Y25872D01*
X60559Y25869D01*
X60531Y25857D01*
X60494Y25844D01*
X60457Y25829D01*
X60417Y25810D01*
X60378Y25789D01*
X60341Y25764D01*
X60338Y25761D01*
X60325Y25752D01*
X60310Y25737D01*
X60288Y25715D01*
X60267Y25688D01*
X60242Y25654D01*
X60221Y25617D01*
X60199Y25571D01*
X60196Y25565D01*
X60190Y25550D01*
X60181Y25522D01*
X60172Y25488D01*
X60163Y25448D01*
X60153Y25402D01*
X60147Y25350D01*
X60144Y25295D01*
Y25264D01*
X60147Y25230D01*
X60150Y25187D01*
X60159Y25138D01*
X60169Y25083D01*
X60184Y25031D01*
X60202Y24979D01*
X60206Y24972D01*
X60212Y24957D01*
X60224Y24932D01*
X60242Y24902D01*
X60264Y24868D01*
X60288Y24831D01*
X60316Y24797D01*
X60350Y24764D01*
X60353Y24760D01*
X60365Y24751D01*
X60384Y24736D01*
X60408Y24717D01*
X60439Y24696D01*
X60473Y24675D01*
X60510Y24656D01*
X60549Y24638D01*
X60552D01*
X60559Y24635D01*
X60568Y24632D01*
X60583Y24625D01*
X60598Y24619D01*
X60620Y24613D01*
X60669Y24601D01*
X60730Y24586D01*
X60798Y24573D01*
X60875Y24564D01*
X60955Y24561D01*
X60958D01*
X60967D01*
X60979D01*
X61001Y24564D01*
X61022D01*
X61050Y24567D01*
X61080Y24570D01*
X61111Y24573D01*
X61185Y24582D01*
X61262Y24601D01*
X61335Y24622D01*
X61409Y24653D01*
X61412D01*
X61418Y24656D01*
X61427Y24662D01*
X61440Y24671D01*
X61470Y24693D01*
X61510Y24721D01*
X61553Y24757D01*
X61599Y24803D01*
X61642Y24859D01*
X61679Y24920D01*
Y24923D01*
X61682Y24929D01*
X61688Y24939D01*
X61691Y24951D01*
X61698Y24966D01*
X61707Y24988D01*
X61722Y25034D01*
X61738Y25092D01*
X61753Y25153D01*
X61762Y25224D01*
X61765Y25298D01*
Y25328D01*
X61762Y25362D01*
X61756Y25405D01*
X61750Y25454D01*
X61738Y25513D01*
X61722Y25574D01*
X61701Y25635D01*
Y25638D01*
X61698Y25642D01*
X61695Y25651D01*
X61688Y25663D01*
X61676Y25694D01*
X61658Y25731D01*
X61636Y25771D01*
X61612Y25810D01*
X61584Y25850D01*
X61556Y25887D01*
X61176D01*
Y25295D01*
X60939D01*
Y26148D01*
X61688D01*
X61691Y26145D01*
D02*
G37*
G36*
X62805Y35386D02*
Y35113D01*
X60788Y34330D01*
Y34622D01*
X62252Y35144D01*
X62256D01*
X62262Y35147D01*
X62271Y35150D01*
X62283Y35156D01*
X62317Y35165D01*
X62360Y35181D01*
X62412Y35199D01*
X62467Y35218D01*
X62584Y35251D01*
X62581D01*
X62578Y35254D01*
X62569Y35258D01*
X62556Y35261D01*
X62523Y35270D01*
X62480Y35282D01*
X62431Y35297D01*
X62375Y35316D01*
X62314Y35337D01*
X62252Y35359D01*
X60788Y35905D01*
Y36176D01*
X62805Y35386D01*
D02*
G37*
G36*
X62296Y14157D02*
X62335Y14151D01*
X62382Y14142D01*
X62434Y14124D01*
X62489Y14102D01*
X62541Y14072D01*
X62547Y14068D01*
X62566Y14053D01*
X62590Y14035D01*
X62621Y14004D01*
X62658Y13967D01*
X62695Y13921D01*
X62728Y13866D01*
X62762Y13804D01*
Y13801D01*
X62765Y13795D01*
X62768Y13786D01*
X62774Y13774D01*
X62781Y13758D01*
X62787Y13740D01*
X62799Y13691D01*
X62814Y13635D01*
X62827Y13568D01*
X62836Y13497D01*
X62839Y13418D01*
Y13372D01*
X62836Y13350D01*
Y13322D01*
X62833Y13292D01*
X62830Y13258D01*
X62821Y13187D01*
X62805Y13111D01*
X62787Y13034D01*
X62762Y12960D01*
Y12957D01*
X62759Y12951D01*
X62753Y12942D01*
X62747Y12929D01*
X62728Y12896D01*
X62701Y12856D01*
X62667Y12807D01*
X62627Y12761D01*
X62578Y12711D01*
X62523Y12668D01*
X62520D01*
X62516Y12665D01*
X62507Y12659D01*
X62495Y12653D01*
X62480Y12644D01*
X62461Y12635D01*
X62415Y12616D01*
X62363Y12598D01*
X62299Y12579D01*
X62231Y12567D01*
X62157Y12561D01*
X62136Y12813D01*
X62139D01*
X62142D01*
X62160Y12816D01*
X62188Y12822D01*
X62225Y12828D01*
X62265Y12840D01*
X62308Y12853D01*
X62348Y12871D01*
X62388Y12893D01*
X62391Y12896D01*
X62403Y12905D01*
X62421Y12920D01*
X62443Y12945D01*
X62467Y12972D01*
X62495Y13006D01*
X62520Y13049D01*
X62544Y13095D01*
Y13098D01*
X62547Y13101D01*
X62553Y13120D01*
X62563Y13147D01*
X62572Y13187D01*
X62584Y13230D01*
X62593Y13285D01*
X62599Y13344D01*
X62603Y13405D01*
Y13430D01*
X62599Y13461D01*
X62596Y13494D01*
X62593Y13537D01*
X62584Y13580D01*
X62575Y13626D01*
X62559Y13672D01*
X62556Y13679D01*
X62550Y13691D01*
X62541Y13712D01*
X62526Y13737D01*
X62507Y13768D01*
X62486Y13795D01*
X62461Y13823D01*
X62434Y13847D01*
X62431Y13850D01*
X62418Y13857D01*
X62403Y13866D01*
X62382Y13878D01*
X62357Y13887D01*
X62326Y13896D01*
X62296Y13903D01*
X62262Y13906D01*
X62259D01*
X62246D01*
X62228Y13903D01*
X62207Y13900D01*
X62179Y13893D01*
X62151Y13881D01*
X62124Y13869D01*
X62096Y13850D01*
X62093Y13847D01*
X62084Y13841D01*
X62071Y13826D01*
X62053Y13807D01*
X62035Y13783D01*
X62016Y13752D01*
X61995Y13712D01*
X61976Y13669D01*
X61973Y13666D01*
X61970Y13654D01*
X61964Y13629D01*
X61958Y13614D01*
X61952Y13596D01*
X61945Y13571D01*
X61939Y13546D01*
X61930Y13516D01*
X61921Y13485D01*
X61912Y13448D01*
X61902Y13405D01*
X61890Y13359D01*
X61878Y13310D01*
Y13307D01*
X61875Y13298D01*
X61872Y13283D01*
X61866Y13264D01*
X61860Y13243D01*
X61853Y13218D01*
X61838Y13160D01*
X61817Y13095D01*
X61795Y13031D01*
X61774Y12972D01*
X61764Y12945D01*
X61752Y12923D01*
Y12920D01*
X61749Y12917D01*
X61737Y12899D01*
X61721Y12874D01*
X61700Y12844D01*
X61672Y12807D01*
X61642Y12773D01*
X61605Y12739D01*
X61565Y12708D01*
X61559Y12705D01*
X61543Y12696D01*
X61522Y12687D01*
X61491Y12675D01*
X61454Y12659D01*
X61411Y12650D01*
X61362Y12641D01*
X61313Y12638D01*
X61310D01*
X61307D01*
X61298D01*
X61286D01*
X61258Y12644D01*
X61221Y12650D01*
X61175Y12659D01*
X61129Y12675D01*
X61077Y12696D01*
X61028Y12724D01*
X61024D01*
X61022Y12727D01*
X61006Y12739D01*
X60982Y12761D01*
X60951Y12788D01*
X60920Y12822D01*
X60886Y12865D01*
X60853Y12917D01*
X60825Y12976D01*
Y12979D01*
X60822Y12982D01*
X60819Y12991D01*
X60813Y13006D01*
X60810Y13022D01*
X60804Y13040D01*
X60788Y13083D01*
X60776Y13138D01*
X60767Y13200D01*
X60757Y13270D01*
X60754Y13344D01*
Y13381D01*
X60757Y13402D01*
Y13424D01*
X60764Y13476D01*
X60773Y13537D01*
X60785Y13605D01*
X60804Y13672D01*
X60828Y13737D01*
Y13740D01*
X60831Y13743D01*
X60834Y13752D01*
X60840Y13765D01*
X60859Y13795D01*
X60880Y13835D01*
X60911Y13878D01*
X60948Y13921D01*
X60991Y13964D01*
X61040Y14001D01*
X61046Y14004D01*
X61064Y14016D01*
X61095Y14031D01*
X61132Y14047D01*
X61178Y14065D01*
X61233Y14084D01*
X61292Y14096D01*
X61356Y14102D01*
X61374Y13847D01*
X61371D01*
X61365D01*
X61356Y13844D01*
X61344Y13841D01*
X61310Y13835D01*
X61267Y13823D01*
X61221Y13804D01*
X61175Y13780D01*
X61129Y13746D01*
X61089Y13706D01*
X61086Y13700D01*
X61074Y13685D01*
X61058Y13657D01*
X61040Y13620D01*
X61022Y13571D01*
X61006Y13510D01*
X60994Y13439D01*
X60991Y13356D01*
Y13316D01*
X60994Y13298D01*
Y13273D01*
X61003Y13221D01*
X61012Y13163D01*
X61028Y13104D01*
X61049Y13049D01*
X61064Y13025D01*
X61080Y13003D01*
X61083Y13000D01*
X61095Y12988D01*
X61114Y12969D01*
X61141Y12951D01*
X61172Y12929D01*
X61209Y12914D01*
X61249Y12902D01*
X61295Y12896D01*
X61301D01*
X61313D01*
X61335Y12899D01*
X61359Y12905D01*
X61387Y12914D01*
X61418Y12929D01*
X61445Y12948D01*
X61473Y12972D01*
X61476Y12976D01*
X61485Y12991D01*
X61491Y13000D01*
X61500Y13012D01*
X61506Y13031D01*
X61516Y13052D01*
X61528Y13077D01*
X61540Y13104D01*
X61550Y13135D01*
X61562Y13172D01*
X61577Y13215D01*
X61589Y13261D01*
X61602Y13313D01*
X61617Y13372D01*
Y13375D01*
X61620Y13387D01*
X61623Y13402D01*
X61629Y13424D01*
X61636Y13451D01*
X61645Y13482D01*
X61660Y13550D01*
X61681Y13623D01*
X61703Y13697D01*
X61712Y13734D01*
X61725Y13765D01*
X61737Y13795D01*
X61746Y13820D01*
Y13823D01*
X61749Y13829D01*
X61755Y13835D01*
X61761Y13847D01*
X61780Y13878D01*
X61801Y13918D01*
X61832Y13961D01*
X61869Y14004D01*
X61909Y14044D01*
X61952Y14078D01*
X61958Y14081D01*
X61973Y14090D01*
X61998Y14105D01*
X62035Y14121D01*
X62075Y14136D01*
X62124Y14151D01*
X62179Y14161D01*
X62237Y14164D01*
X62240D01*
X62243D01*
X62252D01*
X62265D01*
X62296Y14157D01*
D02*
G37*
M02*
