G04*
G04 #@! TF.GenerationSoftware,Altium Limited,Altium Designer,18.0.7 (293)*
G04*
G04 Layer_Color=65535*
%FSLAX25Y25*%
%MOIN*%
G70*
G01*
G75*
%ADD10C,0.00500*%
%ADD11C,0.00787*%
%ADD12C,0.00700*%
%ADD13C,0.00394*%
%ADD14C,0.00787*%
G36*
X72854Y52917D02*
X70880D01*
X70884Y52913D01*
X70899Y52898D01*
X70919Y52871D01*
X70946Y52836D01*
X70980Y52794D01*
X71015Y52744D01*
X71057Y52686D01*
X71095Y52621D01*
Y52617D01*
X71099Y52613D01*
X71114Y52590D01*
X71134Y52556D01*
X71157Y52513D01*
X71184Y52464D01*
X71207Y52410D01*
X71233Y52352D01*
X71257Y52298D01*
X70953D01*
Y52302D01*
X70949Y52310D01*
X70942Y52325D01*
X70930Y52341D01*
X70919Y52364D01*
X70907Y52391D01*
X70872Y52452D01*
X70830Y52521D01*
X70780Y52598D01*
X70723Y52675D01*
X70661Y52748D01*
X70657Y52752D01*
X70654Y52755D01*
X70631Y52779D01*
X70596Y52813D01*
X70554Y52855D01*
X70500Y52901D01*
X70442Y52947D01*
X70381Y52990D01*
X70319Y53024D01*
Y53228D01*
X72854D01*
Y52917D01*
D02*
G37*
G36*
X72132Y51638D02*
X72163D01*
X72232Y51634D01*
X72312Y51623D01*
X72393Y51611D01*
X72474Y51592D01*
X72543Y51565D01*
X72551Y51561D01*
X72570Y51550D01*
X72601Y51530D01*
X72639Y51507D01*
X72685Y51473D01*
X72727Y51431D01*
X72769Y51377D01*
X72808Y51319D01*
X72812Y51312D01*
X72823Y51289D01*
X72835Y51254D01*
X72850Y51208D01*
X72869Y51150D01*
X72881Y51085D01*
X72892Y51008D01*
X72896Y50928D01*
Y50897D01*
X72892Y50874D01*
X72888Y50847D01*
X72885Y50812D01*
X72873Y50739D01*
X72850Y50659D01*
X72816Y50574D01*
X72796Y50532D01*
X72769Y50494D01*
X72743Y50455D01*
X72708Y50421D01*
X72704D01*
X72700Y50413D01*
X72689Y50405D01*
X72673Y50394D01*
X72650Y50379D01*
X72627Y50367D01*
X72597Y50348D01*
X72566Y50332D01*
X72527Y50317D01*
X72485Y50302D01*
X72439Y50286D01*
X72386Y50275D01*
X72332Y50263D01*
X72270Y50256D01*
X72209Y50252D01*
X72140D01*
X72097Y50551D01*
X72101D01*
X72109D01*
X72124D01*
X72144Y50555D01*
X72167D01*
X72193Y50559D01*
X72255Y50570D01*
X72324Y50582D01*
X72389Y50601D01*
X72447Y50628D01*
X72474Y50643D01*
X72497Y50659D01*
X72501Y50663D01*
X72512Y50678D01*
X72531Y50697D01*
X72547Y50728D01*
X72566Y50766D01*
X72585Y50812D01*
X72597Y50866D01*
X72601Y50928D01*
Y50951D01*
X72597Y50974D01*
X72593Y51001D01*
X72585Y51035D01*
X72578Y51073D01*
X72562Y51108D01*
X72543Y51143D01*
X72539Y51147D01*
X72531Y51158D01*
X72520Y51173D01*
X72501Y51193D01*
X72482Y51216D01*
X72455Y51235D01*
X72424Y51254D01*
X72389Y51269D01*
X72386D01*
X72370Y51277D01*
X72347Y51281D01*
X72312Y51289D01*
X72266Y51296D01*
X72213Y51300D01*
X72147Y51308D01*
X72071D01*
X70331D01*
Y51642D01*
X72051D01*
X72055D01*
X72067D01*
X72082D01*
X72105D01*
X72132Y51638D01*
D02*
G37*
G36*
X13981Y25064D02*
Y25060D01*
Y25048D01*
Y25029D01*
Y25002D01*
X13978Y24968D01*
Y24933D01*
X13974Y24891D01*
X13970Y24845D01*
X13958Y24749D01*
X13943Y24649D01*
X13924Y24549D01*
X13893Y24461D01*
Y24457D01*
X13889Y24449D01*
X13885Y24438D01*
X13878Y24422D01*
X13855Y24384D01*
X13824Y24330D01*
X13782Y24273D01*
X13728Y24211D01*
X13659Y24154D01*
X13582Y24096D01*
X13578D01*
X13571Y24088D01*
X13559Y24084D01*
X13540Y24073D01*
X13521Y24065D01*
X13494Y24054D01*
X13459Y24038D01*
X13425Y24027D01*
X13386Y24015D01*
X13340Y24000D01*
X13294Y23989D01*
X13240Y23981D01*
X13125Y23965D01*
X12995Y23958D01*
X12960D01*
X12937Y23962D01*
X12906D01*
X12872Y23965D01*
X12833Y23969D01*
X12791Y23973D01*
X12699Y23989D01*
X12603Y24008D01*
X12503Y24038D01*
X12415Y24077D01*
X12411D01*
X12403Y24084D01*
X12395Y24088D01*
X12380Y24100D01*
X12338Y24127D01*
X12292Y24169D01*
X12238Y24219D01*
X12188Y24276D01*
X12138Y24349D01*
X12096Y24430D01*
Y24434D01*
X12092Y24442D01*
X12088Y24453D01*
X12081Y24472D01*
X12073Y24495D01*
X12065Y24526D01*
X12058Y24561D01*
X12050Y24599D01*
X12038Y24641D01*
X12031Y24687D01*
X12023Y24741D01*
X12015Y24795D01*
X12008Y24856D01*
X12004Y24922D01*
X12000Y24991D01*
Y25064D01*
Y26523D01*
X12334D01*
Y25064D01*
Y25060D01*
Y25048D01*
Y25033D01*
Y25010D01*
Y24983D01*
X12338Y24952D01*
X12342Y24879D01*
X12349Y24803D01*
X12357Y24722D01*
X12372Y24645D01*
X12380Y24611D01*
X12392Y24580D01*
X12395Y24572D01*
X12403Y24553D01*
X12419Y24526D01*
X12442Y24491D01*
X12468Y24453D01*
X12507Y24411D01*
X12549Y24373D01*
X12603Y24338D01*
X12611Y24334D01*
X12630Y24326D01*
X12661Y24311D01*
X12703Y24299D01*
X12756Y24284D01*
X12818Y24269D01*
X12887Y24261D01*
X12964Y24257D01*
X12998D01*
X13025Y24261D01*
X13056D01*
X13091Y24265D01*
X13167Y24276D01*
X13256Y24299D01*
X13340Y24326D01*
X13421Y24369D01*
X13459Y24392D01*
X13490Y24422D01*
Y24426D01*
X13498Y24430D01*
X13505Y24442D01*
X13513Y24457D01*
X13528Y24476D01*
X13540Y24499D01*
X13555Y24530D01*
X13571Y24565D01*
X13582Y24607D01*
X13597Y24653D01*
X13613Y24703D01*
X13624Y24764D01*
X13632Y24829D01*
X13640Y24899D01*
X13647Y24979D01*
Y25064D01*
Y26523D01*
X13981D01*
Y25064D01*
D02*
G37*
G36*
X15306Y26531D02*
X15337Y26527D01*
X15371Y26523D01*
X15410Y26519D01*
X15452Y26507D01*
X15544Y26485D01*
X15640Y26450D01*
X15690Y26427D01*
X15736Y26400D01*
X15779Y26365D01*
X15821Y26331D01*
X15825Y26327D01*
X15829Y26323D01*
X15840Y26312D01*
X15855Y26296D01*
X15871Y26273D01*
X15890Y26250D01*
X15928Y26193D01*
X15967Y26120D01*
X16001Y26035D01*
X16028Y25939D01*
X16032Y25885D01*
X16036Y25832D01*
Y25824D01*
Y25805D01*
X16032Y25774D01*
X16028Y25736D01*
X16021Y25690D01*
X16009Y25640D01*
X15994Y25586D01*
X15971Y25532D01*
X15967Y25525D01*
X15959Y25505D01*
X15944Y25478D01*
X15921Y25440D01*
X15894Y25394D01*
X15859Y25340D01*
X15813Y25286D01*
X15763Y25225D01*
X15755Y25217D01*
X15736Y25194D01*
X15702Y25160D01*
X15679Y25137D01*
X15652Y25110D01*
X15621Y25079D01*
X15583Y25045D01*
X15544Y25010D01*
X15502Y24968D01*
X15456Y24925D01*
X15402Y24879D01*
X15349Y24833D01*
X15287Y24780D01*
X15283Y24776D01*
X15276Y24768D01*
X15260Y24757D01*
X15241Y24741D01*
X15195Y24703D01*
X15137Y24653D01*
X15080Y24599D01*
X15018Y24545D01*
X14968Y24499D01*
X14949Y24480D01*
X14930Y24461D01*
X14926Y24457D01*
X14918Y24445D01*
X14903Y24430D01*
X14884Y24407D01*
X14842Y24357D01*
X14799Y24296D01*
X16040D01*
Y24000D01*
X14369D01*
Y24004D01*
Y24019D01*
Y24042D01*
X14373Y24069D01*
X14377Y24100D01*
X14381Y24134D01*
X14392Y24173D01*
X14404Y24211D01*
Y24215D01*
X14408Y24219D01*
X14415Y24242D01*
X14431Y24273D01*
X14454Y24319D01*
X14481Y24369D01*
X14519Y24426D01*
X14557Y24484D01*
X14607Y24545D01*
Y24549D01*
X14615Y24553D01*
X14634Y24576D01*
X14665Y24611D01*
X14711Y24657D01*
X14769Y24710D01*
X14838Y24776D01*
X14922Y24849D01*
X15014Y24929D01*
X15018Y24933D01*
X15034Y24945D01*
X15053Y24960D01*
X15080Y24987D01*
X15114Y25014D01*
X15153Y25048D01*
X15237Y25121D01*
X15329Y25210D01*
X15421Y25298D01*
X15468Y25340D01*
X15506Y25382D01*
X15540Y25425D01*
X15571Y25463D01*
Y25467D01*
X15579Y25471D01*
X15587Y25482D01*
X15594Y25498D01*
X15617Y25536D01*
X15644Y25586D01*
X15671Y25644D01*
X15694Y25705D01*
X15709Y25774D01*
X15717Y25839D01*
Y25843D01*
Y25847D01*
X15713Y25870D01*
X15709Y25905D01*
X15702Y25947D01*
X15683Y25997D01*
X15660Y26047D01*
X15629Y26101D01*
X15583Y26150D01*
X15575Y26154D01*
X15560Y26170D01*
X15529Y26189D01*
X15491Y26216D01*
X15441Y26239D01*
X15383Y26258D01*
X15314Y26273D01*
X15237Y26277D01*
X15214D01*
X15199Y26273D01*
X15160Y26269D01*
X15110Y26262D01*
X15053Y26243D01*
X14991Y26219D01*
X14934Y26185D01*
X14880Y26139D01*
X14876Y26131D01*
X14861Y26116D01*
X14838Y26085D01*
X14815Y26043D01*
X14788Y25989D01*
X14769Y25928D01*
X14753Y25855D01*
X14746Y25770D01*
X14427Y25805D01*
Y25809D01*
Y25820D01*
X14431Y25839D01*
X14435Y25862D01*
X14442Y25893D01*
X14446Y25928D01*
X14469Y26004D01*
X14500Y26093D01*
X14542Y26181D01*
X14600Y26269D01*
X14630Y26308D01*
X14669Y26346D01*
X14673Y26350D01*
X14680Y26354D01*
X14692Y26365D01*
X14707Y26377D01*
X14730Y26388D01*
X14757Y26408D01*
X14788Y26423D01*
X14822Y26442D01*
X14861Y26458D01*
X14903Y26477D01*
X14953Y26492D01*
X15003Y26504D01*
X15118Y26527D01*
X15179Y26531D01*
X15245Y26534D01*
X15279D01*
X15306Y26531D01*
D02*
G37*
G36*
X57781Y9520D02*
X55807D01*
X55811Y9516D01*
X55826Y9501D01*
X55845Y9474D01*
X55872Y9440D01*
X55907Y9397D01*
X55941Y9347D01*
X55984Y9290D01*
X56022Y9224D01*
Y9221D01*
X56026Y9217D01*
X56041Y9194D01*
X56060Y9159D01*
X56083Y9117D01*
X56110Y9067D01*
X56133Y9013D01*
X56160Y8956D01*
X56183Y8902D01*
X55880D01*
Y8906D01*
X55876Y8913D01*
X55868Y8929D01*
X55857Y8944D01*
X55845Y8967D01*
X55834Y8994D01*
X55799Y9056D01*
X55757Y9125D01*
X55707Y9201D01*
X55650Y9278D01*
X55588Y9351D01*
X55584Y9355D01*
X55580Y9359D01*
X55557Y9382D01*
X55523Y9416D01*
X55481Y9459D01*
X55427Y9505D01*
X55369Y9551D01*
X55308Y9593D01*
X55246Y9628D01*
Y9831D01*
X57781D01*
Y9520D01*
D02*
G37*
G36*
X56813Y8230D02*
X56848D01*
X56890Y8226D01*
X56936Y8222D01*
X57032Y8211D01*
X57132Y8195D01*
X57232Y8176D01*
X57320Y8145D01*
X57324D01*
X57331Y8142D01*
X57343Y8138D01*
X57358Y8130D01*
X57397Y8107D01*
X57450Y8076D01*
X57508Y8034D01*
X57569Y7980D01*
X57627Y7911D01*
X57685Y7834D01*
Y7831D01*
X57692Y7823D01*
X57696Y7811D01*
X57708Y7792D01*
X57715Y7773D01*
X57727Y7746D01*
X57742Y7712D01*
X57754Y7677D01*
X57765Y7639D01*
X57781Y7593D01*
X57792Y7547D01*
X57800Y7493D01*
X57815Y7378D01*
X57823Y7247D01*
Y7212D01*
X57819Y7189D01*
Y7159D01*
X57815Y7124D01*
X57811Y7086D01*
X57808Y7043D01*
X57792Y6951D01*
X57773Y6855D01*
X57742Y6755D01*
X57704Y6667D01*
Y6663D01*
X57696Y6656D01*
X57692Y6648D01*
X57681Y6633D01*
X57654Y6590D01*
X57612Y6544D01*
X57562Y6490D01*
X57504Y6441D01*
X57431Y6391D01*
X57351Y6348D01*
X57347D01*
X57339Y6345D01*
X57328Y6341D01*
X57308Y6333D01*
X57285Y6325D01*
X57255Y6318D01*
X57220Y6310D01*
X57182Y6302D01*
X57139Y6291D01*
X57093Y6283D01*
X57040Y6275D01*
X56986Y6268D01*
X56924Y6260D01*
X56859Y6256D01*
X56790Y6252D01*
X56717D01*
X55258D01*
Y6587D01*
X56717D01*
X56721D01*
X56732D01*
X56748D01*
X56771D01*
X56798D01*
X56828Y6590D01*
X56901Y6594D01*
X56978Y6602D01*
X57059Y6610D01*
X57136Y6625D01*
X57170Y6633D01*
X57201Y6644D01*
X57209Y6648D01*
X57228Y6656D01*
X57255Y6671D01*
X57289Y6694D01*
X57328Y6721D01*
X57370Y6759D01*
X57408Y6802D01*
X57443Y6855D01*
X57447Y6863D01*
X57454Y6882D01*
X57470Y6913D01*
X57481Y6955D01*
X57497Y7009D01*
X57512Y7070D01*
X57520Y7139D01*
X57523Y7216D01*
Y7251D01*
X57520Y7278D01*
Y7308D01*
X57516Y7343D01*
X57504Y7420D01*
X57481Y7508D01*
X57454Y7593D01*
X57412Y7673D01*
X57389Y7712D01*
X57358Y7742D01*
X57354D01*
X57351Y7750D01*
X57339Y7758D01*
X57324Y7765D01*
X57305Y7781D01*
X57282Y7792D01*
X57251Y7808D01*
X57216Y7823D01*
X57174Y7834D01*
X57128Y7850D01*
X57078Y7865D01*
X57016Y7877D01*
X56951Y7884D01*
X56882Y7892D01*
X56801Y7900D01*
X56717D01*
X55258D01*
Y8234D01*
X56717D01*
X56721D01*
X56732D01*
X56752D01*
X56779D01*
X56813Y8230D01*
D02*
G37*
G36*
X41575Y6847D02*
X41617D01*
X41667Y6843D01*
X41721Y6839D01*
X41836Y6828D01*
X41955Y6812D01*
X42074Y6789D01*
X42128Y6774D01*
X42181Y6759D01*
X42185D01*
X42193Y6755D01*
X42208Y6751D01*
X42228Y6743D01*
X42250Y6732D01*
X42274Y6720D01*
X42335Y6690D01*
X42404Y6651D01*
X42473Y6605D01*
X42542Y6551D01*
X42604Y6486D01*
Y6482D01*
X42612Y6478D01*
X42615Y6467D01*
X42627Y6455D01*
X42650Y6413D01*
X42677Y6363D01*
X42704Y6294D01*
X42727Y6217D01*
X42742Y6129D01*
X42750Y6029D01*
Y5994D01*
X42746Y5968D01*
X42742Y5937D01*
X42734Y5902D01*
X42727Y5864D01*
X42719Y5822D01*
X42688Y5730D01*
X42665Y5680D01*
X42642Y5634D01*
X42612Y5584D01*
X42577Y5538D01*
X42538Y5495D01*
X42492Y5453D01*
X42489Y5449D01*
X42477Y5442D01*
X42458Y5430D01*
X42431Y5415D01*
X42396Y5395D01*
X42354Y5376D01*
X42304Y5353D01*
X42243Y5330D01*
X42178Y5307D01*
X42101Y5284D01*
X42016Y5265D01*
X41924Y5246D01*
X41820Y5230D01*
X41713Y5219D01*
X41590Y5211D01*
X41463Y5207D01*
X41460D01*
X41444D01*
X41421D01*
X41390D01*
X41352Y5211D01*
X41310D01*
X41260Y5215D01*
X41206Y5219D01*
X41091Y5230D01*
X40972Y5246D01*
X40853Y5265D01*
X40799Y5280D01*
X40745Y5296D01*
X40741D01*
X40734Y5300D01*
X40718Y5307D01*
X40699Y5315D01*
X40676Y5322D01*
X40649Y5334D01*
X40588Y5365D01*
X40519Y5403D01*
X40450Y5449D01*
X40384Y5503D01*
X40323Y5568D01*
Y5572D01*
X40315Y5576D01*
X40308Y5587D01*
X40300Y5603D01*
X40277Y5641D01*
X40246Y5695D01*
X40219Y5760D01*
X40196Y5841D01*
X40181Y5929D01*
X40173Y6029D01*
Y6064D01*
X40177Y6102D01*
X40185Y6148D01*
X40192Y6202D01*
X40208Y6263D01*
X40231Y6325D01*
X40258Y6382D01*
X40261Y6390D01*
X40273Y6409D01*
X40292Y6436D01*
X40315Y6475D01*
X40350Y6513D01*
X40392Y6555D01*
X40438Y6597D01*
X40492Y6636D01*
X40499Y6640D01*
X40519Y6651D01*
X40553Y6670D01*
X40595Y6693D01*
X40649Y6716D01*
X40714Y6743D01*
X40788Y6770D01*
X40868Y6793D01*
X40872D01*
X40880Y6797D01*
X40891D01*
X40910Y6801D01*
X40930Y6809D01*
X40956Y6812D01*
X40991Y6816D01*
X41026Y6824D01*
X41068Y6828D01*
X41110Y6832D01*
X41160Y6839D01*
X41214Y6843D01*
X41271Y6847D01*
X41329D01*
X41463Y6851D01*
X41467D01*
X41482D01*
X41506D01*
X41536D01*
X41575Y6847D01*
D02*
G37*
G36*
X42707Y4105D02*
X40734D01*
X40738Y4101D01*
X40753Y4086D01*
X40772Y4059D01*
X40799Y4025D01*
X40834Y3982D01*
X40868Y3932D01*
X40910Y3875D01*
X40949Y3810D01*
Y3806D01*
X40953Y3802D01*
X40968Y3779D01*
X40987Y3744D01*
X41010Y3702D01*
X41037Y3652D01*
X41060Y3598D01*
X41087Y3541D01*
X41110Y3487D01*
X40807D01*
Y3491D01*
X40803Y3498D01*
X40795Y3514D01*
X40784Y3529D01*
X40772Y3552D01*
X40761Y3579D01*
X40726Y3641D01*
X40684Y3710D01*
X40634Y3787D01*
X40576Y3863D01*
X40515Y3936D01*
X40511Y3940D01*
X40507Y3944D01*
X40484Y3967D01*
X40450Y4002D01*
X40407Y4044D01*
X40354Y4090D01*
X40296Y4136D01*
X40235Y4178D01*
X40173Y4213D01*
Y4416D01*
X42707D01*
Y4105D01*
D02*
G37*
G36*
Y2638D02*
X42185Y2304D01*
X42181D01*
X42174Y2297D01*
X42162Y2289D01*
X42147Y2281D01*
X42108Y2254D01*
X42059Y2220D01*
X42001Y2181D01*
X41943Y2139D01*
X41890Y2101D01*
X41840Y2062D01*
X41836Y2059D01*
X41820Y2047D01*
X41797Y2028D01*
X41770Y2009D01*
X41717Y1951D01*
X41690Y1924D01*
X41671Y1893D01*
X41667Y1890D01*
X41663Y1882D01*
X41655Y1867D01*
X41644Y1847D01*
X41621Y1801D01*
X41602Y1744D01*
Y1740D01*
X41598Y1732D01*
Y1717D01*
X41594Y1698D01*
X41590Y1671D01*
Y1640D01*
X41586Y1602D01*
Y1171D01*
X42707D01*
Y837D01*
X40185D01*
Y2009D01*
X40188Y2039D01*
Y2070D01*
X40192Y2147D01*
X40200Y2228D01*
X40215Y2312D01*
X40231Y2393D01*
X40242Y2431D01*
X40254Y2466D01*
Y2469D01*
X40258Y2473D01*
X40265Y2496D01*
X40284Y2527D01*
X40311Y2565D01*
X40342Y2612D01*
X40384Y2658D01*
X40434Y2704D01*
X40496Y2746D01*
X40503Y2750D01*
X40526Y2761D01*
X40561Y2780D01*
X40607Y2800D01*
X40665Y2819D01*
X40730Y2838D01*
X40799Y2850D01*
X40876Y2853D01*
X40880D01*
X40887D01*
X40903D01*
X40922Y2850D01*
X40945D01*
X40972Y2846D01*
X41033Y2830D01*
X41106Y2811D01*
X41179Y2780D01*
X41256Y2734D01*
X41294Y2708D01*
X41329Y2677D01*
X41337Y2669D01*
X41344Y2658D01*
X41360Y2646D01*
X41371Y2627D01*
X41390Y2604D01*
X41406Y2577D01*
X41425Y2546D01*
X41444Y2512D01*
X41463Y2469D01*
X41482Y2427D01*
X41502Y2377D01*
X41521Y2327D01*
X41536Y2270D01*
X41548Y2208D01*
X41559Y2143D01*
X41563Y2151D01*
X41571Y2166D01*
X41582Y2189D01*
X41598Y2216D01*
X41640Y2281D01*
X41663Y2316D01*
X41686Y2343D01*
X41694Y2350D01*
X41709Y2370D01*
X41740Y2396D01*
X41778Y2431D01*
X41828Y2473D01*
X41886Y2519D01*
X41951Y2569D01*
X42024Y2619D01*
X42707Y3057D01*
Y2638D01*
D02*
G37*
G36*
X27912Y20863D02*
X27962D01*
X28012Y20860D01*
X28069Y20856D01*
X28192Y20840D01*
X28322Y20821D01*
X28449Y20794D01*
X28507Y20779D01*
X28565Y20760D01*
X28568D01*
X28576Y20756D01*
X28591Y20748D01*
X28611Y20741D01*
X28637Y20729D01*
X28664Y20718D01*
X28726Y20683D01*
X28799Y20637D01*
X28872Y20583D01*
X28941Y20522D01*
X29002Y20449D01*
Y20445D01*
X29010Y20441D01*
X29014Y20429D01*
X29025Y20410D01*
X29037Y20391D01*
X29048Y20368D01*
X29075Y20311D01*
X29102Y20237D01*
X29125Y20157D01*
X29140Y20061D01*
X29148Y19961D01*
Y19934D01*
X29144Y19911D01*
Y19888D01*
X29140Y19857D01*
X29129Y19788D01*
X29110Y19711D01*
X29079Y19631D01*
X29041Y19554D01*
X28987Y19477D01*
X28983Y19473D01*
X28979Y19469D01*
X28956Y19446D01*
X28918Y19416D01*
X28868Y19377D01*
X28802Y19339D01*
X28722Y19304D01*
X28630Y19274D01*
X28522Y19254D01*
X28499Y19550D01*
X28503D01*
X28507D01*
X28518Y19554D01*
X28534Y19558D01*
X28572Y19566D01*
X28614Y19581D01*
X28664Y19600D01*
X28714Y19623D01*
X28764Y19654D01*
X28802Y19692D01*
X28806Y19696D01*
X28818Y19711D01*
X28833Y19735D01*
X28849Y19769D01*
X28864Y19807D01*
X28879Y19853D01*
X28891Y19907D01*
X28895Y19969D01*
Y19992D01*
X28891Y20019D01*
X28887Y20053D01*
X28879Y20092D01*
X28868Y20134D01*
X28852Y20176D01*
X28829Y20218D01*
X28826Y20222D01*
X28818Y20237D01*
X28802Y20257D01*
X28783Y20280D01*
X28760Y20311D01*
X28730Y20337D01*
X28695Y20368D01*
X28657Y20395D01*
X28653Y20399D01*
X28637Y20406D01*
X28611Y20418D01*
X28576Y20437D01*
X28534Y20452D01*
X28484Y20472D01*
X28426Y20491D01*
X28361Y20510D01*
X28357D01*
X28353Y20514D01*
X28342D01*
X28330Y20518D01*
X28292Y20526D01*
X28242Y20533D01*
X28184Y20541D01*
X28123Y20549D01*
X28054Y20556D01*
X27981D01*
X27977D01*
X27965D01*
X27946D01*
X27919D01*
X27927Y20552D01*
X27942Y20537D01*
X27973Y20518D01*
X28004Y20487D01*
X28042Y20452D01*
X28084Y20406D01*
X28123Y20357D01*
X28161Y20299D01*
X28165Y20291D01*
X28177Y20272D01*
X28188Y20237D01*
X28203Y20195D01*
X28223Y20145D01*
X28234Y20088D01*
X28246Y20022D01*
X28250Y19953D01*
Y19923D01*
X28246Y19900D01*
X28242Y19873D01*
X28238Y19842D01*
X28223Y19769D01*
X28196Y19684D01*
X28177Y19642D01*
X28154Y19596D01*
X28127Y19554D01*
X28096Y19508D01*
X28061Y19466D01*
X28023Y19423D01*
X28019Y19420D01*
X28012Y19416D01*
X28000Y19404D01*
X27981Y19389D01*
X27958Y19374D01*
X27931Y19354D01*
X27900Y19335D01*
X27862Y19316D01*
X27823Y19297D01*
X27777Y19277D01*
X27727Y19258D01*
X27674Y19243D01*
X27616Y19228D01*
X27558Y19216D01*
X27493Y19212D01*
X27424Y19208D01*
X27420D01*
X27409D01*
X27386D01*
X27359Y19212D01*
X27328Y19216D01*
X27290Y19220D01*
X27247Y19228D01*
X27201Y19235D01*
X27105Y19262D01*
X27051Y19281D01*
X27002Y19304D01*
X26948Y19327D01*
X26898Y19358D01*
X26852Y19393D01*
X26806Y19431D01*
X26802Y19435D01*
X26794Y19443D01*
X26783Y19454D01*
X26767Y19473D01*
X26752Y19492D01*
X26733Y19519D01*
X26710Y19550D01*
X26687Y19589D01*
X26667Y19627D01*
X26645Y19669D01*
X26606Y19765D01*
X26594Y19819D01*
X26583Y19876D01*
X26575Y19938D01*
X26572Y19999D01*
Y20022D01*
X26575Y20042D01*
Y20061D01*
X26579Y20088D01*
X26587Y20149D01*
X26606Y20218D01*
X26629Y20291D01*
X26660Y20372D01*
X26706Y20449D01*
Y20452D01*
X26714Y20456D01*
X26721Y20468D01*
X26729Y20483D01*
X26760Y20518D01*
X26802Y20564D01*
X26860Y20614D01*
X26921Y20668D01*
X26998Y20718D01*
X27086Y20760D01*
X27090D01*
X27098Y20764D01*
X27113Y20771D01*
X27132Y20775D01*
X27155Y20787D01*
X27186Y20794D01*
X27224Y20802D01*
X27266Y20813D01*
X27313Y20825D01*
X27366Y20833D01*
X27424Y20844D01*
X27485Y20852D01*
X27555Y20856D01*
X27628Y20863D01*
X27708Y20867D01*
X27793D01*
X27797D01*
X27816D01*
X27839D01*
X27873D01*
X27912Y20863D01*
D02*
G37*
G36*
X29106Y18598D02*
X28584Y18264D01*
X28580D01*
X28572Y18256D01*
X28561Y18248D01*
X28545Y18241D01*
X28507Y18214D01*
X28457Y18179D01*
X28399Y18141D01*
X28342Y18099D01*
X28288Y18060D01*
X28238Y18022D01*
X28234Y18018D01*
X28219Y18007D01*
X28196Y17987D01*
X28169Y17968D01*
X28115Y17910D01*
X28088Y17884D01*
X28069Y17853D01*
X28065Y17849D01*
X28061Y17841D01*
X28054Y17826D01*
X28042Y17807D01*
X28019Y17761D01*
X28000Y17703D01*
Y17699D01*
X27996Y17692D01*
Y17676D01*
X27992Y17657D01*
X27988Y17630D01*
Y17599D01*
X27985Y17561D01*
Y17131D01*
X29106D01*
Y16797D01*
X26583D01*
Y17968D01*
X26587Y17999D01*
Y18030D01*
X26591Y18106D01*
X26598Y18187D01*
X26614Y18271D01*
X26629Y18352D01*
X26641Y18391D01*
X26652Y18425D01*
Y18429D01*
X26656Y18433D01*
X26664Y18456D01*
X26683Y18486D01*
X26710Y18525D01*
X26741Y18571D01*
X26783Y18617D01*
X26833Y18663D01*
X26894Y18705D01*
X26902Y18709D01*
X26925Y18721D01*
X26959Y18740D01*
X27005Y18759D01*
X27063Y18778D01*
X27128Y18798D01*
X27197Y18809D01*
X27274Y18813D01*
X27278D01*
X27286D01*
X27301D01*
X27320Y18809D01*
X27343D01*
X27370Y18805D01*
X27432Y18790D01*
X27505Y18771D01*
X27578Y18740D01*
X27654Y18694D01*
X27693Y18667D01*
X27727Y18636D01*
X27735Y18629D01*
X27743Y18617D01*
X27758Y18606D01*
X27770Y18586D01*
X27789Y18563D01*
X27804Y18536D01*
X27823Y18506D01*
X27843Y18471D01*
X27862Y18429D01*
X27881Y18387D01*
X27900Y18337D01*
X27919Y18287D01*
X27935Y18229D01*
X27946Y18168D01*
X27958Y18102D01*
X27962Y18110D01*
X27969Y18125D01*
X27981Y18148D01*
X27996Y18175D01*
X28038Y18241D01*
X28061Y18275D01*
X28084Y18302D01*
X28092Y18310D01*
X28108Y18329D01*
X28138Y18356D01*
X28177Y18391D01*
X28227Y18433D01*
X28284Y18479D01*
X28349Y18529D01*
X28422Y18579D01*
X29106Y19016D01*
Y18598D01*
D02*
G37*
G36*
X26332Y30863D02*
X26359Y30860D01*
X26393Y30856D01*
X26470Y30840D01*
X26555Y30810D01*
X26601Y30794D01*
X26647Y30771D01*
X26693Y30744D01*
X26739Y30714D01*
X26781Y30679D01*
X26823Y30637D01*
X26827Y30633D01*
X26831Y30625D01*
X26843Y30614D01*
X26858Y30595D01*
X26873Y30572D01*
X26893Y30545D01*
X26912Y30514D01*
X26931Y30476D01*
X26954Y30433D01*
X26973Y30387D01*
X26992Y30337D01*
X27008Y30284D01*
X27023Y30230D01*
X27035Y30168D01*
X27038Y30103D01*
X27042Y30034D01*
Y29999D01*
X27038Y29972D01*
X27035Y29942D01*
X27031Y29903D01*
X27023Y29865D01*
X27015Y29819D01*
X26989Y29723D01*
X26969Y29673D01*
X26950Y29623D01*
X26923Y29573D01*
X26896Y29523D01*
X26862Y29477D01*
X26823Y29431D01*
X26820Y29427D01*
X26812Y29420D01*
X26800Y29412D01*
X26785Y29397D01*
X26762Y29377D01*
X26735Y29358D01*
X26704Y29339D01*
X26670Y29320D01*
X26631Y29297D01*
X26589Y29278D01*
X26497Y29239D01*
X26443Y29224D01*
X26389Y29216D01*
X26332Y29208D01*
X26270Y29204D01*
X26267D01*
X26259D01*
X26247D01*
X26228Y29208D01*
X26209D01*
X26182Y29212D01*
X26128Y29220D01*
X26063Y29235D01*
X25994Y29258D01*
X25925Y29285D01*
X25859Y29327D01*
X25856D01*
X25852Y29335D01*
X25833Y29351D01*
X25802Y29381D01*
X25767Y29420D01*
X25729Y29469D01*
X25691Y29531D01*
X25656Y29604D01*
X25629Y29684D01*
Y29681D01*
X25625Y29677D01*
X25618Y29654D01*
X25598Y29619D01*
X25579Y29577D01*
X25548Y29527D01*
X25514Y29481D01*
X25475Y29435D01*
X25429Y29397D01*
X25422Y29393D01*
X25406Y29381D01*
X25379Y29366D01*
X25341Y29351D01*
X25295Y29335D01*
X25241Y29320D01*
X25184Y29308D01*
X25118Y29304D01*
X25115D01*
X25107D01*
X25091D01*
X25072Y29308D01*
X25049Y29312D01*
X25022Y29316D01*
X24957Y29327D01*
X24884Y29351D01*
X24807Y29389D01*
X24765Y29408D01*
X24727Y29435D01*
X24688Y29466D01*
X24654Y29500D01*
X24650Y29504D01*
X24646Y29508D01*
X24635Y29519D01*
X24623Y29535D01*
X24611Y29558D01*
X24592Y29581D01*
X24577Y29608D01*
X24558Y29642D01*
X24523Y29715D01*
X24496Y29807D01*
X24473Y29911D01*
X24469Y29965D01*
X24466Y30026D01*
Y30057D01*
X24469Y30080D01*
Y30111D01*
X24477Y30141D01*
X24489Y30218D01*
X24512Y30303D01*
X24546Y30391D01*
X24569Y30437D01*
X24592Y30479D01*
X24623Y30522D01*
X24658Y30560D01*
X24661Y30564D01*
X24665Y30568D01*
X24677Y30579D01*
X24692Y30591D01*
X24711Y30606D01*
X24734Y30625D01*
X24788Y30664D01*
X24857Y30698D01*
X24938Y30733D01*
X25026Y30756D01*
X25076Y30760D01*
X25126Y30764D01*
X25134D01*
X25157D01*
X25188Y30760D01*
X25230Y30752D01*
X25280Y30740D01*
X25330Y30725D01*
X25383Y30702D01*
X25433Y30671D01*
X25437Y30668D01*
X25453Y30656D01*
X25475Y30633D01*
X25506Y30602D01*
X25537Y30564D01*
X25568Y30514D01*
X25602Y30456D01*
X25629Y30391D01*
Y30395D01*
X25633Y30403D01*
X25637Y30414D01*
X25644Y30430D01*
X25664Y30472D01*
X25687Y30522D01*
X25721Y30579D01*
X25763Y30637D01*
X25817Y30694D01*
X25875Y30744D01*
X25883Y30748D01*
X25906Y30764D01*
X25940Y30783D01*
X25990Y30806D01*
X26048Y30829D01*
X26117Y30848D01*
X26194Y30863D01*
X26278Y30867D01*
X26282D01*
X26293D01*
X26309D01*
X26332Y30863D01*
D02*
G37*
G36*
X27000Y28598D02*
X26478Y28264D01*
X26474D01*
X26466Y28256D01*
X26455Y28248D01*
X26439Y28241D01*
X26401Y28214D01*
X26351Y28179D01*
X26293Y28141D01*
X26236Y28099D01*
X26182Y28060D01*
X26132Y28022D01*
X26128Y28018D01*
X26113Y28007D01*
X26090Y27987D01*
X26063Y27968D01*
X26009Y27910D01*
X25982Y27884D01*
X25963Y27853D01*
X25959Y27849D01*
X25956Y27841D01*
X25948Y27826D01*
X25936Y27807D01*
X25913Y27761D01*
X25894Y27703D01*
Y27699D01*
X25890Y27692D01*
Y27676D01*
X25886Y27657D01*
X25883Y27630D01*
Y27599D01*
X25879Y27561D01*
Y27131D01*
X27000D01*
Y26797D01*
X24477D01*
Y27968D01*
X24481Y27999D01*
Y28030D01*
X24485Y28106D01*
X24493Y28187D01*
X24508Y28271D01*
X24523Y28352D01*
X24535Y28390D01*
X24546Y28425D01*
Y28429D01*
X24550Y28433D01*
X24558Y28456D01*
X24577Y28486D01*
X24604Y28525D01*
X24635Y28571D01*
X24677Y28617D01*
X24727Y28663D01*
X24788Y28705D01*
X24796Y28709D01*
X24819Y28721D01*
X24853Y28740D01*
X24900Y28759D01*
X24957Y28778D01*
X25022Y28798D01*
X25091Y28809D01*
X25168Y28813D01*
X25172D01*
X25180D01*
X25195D01*
X25214Y28809D01*
X25237D01*
X25264Y28805D01*
X25326Y28790D01*
X25399Y28771D01*
X25472Y28740D01*
X25548Y28694D01*
X25587Y28667D01*
X25621Y28636D01*
X25629Y28629D01*
X25637Y28617D01*
X25652Y28605D01*
X25664Y28586D01*
X25683Y28563D01*
X25698Y28536D01*
X25717Y28506D01*
X25737Y28471D01*
X25756Y28429D01*
X25775Y28387D01*
X25794Y28337D01*
X25813Y28287D01*
X25829Y28229D01*
X25840Y28168D01*
X25852Y28102D01*
X25856Y28110D01*
X25863Y28126D01*
X25875Y28148D01*
X25890Y28175D01*
X25932Y28241D01*
X25956Y28275D01*
X25979Y28302D01*
X25986Y28310D01*
X26002Y28329D01*
X26032Y28356D01*
X26071Y28390D01*
X26121Y28433D01*
X26178Y28479D01*
X26243Y28529D01*
X26316Y28579D01*
X27000Y29016D01*
Y28598D01*
D02*
G37*
G36*
X42973Y30856D02*
X42981Y30848D01*
X42996Y30836D01*
X43016Y30817D01*
X43042Y30798D01*
X43073Y30771D01*
X43112Y30740D01*
X43150Y30710D01*
X43196Y30675D01*
X43250Y30637D01*
X43303Y30595D01*
X43365Y30556D01*
X43430Y30514D01*
X43499Y30468D01*
X43576Y30426D01*
X43653Y30380D01*
X43657Y30376D01*
X43672Y30368D01*
X43695Y30356D01*
X43726Y30341D01*
X43764Y30322D01*
X43810Y30299D01*
X43864Y30272D01*
X43922Y30245D01*
X43983Y30218D01*
X44052Y30188D01*
X44125Y30157D01*
X44202Y30126D01*
X44359Y30068D01*
X44528Y30015D01*
X44532D01*
X44544Y30011D01*
X44559Y30007D01*
X44582Y29999D01*
X44613Y29992D01*
X44647Y29984D01*
X44690Y29976D01*
X44732Y29965D01*
X44782Y29957D01*
X44836Y29946D01*
X44951Y29926D01*
X45081Y29911D01*
X45220Y29900D01*
Y29581D01*
X45216D01*
X45204D01*
X45189D01*
X45166Y29585D01*
X45139D01*
X45105Y29588D01*
X45062Y29592D01*
X45020Y29596D01*
X44970Y29604D01*
X44912Y29612D01*
X44855Y29619D01*
X44793Y29631D01*
X44724Y29642D01*
X44655Y29658D01*
X44502Y29696D01*
X44498D01*
X44482Y29700D01*
X44459Y29708D01*
X44429Y29715D01*
X44390Y29727D01*
X44348Y29742D01*
X44298Y29757D01*
X44240Y29777D01*
X44183Y29800D01*
X44118Y29823D01*
X43979Y29877D01*
X43833Y29942D01*
X43687Y30015D01*
X43684Y30019D01*
X43668Y30026D01*
X43649Y30038D01*
X43622Y30053D01*
X43588Y30072D01*
X43549Y30095D01*
X43507Y30122D01*
X43457Y30149D01*
X43353Y30218D01*
X43242Y30295D01*
X43131Y30376D01*
X43023Y30464D01*
Y29228D01*
X42728D01*
Y30860D01*
X42970D01*
X42973Y30856D01*
D02*
G37*
G36*
X45220Y28598D02*
X44697Y28264D01*
X44694D01*
X44686Y28256D01*
X44674Y28248D01*
X44659Y28241D01*
X44621Y28214D01*
X44571Y28179D01*
X44513Y28141D01*
X44456Y28099D01*
X44402Y28060D01*
X44352Y28022D01*
X44348Y28018D01*
X44333Y28007D01*
X44310Y27987D01*
X44283Y27968D01*
X44229Y27910D01*
X44202Y27884D01*
X44183Y27853D01*
X44179Y27849D01*
X44175Y27841D01*
X44168Y27826D01*
X44156Y27807D01*
X44133Y27761D01*
X44114Y27703D01*
Y27699D01*
X44110Y27692D01*
Y27676D01*
X44106Y27657D01*
X44102Y27630D01*
Y27599D01*
X44098Y27561D01*
Y27131D01*
X45220D01*
Y26797D01*
X42697D01*
Y27968D01*
X42701Y27999D01*
Y28030D01*
X42704Y28106D01*
X42712Y28187D01*
X42728Y28271D01*
X42743Y28352D01*
X42754Y28390D01*
X42766Y28425D01*
Y28429D01*
X42770Y28433D01*
X42777Y28456D01*
X42797Y28486D01*
X42823Y28525D01*
X42854Y28571D01*
X42897Y28617D01*
X42946Y28663D01*
X43008Y28705D01*
X43016Y28709D01*
X43039Y28721D01*
X43073Y28740D01*
X43119Y28759D01*
X43177Y28778D01*
X43242Y28798D01*
X43311Y28809D01*
X43388Y28813D01*
X43392D01*
X43400D01*
X43415D01*
X43434Y28809D01*
X43457D01*
X43484Y28805D01*
X43545Y28790D01*
X43618Y28771D01*
X43691Y28740D01*
X43768Y28694D01*
X43807Y28667D01*
X43841Y28636D01*
X43849Y28629D01*
X43856Y28617D01*
X43872Y28605D01*
X43883Y28586D01*
X43903Y28563D01*
X43918Y28536D01*
X43937Y28506D01*
X43956Y28471D01*
X43975Y28429D01*
X43995Y28387D01*
X44014Y28337D01*
X44033Y28287D01*
X44049Y28229D01*
X44060Y28168D01*
X44071Y28102D01*
X44075Y28110D01*
X44083Y28126D01*
X44095Y28148D01*
X44110Y28175D01*
X44152Y28241D01*
X44175Y28275D01*
X44198Y28302D01*
X44206Y28310D01*
X44221Y28329D01*
X44252Y28356D01*
X44290Y28390D01*
X44340Y28433D01*
X44398Y28479D01*
X44463Y28529D01*
X44536Y28579D01*
X45220Y29016D01*
Y28598D01*
D02*
G37*
G36*
X26243Y37555D02*
X26267D01*
X26328Y37547D01*
X26393Y37532D01*
X26470Y37516D01*
X26547Y37490D01*
X26624Y37455D01*
X26627D01*
X26631Y37451D01*
X26643Y37444D01*
X26658Y37436D01*
X26693Y37413D01*
X26739Y37382D01*
X26789Y37340D01*
X26839Y37290D01*
X26889Y37236D01*
X26935Y37171D01*
X26939Y37163D01*
X26950Y37140D01*
X26969Y37102D01*
X26989Y37056D01*
X27008Y36994D01*
X27027Y36925D01*
X27038Y36848D01*
X27042Y36768D01*
Y36752D01*
X27038Y36729D01*
Y36702D01*
X27035Y36672D01*
X27027Y36633D01*
X27019Y36591D01*
X27008Y36545D01*
X26992Y36495D01*
X26973Y36441D01*
X26950Y36391D01*
X26923Y36338D01*
X26889Y36284D01*
X26850Y36230D01*
X26808Y36180D01*
X26758Y36134D01*
X26754Y36130D01*
X26743Y36123D01*
X26727Y36111D01*
X26704Y36096D01*
X26674Y36077D01*
X26635Y36057D01*
X26589Y36034D01*
X26535Y36015D01*
X26474Y35992D01*
X26405Y35969D01*
X26328Y35950D01*
X26243Y35931D01*
X26151Y35915D01*
X26048Y35904D01*
X25940Y35896D01*
X25821Y35892D01*
X25817D01*
X25813D01*
X25802D01*
X25790D01*
X25752D01*
X25702Y35896D01*
X25641Y35900D01*
X25572Y35908D01*
X25495Y35915D01*
X25414Y35927D01*
X25326Y35938D01*
X25237Y35958D01*
X25149Y35980D01*
X25065Y36007D01*
X24976Y36038D01*
X24900Y36073D01*
X24823Y36115D01*
X24757Y36161D01*
X24754Y36165D01*
X24746Y36173D01*
X24731Y36184D01*
X24711Y36203D01*
X24688Y36230D01*
X24665Y36257D01*
X24638Y36292D01*
X24611Y36330D01*
X24585Y36372D01*
X24558Y36422D01*
X24535Y36472D01*
X24512Y36530D01*
X24493Y36591D01*
X24477Y36656D01*
X24469Y36726D01*
X24466Y36799D01*
Y36825D01*
X24469Y36848D01*
Y36871D01*
X24473Y36902D01*
X24485Y36971D01*
X24508Y37048D01*
X24539Y37129D01*
X24577Y37209D01*
X24604Y37248D01*
X24635Y37286D01*
Y37290D01*
X24642Y37294D01*
X24665Y37317D01*
X24704Y37348D01*
X24754Y37386D01*
X24819Y37428D01*
X24896Y37463D01*
X24988Y37497D01*
X25091Y37516D01*
X25115Y37209D01*
X25111D01*
X25107D01*
X25084Y37202D01*
X25053Y37190D01*
X25015Y37179D01*
X24926Y37140D01*
X24888Y37117D01*
X24853Y37090D01*
X24846Y37086D01*
X24830Y37067D01*
X24811Y37040D01*
X24784Y37006D01*
X24761Y36960D01*
X24738Y36906D01*
X24723Y36845D01*
X24719Y36779D01*
Y36752D01*
X24723Y36726D01*
X24731Y36691D01*
X24738Y36649D01*
X24754Y36603D01*
X24777Y36560D01*
X24803Y36514D01*
X24807Y36507D01*
X24823Y36491D01*
X24850Y36464D01*
X24884Y36434D01*
X24926Y36395D01*
X24980Y36357D01*
X25045Y36318D01*
X25118Y36284D01*
X25122D01*
X25126Y36280D01*
X25141Y36276D01*
X25157Y36272D01*
X25176Y36265D01*
X25203Y36257D01*
X25234Y36249D01*
X25268Y36242D01*
X25307Y36234D01*
X25349Y36226D01*
X25399Y36219D01*
X25449Y36211D01*
X25506Y36207D01*
X25568Y36203D01*
X25633Y36199D01*
X25698D01*
X25694Y36203D01*
X25675Y36219D01*
X25644Y36242D01*
X25606Y36276D01*
X25564Y36315D01*
X25522Y36361D01*
X25483Y36415D01*
X25449Y36472D01*
X25445Y36480D01*
X25437Y36499D01*
X25422Y36533D01*
X25406Y36576D01*
X25391Y36626D01*
X25376Y36683D01*
X25368Y36745D01*
X25364Y36810D01*
Y36841D01*
X25368Y36864D01*
X25372Y36891D01*
X25376Y36921D01*
X25391Y36994D01*
X25422Y37075D01*
X25437Y37121D01*
X25460Y37163D01*
X25487Y37209D01*
X25518Y37255D01*
X25552Y37298D01*
X25595Y37340D01*
X25598Y37344D01*
X25606Y37348D01*
X25618Y37359D01*
X25637Y37374D01*
X25660Y37390D01*
X25687Y37409D01*
X25717Y37428D01*
X25752Y37451D01*
X25794Y37470D01*
X25837Y37490D01*
X25886Y37509D01*
X25936Y37524D01*
X25994Y37540D01*
X26052Y37551D01*
X26117Y37555D01*
X26182Y37559D01*
X26186D01*
X26194D01*
X26205D01*
X26221D01*
X26243Y37555D01*
D02*
G37*
G36*
X27000Y35297D02*
X26478Y34963D01*
X26474D01*
X26466Y34955D01*
X26455Y34948D01*
X26439Y34940D01*
X26401Y34913D01*
X26351Y34879D01*
X26293Y34840D01*
X26236Y34798D01*
X26182Y34759D01*
X26132Y34721D01*
X26128Y34717D01*
X26113Y34706D01*
X26090Y34686D01*
X26063Y34667D01*
X26009Y34610D01*
X25982Y34583D01*
X25963Y34552D01*
X25959Y34548D01*
X25956Y34541D01*
X25948Y34525D01*
X25936Y34506D01*
X25913Y34460D01*
X25894Y34402D01*
Y34398D01*
X25890Y34391D01*
Y34375D01*
X25886Y34356D01*
X25883Y34329D01*
Y34299D01*
X25879Y34260D01*
Y33830D01*
X27000D01*
Y33496D01*
X24477D01*
Y34667D01*
X24481Y34698D01*
Y34729D01*
X24485Y34806D01*
X24493Y34886D01*
X24508Y34971D01*
X24523Y35051D01*
X24535Y35090D01*
X24546Y35124D01*
Y35128D01*
X24550Y35132D01*
X24558Y35155D01*
X24577Y35186D01*
X24604Y35224D01*
X24635Y35270D01*
X24677Y35316D01*
X24727Y35362D01*
X24788Y35405D01*
X24796Y35408D01*
X24819Y35420D01*
X24853Y35439D01*
X24900Y35458D01*
X24957Y35478D01*
X25022Y35497D01*
X25091Y35508D01*
X25168Y35512D01*
X25172D01*
X25180D01*
X25195D01*
X25214Y35508D01*
X25237D01*
X25264Y35504D01*
X25326Y35489D01*
X25399Y35470D01*
X25472Y35439D01*
X25548Y35393D01*
X25587Y35366D01*
X25621Y35335D01*
X25629Y35328D01*
X25637Y35316D01*
X25652Y35305D01*
X25664Y35285D01*
X25683Y35263D01*
X25698Y35236D01*
X25717Y35205D01*
X25737Y35170D01*
X25756Y35128D01*
X25775Y35086D01*
X25794Y35036D01*
X25813Y34986D01*
X25829Y34928D01*
X25840Y34867D01*
X25852Y34802D01*
X25856Y34809D01*
X25863Y34825D01*
X25875Y34848D01*
X25890Y34875D01*
X25932Y34940D01*
X25956Y34975D01*
X25979Y35001D01*
X25986Y35009D01*
X26002Y35028D01*
X26032Y35055D01*
X26071Y35090D01*
X26121Y35132D01*
X26178Y35178D01*
X26243Y35228D01*
X26316Y35278D01*
X27000Y35716D01*
Y35297D01*
D02*
G37*
G36*
X26205Y45111D02*
X26236Y45107D01*
X26270Y45103D01*
X26309Y45099D01*
X26351Y45092D01*
X26443Y45065D01*
X26539Y45030D01*
X26593Y45007D01*
X26643Y44980D01*
X26693Y44949D01*
X26739Y44915D01*
X26743Y44911D01*
X26750Y44903D01*
X26766Y44888D01*
X26785Y44869D01*
X26808Y44846D01*
X26835Y44815D01*
X26862Y44780D01*
X26889Y44738D01*
X26919Y44696D01*
X26946Y44646D01*
X26973Y44589D01*
X26996Y44531D01*
X27015Y44466D01*
X27031Y44400D01*
X27038Y44327D01*
X27042Y44251D01*
Y44216D01*
X27038Y44193D01*
X27035Y44166D01*
X27031Y44132D01*
X27027Y44093D01*
X27019Y44051D01*
X26996Y43963D01*
X26962Y43870D01*
X26939Y43824D01*
X26912Y43778D01*
X26885Y43732D01*
X26850Y43690D01*
X26846Y43686D01*
X26843Y43682D01*
X26831Y43671D01*
X26816Y43655D01*
X26796Y43640D01*
X26773Y43621D01*
X26747Y43602D01*
X26716Y43579D01*
X26643Y43536D01*
X26555Y43494D01*
X26455Y43463D01*
X26397Y43452D01*
X26340Y43444D01*
X26316Y43771D01*
X26320D01*
X26328D01*
X26340Y43774D01*
X26355Y43778D01*
X26397Y43790D01*
X26451Y43805D01*
X26509Y43824D01*
X26566Y43855D01*
X26624Y43890D01*
X26674Y43936D01*
X26677Y43943D01*
X26693Y43959D01*
X26708Y43986D01*
X26731Y44024D01*
X26750Y44070D01*
X26770Y44124D01*
X26785Y44185D01*
X26789Y44251D01*
Y44274D01*
X26785Y44289D01*
X26781Y44331D01*
X26770Y44385D01*
X26747Y44443D01*
X26720Y44508D01*
X26677Y44569D01*
X26654Y44600D01*
X26624Y44631D01*
X26620D01*
X26616Y44638D01*
X26593Y44654D01*
X26555Y44681D01*
X26505Y44708D01*
X26439Y44734D01*
X26363Y44761D01*
X26274Y44777D01*
X26174Y44784D01*
X26171D01*
X26163D01*
X26147D01*
X26132Y44780D01*
X26109D01*
X26082Y44777D01*
X26021Y44765D01*
X25956Y44750D01*
X25886Y44723D01*
X25817Y44684D01*
X25756Y44635D01*
X25748Y44627D01*
X25733Y44608D01*
X25706Y44577D01*
X25679Y44531D01*
X25652Y44477D01*
X25625Y44408D01*
X25610Y44331D01*
X25602Y44247D01*
Y44220D01*
X25606Y44193D01*
X25610Y44155D01*
X25621Y44112D01*
X25633Y44066D01*
X25652Y44020D01*
X25675Y43974D01*
X25679Y43970D01*
X25687Y43955D01*
X25702Y43932D01*
X25721Y43905D01*
X25748Y43878D01*
X25779Y43847D01*
X25813Y43817D01*
X25852Y43790D01*
X25810Y43498D01*
X24516Y43744D01*
Y44996D01*
X24811D01*
Y43990D01*
X25491Y43851D01*
X25487Y43855D01*
X25483Y43863D01*
X25475Y43874D01*
X25464Y43890D01*
X25453Y43913D01*
X25441Y43936D01*
X25410Y43997D01*
X25379Y44066D01*
X25357Y44147D01*
X25337Y44235D01*
X25330Y44327D01*
Y44358D01*
X25333Y44381D01*
X25337Y44412D01*
X25341Y44443D01*
X25349Y44481D01*
X25357Y44519D01*
X25387Y44608D01*
X25403Y44654D01*
X25426Y44700D01*
X25453Y44750D01*
X25483Y44796D01*
X25518Y44842D01*
X25560Y44884D01*
X25564Y44888D01*
X25572Y44896D01*
X25583Y44907D01*
X25602Y44919D01*
X25625Y44938D01*
X25652Y44957D01*
X25683Y44976D01*
X25717Y44999D01*
X25760Y45022D01*
X25802Y45042D01*
X25852Y45061D01*
X25902Y45080D01*
X25959Y45092D01*
X26017Y45103D01*
X26082Y45111D01*
X26147Y45115D01*
X26151D01*
X26163D01*
X26182D01*
X26205Y45111D01*
D02*
G37*
G36*
X27000Y42834D02*
X26478Y42500D01*
X26474D01*
X26466Y42492D01*
X26455Y42484D01*
X26439Y42476D01*
X26401Y42450D01*
X26351Y42415D01*
X26293Y42377D01*
X26236Y42334D01*
X26182Y42296D01*
X26132Y42258D01*
X26128Y42254D01*
X26113Y42242D01*
X26090Y42223D01*
X26063Y42204D01*
X26009Y42146D01*
X25982Y42119D01*
X25963Y42089D01*
X25959Y42085D01*
X25956Y42077D01*
X25948Y42062D01*
X25936Y42043D01*
X25913Y41996D01*
X25894Y41939D01*
Y41935D01*
X25890Y41927D01*
Y41912D01*
X25886Y41893D01*
X25883Y41866D01*
Y41835D01*
X25879Y41797D01*
Y41367D01*
X27000D01*
Y41033D01*
X24477D01*
Y42204D01*
X24481Y42235D01*
Y42265D01*
X24485Y42342D01*
X24493Y42423D01*
X24508Y42507D01*
X24523Y42588D01*
X24535Y42626D01*
X24546Y42661D01*
Y42665D01*
X24550Y42669D01*
X24558Y42692D01*
X24577Y42722D01*
X24604Y42761D01*
X24635Y42807D01*
X24677Y42853D01*
X24727Y42899D01*
X24788Y42941D01*
X24796Y42945D01*
X24819Y42957D01*
X24853Y42976D01*
X24900Y42995D01*
X24957Y43014D01*
X25022Y43033D01*
X25091Y43045D01*
X25168Y43049D01*
X25172D01*
X25180D01*
X25195D01*
X25214Y43045D01*
X25237D01*
X25264Y43041D01*
X25326Y43026D01*
X25399Y43006D01*
X25472Y42976D01*
X25548Y42930D01*
X25587Y42903D01*
X25621Y42872D01*
X25629Y42864D01*
X25637Y42853D01*
X25652Y42841D01*
X25664Y42822D01*
X25683Y42799D01*
X25698Y42772D01*
X25717Y42742D01*
X25737Y42707D01*
X25756Y42665D01*
X25775Y42622D01*
X25794Y42573D01*
X25813Y42523D01*
X25829Y42465D01*
X25840Y42404D01*
X25852Y42338D01*
X25856Y42346D01*
X25863Y42361D01*
X25875Y42384D01*
X25890Y42411D01*
X25932Y42476D01*
X25956Y42511D01*
X25979Y42538D01*
X25986Y42546D01*
X26002Y42565D01*
X26032Y42592D01*
X26071Y42626D01*
X26121Y42669D01*
X26178Y42715D01*
X26243Y42764D01*
X26316Y42814D01*
X27000Y43252D01*
Y42834D01*
D02*
G37*
G36*
X26397Y53120D02*
X27000D01*
Y52809D01*
X26397D01*
Y51714D01*
X26113D01*
X24481Y52867D01*
Y53120D01*
X26113D01*
Y53462D01*
X26397D01*
Y53120D01*
D02*
G37*
G36*
X27000Y51208D02*
X26478Y50874D01*
X26474D01*
X26466Y50866D01*
X26455Y50858D01*
X26439Y50850D01*
X26401Y50824D01*
X26351Y50789D01*
X26293Y50751D01*
X26236Y50708D01*
X26182Y50670D01*
X26132Y50632D01*
X26128Y50628D01*
X26113Y50616D01*
X26090Y50597D01*
X26063Y50578D01*
X26009Y50520D01*
X25982Y50493D01*
X25963Y50463D01*
X25959Y50459D01*
X25956Y50451D01*
X25948Y50436D01*
X25936Y50417D01*
X25913Y50371D01*
X25894Y50313D01*
Y50309D01*
X25890Y50301D01*
Y50286D01*
X25886Y50267D01*
X25883Y50240D01*
Y50209D01*
X25879Y50171D01*
Y49741D01*
X27000D01*
Y49407D01*
X24477D01*
Y50578D01*
X24481Y50609D01*
Y50639D01*
X24485Y50716D01*
X24493Y50797D01*
X24508Y50881D01*
X24523Y50962D01*
X24535Y51000D01*
X24546Y51035D01*
Y51039D01*
X24550Y51042D01*
X24558Y51066D01*
X24577Y51096D01*
X24604Y51135D01*
X24635Y51181D01*
X24677Y51227D01*
X24727Y51273D01*
X24788Y51315D01*
X24796Y51319D01*
X24819Y51331D01*
X24853Y51350D01*
X24900Y51369D01*
X24957Y51388D01*
X25022Y51407D01*
X25091Y51419D01*
X25168Y51423D01*
X25172D01*
X25180D01*
X25195D01*
X25214Y51419D01*
X25237D01*
X25264Y51415D01*
X25326Y51400D01*
X25399Y51380D01*
X25472Y51350D01*
X25548Y51304D01*
X25587Y51277D01*
X25621Y51246D01*
X25629Y51238D01*
X25637Y51227D01*
X25652Y51215D01*
X25664Y51196D01*
X25683Y51173D01*
X25698Y51146D01*
X25717Y51116D01*
X25737Y51081D01*
X25756Y51039D01*
X25775Y50996D01*
X25794Y50946D01*
X25813Y50897D01*
X25829Y50839D01*
X25840Y50778D01*
X25852Y50712D01*
X25856Y50720D01*
X25863Y50735D01*
X25875Y50758D01*
X25890Y50785D01*
X25932Y50850D01*
X25956Y50885D01*
X25979Y50912D01*
X25986Y50920D01*
X26002Y50939D01*
X26032Y50966D01*
X26071Y51000D01*
X26121Y51042D01*
X26178Y51089D01*
X26243Y51139D01*
X26316Y51188D01*
X27000Y51626D01*
Y51208D01*
D02*
G37*
G36*
X44528Y38392D02*
X44559Y38388D01*
X44590Y38385D01*
X44628Y38377D01*
X44667Y38366D01*
X44755Y38339D01*
X44805Y38319D01*
X44851Y38293D01*
X44897Y38266D01*
X44943Y38235D01*
X44989Y38197D01*
X45035Y38154D01*
X45039Y38150D01*
X45047Y38143D01*
X45055Y38131D01*
X45070Y38112D01*
X45089Y38089D01*
X45108Y38058D01*
X45127Y38024D01*
X45147Y37989D01*
X45170Y37947D01*
X45189Y37901D01*
X45208Y37851D01*
X45227Y37797D01*
X45243Y37740D01*
X45250Y37678D01*
X45258Y37613D01*
X45262Y37547D01*
Y37517D01*
X45258Y37494D01*
X45254Y37463D01*
X45250Y37432D01*
X45247Y37394D01*
X45239Y37356D01*
X45216Y37267D01*
X45177Y37175D01*
X45158Y37129D01*
X45131Y37087D01*
X45101Y37041D01*
X45066Y36998D01*
X45062Y36995D01*
X45058Y36991D01*
X45047Y36979D01*
X45031Y36964D01*
X45009Y36948D01*
X44985Y36929D01*
X44959Y36906D01*
X44928Y36887D01*
X44851Y36841D01*
X44763Y36803D01*
X44663Y36768D01*
X44609Y36757D01*
X44552Y36749D01*
X44509Y37060D01*
X44513D01*
X44521Y37064D01*
X44536D01*
X44552Y37071D01*
X44598Y37083D01*
X44655Y37102D01*
X44717Y37125D01*
X44782Y37156D01*
X44840Y37194D01*
X44889Y37236D01*
X44893Y37244D01*
X44909Y37260D01*
X44924Y37286D01*
X44947Y37325D01*
X44966Y37367D01*
X44985Y37421D01*
X45001Y37482D01*
X45005Y37547D01*
Y37571D01*
X45001Y37586D01*
X44997Y37624D01*
X44985Y37674D01*
X44966Y37736D01*
X44943Y37797D01*
X44905Y37859D01*
X44855Y37916D01*
X44847Y37924D01*
X44828Y37939D01*
X44797Y37962D01*
X44751Y37993D01*
X44697Y38020D01*
X44632Y38043D01*
X44559Y38058D01*
X44479Y38066D01*
X44475D01*
X44471D01*
X44459D01*
X44444Y38062D01*
X44406Y38058D01*
X44356Y38047D01*
X44302Y38031D01*
X44240Y38004D01*
X44183Y37970D01*
X44129Y37924D01*
X44121Y37916D01*
X44106Y37901D01*
X44087Y37870D01*
X44060Y37828D01*
X44033Y37778D01*
X44014Y37716D01*
X43999Y37651D01*
X43991Y37574D01*
Y37540D01*
X43995Y37513D01*
X43999Y37482D01*
X44002Y37444D01*
X44010Y37402D01*
X44022Y37356D01*
X43749Y37390D01*
Y37409D01*
X43753Y37425D01*
Y37475D01*
X43749Y37509D01*
X43741Y37559D01*
X43730Y37613D01*
X43711Y37670D01*
X43687Y37732D01*
X43653Y37793D01*
X43649Y37801D01*
X43634Y37820D01*
X43607Y37843D01*
X43572Y37874D01*
X43530Y37905D01*
X43476Y37928D01*
X43411Y37947D01*
X43334Y37955D01*
X43330D01*
X43327D01*
X43307D01*
X43277Y37947D01*
X43234Y37939D01*
X43192Y37928D01*
X43146Y37905D01*
X43096Y37878D01*
X43054Y37839D01*
X43050Y37835D01*
X43035Y37820D01*
X43016Y37793D01*
X42996Y37759D01*
X42973Y37716D01*
X42958Y37667D01*
X42943Y37609D01*
X42939Y37544D01*
Y37513D01*
X42946Y37478D01*
X42954Y37440D01*
X42966Y37390D01*
X42989Y37340D01*
X43016Y37290D01*
X43054Y37240D01*
X43058Y37236D01*
X43073Y37221D01*
X43100Y37202D01*
X43138Y37179D01*
X43185Y37152D01*
X43242Y37129D01*
X43311Y37106D01*
X43392Y37091D01*
X43338Y36779D01*
X43334D01*
X43323Y36783D01*
X43307Y36787D01*
X43288Y36791D01*
X43261Y36799D01*
X43231Y36806D01*
X43161Y36833D01*
X43085Y36864D01*
X43004Y36910D01*
X42927Y36964D01*
X42858Y37033D01*
X42854Y37037D01*
X42850Y37041D01*
X42843Y37052D01*
X42831Y37071D01*
X42820Y37091D01*
X42804Y37114D01*
X42770Y37171D01*
X42739Y37244D01*
X42712Y37332D01*
X42693Y37429D01*
X42685Y37482D01*
Y37571D01*
X42689Y37609D01*
X42697Y37659D01*
X42708Y37716D01*
X42724Y37782D01*
X42747Y37847D01*
X42777Y37912D01*
Y37916D01*
X42781Y37920D01*
X42793Y37943D01*
X42812Y37974D01*
X42839Y38012D01*
X42873Y38054D01*
X42916Y38100D01*
X42966Y38143D01*
X43019Y38181D01*
X43027Y38185D01*
X43046Y38197D01*
X43077Y38212D01*
X43115Y38227D01*
X43165Y38243D01*
X43219Y38258D01*
X43277Y38269D01*
X43342Y38273D01*
X43350D01*
X43369D01*
X43400Y38269D01*
X43438Y38262D01*
X43484Y38250D01*
X43534Y38235D01*
X43588Y38216D01*
X43638Y38185D01*
X43645Y38181D01*
X43661Y38170D01*
X43684Y38147D01*
X43714Y38120D01*
X43749Y38081D01*
X43784Y38039D01*
X43822Y37985D01*
X43853Y37924D01*
Y37928D01*
X43856Y37935D01*
Y37947D01*
X43864Y37962D01*
X43876Y38001D01*
X43899Y38051D01*
X43926Y38104D01*
X43964Y38162D01*
X44010Y38219D01*
X44068Y38269D01*
X44075Y38273D01*
X44098Y38289D01*
X44133Y38308D01*
X44179Y38335D01*
X44237Y38358D01*
X44306Y38377D01*
X44386Y38392D01*
X44475Y38396D01*
X44479D01*
X44490D01*
X44506D01*
X44528Y38392D01*
D02*
G37*
G36*
X45220Y36134D02*
X44697Y35800D01*
X44694D01*
X44686Y35793D01*
X44674Y35785D01*
X44659Y35777D01*
X44621Y35750D01*
X44571Y35716D01*
X44513Y35677D01*
X44456Y35635D01*
X44402Y35597D01*
X44352Y35558D01*
X44348Y35555D01*
X44333Y35543D01*
X44310Y35524D01*
X44283Y35505D01*
X44229Y35447D01*
X44202Y35420D01*
X44183Y35390D01*
X44179Y35386D01*
X44175Y35378D01*
X44168Y35363D01*
X44156Y35343D01*
X44133Y35297D01*
X44114Y35240D01*
Y35236D01*
X44110Y35228D01*
Y35213D01*
X44106Y35194D01*
X44102Y35167D01*
Y35136D01*
X44098Y35098D01*
Y34668D01*
X45220D01*
Y34334D01*
X42697D01*
Y35505D01*
X42701Y35535D01*
Y35566D01*
X42704Y35643D01*
X42712Y35724D01*
X42728Y35808D01*
X42743Y35889D01*
X42754Y35927D01*
X42766Y35962D01*
Y35965D01*
X42770Y35969D01*
X42777Y35992D01*
X42797Y36023D01*
X42823Y36061D01*
X42854Y36108D01*
X42897Y36154D01*
X42946Y36200D01*
X43008Y36242D01*
X43016Y36246D01*
X43039Y36257D01*
X43073Y36277D01*
X43119Y36296D01*
X43177Y36315D01*
X43242Y36334D01*
X43311Y36346D01*
X43388Y36349D01*
X43392D01*
X43400D01*
X43415D01*
X43434Y36346D01*
X43457D01*
X43484Y36342D01*
X43545Y36326D01*
X43618Y36307D01*
X43691Y36277D01*
X43768Y36230D01*
X43807Y36204D01*
X43841Y36173D01*
X43849Y36165D01*
X43856Y36154D01*
X43872Y36142D01*
X43883Y36123D01*
X43903Y36100D01*
X43918Y36073D01*
X43937Y36042D01*
X43956Y36008D01*
X43975Y35965D01*
X43995Y35923D01*
X44014Y35873D01*
X44033Y35823D01*
X44049Y35766D01*
X44060Y35704D01*
X44071Y35639D01*
X44075Y35647D01*
X44083Y35662D01*
X44095Y35685D01*
X44110Y35712D01*
X44152Y35777D01*
X44175Y35812D01*
X44198Y35839D01*
X44206Y35846D01*
X44221Y35866D01*
X44252Y35893D01*
X44290Y35927D01*
X44340Y35969D01*
X44398Y36015D01*
X44463Y36065D01*
X44536Y36115D01*
X45220Y36553D01*
Y36134D01*
D02*
G37*
G36*
Y43402D02*
X45216D01*
X45200D01*
X45177D01*
X45151Y43406D01*
X45120Y43410D01*
X45085Y43413D01*
X45047Y43425D01*
X45009Y43437D01*
X45005D01*
X45001Y43440D01*
X44978Y43448D01*
X44947Y43463D01*
X44901Y43486D01*
X44851Y43513D01*
X44793Y43552D01*
X44736Y43590D01*
X44674Y43640D01*
X44671D01*
X44667Y43648D01*
X44644Y43667D01*
X44609Y43698D01*
X44563Y43744D01*
X44509Y43801D01*
X44444Y43870D01*
X44371Y43955D01*
X44290Y44047D01*
X44287Y44051D01*
X44275Y44066D01*
X44260Y44085D01*
X44233Y44112D01*
X44206Y44147D01*
X44171Y44185D01*
X44098Y44270D01*
X44010Y44362D01*
X43922Y44454D01*
X43880Y44500D01*
X43837Y44539D01*
X43795Y44573D01*
X43757Y44604D01*
X43753D01*
X43749Y44612D01*
X43738Y44619D01*
X43722Y44627D01*
X43684Y44650D01*
X43634Y44677D01*
X43576Y44704D01*
X43515Y44727D01*
X43446Y44742D01*
X43380Y44750D01*
X43376D01*
X43373D01*
X43350Y44746D01*
X43315Y44742D01*
X43273Y44734D01*
X43223Y44715D01*
X43173Y44692D01*
X43119Y44662D01*
X43069Y44615D01*
X43065Y44608D01*
X43050Y44592D01*
X43031Y44562D01*
X43004Y44523D01*
X42981Y44473D01*
X42962Y44416D01*
X42946Y44347D01*
X42943Y44270D01*
Y44247D01*
X42946Y44231D01*
X42950Y44193D01*
X42958Y44143D01*
X42977Y44085D01*
X43000Y44024D01*
X43035Y43966D01*
X43081Y43913D01*
X43088Y43909D01*
X43104Y43894D01*
X43135Y43870D01*
X43177Y43847D01*
X43231Y43821D01*
X43292Y43801D01*
X43365Y43786D01*
X43450Y43778D01*
X43415Y43460D01*
X43411D01*
X43400D01*
X43380Y43463D01*
X43357Y43467D01*
X43327Y43475D01*
X43292Y43479D01*
X43215Y43502D01*
X43127Y43532D01*
X43039Y43575D01*
X42950Y43632D01*
X42912Y43663D01*
X42873Y43701D01*
X42870Y43705D01*
X42866Y43713D01*
X42854Y43725D01*
X42843Y43740D01*
X42831Y43763D01*
X42812Y43790D01*
X42797Y43821D01*
X42777Y43855D01*
X42762Y43894D01*
X42743Y43936D01*
X42728Y43986D01*
X42716Y44036D01*
X42693Y44151D01*
X42689Y44212D01*
X42685Y44278D01*
Y44312D01*
X42689Y44339D01*
X42693Y44370D01*
X42697Y44404D01*
X42701Y44443D01*
X42712Y44485D01*
X42735Y44577D01*
X42770Y44673D01*
X42793Y44723D01*
X42820Y44769D01*
X42854Y44811D01*
X42889Y44853D01*
X42893Y44857D01*
X42897Y44861D01*
X42908Y44873D01*
X42923Y44888D01*
X42946Y44903D01*
X42970Y44923D01*
X43027Y44961D01*
X43100Y44999D01*
X43185Y45034D01*
X43281Y45061D01*
X43334Y45065D01*
X43388Y45068D01*
X43396D01*
X43415D01*
X43446Y45065D01*
X43484Y45061D01*
X43530Y45053D01*
X43580Y45042D01*
X43634Y45026D01*
X43687Y45003D01*
X43695Y44999D01*
X43714Y44992D01*
X43741Y44976D01*
X43780Y44953D01*
X43826Y44926D01*
X43880Y44892D01*
X43933Y44846D01*
X43995Y44796D01*
X44002Y44788D01*
X44025Y44769D01*
X44060Y44734D01*
X44083Y44711D01*
X44110Y44684D01*
X44141Y44654D01*
X44175Y44615D01*
X44210Y44577D01*
X44252Y44535D01*
X44294Y44489D01*
X44340Y44435D01*
X44386Y44381D01*
X44440Y44320D01*
X44444Y44316D01*
X44452Y44308D01*
X44463Y44293D01*
X44479Y44274D01*
X44517Y44228D01*
X44567Y44170D01*
X44621Y44112D01*
X44674Y44051D01*
X44721Y44001D01*
X44740Y43982D01*
X44759Y43963D01*
X44763Y43959D01*
X44774Y43951D01*
X44790Y43936D01*
X44813Y43916D01*
X44863Y43874D01*
X44924Y43832D01*
Y45072D01*
X45220D01*
Y43402D01*
D02*
G37*
G36*
Y42834D02*
X44697Y42500D01*
X44694D01*
X44686Y42492D01*
X44674Y42484D01*
X44659Y42476D01*
X44621Y42450D01*
X44571Y42415D01*
X44513Y42377D01*
X44456Y42334D01*
X44402Y42296D01*
X44352Y42258D01*
X44348Y42254D01*
X44333Y42242D01*
X44310Y42223D01*
X44283Y42204D01*
X44229Y42146D01*
X44202Y42119D01*
X44183Y42089D01*
X44179Y42085D01*
X44175Y42077D01*
X44168Y42062D01*
X44156Y42043D01*
X44133Y41996D01*
X44114Y41939D01*
Y41935D01*
X44110Y41927D01*
Y41912D01*
X44106Y41893D01*
X44102Y41866D01*
Y41835D01*
X44098Y41797D01*
Y41367D01*
X45220D01*
Y41033D01*
X42697D01*
Y42204D01*
X42701Y42235D01*
Y42265D01*
X42704Y42342D01*
X42712Y42423D01*
X42728Y42507D01*
X42743Y42588D01*
X42754Y42626D01*
X42766Y42661D01*
Y42665D01*
X42770Y42669D01*
X42777Y42692D01*
X42797Y42722D01*
X42823Y42761D01*
X42854Y42807D01*
X42897Y42853D01*
X42946Y42899D01*
X43008Y42941D01*
X43016Y42945D01*
X43039Y42957D01*
X43073Y42976D01*
X43119Y42995D01*
X43177Y43014D01*
X43242Y43033D01*
X43311Y43045D01*
X43388Y43049D01*
X43392D01*
X43400D01*
X43415D01*
X43434Y43045D01*
X43457D01*
X43484Y43041D01*
X43545Y43026D01*
X43618Y43006D01*
X43691Y42976D01*
X43768Y42930D01*
X43807Y42903D01*
X43841Y42872D01*
X43849Y42864D01*
X43856Y42853D01*
X43872Y42841D01*
X43883Y42822D01*
X43903Y42799D01*
X43918Y42772D01*
X43937Y42742D01*
X43956Y42707D01*
X43975Y42665D01*
X43995Y42622D01*
X44014Y42573D01*
X44033Y42523D01*
X44049Y42465D01*
X44060Y42404D01*
X44071Y42338D01*
X44075Y42346D01*
X44083Y42361D01*
X44095Y42384D01*
X44110Y42411D01*
X44152Y42476D01*
X44175Y42511D01*
X44198Y42538D01*
X44206Y42546D01*
X44221Y42565D01*
X44252Y42592D01*
X44290Y42626D01*
X44340Y42669D01*
X44398Y42715D01*
X44463Y42764D01*
X44536Y42814D01*
X45220Y43252D01*
Y42834D01*
D02*
G37*
G36*
X45008Y53512D02*
X43035D01*
X43038Y53508D01*
X43054Y53493D01*
X43073Y53466D01*
X43100Y53431D01*
X43134Y53389D01*
X43169Y53339D01*
X43211Y53281D01*
X43250Y53216D01*
Y53212D01*
X43253Y53209D01*
X43269Y53185D01*
X43288Y53151D01*
X43311Y53109D01*
X43338Y53059D01*
X43361Y53005D01*
X43388Y52947D01*
X43411Y52894D01*
X43108D01*
Y52898D01*
X43104Y52905D01*
X43096Y52921D01*
X43085Y52936D01*
X43073Y52959D01*
X43062Y52986D01*
X43027Y53047D01*
X42985Y53116D01*
X42935Y53193D01*
X42877Y53270D01*
X42816Y53343D01*
X42812Y53347D01*
X42808Y53351D01*
X42785Y53374D01*
X42750Y53408D01*
X42708Y53451D01*
X42654Y53497D01*
X42597Y53543D01*
X42535Y53585D01*
X42474Y53619D01*
Y53823D01*
X45008D01*
Y53512D01*
D02*
G37*
G36*
Y52045D02*
X44486Y51711D01*
X44482D01*
X44475Y51703D01*
X44463Y51696D01*
X44448Y51688D01*
X44409Y51661D01*
X44359Y51626D01*
X44302Y51588D01*
X44244Y51546D01*
X44190Y51507D01*
X44141Y51469D01*
X44137Y51465D01*
X44121Y51454D01*
X44098Y51434D01*
X44071Y51415D01*
X44018Y51358D01*
X43991Y51331D01*
X43972Y51300D01*
X43968Y51296D01*
X43964Y51289D01*
X43956Y51273D01*
X43945Y51254D01*
X43922Y51208D01*
X43903Y51150D01*
Y51147D01*
X43899Y51139D01*
Y51123D01*
X43895Y51104D01*
X43891Y51077D01*
Y51047D01*
X43887Y51008D01*
Y50578D01*
X45008D01*
Y50244D01*
X42485D01*
Y51415D01*
X42489Y51446D01*
Y51477D01*
X42493Y51553D01*
X42501Y51634D01*
X42516Y51719D01*
X42532Y51799D01*
X42543Y51838D01*
X42555Y51872D01*
Y51876D01*
X42559Y51880D01*
X42566Y51903D01*
X42585Y51934D01*
X42612Y51972D01*
X42643Y52018D01*
X42685Y52064D01*
X42735Y52110D01*
X42797Y52153D01*
X42804Y52156D01*
X42827Y52168D01*
X42862Y52187D01*
X42908Y52206D01*
X42965Y52226D01*
X43031Y52245D01*
X43100Y52256D01*
X43177Y52260D01*
X43181D01*
X43188D01*
X43204D01*
X43223Y52256D01*
X43246D01*
X43273Y52252D01*
X43334Y52237D01*
X43407Y52218D01*
X43480Y52187D01*
X43557Y52141D01*
X43595Y52114D01*
X43630Y52083D01*
X43637Y52076D01*
X43645Y52064D01*
X43661Y52053D01*
X43672Y52034D01*
X43691Y52011D01*
X43707Y51984D01*
X43726Y51953D01*
X43745Y51918D01*
X43764Y51876D01*
X43783Y51834D01*
X43803Y51784D01*
X43822Y51734D01*
X43837Y51676D01*
X43849Y51615D01*
X43860Y51550D01*
X43864Y51557D01*
X43872Y51573D01*
X43883Y51596D01*
X43899Y51623D01*
X43941Y51688D01*
X43964Y51723D01*
X43987Y51749D01*
X43995Y51757D01*
X44010Y51776D01*
X44041Y51803D01*
X44079Y51838D01*
X44129Y51880D01*
X44187Y51926D01*
X44252Y51976D01*
X44325Y52026D01*
X45008Y52464D01*
Y52045D01*
D02*
G37*
G36*
X36342Y24392D02*
X34368D01*
X34372Y24388D01*
X34387Y24373D01*
X34406Y24346D01*
X34433Y24312D01*
X34468Y24270D01*
X34502Y24220D01*
X34545Y24162D01*
X34583Y24097D01*
Y24093D01*
X34587Y24089D01*
X34602Y24066D01*
X34621Y24031D01*
X34644Y23989D01*
X34671Y23939D01*
X34694Y23886D01*
X34721Y23828D01*
X34744Y23774D01*
X34441D01*
Y23778D01*
X34437Y23786D01*
X34429Y23801D01*
X34418Y23816D01*
X34406Y23839D01*
X34395Y23866D01*
X34360Y23928D01*
X34318Y23997D01*
X34268Y24074D01*
X34211Y24150D01*
X34149Y24223D01*
X34145Y24227D01*
X34141Y24231D01*
X34118Y24254D01*
X34084Y24289D01*
X34042Y24331D01*
X33988Y24377D01*
X33930Y24423D01*
X33869Y24465D01*
X33807Y24500D01*
Y24703D01*
X36342D01*
Y24392D01*
D02*
G37*
G36*
X35140Y23198D02*
X35171D01*
X35240Y23194D01*
X35317Y23187D01*
X35405Y23171D01*
X35493Y23156D01*
X35578Y23133D01*
X35581D01*
X35589Y23129D01*
X35601Y23125D01*
X35616Y23121D01*
X35654Y23106D01*
X35708Y23087D01*
X35766Y23064D01*
X35827Y23033D01*
X35889Y22998D01*
X35946Y22960D01*
X35954Y22956D01*
X35969Y22941D01*
X35996Y22922D01*
X36031Y22891D01*
X36065Y22860D01*
X36104Y22818D01*
X36142Y22776D01*
X36177Y22730D01*
X36180Y22726D01*
X36188Y22707D01*
X36204Y22680D01*
X36223Y22645D01*
X36242Y22603D01*
X36261Y22553D01*
X36280Y22495D01*
X36299Y22430D01*
Y22422D01*
X36307Y22399D01*
X36311Y22365D01*
X36319Y22315D01*
X36326Y22257D01*
X36334Y22188D01*
X36338Y22111D01*
X36342Y22027D01*
Y21121D01*
X33819D01*
Y22088D01*
X33823Y22154D01*
X33827Y22223D01*
X33834Y22300D01*
X33846Y22373D01*
X33857Y22434D01*
Y22438D01*
X33861Y22445D01*
Y22453D01*
X33869Y22468D01*
X33880Y22511D01*
X33900Y22561D01*
X33922Y22618D01*
X33953Y22680D01*
X33992Y22741D01*
X34038Y22803D01*
Y22806D01*
X34045Y22810D01*
X34069Y22837D01*
X34107Y22872D01*
X34157Y22914D01*
X34218Y22964D01*
X34291Y23014D01*
X34376Y23060D01*
X34472Y23102D01*
X34475D01*
X34483Y23106D01*
X34499Y23110D01*
X34518Y23118D01*
X34541Y23125D01*
X34571Y23133D01*
X34606Y23144D01*
X34644Y23152D01*
X34687Y23160D01*
X34733Y23171D01*
X34833Y23187D01*
X34944Y23198D01*
X35067Y23202D01*
X35071D01*
X35078D01*
X35094D01*
X35117D01*
X35140Y23198D01*
D02*
G37*
G36*
X36342Y18778D02*
X33819D01*
Y20602D01*
X34115D01*
Y19112D01*
X34890D01*
Y20506D01*
X35186D01*
Y19112D01*
X36046D01*
Y20660D01*
X36342D01*
Y18778D01*
D02*
G37*
G36*
Y16797D02*
X33819D01*
Y17131D01*
X36046D01*
Y18371D01*
X36342D01*
Y16797D01*
D02*
G37*
G36*
X64480Y11368D02*
X62506D01*
X62510Y11364D01*
X62525Y11349D01*
X62545Y11322D01*
X62571Y11287D01*
X62606Y11245D01*
X62641Y11195D01*
X62683Y11137D01*
X62721Y11072D01*
Y11068D01*
X62725Y11064D01*
X62740Y11041D01*
X62760Y11007D01*
X62783Y10965D01*
X62809Y10915D01*
X62833Y10861D01*
X62859Y10803D01*
X62883Y10749D01*
X62579D01*
Y10753D01*
X62575Y10761D01*
X62568Y10776D01*
X62556Y10792D01*
X62545Y10815D01*
X62533Y10842D01*
X62498Y10903D01*
X62456Y10972D01*
X62406Y11049D01*
X62349Y11126D01*
X62287Y11199D01*
X62283Y11203D01*
X62280Y11206D01*
X62257Y11229D01*
X62222Y11264D01*
X62180Y11306D01*
X62126Y11352D01*
X62068Y11398D01*
X62007Y11441D01*
X61945Y11475D01*
Y11679D01*
X64480D01*
Y11368D01*
D02*
G37*
G36*
X63700Y10223D02*
X63720Y10216D01*
X63750Y10208D01*
X63781Y10193D01*
X63823Y10177D01*
X63866Y10162D01*
X63912Y10139D01*
X64015Y10089D01*
X64119Y10020D01*
X64219Y9943D01*
X64265Y9897D01*
X64307Y9847D01*
X64311Y9843D01*
X64315Y9836D01*
X64326Y9820D01*
X64342Y9797D01*
X64357Y9770D01*
X64376Y9740D01*
X64395Y9705D01*
X64415Y9663D01*
X64434Y9617D01*
X64453Y9567D01*
X64472Y9509D01*
X64488Y9452D01*
X64514Y9325D01*
X64518Y9256D01*
X64522Y9183D01*
Y9144D01*
X64518Y9114D01*
Y9079D01*
X64514Y9041D01*
X64507Y8995D01*
X64503Y8948D01*
X64480Y8841D01*
X64453Y8730D01*
X64411Y8622D01*
X64388Y8568D01*
X64357Y8518D01*
X64353Y8514D01*
X64349Y8507D01*
X64338Y8495D01*
X64326Y8476D01*
X64288Y8430D01*
X64234Y8376D01*
X64169Y8311D01*
X64084Y8250D01*
X63988Y8184D01*
X63877Y8130D01*
X63873D01*
X63862Y8127D01*
X63846Y8119D01*
X63823Y8111D01*
X63793Y8100D01*
X63758Y8088D01*
X63720Y8077D01*
X63674Y8065D01*
X63627Y8054D01*
X63574Y8042D01*
X63459Y8019D01*
X63336Y8004D01*
X63201Y8000D01*
X63197D01*
X63182D01*
X63163D01*
X63136Y8004D01*
X63101D01*
X63059Y8008D01*
X63017Y8011D01*
X62967Y8019D01*
X62859Y8038D01*
X62744Y8061D01*
X62625Y8100D01*
X62514Y8150D01*
X62510D01*
X62502Y8157D01*
X62487Y8165D01*
X62464Y8177D01*
X62441Y8192D01*
X62414Y8211D01*
X62349Y8261D01*
X62276Y8319D01*
X62203Y8392D01*
X62130Y8480D01*
X62068Y8576D01*
Y8580D01*
X62061Y8587D01*
X62053Y8603D01*
X62045Y8626D01*
X62034Y8649D01*
X62019Y8680D01*
X62007Y8718D01*
X61992Y8756D01*
X61976Y8799D01*
X61965Y8845D01*
X61938Y8948D01*
X61923Y9064D01*
X61915Y9187D01*
Y9225D01*
X61919Y9252D01*
X61923Y9283D01*
X61926Y9321D01*
X61930Y9363D01*
X61938Y9409D01*
X61961Y9509D01*
X61995Y9617D01*
X62019Y9670D01*
X62045Y9724D01*
X62076Y9774D01*
X62111Y9824D01*
X62115Y9828D01*
X62118Y9836D01*
X62130Y9847D01*
X62145Y9866D01*
X62164Y9885D01*
X62191Y9912D01*
X62218Y9939D01*
X62249Y9966D01*
X62287Y9997D01*
X62326Y10024D01*
X62372Y10054D01*
X62422Y10085D01*
X62472Y10112D01*
X62529Y10139D01*
X62652Y10185D01*
X62729Y9855D01*
X62725D01*
X62717Y9851D01*
X62702Y9847D01*
X62683Y9839D01*
X62660Y9828D01*
X62633Y9816D01*
X62575Y9789D01*
X62510Y9755D01*
X62441Y9709D01*
X62379Y9659D01*
X62326Y9597D01*
X62322Y9590D01*
X62306Y9567D01*
X62287Y9532D01*
X62260Y9482D01*
X62237Y9425D01*
X62218Y9352D01*
X62203Y9271D01*
X62199Y9179D01*
Y9152D01*
X62203Y9133D01*
Y9106D01*
X62207Y9079D01*
X62218Y9010D01*
X62234Y8933D01*
X62260Y8852D01*
X62295Y8772D01*
X62341Y8695D01*
Y8691D01*
X62349Y8687D01*
X62368Y8664D01*
X62399Y8630D01*
X62441Y8587D01*
X62495Y8545D01*
X62556Y8499D01*
X62633Y8457D01*
X62717Y8422D01*
X62721D01*
X62729Y8419D01*
X62740Y8415D01*
X62760Y8411D01*
X62779Y8403D01*
X62806Y8399D01*
X62867Y8384D01*
X62940Y8369D01*
X63021Y8357D01*
X63109Y8349D01*
X63201Y8346D01*
X63205D01*
X63217D01*
X63232D01*
X63255D01*
X63282Y8349D01*
X63316D01*
X63351Y8353D01*
X63389Y8357D01*
X63478Y8369D01*
X63574Y8384D01*
X63670Y8407D01*
X63762Y8438D01*
X63766D01*
X63773Y8442D01*
X63785Y8449D01*
X63800Y8457D01*
X63846Y8476D01*
X63896Y8507D01*
X63958Y8549D01*
X64015Y8599D01*
X64073Y8657D01*
X64123Y8726D01*
Y8730D01*
X64127Y8733D01*
X64134Y8745D01*
X64142Y8760D01*
X64157Y8803D01*
X64180Y8856D01*
X64200Y8918D01*
X64219Y8991D01*
X64234Y9071D01*
X64238Y9156D01*
Y9183D01*
X64234Y9202D01*
Y9225D01*
X64230Y9256D01*
X64219Y9321D01*
X64200Y9394D01*
X64169Y9475D01*
X64131Y9551D01*
X64077Y9628D01*
X64073Y9632D01*
X64069Y9636D01*
X64046Y9659D01*
X64008Y9693D01*
X63958Y9736D01*
X63889Y9778D01*
X63808Y9824D01*
X63708Y9862D01*
X63597Y9893D01*
X63681Y10227D01*
X63685D01*
X63700Y10223D01*
D02*
G37*
%LPC*%
G36*
X41575Y6532D02*
X41463D01*
X41456D01*
X41436D01*
X41406D01*
X41363Y6528D01*
X41314D01*
X41256Y6524D01*
X41194Y6521D01*
X41125Y6513D01*
X40987Y6498D01*
X40853Y6471D01*
X40788Y6455D01*
X40730Y6436D01*
X40680Y6413D01*
X40638Y6386D01*
X40634D01*
X40630Y6379D01*
X40607Y6359D01*
X40572Y6329D01*
X40534Y6286D01*
X40496Y6233D01*
X40461Y6171D01*
X40438Y6102D01*
X40434Y6064D01*
X40430Y6025D01*
Y6006D01*
X40434Y5991D01*
X40438Y5952D01*
X40453Y5902D01*
X40476Y5849D01*
X40507Y5791D01*
X40553Y5733D01*
X40584Y5706D01*
X40615Y5683D01*
X40619D01*
X40626Y5676D01*
X40642Y5668D01*
X40661Y5660D01*
X40688Y5649D01*
X40718Y5634D01*
X40761Y5618D01*
X40807Y5607D01*
X40860Y5591D01*
X40922Y5576D01*
X40991Y5564D01*
X41072Y5549D01*
X41156Y5541D01*
X41248Y5534D01*
X41352Y5526D01*
X41463D01*
X41471D01*
X41490D01*
X41521D01*
X41563Y5530D01*
X41613D01*
X41671Y5534D01*
X41736Y5538D01*
X41801Y5545D01*
X41939Y5561D01*
X42078Y5587D01*
X42139Y5603D01*
X42197Y5622D01*
X42250Y5645D01*
X42293Y5668D01*
X42297D01*
X42300Y5676D01*
X42323Y5695D01*
X42358Y5726D01*
X42393Y5768D01*
X42431Y5822D01*
X42466Y5883D01*
X42489Y5952D01*
X42492Y5991D01*
X42496Y6029D01*
Y6048D01*
X42492Y6064D01*
X42485Y6102D01*
X42469Y6152D01*
X42446Y6210D01*
X42412Y6267D01*
X42389Y6298D01*
X42358Y6329D01*
X42327Y6359D01*
X42293Y6386D01*
X42289D01*
X42281Y6394D01*
X42270Y6402D01*
X42250Y6409D01*
X42228Y6421D01*
X42193Y6432D01*
X42154Y6444D01*
X42112Y6459D01*
X42059Y6475D01*
X42001Y6486D01*
X41932Y6498D01*
X41855Y6509D01*
X41770Y6521D01*
X41678Y6524D01*
X41575Y6532D01*
D02*
G37*
G36*
X40876Y2508D02*
X40872D01*
X40868D01*
X40845D01*
X40814Y2500D01*
X40772Y2492D01*
X40726Y2477D01*
X40676Y2454D01*
X40626Y2420D01*
X40580Y2377D01*
X40576Y2370D01*
X40561Y2354D01*
X40542Y2320D01*
X40523Y2277D01*
X40499Y2220D01*
X40484Y2151D01*
X40469Y2066D01*
X40465Y1966D01*
Y1171D01*
X41298D01*
Y1924D01*
X41294Y1966D01*
X41291Y2016D01*
X41287Y2074D01*
X41279Y2135D01*
X41267Y2193D01*
X41252Y2243D01*
X41248Y2251D01*
X41244Y2266D01*
X41233Y2289D01*
X41218Y2316D01*
X41194Y2347D01*
X41168Y2381D01*
X41137Y2412D01*
X41102Y2439D01*
X41098Y2442D01*
X41083Y2450D01*
X41064Y2462D01*
X41033Y2473D01*
X41003Y2485D01*
X40964Y2496D01*
X40922Y2504D01*
X40876Y2508D01*
D02*
G37*
G36*
X27413Y20522D02*
X27409D01*
X27401D01*
X27386D01*
X27366Y20518D01*
X27343D01*
X27320Y20514D01*
X27259Y20502D01*
X27190Y20487D01*
X27121Y20460D01*
X27051Y20426D01*
X26986Y20380D01*
X26978Y20372D01*
X26963Y20353D01*
X26936Y20326D01*
X26906Y20284D01*
X26879Y20234D01*
X26852Y20176D01*
X26836Y20111D01*
X26829Y20038D01*
Y20019D01*
X26833Y20003D01*
X26836Y19965D01*
X26848Y19915D01*
X26871Y19857D01*
X26902Y19800D01*
X26940Y19738D01*
X26967Y19708D01*
X26998Y19677D01*
X27005Y19669D01*
X27029Y19654D01*
X27067Y19631D01*
X27117Y19604D01*
X27178Y19573D01*
X27255Y19550D01*
X27340Y19535D01*
X27435Y19527D01*
X27439D01*
X27447D01*
X27459D01*
X27474Y19531D01*
X27520Y19535D01*
X27574Y19546D01*
X27639Y19562D01*
X27704Y19589D01*
X27766Y19623D01*
X27827Y19669D01*
X27835Y19677D01*
X27850Y19696D01*
X27873Y19727D01*
X27900Y19769D01*
X27931Y19823D01*
X27954Y19884D01*
X27969Y19953D01*
X27977Y20030D01*
Y20049D01*
X27973Y20065D01*
X27969Y20103D01*
X27958Y20153D01*
X27939Y20207D01*
X27915Y20268D01*
X27877Y20326D01*
X27827Y20380D01*
X27819Y20387D01*
X27800Y20403D01*
X27766Y20426D01*
X27720Y20452D01*
X27658Y20476D01*
X27589Y20499D01*
X27505Y20514D01*
X27413Y20522D01*
D02*
G37*
G36*
X27274Y18467D02*
X27270D01*
X27266D01*
X27244D01*
X27213Y18460D01*
X27171Y18452D01*
X27125Y18437D01*
X27075Y18414D01*
X27025Y18379D01*
X26978Y18337D01*
X26975Y18329D01*
X26959Y18314D01*
X26940Y18279D01*
X26921Y18237D01*
X26898Y18179D01*
X26882Y18110D01*
X26867Y18026D01*
X26863Y17926D01*
Y17131D01*
X27697D01*
Y17884D01*
X27693Y17926D01*
X27689Y17976D01*
X27685Y18033D01*
X27677Y18095D01*
X27666Y18152D01*
X27650Y18202D01*
X27647Y18210D01*
X27643Y18225D01*
X27631Y18248D01*
X27616Y18275D01*
X27593Y18306D01*
X27566Y18340D01*
X27535Y18371D01*
X27501Y18398D01*
X27497Y18402D01*
X27482Y18410D01*
X27462Y18421D01*
X27432Y18433D01*
X27401Y18444D01*
X27362Y18456D01*
X27320Y18463D01*
X27274Y18467D01*
D02*
G37*
G36*
X25122Y30445D02*
X25118D01*
X25115D01*
X25095D01*
X25061Y30437D01*
X25022Y30430D01*
X24980Y30414D01*
X24930Y30395D01*
X24884Y30364D01*
X24838Y30326D01*
X24834Y30322D01*
X24819Y30307D01*
X24800Y30280D01*
X24777Y30245D01*
X24757Y30203D01*
X24738Y30153D01*
X24723Y30099D01*
X24719Y30034D01*
Y30003D01*
X24727Y29972D01*
X24734Y29930D01*
X24746Y29884D01*
X24769Y29834D01*
X24796Y29784D01*
X24834Y29738D01*
X24838Y29734D01*
X24853Y29719D01*
X24880Y29704D01*
X24911Y29681D01*
X24949Y29662D01*
X24999Y29642D01*
X25049Y29627D01*
X25107Y29623D01*
X25115D01*
X25138D01*
X25168Y29631D01*
X25211Y29638D01*
X25257Y29650D01*
X25303Y29669D01*
X25353Y29696D01*
X25399Y29734D01*
X25403Y29738D01*
X25414Y29754D01*
X25433Y29781D01*
X25453Y29815D01*
X25475Y29857D01*
X25491Y29911D01*
X25506Y29969D01*
X25510Y30034D01*
Y30065D01*
X25502Y30095D01*
X25495Y30138D01*
X25483Y30184D01*
X25464Y30234D01*
X25437Y30284D01*
X25399Y30330D01*
X25395Y30334D01*
X25379Y30349D01*
X25357Y30368D01*
X25322Y30387D01*
X25284Y30410D01*
X25234Y30426D01*
X25180Y30441D01*
X25122Y30445D01*
D02*
G37*
G36*
X26282Y30549D02*
X26278D01*
X26270D01*
X26259D01*
X26243Y30545D01*
X26205Y30541D01*
X26151Y30529D01*
X26094Y30514D01*
X26032Y30487D01*
X25971Y30449D01*
X25913Y30399D01*
X25906Y30391D01*
X25890Y30372D01*
X25867Y30341D01*
X25837Y30299D01*
X25810Y30245D01*
X25787Y30180D01*
X25771Y30107D01*
X25763Y30026D01*
Y30007D01*
X25767Y29992D01*
X25771Y29950D01*
X25783Y29900D01*
X25798Y29842D01*
X25825Y29781D01*
X25859Y29723D01*
X25909Y29665D01*
X25917Y29658D01*
X25936Y29642D01*
X25967Y29619D01*
X26009Y29596D01*
X26063Y29569D01*
X26125Y29546D01*
X26197Y29531D01*
X26274Y29523D01*
X26278D01*
X26297D01*
X26320Y29527D01*
X26355Y29531D01*
X26393Y29539D01*
X26439Y29550D01*
X26485Y29566D01*
X26531Y29585D01*
X26535Y29588D01*
X26551Y29596D01*
X26574Y29612D01*
X26601Y29631D01*
X26631Y29658D01*
X26666Y29688D01*
X26697Y29727D01*
X26724Y29769D01*
X26727Y29777D01*
X26735Y29792D01*
X26743Y29815D01*
X26754Y29850D01*
X26770Y29892D01*
X26777Y29934D01*
X26785Y29984D01*
X26789Y30038D01*
Y30061D01*
X26785Y30076D01*
X26781Y30115D01*
X26770Y30168D01*
X26754Y30226D01*
X26727Y30287D01*
X26693Y30345D01*
X26647Y30403D01*
X26639Y30410D01*
X26620Y30426D01*
X26589Y30449D01*
X26547Y30476D01*
X26497Y30502D01*
X26432Y30525D01*
X26363Y30541D01*
X26282Y30549D01*
D02*
G37*
G36*
X25168Y28467D02*
X25164D01*
X25161D01*
X25138D01*
X25107Y28460D01*
X25065Y28452D01*
X25019Y28436D01*
X24969Y28414D01*
X24919Y28379D01*
X24873Y28337D01*
X24869Y28329D01*
X24853Y28314D01*
X24834Y28279D01*
X24815Y28237D01*
X24792Y28179D01*
X24777Y28110D01*
X24761Y28026D01*
X24757Y27926D01*
Y27131D01*
X25591D01*
Y27884D01*
X25587Y27926D01*
X25583Y27976D01*
X25579Y28033D01*
X25572Y28095D01*
X25560Y28152D01*
X25545Y28202D01*
X25541Y28210D01*
X25537Y28225D01*
X25525Y28248D01*
X25510Y28275D01*
X25487Y28306D01*
X25460Y28341D01*
X25429Y28371D01*
X25395Y28398D01*
X25391Y28402D01*
X25376Y28410D01*
X25357Y28421D01*
X25326Y28433D01*
X25295Y28444D01*
X25257Y28456D01*
X25214Y28463D01*
X25168Y28467D01*
D02*
G37*
G36*
X43388D02*
X43384D01*
X43380D01*
X43357D01*
X43327Y28460D01*
X43284Y28452D01*
X43238Y28436D01*
X43188Y28414D01*
X43138Y28379D01*
X43092Y28337D01*
X43088Y28329D01*
X43073Y28314D01*
X43054Y28279D01*
X43035Y28237D01*
X43012Y28179D01*
X42996Y28110D01*
X42981Y28026D01*
X42977Y27926D01*
Y27131D01*
X43810D01*
Y27884D01*
X43807Y27926D01*
X43803Y27976D01*
X43799Y28033D01*
X43791Y28095D01*
X43780Y28152D01*
X43764Y28202D01*
X43760Y28210D01*
X43757Y28225D01*
X43745Y28248D01*
X43730Y28275D01*
X43707Y28306D01*
X43680Y28341D01*
X43649Y28371D01*
X43615Y28398D01*
X43611Y28402D01*
X43595Y28410D01*
X43576Y28421D01*
X43545Y28433D01*
X43515Y28444D01*
X43476Y28456D01*
X43434Y28463D01*
X43388Y28467D01*
D02*
G37*
G36*
X26201Y37240D02*
X26197D01*
X26190D01*
X26174D01*
X26159Y37236D01*
X26136D01*
X26109Y37232D01*
X26052Y37225D01*
X25986Y37205D01*
X25917Y37183D01*
X25852Y37148D01*
X25790Y37102D01*
X25783Y37094D01*
X25767Y37079D01*
X25741Y37048D01*
X25714Y37006D01*
X25687Y36956D01*
X25660Y36895D01*
X25644Y36825D01*
X25637Y36748D01*
Y36729D01*
X25641Y36714D01*
X25644Y36676D01*
X25656Y36626D01*
X25675Y36572D01*
X25702Y36511D01*
X25741Y36453D01*
X25790Y36395D01*
X25798Y36388D01*
X25817Y36372D01*
X25852Y36349D01*
X25894Y36322D01*
X25952Y36295D01*
X26021Y36272D01*
X26098Y36257D01*
X26186Y36249D01*
X26194D01*
X26213D01*
X26243Y36253D01*
X26282Y36257D01*
X26332Y36265D01*
X26382Y36276D01*
X26436Y36292D01*
X26493Y36315D01*
X26501Y36318D01*
X26516Y36326D01*
X26543Y36342D01*
X26574Y36364D01*
X26612Y36391D01*
X26647Y36422D01*
X26685Y36461D01*
X26716Y36503D01*
X26720Y36507D01*
X26727Y36526D01*
X26739Y36549D01*
X26750Y36580D01*
X26766Y36618D01*
X26777Y36664D01*
X26785Y36710D01*
X26789Y36760D01*
Y36779D01*
X26785Y36795D01*
X26781Y36829D01*
X26770Y36879D01*
X26750Y36929D01*
X26724Y36987D01*
X26685Y37044D01*
X26631Y37098D01*
X26624Y37106D01*
X26601Y37121D01*
X26566Y37144D01*
X26520Y37171D01*
X26459Y37194D01*
X26382Y37217D01*
X26297Y37232D01*
X26201Y37240D01*
D02*
G37*
G36*
X25168Y35166D02*
X25164D01*
X25161D01*
X25138D01*
X25107Y35159D01*
X25065Y35151D01*
X25019Y35136D01*
X24969Y35113D01*
X24919Y35078D01*
X24873Y35036D01*
X24869Y35028D01*
X24853Y35013D01*
X24834Y34978D01*
X24815Y34936D01*
X24792Y34879D01*
X24777Y34809D01*
X24761Y34725D01*
X24757Y34625D01*
Y33830D01*
X25591D01*
Y34583D01*
X25587Y34625D01*
X25583Y34675D01*
X25579Y34732D01*
X25572Y34794D01*
X25560Y34852D01*
X25545Y34901D01*
X25541Y34909D01*
X25537Y34925D01*
X25525Y34948D01*
X25510Y34975D01*
X25487Y35005D01*
X25460Y35040D01*
X25429Y35070D01*
X25395Y35097D01*
X25391Y35101D01*
X25376Y35109D01*
X25357Y35120D01*
X25326Y35132D01*
X25295Y35143D01*
X25257Y35155D01*
X25214Y35163D01*
X25168Y35166D01*
D02*
G37*
G36*
Y42703D02*
X25164D01*
X25161D01*
X25138D01*
X25107Y42695D01*
X25065Y42688D01*
X25019Y42672D01*
X24969Y42649D01*
X24919Y42615D01*
X24873Y42573D01*
X24869Y42565D01*
X24853Y42549D01*
X24834Y42515D01*
X24815Y42473D01*
X24792Y42415D01*
X24777Y42346D01*
X24761Y42261D01*
X24757Y42162D01*
Y41367D01*
X25591D01*
Y42119D01*
X25587Y42162D01*
X25583Y42212D01*
X25579Y42269D01*
X25572Y42331D01*
X25560Y42388D01*
X25545Y42438D01*
X25541Y42446D01*
X25537Y42461D01*
X25525Y42484D01*
X25510Y42511D01*
X25487Y42542D01*
X25460Y42576D01*
X25429Y42607D01*
X25395Y42634D01*
X25391Y42638D01*
X25376Y42645D01*
X25357Y42657D01*
X25326Y42669D01*
X25295Y42680D01*
X25257Y42692D01*
X25214Y42699D01*
X25168Y42703D01*
D02*
G37*
G36*
X26113Y52809D02*
X24984D01*
X26113Y52018D01*
Y52809D01*
D02*
G37*
G36*
X25168Y51077D02*
X25164D01*
X25161D01*
X25138D01*
X25107Y51069D01*
X25065Y51062D01*
X25019Y51046D01*
X24969Y51023D01*
X24919Y50989D01*
X24873Y50946D01*
X24869Y50939D01*
X24853Y50924D01*
X24834Y50889D01*
X24815Y50847D01*
X24792Y50789D01*
X24777Y50720D01*
X24761Y50635D01*
X24757Y50536D01*
Y49741D01*
X25591D01*
Y50493D01*
X25587Y50536D01*
X25583Y50586D01*
X25579Y50643D01*
X25572Y50705D01*
X25560Y50762D01*
X25545Y50812D01*
X25541Y50820D01*
X25537Y50835D01*
X25525Y50858D01*
X25510Y50885D01*
X25487Y50916D01*
X25460Y50950D01*
X25429Y50981D01*
X25395Y51008D01*
X25391Y51012D01*
X25376Y51020D01*
X25357Y51031D01*
X25326Y51042D01*
X25295Y51054D01*
X25257Y51066D01*
X25214Y51073D01*
X25168Y51077D01*
D02*
G37*
G36*
X43388Y36004D02*
X43384D01*
X43380D01*
X43357D01*
X43327Y35996D01*
X43284Y35989D01*
X43238Y35973D01*
X43188Y35950D01*
X43138Y35915D01*
X43092Y35873D01*
X43088Y35866D01*
X43073Y35850D01*
X43054Y35816D01*
X43035Y35774D01*
X43012Y35716D01*
X42996Y35647D01*
X42981Y35562D01*
X42977Y35462D01*
Y34668D01*
X43810D01*
Y35420D01*
X43807Y35462D01*
X43803Y35512D01*
X43799Y35570D01*
X43791Y35631D01*
X43780Y35689D01*
X43764Y35739D01*
X43760Y35747D01*
X43757Y35762D01*
X43745Y35785D01*
X43730Y35812D01*
X43707Y35843D01*
X43680Y35877D01*
X43649Y35908D01*
X43615Y35935D01*
X43611Y35939D01*
X43595Y35946D01*
X43576Y35958D01*
X43545Y35969D01*
X43515Y35981D01*
X43476Y35992D01*
X43434Y36000D01*
X43388Y36004D01*
D02*
G37*
G36*
Y42703D02*
X43384D01*
X43380D01*
X43357D01*
X43327Y42695D01*
X43284Y42688D01*
X43238Y42672D01*
X43188Y42649D01*
X43138Y42615D01*
X43092Y42573D01*
X43088Y42565D01*
X43073Y42549D01*
X43054Y42515D01*
X43035Y42473D01*
X43012Y42415D01*
X42996Y42346D01*
X42981Y42261D01*
X42977Y42162D01*
Y41367D01*
X43810D01*
Y42119D01*
X43807Y42162D01*
X43803Y42212D01*
X43799Y42269D01*
X43791Y42331D01*
X43780Y42388D01*
X43764Y42438D01*
X43760Y42446D01*
X43757Y42461D01*
X43745Y42484D01*
X43730Y42511D01*
X43707Y42542D01*
X43680Y42576D01*
X43649Y42607D01*
X43615Y42634D01*
X43611Y42638D01*
X43595Y42645D01*
X43576Y42657D01*
X43545Y42669D01*
X43515Y42680D01*
X43476Y42692D01*
X43434Y42699D01*
X43388Y42703D01*
D02*
G37*
G36*
X43177Y51915D02*
X43173D01*
X43169D01*
X43146D01*
X43115Y51907D01*
X43073Y51899D01*
X43027Y51884D01*
X42977Y51861D01*
X42927Y51826D01*
X42881Y51784D01*
X42877Y51776D01*
X42862Y51761D01*
X42843Y51726D01*
X42823Y51684D01*
X42800Y51626D01*
X42785Y51557D01*
X42770Y51473D01*
X42766Y51373D01*
Y50578D01*
X43599D01*
Y51331D01*
X43595Y51373D01*
X43591Y51423D01*
X43588Y51481D01*
X43580Y51542D01*
X43568Y51600D01*
X43553Y51649D01*
X43549Y51657D01*
X43545Y51673D01*
X43534Y51696D01*
X43518Y51723D01*
X43495Y51753D01*
X43469Y51788D01*
X43438Y51819D01*
X43403Y51845D01*
X43399Y51849D01*
X43384Y51857D01*
X43365Y51868D01*
X43334Y51880D01*
X43303Y51891D01*
X43265Y51903D01*
X43223Y51911D01*
X43177Y51915D01*
D02*
G37*
G36*
X35063Y22856D02*
X35059D01*
X35044D01*
X35025D01*
X34998D01*
X34963Y22852D01*
X34925Y22849D01*
X34883Y22845D01*
X34840Y22841D01*
X34740Y22826D01*
X34641Y22803D01*
X34545Y22768D01*
X34499Y22749D01*
X34456Y22726D01*
X34453D01*
X34449Y22718D01*
X34437Y22714D01*
X34422Y22703D01*
X34383Y22676D01*
X34341Y22637D01*
X34291Y22591D01*
X34245Y22538D01*
X34203Y22476D01*
X34168Y22411D01*
X34165Y22403D01*
X34161Y22384D01*
X34153Y22353D01*
X34141Y22307D01*
X34130Y22246D01*
X34122Y22173D01*
X34118Y22084D01*
X34115Y21981D01*
Y21455D01*
X36046D01*
Y22031D01*
X36042Y22073D01*
X36038Y22131D01*
X36035Y22192D01*
X36027Y22257D01*
X36015Y22319D01*
X36000Y22376D01*
X35996Y22384D01*
X35992Y22399D01*
X35981Y22426D01*
X35965Y22457D01*
X35946Y22495D01*
X35927Y22534D01*
X35900Y22568D01*
X35869Y22603D01*
X35866Y22607D01*
X35846Y22622D01*
X35820Y22645D01*
X35785Y22672D01*
X35739Y22699D01*
X35685Y22730D01*
X35620Y22760D01*
X35551Y22787D01*
X35547D01*
X35543Y22791D01*
X35531Y22795D01*
X35516Y22799D01*
X35497Y22803D01*
X35474Y22810D01*
X35416Y22822D01*
X35343Y22833D01*
X35259Y22845D01*
X35167Y22852D01*
X35063Y22856D01*
D02*
G37*
%LPD*%
D10*
X50057Y22716D02*
G03*
X50057Y22716I-500J0D01*
G01*
X189Y53500D02*
X21189D01*
X24189Y50500D01*
Y2500D02*
Y50500D01*
X21189Y53500D02*
X24189Y50500D01*
X189Y2500D02*
X24189D01*
X189D02*
Y53500D01*
X13189Y46000D02*
Y49000D01*
X11689Y47500D02*
X13189Y49000D01*
X11689Y47500D02*
X13189Y46000D01*
X11689Y45000D02*
Y50000D01*
X9689Y47500D02*
X14189D01*
X65952Y8374D02*
X92952D01*
X65952Y48374D02*
X92952D01*
Y8374D02*
Y48374D01*
X71452Y8374D02*
Y48374D01*
X65952Y8374D02*
Y13374D01*
Y42874D02*
Y48374D01*
X48557Y12716D02*
Y23716D01*
Y12716D02*
X54557Y12716D01*
X54557Y23716D02*
X54557Y12716D01*
X48557Y23716D02*
X54557D01*
D11*
X32353Y16038D02*
X37453D01*
X32353Y12038D02*
Y16038D01*
X32253Y3938D02*
Y8738D01*
Y3539D02*
Y3938D01*
Y3539D02*
X38153D01*
X38253Y3638D02*
Y8338D01*
X38353Y11738D02*
Y16038D01*
X37053D02*
X38353D01*
X33353Y10838D02*
X36953D01*
X33253Y10739D02*
X35253Y8738D01*
X37053Y10538D01*
D12*
X30301Y4557D02*
Y8307D01*
X25001Y4557D02*
Y8307D01*
X30301Y11807D02*
Y15557D01*
X25001Y11807D02*
Y15557D01*
Y4557D02*
X30301D01*
X25001Y15557D02*
X30301D01*
X46427Y25805D02*
X50177D01*
X46427Y31105D02*
X50177D01*
X53677Y25805D02*
X57427D01*
X53677Y31105D02*
X57427D01*
X46427Y25805D02*
Y31105D01*
X57427Y25805D02*
Y31105D01*
X35238Y31139D02*
X38988D01*
X35238Y25839D02*
X38988D01*
X27988Y31139D02*
X31738D01*
X27988Y25839D02*
X31738D01*
X38988D02*
Y31139D01*
X27988Y25839D02*
Y31139D01*
X43078Y683D02*
X46828D01*
X43078Y5983D02*
X46828D01*
X50328Y683D02*
X54078D01*
X50328Y5983D02*
X54078D01*
X43078Y683D02*
Y5983D01*
X54078Y683D02*
Y5983D01*
D13*
X59758Y32351D02*
Y39671D01*
X45758Y32351D02*
X59758D01*
X45758D02*
Y39671D01*
X59758D01*
Y48262D02*
Y55581D01*
X45758Y48262D02*
X59758D01*
X45758D02*
Y55581D01*
X59758D01*
Y47207D02*
X59758Y39888D01*
X45758Y39888D02*
X59758Y39888D01*
X45758Y39888D02*
X45758Y47207D01*
X59758Y47207D01*
X42172Y48262D02*
Y55581D01*
X28172Y48262D02*
X42172D01*
X28172D02*
Y55581D01*
X42172D01*
Y39888D02*
Y47207D01*
X28172Y39888D02*
X42172D01*
X28172D02*
Y47207D01*
X42172D01*
Y32351D02*
Y39671D01*
X28172Y32351D02*
X42172D01*
X28172D02*
Y39671D01*
X42172D01*
D14*
X61579Y6943D02*
X65811D01*
X61579Y1431D02*
X65811D01*
X61579D02*
Y6943D01*
X72405Y1431D02*
Y6943D01*
X68173Y1431D02*
X72405Y1431D01*
X68173Y6943D02*
X72405Y6943D01*
M02*
