G04*
G04 #@! TF.GenerationSoftware,Altium Limited,Altium Designer,18.0.7 (293)*
G04*
G04 Layer_Physical_Order=2*
G04 Layer_Color=16711680*
%FSLAX25Y25*%
%MOIN*%
G70*
G01*
G75*
%ADD30C,0.01968*%
%ADD45C,0.03937*%
%ADD46C,0.07087*%
%ADD47C,0.02362*%
%ADD48R,0.06087X0.05616*%
%ADD49R,0.06699X0.06772*%
G36*
X72738Y2262D02*
X28899D01*
X28708Y2724D01*
X33892Y7908D01*
X44179D01*
X44398Y7818D01*
X45220Y7709D01*
X46042Y7818D01*
X46808Y8135D01*
X47466Y8640D01*
X47971Y9298D01*
X48288Y10064D01*
X48397Y10886D01*
X48288Y11708D01*
X47971Y12475D01*
X47466Y13133D01*
X46808Y13637D01*
X46042Y13955D01*
X45220Y14063D01*
X44398Y13955D01*
X44179Y13864D01*
X32659D01*
X31888Y13763D01*
X31170Y13465D01*
X30553Y12992D01*
X30553Y12992D01*
X23051Y5490D01*
X13721D01*
X12056Y7156D01*
Y11724D01*
X11903Y12492D01*
X11468Y13143D01*
X10817Y13578D01*
X10049Y13731D01*
X3350D01*
X2762Y13614D01*
X2262Y13920D01*
Y53738D01*
X72738D01*
Y2262D01*
D02*
G37*
G36*
X8978Y7865D02*
X9008Y7740D01*
X9060Y7604D01*
X9133Y7459D01*
X9227Y7304D01*
X9342Y7139D01*
X9636Y6778D01*
X9815Y6582D01*
X10015Y6377D01*
X8623Y4985D01*
X8418Y5185D01*
X7862Y5658D01*
X7696Y5773D01*
X7541Y5867D01*
X7395Y5940D01*
X7260Y5991D01*
X7135Y6022D01*
X7020Y6032D01*
X8968Y7980D01*
X8978Y7865D01*
D02*
G37*
%LPC*%
G36*
X19808Y52185D02*
X13721D01*
X12953Y52032D01*
X12302Y51597D01*
X11867Y50946D01*
X11714Y50178D01*
Y44562D01*
X11867Y43794D01*
X12302Y43143D01*
X12953Y42708D01*
X13721Y42555D01*
X19808D01*
X20576Y42708D01*
X21227Y43143D01*
X21662Y43794D01*
X21815Y44562D01*
Y50178D01*
X21662Y50946D01*
X21227Y51597D01*
X20576Y52032D01*
X19808Y52185D01*
D02*
G37*
G36*
X66452Y43933D02*
X65013Y43744D01*
X63672Y43189D01*
X62520Y42305D01*
X61637Y41154D01*
X61082Y39813D01*
X60892Y38374D01*
X61082Y36935D01*
X61637Y35594D01*
X62520Y34443D01*
X63672Y33560D01*
X65013Y33004D01*
X66452Y32815D01*
X67890Y33004D01*
X69231Y33560D01*
X70383Y34443D01*
X71266Y35594D01*
X71821Y36935D01*
X72011Y38374D01*
X71821Y39813D01*
X71266Y41154D01*
X70383Y42305D01*
X69231Y43189D01*
X67890Y43744D01*
X66452Y43933D01*
D02*
G37*
G36*
Y23933D02*
X65013Y23744D01*
X63672Y23189D01*
X62520Y22305D01*
X61637Y21154D01*
X61082Y19813D01*
X60892Y18374D01*
X61082Y16935D01*
X61637Y15594D01*
X62520Y14443D01*
X63672Y13559D01*
X65013Y13004D01*
X66452Y12815D01*
X67890Y13004D01*
X69231Y13559D01*
X70383Y14443D01*
X71266Y15594D01*
X71821Y16935D01*
X72011Y18374D01*
X71821Y19813D01*
X71266Y21154D01*
X70383Y22305D01*
X69231Y23189D01*
X67890Y23744D01*
X66452Y23933D01*
D02*
G37*
%LPD*%
D30*
X7000Y8000D02*
X12488Y2512D01*
X24285D01*
X32659Y10886D01*
X45220D01*
D45*
X7000Y8000D02*
D03*
X17000D02*
D03*
X7000Y47370D02*
D03*
X17000D02*
D03*
D46*
X66452Y18374D02*
D03*
Y28374D02*
D03*
Y38374D02*
D03*
D47*
X30984Y18374D02*
D03*
X25959Y22657D02*
D03*
X41033Y18065D02*
D03*
X30959Y22610D02*
D03*
X61024Y29309D02*
D03*
X69504Y6460D02*
D03*
X41065Y21772D02*
D03*
X19260Y17585D02*
D03*
X8986D02*
D03*
Y43399D02*
D03*
X19260Y25527D02*
D03*
X18985Y32659D02*
D03*
Y38521D02*
D03*
X8986Y25527D02*
D03*
Y31821D02*
D03*
Y36846D02*
D03*
X45220Y10886D02*
D03*
D48*
X16765Y47370D02*
D03*
D49*
X6699Y8337D02*
D03*
M02*
