G04*
G04 #@! TF.GenerationSoftware,Altium Limited,Altium Designer,18.0.7 (293)*
G04*
G04 Layer_Color=128*
%FSLAX25Y25*%
%MOIN*%
G70*
G01*
G75*
%ADD50C,0.00200*%
D50*
X5819Y8000D02*
X8181D01*
X7000Y6819D02*
Y9181D01*
X15819Y8000D02*
X18181D01*
X17000Y6819D02*
Y9181D01*
X5819Y47370D02*
X8181D01*
X7000Y46189D02*
Y48551D01*
X15819Y47370D02*
X18181D01*
X17000Y46189D02*
Y48551D01*
X64483Y18374D02*
X68420D01*
X66452Y16406D02*
Y20343D01*
X64483Y28374D02*
X68420D01*
X66452Y26406D02*
Y30343D01*
X64483Y38374D02*
X68420D01*
X66452Y36406D02*
Y40343D01*
X30393Y18374D02*
X31574D01*
X30984Y17784D02*
Y18965D01*
X25369Y22657D02*
X26550D01*
X25959Y22066D02*
Y23247D01*
X40442Y18065D02*
X41623D01*
X41033Y17475D02*
Y18656D01*
X30368Y22610D02*
X31549D01*
X30959Y22019D02*
Y23200D01*
X60434Y29309D02*
X61615D01*
X61024Y28719D02*
Y29900D01*
X68914Y6460D02*
X70095D01*
X69504Y5869D02*
Y7051D01*
X40475Y21772D02*
X41656D01*
X41065Y21182D02*
Y22363D01*
X18670Y17585D02*
X19851D01*
X19260Y16995D02*
Y18176D01*
X8395Y17585D02*
X9576D01*
X8986Y16995D02*
Y18176D01*
X8395Y43399D02*
X9576D01*
X8986Y42809D02*
Y43990D01*
X18670Y25527D02*
X19851D01*
X19260Y24937D02*
Y26118D01*
X18395Y32659D02*
X19576D01*
X18985Y32068D02*
Y33249D01*
X18395Y38521D02*
X19576D01*
X18985Y37930D02*
Y39111D01*
X8395Y25527D02*
X9576D01*
X8986Y24937D02*
Y26118D01*
X8395Y31821D02*
X9576D01*
X8986Y31231D02*
Y32412D01*
X8395Y36846D02*
X9576D01*
X8986Y36255D02*
Y37436D01*
X44629Y10886D02*
X45810D01*
X45220Y10296D02*
Y11477D01*
M02*
