G04*
G04 #@! TF.GenerationSoftware,Altium Limited,Altium Designer,18.1.9 (240)*
G04*
G04 Layer_Color=16711935*
%FSLAX25Y25*%
%MOIN*%
G70*
G01*
G75*
%ADD44C,0.06706*%
%ADD45R,0.06706X0.06706*%
%ADD46C,0.07887*%
%ADD47R,0.07887X0.07887*%
%ADD48O,0.12611X0.09461*%
%ADD49O,0.12611X0.08674*%
%ADD50R,0.07887X0.07887*%
%ADD51O,0.05524X0.08674*%
%ADD105R,0.22000X0.21000*%
D44*
X58500Y21500D02*
D03*
X48500D02*
D03*
X251658Y215500D02*
D03*
Y11000D02*
D03*
X11500D02*
D03*
Y215500D02*
D03*
D45*
X38658Y21500D02*
D03*
D46*
X180000Y84000D02*
D03*
X179000Y150685D02*
D03*
X18000Y166000D02*
D03*
X18500Y124000D02*
D03*
D47*
X180000Y103685D02*
D03*
X179000Y131000D02*
D03*
D48*
X35000Y78500D02*
D03*
Y62500D02*
D03*
X230000Y105000D02*
D03*
Y121000D02*
D03*
D49*
X105000Y150000D02*
D03*
Y110500D02*
D03*
D50*
X37685Y166000D02*
D03*
X38185Y124000D02*
D03*
D51*
X120587Y43000D02*
D03*
X113500D02*
D03*
X106413D02*
D03*
X99327D02*
D03*
X92240D02*
D03*
D105*
X104000Y81500D02*
D03*
M02*
