G04*
G04 #@! TF.GenerationSoftware,Altium Limited,Altium Designer,18.1.9 (240)*
G04*
G04 Layer_Physical_Order=1*
G04 Layer_Color=255*
%FSLAX25Y25*%
%MOIN*%
G70*
G01*
G75*
%ADD17R,0.03937X0.03937*%
%ADD18R,0.05984X0.06299*%
%ADD19R,0.09843X0.09843*%
%ADD20R,0.22000X0.20500*%
%ADD21R,0.08800X0.06000*%
%ADD22R,0.03000X0.03000*%
%ADD23R,0.09843X0.11811*%
%ADD24R,0.07874X0.03937*%
%ADD25R,0.05906X0.04000*%
%ADD26R,0.03937X0.03740*%
%ADD27R,0.04000X0.05906*%
%ADD28R,0.05906X0.01968*%
%ADD29O,0.05906X0.01968*%
%ADD30C,0.03937*%
%ADD52C,0.01181*%
%ADD53C,0.09843*%
%ADD54C,0.01968*%
%ADD55C,0.03150*%
%ADD56R,0.29434X0.05500*%
%ADD57R,0.11750X0.40500*%
%ADD58R,0.13750X0.13887*%
%ADD59R,0.09610X0.05000*%
%ADD60R,0.30000X0.05000*%
%ADD61R,0.40750X0.09500*%
%ADD62R,0.15100X0.18000*%
%ADD63R,0.04000X0.07000*%
%ADD64R,0.15500X0.68500*%
%ADD65R,0.22209X0.12500*%
%ADD66R,0.04400X0.15500*%
%ADD67R,0.20500X0.68750*%
%ADD68R,0.04500X0.06500*%
%ADD69R,0.16000X0.32500*%
%ADD70R,0.15500X0.36750*%
%ADD71R,0.29750X0.47000*%
%ADD72R,0.16000X0.12500*%
%ADD73R,0.63000X0.21000*%
%ADD74R,0.17000X0.30000*%
%ADD75R,0.09287X0.57500*%
%ADD76R,0.33500X0.10200*%
%ADD77R,0.04500X0.05500*%
%ADD78R,0.07500X0.52500*%
%ADD79R,0.23000X0.08200*%
%ADD80R,0.56000X0.51280*%
%ADD81R,0.04000X0.07500*%
%ADD82R,0.86000X0.31000*%
%ADD83R,0.09000X0.52000*%
%ADD84R,0.20500X0.05000*%
%ADD85R,0.15000X0.43500*%
%ADD86R,0.43000X0.13500*%
%ADD87C,0.05906*%
%ADD88R,0.05906X0.05906*%
%ADD89C,0.07087*%
%ADD90R,0.07087X0.07087*%
%ADD91O,0.11811X0.08661*%
%ADD92O,0.11811X0.07874*%
%ADD93R,0.07087X0.07087*%
%ADD94O,0.04724X0.07874*%
%ADD95C,0.03500*%
G36*
X240512Y224659D02*
X239953Y224004D01*
X238767Y222068D01*
X237898Y219971D01*
X237368Y217763D01*
X237190Y215500D01*
X237368Y213237D01*
X237898Y211029D01*
X238767Y208932D01*
X239953Y206996D01*
X241427Y205270D01*
X243154Y203795D01*
X245089Y202609D01*
X247187Y201740D01*
X249394Y201210D01*
X251658Y201032D01*
X253921Y201210D01*
X256128Y201740D01*
X258226Y202609D01*
X260161Y203795D01*
X260659Y204220D01*
X261113Y204011D01*
Y22489D01*
X260659Y22280D01*
X260161Y22705D01*
X258226Y23891D01*
X256128Y24760D01*
X253921Y25290D01*
X251658Y25468D01*
X249394Y25290D01*
X247187Y24760D01*
X245089Y23891D01*
X243154Y22705D01*
X241427Y21230D01*
X239953Y19504D01*
X238767Y17568D01*
X237898Y15471D01*
X237368Y13263D01*
X237190Y11000D01*
X237368Y8737D01*
X237898Y6529D01*
X238767Y4432D01*
X239446Y3323D01*
X239202Y2887D01*
X23956D01*
X23712Y3323D01*
X24391Y4432D01*
X25260Y6529D01*
X25790Y8737D01*
X25968Y11000D01*
X25790Y13263D01*
X25260Y15471D01*
X24391Y17568D01*
X23205Y19504D01*
X21730Y21230D01*
X20004Y22705D01*
X18068Y23891D01*
X15971Y24760D01*
X13763Y25290D01*
X11500Y25468D01*
X9237Y25290D01*
X7029Y24760D01*
X4932Y23891D01*
X3387Y22944D01*
X2887Y23224D01*
Y203276D01*
X3387Y203556D01*
X4932Y202609D01*
X7029Y201740D01*
X9237Y201210D01*
X11500Y201032D01*
X13763Y201210D01*
X15971Y201740D01*
X18068Y202609D01*
X20004Y203795D01*
X21730Y205270D01*
X23205Y206996D01*
X24391Y208932D01*
X25260Y211029D01*
X25790Y213237D01*
X25968Y215500D01*
X25790Y217763D01*
X25260Y219971D01*
X24391Y222068D01*
X23205Y224004D01*
X22645Y224659D01*
X22855Y225113D01*
X80500Y225113D01*
X240303D01*
X240512Y224659D01*
D02*
G37*
%LPC*%
G36*
X210559Y207184D02*
X210553Y207183D01*
X210547Y207184D01*
X208723Y207175D01*
X208136Y207177D01*
X208048Y207179D01*
X208003Y207172D01*
X207941Y207184D01*
X207874Y207171D01*
X206610Y207164D01*
X206567Y207155D01*
X202202D01*
X202059Y207184D01*
X202053Y207183D01*
X202047Y207184D01*
X198110Y207164D01*
X198067Y207155D01*
X139287D01*
X138157Y207007D01*
X137103Y206570D01*
X136199Y205876D01*
X131453Y201130D01*
X130758Y200225D01*
X130322Y199172D01*
X130173Y198041D01*
Y194941D01*
X129547Y194900D01*
X128886Y194896D01*
X128801Y194879D01*
X125000D01*
X124972Y194875D01*
X121878D01*
X121004Y194760D01*
X120190Y194423D01*
X119491Y193887D01*
X118955Y193188D01*
X118618Y192374D01*
X118503Y191500D01*
X118618Y190626D01*
X118955Y189812D01*
X119491Y189113D01*
Y188887D01*
X118955Y188188D01*
X118618Y187374D01*
X118503Y186500D01*
X118618Y185626D01*
X118955Y184812D01*
X119491Y184113D01*
Y183887D01*
X118955Y183188D01*
X118618Y182374D01*
X118503Y181500D01*
X118618Y180626D01*
X118955Y179812D01*
X119491Y179113D01*
Y178887D01*
X118955Y178188D01*
X118618Y177374D01*
X118503Y176500D01*
X118618Y175626D01*
X118955Y174812D01*
X119491Y174113D01*
X120190Y173577D01*
X121004Y173240D01*
X121878Y173125D01*
X125815D01*
X126689Y173240D01*
X127503Y173577D01*
X128202Y174113D01*
X128738Y174812D01*
X129075Y175626D01*
X129190Y176500D01*
X129075Y177374D01*
X128738Y178188D01*
X128202Y178887D01*
Y179113D01*
X128738Y179812D01*
X129075Y180626D01*
X129190Y181500D01*
X129075Y182374D01*
X128738Y183188D01*
X128202Y183887D01*
Y184113D01*
X128738Y184812D01*
X129075Y185626D01*
X129190Y186500D01*
X129075Y187374D01*
X128977Y187610D01*
X129312Y188109D01*
X129586Y188107D01*
X130679Y188070D01*
Y187642D01*
X132549D01*
X133411Y187285D01*
X134541Y187136D01*
X135672Y187285D01*
X136534Y187642D01*
X138403D01*
Y189511D01*
X138760Y190373D01*
X138909Y191504D01*
Y196232D01*
X141097Y198419D01*
X186500D01*
Y191295D01*
X174250D01*
X173328Y191112D01*
X172547Y190590D01*
X172025Y189808D01*
X171842Y188887D01*
Y175000D01*
X172025Y174078D01*
X172547Y173297D01*
X173328Y172775D01*
X174250Y172591D01*
X186500D01*
Y172000D01*
X193500D01*
X193500Y172000D01*
X198121D01*
X198121Y169006D01*
X198304Y168084D01*
X198827Y167303D01*
X199833Y166297D01*
X200614Y165775D01*
X201536Y165592D01*
X211181D01*
Y161531D01*
X194468Y144819D01*
X188951D01*
X188500Y144908D01*
X158750D01*
X154000Y144908D01*
X153078Y144725D01*
X152297Y144203D01*
X148691Y140597D01*
X148078Y140475D01*
X147297Y139953D01*
X146775Y139172D01*
X146591Y138250D01*
Y75748D01*
X126297Y55453D01*
X125775Y54672D01*
X125592Y53750D01*
Y52500D01*
Y39998D01*
X123297Y37703D01*
X122775Y36922D01*
X122591Y36000D01*
Y32500D01*
Y24498D01*
X119502Y21408D01*
X116941D01*
X116695Y21908D01*
X117092Y22426D01*
X117506Y23426D01*
X117648Y24500D01*
X117506Y25574D01*
X117471Y25659D01*
Y36397D01*
X117482Y36443D01*
X117534Y37932D01*
X117563Y38244D01*
X117661Y38889D01*
X117705Y39082D01*
X117752Y39243D01*
X117789Y39343D01*
X117860Y39493D01*
X117874Y39551D01*
X117907Y39600D01*
X117953Y39829D01*
X118103Y40192D01*
X118265Y41425D01*
Y44575D01*
X118103Y45808D01*
X117627Y46957D01*
X116869Y47944D01*
X115883Y48702D01*
X114733Y49178D01*
X113500Y49340D01*
X112267Y49178D01*
X111408Y48822D01*
X110908Y49146D01*
Y50002D01*
X116703Y55797D01*
X117225Y56578D01*
X117409Y57500D01*
Y69188D01*
X117462D01*
Y92556D01*
X123703Y98797D01*
X124225Y99578D01*
X124408Y100500D01*
Y107000D01*
Y122500D01*
X124225Y123422D01*
X123703Y124203D01*
X124250Y124750D01*
Y135054D01*
X124225Y135078D01*
X124408Y136000D01*
Y167000D01*
X124225Y167922D01*
X123703Y168703D01*
X122922Y169225D01*
X122000Y169409D01*
X117173D01*
X116963Y169908D01*
X117260Y170626D01*
X117375Y171500D01*
X117260Y172374D01*
X116923Y173188D01*
X116387Y173887D01*
X116251Y174022D01*
X116229Y174063D01*
X116208Y174172D01*
X116007Y174473D01*
X115833Y174791D01*
X115747Y174861D01*
X115685Y174953D01*
X115392Y175150D01*
X115372Y175171D01*
X115350Y175182D01*
X115103Y175382D01*
X114997Y175413D01*
X114904Y175475D01*
X114827Y175490D01*
X114748Y175558D01*
X114669Y175645D01*
X114598Y175732D01*
X114592Y175741D01*
X114583Y175751D01*
X114571Y175768D01*
X114459Y176031D01*
X114364Y176125D01*
X114298Y176242D01*
X114031Y176452D01*
X113789Y176690D01*
X113665Y176740D01*
X113560Y176823D01*
X113408Y176865D01*
X112624Y177650D01*
X112620Y177658D01*
X112552Y177721D01*
X112376Y177897D01*
X112282Y178030D01*
X112240Y178069D01*
X112233Y178079D01*
X112226Y178082D01*
X112138Y178166D01*
X111595Y178702D01*
X111523Y178750D01*
X111387Y178887D01*
X110688Y179423D01*
X109874Y179760D01*
X109000Y179875D01*
X107714D01*
X107436Y180291D01*
X107575Y180626D01*
X107690Y181500D01*
X107575Y182374D01*
X107238Y183188D01*
X106897Y183633D01*
X106748Y184000D01*
X106897Y184367D01*
X107238Y184812D01*
X107575Y185626D01*
X107690Y186500D01*
X107575Y187374D01*
X107409Y187776D01*
X107661Y188154D01*
X107661D01*
Y194846D01*
X102566D01*
X102347Y194875D01*
X95408D01*
Y197000D01*
X95225Y197922D01*
X94703Y198703D01*
X93922Y199225D01*
X93000Y199408D01*
X88500D01*
X87578Y199225D01*
X86797Y198703D01*
X86275Y197922D01*
X86092Y197000D01*
Y195359D01*
X84619D01*
X84447Y195393D01*
X84274Y195359D01*
X84263D01*
X84094Y195367D01*
X84071Y195359D01*
X79097D01*
Y189232D01*
X77629D01*
X77456Y189267D01*
X77316Y189239D01*
X77173Y189250D01*
X77119Y189232D01*
X71169D01*
Y180768D01*
X77119D01*
X77173Y180750D01*
X77316Y180761D01*
X77456Y180733D01*
X77629Y180768D01*
X79831D01*
Y181253D01*
X80185Y181606D01*
X80685Y181605D01*
X80931Y181104D01*
X80908Y181074D01*
X80494Y180073D01*
X80352Y179000D01*
X80494Y177927D01*
X80908Y176926D01*
X81567Y176067D01*
X82426Y175408D01*
X83426Y174994D01*
X84500Y174852D01*
X85574Y174994D01*
X86574Y175408D01*
X86824Y175600D01*
X86906Y175606D01*
X87027Y175607D01*
X87108Y175625D01*
X93500D01*
Y169409D01*
X66998D01*
X57203Y179203D01*
X56422Y179725D01*
X55500Y179909D01*
X47500Y179909D01*
X30500D01*
X30385Y179886D01*
X30269Y179897D01*
X29928Y179795D01*
X29578Y179725D01*
X29481Y179660D01*
X29369Y179626D01*
X29093Y179401D01*
X28797Y179203D01*
X24797Y175203D01*
X24275Y174422D01*
X24092Y173500D01*
Y102000D01*
X24275Y101078D01*
X24797Y100297D01*
X28591Y96502D01*
Y86498D01*
X27502Y85409D01*
X20500D01*
X19578Y85225D01*
X18797Y84703D01*
X18275Y83922D01*
X18091Y83000D01*
Y72800D01*
X18275Y71878D01*
X18797Y71097D01*
X19346Y70730D01*
X19355Y70523D01*
X19286Y70169D01*
X18588Y69703D01*
X18066Y68922D01*
X17883Y68000D01*
Y55500D01*
X18066Y54578D01*
X18588Y53797D01*
X19370Y53275D01*
X20291Y53092D01*
X28341D01*
Y18000D01*
X28432Y17545D01*
X28520Y17089D01*
X28524Y17084D01*
X28525Y17078D01*
X28782Y16693D01*
X29039Y16305D01*
X29044Y16302D01*
X29047Y16297D01*
X30190Y15154D01*
X30971Y14632D01*
X31893Y14449D01*
X42099D01*
X43020Y14632D01*
X43802Y15154D01*
X44203Y15556D01*
X44725Y16337D01*
X44908Y17259D01*
Y18866D01*
X45408Y19036D01*
X45681Y18681D01*
X46507Y18047D01*
X46532Y18037D01*
Y21500D01*
Y24963D01*
X46507Y24953D01*
X45681Y24319D01*
X45408Y23964D01*
X44908Y24134D01*
Y54672D01*
X46378D01*
X46625Y54425D01*
Y50000D01*
X46740Y49126D01*
X47077Y48312D01*
X47613Y47613D01*
X60613Y34613D01*
X61312Y34077D01*
X62126Y33740D01*
X63000Y33625D01*
X67592D01*
Y31000D01*
X67775Y30078D01*
X68297Y29297D01*
X69078Y28775D01*
X70000Y28591D01*
X74000D01*
X74922Y28775D01*
X75703Y29297D01*
X76091Y29878D01*
X76591Y29727D01*
Y13000D01*
Y10500D01*
X76775Y9578D01*
X77297Y8797D01*
X80297Y5797D01*
X81078Y5275D01*
X82000Y5091D01*
X85750D01*
X138000Y5091D01*
X138922Y5275D01*
X139703Y5797D01*
X145703Y11797D01*
X146225Y12578D01*
X146408Y13500D01*
Y15192D01*
X146850Y15428D01*
X147078Y15275D01*
X148000Y15091D01*
X149190D01*
X149426Y14994D01*
X150500Y14852D01*
X151574Y14994D01*
X151810Y15091D01*
X152500D01*
X153422Y15275D01*
X154203Y15797D01*
X154725Y16578D01*
X154909Y17500D01*
Y24000D01*
X154725Y24922D01*
X154575Y25147D01*
Y28315D01*
X146408D01*
Y35502D01*
X173203Y62297D01*
X173725Y63078D01*
X173908Y64000D01*
Y89002D01*
X173998Y89091D01*
X238000Y89091D01*
X238922Y89275D01*
X239703Y89797D01*
X243703Y93797D01*
X244225Y94578D01*
X244408Y95500D01*
Y106500D01*
X244225Y107422D01*
X243703Y108203D01*
X239703Y112203D01*
X238922Y112725D01*
X238000Y112908D01*
X191248D01*
X190909Y113248D01*
Y130181D01*
X197500D01*
X198928Y130322D01*
X200301Y130738D01*
X201566Y131415D01*
X202675Y132325D01*
X223675Y153325D01*
X224585Y154434D01*
X225262Y155699D01*
X225678Y157072D01*
X225819Y158500D01*
Y165504D01*
X226406Y166092D01*
X231000D01*
X231000Y166092D01*
X231000Y166092D01*
X231422Y166092D01*
X231890Y166185D01*
X232343Y166275D01*
X232344Y166275D01*
X232344Y166275D01*
X232742Y166542D01*
X233125Y166797D01*
X233125Y166797D01*
X233125Y166797D01*
X233381Y167180D01*
X233647Y167578D01*
X233647Y167579D01*
X233647Y167579D01*
X233737Y168032D01*
X233830Y168500D01*
X233830Y174078D01*
X233830Y174078D01*
X233830Y174078D01*
X233762Y174421D01*
X233647Y175000D01*
X233647Y175000D01*
X233647Y175000D01*
X233324Y175483D01*
X233125Y175781D01*
X233125Y175781D01*
X233125Y175782D01*
X232815Y176091D01*
Y176650D01*
X232706D01*
X232439Y177150D01*
X232725Y177578D01*
X232909Y178500D01*
Y183500D01*
X232725Y184422D01*
X232203Y185203D01*
X231422Y185725D01*
X230500Y185908D01*
X211668D01*
X211299Y186224D01*
Y192191D01*
X211320Y192258D01*
X211309Y192386D01*
X211333Y192512D01*
X211299Y192684D01*
Y194886D01*
X209519D01*
X209502Y194950D01*
X209438Y195334D01*
X209394Y195837D01*
X209376Y196512D01*
X209368Y196547D01*
Y196790D01*
X209377Y196831D01*
X209386Y197521D01*
X209440Y198398D01*
X209777Y198400D01*
X210364Y198398D01*
X210452Y198396D01*
X210497Y198403D01*
X210559Y198391D01*
X210626Y198404D01*
X211890Y198410D01*
X211933Y198419D01*
X213500D01*
X213545Y198425D01*
X218815D01*
Y207150D01*
X213545D01*
X213500Y207155D01*
X211930D01*
X211886Y207164D01*
X210637Y207169D01*
X210559Y207184D01*
D02*
G37*
G36*
X19969Y170102D02*
Y167968D01*
X22102D01*
X21969Y168291D01*
X21240Y169240D01*
X20291Y169969D01*
X19969Y170102D01*
D02*
G37*
G36*
X16032D02*
X15709Y169969D01*
X14760Y169240D01*
X14031Y168291D01*
X13898Y167968D01*
X16032D01*
Y170102D01*
D02*
G37*
G36*
X22102Y164032D02*
X19969D01*
Y161898D01*
X20291Y162031D01*
X21240Y162760D01*
X21969Y163709D01*
X22102Y164032D01*
D02*
G37*
G36*
X16032D02*
X13898D01*
X14031Y163709D01*
X14760Y162760D01*
X15709Y162031D01*
X16032Y161898D01*
Y164032D01*
D02*
G37*
G36*
X180968Y154787D02*
Y152654D01*
X183102D01*
X182969Y152976D01*
X182240Y153925D01*
X181291Y154654D01*
X180968Y154787D01*
D02*
G37*
G36*
X177032D02*
X176709Y154654D01*
X175760Y153925D01*
X175031Y152976D01*
X174898Y152654D01*
X177032D01*
Y154787D01*
D02*
G37*
G36*
X183102Y148716D02*
X180968D01*
Y146583D01*
X181291Y146716D01*
X182240Y147445D01*
X182969Y148394D01*
X183102Y148716D01*
D02*
G37*
G36*
X177032D02*
X174898D01*
X175031Y148394D01*
X175760Y147445D01*
X176709Y146716D01*
X177032Y146583D01*
Y148716D01*
D02*
G37*
G36*
X20469Y128102D02*
Y125969D01*
X22602D01*
X22469Y126291D01*
X21740Y127240D01*
X20791Y127969D01*
X20469Y128102D01*
D02*
G37*
G36*
X16532D02*
X16209Y127969D01*
X15260Y127240D01*
X14531Y126291D01*
X14398Y125969D01*
X16532D01*
Y128102D01*
D02*
G37*
G36*
X231968Y126325D02*
Y122968D01*
X236529D01*
X236231Y123688D01*
X235377Y124802D01*
X234263Y125656D01*
X232966Y126193D01*
X231968Y126325D01*
D02*
G37*
G36*
X228031D02*
X227034Y126193D01*
X225737Y125656D01*
X224623Y124802D01*
X223769Y123688D01*
X223471Y122968D01*
X228031D01*
Y126325D01*
D02*
G37*
G36*
X22602Y122031D02*
X20469D01*
Y119898D01*
X20791Y120031D01*
X21740Y120760D01*
X22469Y121709D01*
X22602Y122031D01*
D02*
G37*
G36*
X16532D02*
X14398D01*
X14531Y121709D01*
X15260Y120760D01*
X16209Y120031D01*
X16532Y119898D01*
Y122031D01*
D02*
G37*
G36*
X236529Y119032D02*
X231968D01*
Y115675D01*
X232966Y115806D01*
X234263Y116344D01*
X235377Y117198D01*
X236231Y118312D01*
X236529Y119032D01*
D02*
G37*
G36*
X228031D02*
X223471D01*
X223769Y118312D01*
X224623Y117198D01*
X225737Y116344D01*
X227034Y115806D01*
X228031Y115675D01*
Y119032D01*
D02*
G37*
G36*
X181968Y88102D02*
Y85969D01*
X184102D01*
X183969Y86291D01*
X183240Y87240D01*
X182291Y87969D01*
X181968Y88102D01*
D02*
G37*
G36*
X178032D02*
X177709Y87969D01*
X176760Y87240D01*
X176031Y86291D01*
X175898Y85969D01*
X178032D01*
Y88102D01*
D02*
G37*
G36*
X184102Y82032D02*
X181968D01*
Y79898D01*
X182291Y80031D01*
X183240Y80760D01*
X183969Y81709D01*
X184102Y82032D01*
D02*
G37*
G36*
X178032D02*
X175898D01*
X176031Y81709D01*
X176760Y80760D01*
X177709Y80031D01*
X178032Y79898D01*
Y82032D01*
D02*
G37*
G36*
X50468Y24963D02*
Y23469D01*
X51963D01*
X51953Y23493D01*
X51319Y24319D01*
X50493Y24953D01*
X50468Y24963D01*
D02*
G37*
G36*
X51963Y19532D02*
X50468D01*
Y18037D01*
X50493Y18047D01*
X51319Y18681D01*
X51953Y19507D01*
X51963Y19532D01*
D02*
G37*
G36*
X58500Y26861D02*
X57112Y26678D01*
X55820Y26143D01*
X54709Y25291D01*
X53857Y24180D01*
X53322Y22887D01*
X53139Y21500D01*
X53322Y20112D01*
X53857Y18820D01*
X54709Y17709D01*
X55820Y16857D01*
X57112Y16322D01*
X58500Y16139D01*
X59887Y16322D01*
X61180Y16857D01*
X62291Y17709D01*
X63143Y18820D01*
X63678Y20112D01*
X63861Y21500D01*
X63678Y22887D01*
X63143Y24180D01*
X62291Y25291D01*
X61180Y26143D01*
X59887Y26678D01*
X58500Y26861D01*
D02*
G37*
%LPD*%
G36*
X210559Y204760D02*
X211878Y204756D01*
Y200819D01*
X210559Y200812D01*
Y200799D01*
X210520Y200803D01*
X210402Y200806D01*
X209776Y200809D01*
X207941Y200799D01*
X207756Y200760D01*
X207591Y200642D01*
X207445Y200445D01*
X207318Y200169D01*
X207212Y199815D01*
X207124Y199382D01*
X207056Y198870D01*
X206978Y197610D01*
X206968Y196862D01*
X203031D01*
X203022Y197610D01*
X202876Y199382D01*
X202788Y199815D01*
X202681Y200169D01*
X202555Y200445D01*
X202409Y200642D01*
X202244Y200760D01*
X202059Y200799D01*
X202020Y200803D01*
X201902Y200806D01*
X198122Y200819D01*
Y204756D01*
X202059Y204775D01*
Y200799D01*
X207941D01*
Y200815D01*
X206622Y200819D01*
Y204756D01*
X207941Y204762D01*
Y204775D01*
X207980Y204772D01*
X208098Y204768D01*
X208724Y204766D01*
X210559Y204775D01*
Y204760D01*
D02*
G37*
G36*
X206988Y195701D02*
X207047Y195031D01*
X207145Y194441D01*
X207282Y193929D01*
X207458Y193496D01*
X207673Y193141D01*
X207927Y192866D01*
X208221Y192669D01*
X208553Y192551D01*
X208925Y192512D01*
X201075D01*
X201447Y192551D01*
X201779Y192669D01*
X202073Y192866D01*
X202327Y193141D01*
X202542Y193496D01*
X202718Y193929D01*
X202855Y194441D01*
X202953Y195031D01*
X203012Y195701D01*
X203031Y196449D01*
X206968D01*
X206988Y195701D01*
D02*
G37*
G36*
X133053Y192832D02*
X133150Y192896D01*
Y190111D01*
X133053Y190176D01*
Y190016D01*
X133034Y190111D01*
X132975Y190197D01*
X132939Y190224D01*
X132849Y190258D01*
X132596Y190319D01*
X132274Y190372D01*
X131424Y190454D01*
X129633Y190515D01*
X128900Y190519D01*
Y192488D01*
X129633Y192492D01*
X132596Y192688D01*
X132849Y192749D01*
X132939Y192783D01*
X132975Y192810D01*
X133034Y192896D01*
X133053Y192992D01*
Y192832D01*
D02*
G37*
G36*
X84466Y192851D02*
X84525Y192732D01*
X84624Y192627D01*
X84762Y192536D01*
X84939Y192459D01*
X85155Y192396D01*
X85411Y192347D01*
X85707Y192312D01*
X86041Y192290D01*
X86415Y192283D01*
Y190315D01*
X86041Y190312D01*
X84939Y190238D01*
X84762Y190205D01*
X84624Y190165D01*
X84525Y190119D01*
X84466Y190067D01*
X84447Y190008D01*
Y192984D01*
X84466Y192851D01*
D02*
G37*
G36*
X92976Y193029D02*
X93035Y192915D01*
X93134Y192814D01*
X93271Y192727D01*
X93449Y192652D01*
X93665Y192592D01*
X93921Y192545D01*
X94216Y192511D01*
X94551Y192491D01*
X94925Y192484D01*
Y190516D01*
X94551Y190506D01*
X94216Y190476D01*
X93921Y190427D01*
X93665Y190358D01*
X93449Y190270D01*
X93271Y190161D01*
X93134Y190033D01*
X93035Y189886D01*
X92976Y189718D01*
X92957Y189532D01*
Y193157D01*
X92976Y193029D01*
D02*
G37*
G36*
X89043Y189441D02*
X89024Y189607D01*
X88965Y189756D01*
X88866Y189887D01*
X88728Y190000D01*
X88551Y190096D01*
X88335Y190175D01*
X88079Y190236D01*
X87784Y190280D01*
X87449Y190306D01*
X87075Y190315D01*
Y192283D01*
X87449Y192292D01*
X87784Y192318D01*
X88079Y192362D01*
X88335Y192423D01*
X88551Y192502D01*
X88728Y192598D01*
X88866Y192712D01*
X88965Y192843D01*
X89024Y192991D01*
X89043Y193157D01*
Y189441D01*
D02*
G37*
G36*
X84455Y186782D02*
X84515Y186614D01*
X84615Y186467D01*
X84754Y186339D01*
X84932Y186230D01*
X85150Y186142D01*
X85407Y186073D01*
X85703Y186024D01*
X86040Y185994D01*
X86415Y185984D01*
Y184016D01*
X84447Y184008D01*
X84435Y186969D01*
X84455Y186782D01*
D02*
G37*
G36*
X81471Y184008D02*
X81451Y184010D01*
X81293Y184012D01*
X79502Y184016D01*
Y185984D01*
X79876Y185994D01*
X80211Y186024D01*
X80506Y186073D01*
X80762Y186142D01*
X80979Y186230D01*
X81156Y186339D01*
X81293Y186467D01*
X81392Y186614D01*
X81451Y186782D01*
X81471Y186969D01*
Y184008D01*
D02*
G37*
G36*
X92976Y186692D02*
X93035Y186544D01*
X93134Y186412D01*
X93271Y186299D01*
X93449Y186203D01*
X93665Y186124D01*
X93921Y186063D01*
X94216Y186019D01*
X94551Y185993D01*
X94925Y185984D01*
Y184016D01*
X94551Y184007D01*
X94216Y183981D01*
X93921Y183937D01*
X93665Y183876D01*
X93449Y183797D01*
X93271Y183701D01*
X93134Y183588D01*
X93035Y183457D01*
X92976Y183308D01*
X92957Y183142D01*
Y186858D01*
X92976Y186692D01*
D02*
G37*
G36*
X89043Y183142D02*
X89024Y183308D01*
X88965Y183457D01*
X88866Y183588D01*
X88728Y183701D01*
X88551Y183797D01*
X88335Y183876D01*
X88079Y183937D01*
X87784Y183981D01*
X87449Y184007D01*
X87075Y184016D01*
Y185984D01*
X87449Y185993D01*
X87784Y186019D01*
X88079Y186063D01*
X88335Y186124D01*
X88551Y186203D01*
X88728Y186299D01*
X88866Y186412D01*
X88965Y186544D01*
X89024Y186692D01*
X89043Y186858D01*
Y183142D01*
D02*
G37*
G36*
X77476Y186692D02*
X77535Y186544D01*
X77634Y186412D01*
X77772Y186299D01*
X77949Y186203D01*
X78165Y186124D01*
X78421Y186063D01*
X78716Y186019D01*
X79051Y185993D01*
X79425Y185984D01*
Y184016D01*
X79051Y184007D01*
X78716Y183981D01*
X78421Y183937D01*
X78165Y183876D01*
X77949Y183797D01*
X77772Y183701D01*
X77634Y183588D01*
X77535Y183457D01*
X77476Y183308D01*
X77456Y183142D01*
Y186858D01*
X77476Y186692D01*
D02*
G37*
G36*
X201083Y181707D02*
X201086Y181707D01*
X201460Y181697D01*
Y179728D01*
X201265Y179726D01*
X201076Y179712D01*
X201075Y179543D01*
X201055Y179579D01*
X200996Y179610D01*
X200898Y179638D01*
X200760Y179662D01*
X200668Y179672D01*
X200642Y179668D01*
X200525Y179642D01*
X200424Y179610D01*
X200338Y179574D01*
X200267Y179533D01*
X200212Y179488D01*
Y179701D01*
X199815Y179721D01*
X199107Y179728D01*
Y181697D01*
X199482Y181707D01*
X199818Y181736D01*
X200115Y181785D01*
X200212Y181811D01*
Y181938D01*
X200267Y181892D01*
X200338Y181851D01*
X200346Y181847D01*
X200372Y181854D01*
X200590Y181943D01*
X200768Y182051D01*
X200907Y182179D01*
X201007Y182327D01*
X201066Y182494D01*
X201087Y182681D01*
X201083Y181707D01*
D02*
G37*
G36*
X221370Y183461D02*
X223142Y183346D01*
X223575Y183276D01*
X223929Y183192D01*
X224205Y183092D01*
X224402Y182977D01*
X224520Y182846D01*
X224559Y182701D01*
Y178725D01*
X224520Y178878D01*
X224402Y179015D01*
X224205Y179136D01*
X223929Y179241D01*
X223575Y179330D01*
X223142Y179402D01*
X222630Y179459D01*
X221370Y179523D01*
X220622Y179532D01*
Y183468D01*
X221370Y183461D01*
D02*
G37*
G36*
X198827Y182673D02*
Y178500D01*
X197000D01*
X196424Y179076D01*
Y182924D01*
X197000Y183500D01*
X198000D01*
X198827Y182673D01*
D02*
G37*
G36*
X85805Y180179D02*
X85875Y180138D01*
X85961Y180102D01*
X86063Y180071D01*
X86180Y180044D01*
X86312Y180023D01*
X86624Y179994D01*
X86997Y179984D01*
Y178016D01*
X86803Y178013D01*
X86312Y177977D01*
X86180Y177956D01*
X86063Y177929D01*
X85961Y177898D01*
X85875Y177862D01*
X85805Y177821D01*
X85750Y177775D01*
Y180225D01*
X85805Y180179D01*
D02*
G37*
G36*
X110464Y176434D02*
X110629Y176278D01*
X110655Y176256D01*
X110667Y176249D01*
X110779Y174807D01*
X109034Y174942D01*
X109032Y174969D01*
X109014Y175009D01*
X108981Y175062D01*
X108462Y175645D01*
X108321Y175786D01*
X109901Y176990D01*
X110464Y176434D01*
D02*
G37*
G36*
X112469Y174676D02*
X112481Y174615D01*
X112507Y174546D01*
X112548Y174468D01*
X112602Y174381D01*
X112670Y174285D01*
X112847Y174067D01*
X113070Y173826D01*
X113442Y173504D01*
X113551Y173426D01*
X113652Y173362D01*
X113746Y173313D01*
X113832Y173277D01*
X113911Y173256D01*
X113982Y173250D01*
X112250Y171518D01*
X112244Y171589D01*
X112223Y171668D01*
X112187Y171754D01*
X112138Y171848D01*
X112074Y171949D01*
X111995Y172058D01*
X111797Y172297D01*
X111618Y172454D01*
X111500Y172543D01*
X111389Y172618D01*
X111284Y172677D01*
X111187Y172721D01*
X111097Y172750D01*
X111014Y172764D01*
X110938Y172763D01*
X110779Y174807D01*
X112469Y174676D01*
D02*
G37*
G36*
X231422Y174078D02*
X231422Y168500D01*
X231000Y168500D01*
X230000Y173297D01*
X230500Y173797D01*
Y174500D01*
X231000D01*
X231422Y174078D01*
D02*
G37*
G36*
X215000Y169225D02*
X214500Y168725D01*
Y167000D01*
X213578D01*
X212578Y168000D01*
X201536D01*
X200530Y169006D01*
X200530Y173967D01*
X201063Y174500D01*
X210500Y174500D01*
X215000Y169225D01*
D02*
G37*
G36*
X225773Y168865D02*
X222500Y165592D01*
X221500Y166500D01*
Y170000D01*
X223146Y171646D01*
X225773D01*
Y168865D01*
D02*
G37*
G36*
X36069Y162457D02*
X35969Y162422D01*
X35880Y162362D01*
X35803Y162280D01*
X35738Y162173D01*
X35685Y162043D01*
X35644Y161890D01*
X35614Y161713D01*
X35596Y161512D01*
X35591Y161288D01*
X34409D01*
X34407Y161512D01*
X34369Y162043D01*
X34345Y162173D01*
X34317Y162280D01*
X34284Y162362D01*
X34246Y162422D01*
X34202Y162457D01*
X34154Y162469D01*
X36181D01*
X36069Y162457D01*
D02*
G37*
G36*
X55500Y177500D02*
X70250Y162750D01*
X68000Y160500D01*
X46696Y160500D01*
X42500Y164696D01*
Y169000D01*
X44500Y177500D01*
X55500Y177500D01*
D02*
G37*
G36*
X163006Y134500D02*
X161506Y136000D01*
X151000D01*
Y136500D01*
X149500Y138000D01*
X154000Y142500D01*
X163006Y142500D01*
Y134500D01*
D02*
G37*
G36*
X34699Y133988D02*
X35000Y133862D01*
Y148500D01*
X36000Y149500D01*
X37500Y148000D01*
X52500D01*
Y145000D01*
X63500D01*
Y141000D01*
X50000Y127500D01*
X48648Y134648D01*
X41000Y127000D01*
X35713Y127881D01*
X35738Y127820D01*
X35803Y127712D01*
X35880Y127629D01*
X35969Y127568D01*
X36069Y127532D01*
X36181Y127519D01*
X35322Y127526D01*
X35396Y126756D01*
X35591D01*
X35696Y124696D01*
X35595D01*
X36000Y120500D01*
X36031Y120469D01*
X36968D01*
X36781Y120449D01*
X36614Y120390D01*
X36467Y120291D01*
X36342Y120158D01*
X38500Y118000D01*
Y100500D01*
X37614D01*
X38978Y90705D01*
X39500Y92000D01*
X39500Y88000D01*
X48297Y79203D01*
X47977Y78883D01*
X48044Y78862D01*
X48055Y76531D01*
X48035Y76718D01*
X47975Y76886D01*
X47875Y77034D01*
X47736Y77161D01*
X47558Y77270D01*
X47340Y77358D01*
X47083Y77427D01*
X46786Y77476D01*
X46588Y77494D01*
X45094Y76000D01*
X40468D01*
Y76775D01*
X40447Y76724D01*
X40423Y76538D01*
Y80000D01*
X27000Y80000D01*
Y81500D01*
X31000Y85500D01*
Y97500D01*
X30500Y98000D01*
X26500Y102000D01*
Y173500D01*
X30500Y177500D01*
X34699Y133988D01*
D02*
G37*
G36*
X194515Y106236D02*
X215000Y107500D01*
X218000Y110500D01*
X238000D01*
X242000Y106500D01*
Y95500D01*
X240500Y94000D01*
X238000Y91500D01*
X173000Y91500D01*
X171500Y90000D01*
Y64000D01*
X142000Y34500D01*
X142550Y36550D01*
X138000Y32000D01*
Y28500D01*
X144000Y22500D01*
Y13500D01*
X138000Y7500D01*
X85750Y7500D01*
X82000D01*
X79000Y10500D01*
Y13000D01*
X82500Y13914D01*
X82500Y18579D01*
X85875Y20000D01*
X84000D01*
X82500Y21500D01*
Y26500D01*
X88250D01*
X88500Y26250D01*
X88000Y25750D01*
Y20895D01*
X93000Y23000D01*
X97000Y19000D01*
X97500D01*
Y24500D01*
X100067Y28000D01*
X89500D01*
Y35500D01*
X88500Y36500D01*
X93000Y37000D01*
X96500Y33500D01*
X104100D01*
X107500Y30100D01*
Y21500D01*
X110000Y19000D01*
X120500D01*
X125000Y23500D01*
Y32500D01*
Y36000D01*
X128000Y39000D01*
Y53750D01*
X158750Y84500D01*
X158750Y103000D01*
X160942Y94442D01*
X166000Y99500D01*
X172500D01*
Y101000D01*
X172532Y100968D01*
Y104469D01*
X173281Y104488D01*
X173952Y104547D01*
X174500Y104638D01*
Y105000D01*
X175675Y105073D01*
X175847Y105177D01*
X176124Y105433D01*
X176321Y105728D01*
X176441Y106063D01*
X176481Y106437D01*
X176478Y105122D01*
X181500Y105432D01*
Y110500D01*
X185000Y113500D01*
X187250D01*
X194515Y106236D01*
D02*
G37*
G36*
X108558Y107067D02*
X108392Y107000D01*
X122000Y107000D01*
Y100500D01*
X110727Y89227D01*
X108908Y92026D01*
X101063D01*
X101437Y92066D01*
X101772Y92184D01*
X102067Y92381D01*
X102323Y92658D01*
X102539Y93013D01*
X102717Y93448D01*
X102854Y93961D01*
X102953Y94553D01*
X103012Y95225D01*
X103032Y95975D01*
X106341D01*
X99175Y107000D01*
X101608D01*
X101442Y107067D01*
X101069Y107112D01*
X108931D01*
X108558Y107067D01*
D02*
G37*
G36*
X115000Y79000D02*
Y57500D01*
X108500Y51000D01*
X108500Y47413D01*
X108595Y45478D01*
X108500D01*
Y44000D01*
X104100D01*
Y50500D01*
X100600Y54000D01*
X71500D01*
X59000Y66500D01*
Y74000D01*
X84000Y79500D01*
X99500D01*
X101708Y77292D01*
X113000Y81000D01*
X115000Y79000D01*
D02*
G37*
G36*
X51179Y60195D02*
X51138Y60125D01*
X51102Y60039D01*
X51071Y59937D01*
X51044Y59820D01*
X51023Y59688D01*
X50994Y59377D01*
X50984Y59003D01*
X49016D01*
X49013Y59197D01*
X48977Y59688D01*
X48956Y59820D01*
X48929Y59937D01*
X48898Y60039D01*
X48862Y60125D01*
X48821Y60195D01*
X48775Y60250D01*
X51225D01*
X51179Y60195D01*
D02*
G37*
G36*
X69797Y52297D02*
X70578Y51775D01*
X71500Y51591D01*
X76560D01*
X76905Y51230D01*
X76775Y48422D01*
X76591Y47500D01*
Y39514D01*
X76091Y39309D01*
X75862Y39531D01*
Y40862D01*
X70684D01*
X70512Y40896D01*
X70340Y40862D01*
X68138D01*
Y40375D01*
X64398D01*
X53375Y51398D01*
Y57578D01*
X53703Y57797D01*
X54225Y58578D01*
X54409Y59500D01*
Y63078D01*
X58578D01*
X58797Y63297D01*
X69797Y52297D01*
D02*
G37*
G36*
X115567Y40277D02*
X115463Y39998D01*
X115372Y39685D01*
X115293Y39337D01*
X115172Y38539D01*
X115129Y38087D01*
X115075Y36528D01*
X111925D01*
X111919Y37082D01*
X111773Y38955D01*
X111707Y39337D01*
X111537Y39998D01*
X111433Y40277D01*
X111318Y40521D01*
X115682D01*
X115567Y40277D01*
D02*
G37*
G36*
X70512Y35512D02*
X70492Y35608D01*
X70433Y35693D01*
X70335Y35769D01*
X70197Y35834D01*
X70020Y35890D01*
X69803Y35935D01*
X69547Y35970D01*
X68918Y36011D01*
X68543Y36016D01*
Y37984D01*
X68918Y37989D01*
X69803Y38065D01*
X70020Y38110D01*
X70197Y38166D01*
X70335Y38231D01*
X70433Y38307D01*
X70492Y38392D01*
X70512Y38488D01*
Y35512D01*
D02*
G37*
G36*
X42500Y18000D02*
Y17259D01*
X42099Y16857D01*
X31893D01*
X30750Y18000D01*
X32525Y18725D01*
X31500Y19750D01*
Y53986D01*
X28986Y56500D01*
X28500D01*
X29077Y56923D01*
X28500Y57500D01*
X29000Y58500D01*
X31229D01*
X39077Y64250D01*
X41500Y66673D01*
Y68000D01*
X42500D01*
Y18000D01*
D02*
G37*
%LPC*%
G36*
X34895Y131949D02*
X34973Y131147D01*
X35000Y131181D01*
Y131819D01*
X34895Y131949D01*
D02*
G37*
G36*
X39705Y85480D02*
X40423Y80323D01*
Y80462D01*
X40447Y80276D01*
X40468Y80225D01*
Y84717D01*
X39705Y85480D01*
D02*
G37*
G36*
X172976Y100524D02*
X174500Y99000D01*
Y100498D01*
X172976Y100524D01*
D02*
G37*
G36*
X143443Y45943D02*
X140000Y42500D01*
X140000Y40000D01*
X138000D01*
Y34623D01*
X143443Y45943D01*
D02*
G37*
G36*
X107013Y94941D02*
X107047Y94553D01*
X107146Y93961D01*
X107283Y93448D01*
X107461Y93013D01*
X107677Y92658D01*
X107933Y92381D01*
X108228Y92184D01*
X108563Y92066D01*
X108906Y92029D01*
X107013Y94941D01*
D02*
G37*
%LPD*%
D17*
X50000Y65095D02*
D03*
Y76906D02*
D03*
D18*
X37482Y39000D02*
D03*
X24018D02*
D03*
X37482Y48422D02*
D03*
X24018D02*
D03*
D19*
X210000Y122280D02*
D03*
Y100626D02*
D03*
D20*
X104100Y81800D02*
D03*
D21*
X130100Y90800D02*
D03*
Y72800D02*
D03*
D22*
X134541Y185504D02*
D03*
Y191504D02*
D03*
X72000Y43000D02*
D03*
Y37000D02*
D03*
X82959Y191496D02*
D03*
Y185496D02*
D03*
X218959Y178696D02*
D03*
Y172696D02*
D03*
D23*
X182000Y181500D02*
D03*
D24*
X205000D02*
D03*
Y172445D02*
D03*
Y190555D02*
D03*
D25*
Y211213D02*
D03*
Y202787D02*
D03*
X213500Y211213D02*
D03*
Y202787D02*
D03*
X227500Y180713D02*
D03*
Y172287D02*
D03*
D26*
X91000Y185000D02*
D03*
Y191299D02*
D03*
X75500D02*
D03*
Y185000D02*
D03*
D27*
X24787Y93000D02*
D03*
X33213D02*
D03*
X150213Y23000D02*
D03*
X141787D02*
D03*
X150213Y31500D02*
D03*
X141787D02*
D03*
D28*
X102347Y191500D02*
D03*
D29*
Y186500D02*
D03*
Y181500D02*
D03*
Y176500D02*
D03*
X123846Y191500D02*
D03*
Y186500D02*
D03*
Y181500D02*
D03*
Y176500D02*
D03*
D30*
X205000Y172445D02*
X218959D01*
X205000Y181500D02*
X225773D01*
X226750Y180523D01*
X106413Y43000D02*
Y54100D01*
X104100D02*
Y81800D01*
X105000Y82700D01*
Y110500D01*
X167000Y102500D02*
X178815D01*
X180000Y103685D01*
X134541Y191504D02*
Y198041D01*
X139287Y202787D01*
X205000D01*
X213500D01*
X205000Y190555D02*
Y202787D01*
D52*
X218959Y172445D02*
X221342D01*
X180000Y104500D02*
X192500D01*
X179000Y131000D02*
X181000D01*
X187500Y137500D01*
X35000Y124000D02*
Y167000D01*
X221500Y172287D02*
X227500D01*
X218959Y172445D02*
Y172696D01*
X221342Y172445D02*
X221500Y172287D01*
X192500Y104500D02*
X196374Y100626D01*
X210000D01*
D53*
X187500Y137500D02*
X197500D01*
X218500Y158500D01*
Y169000D01*
D54*
X198963Y180713D02*
X203500D01*
X109000Y176500D02*
X114000Y171500D01*
X102347Y176500D02*
X109000D01*
X91000Y190650D02*
X91850Y191500D01*
X63000Y37000D02*
X72000D01*
X50000Y50000D02*
X63000Y37000D01*
X50000Y50000D02*
Y61500D01*
X84500Y179000D02*
X95500D01*
X98000Y181500D01*
X102347D01*
X75500Y185000D02*
X91000D01*
X96500Y186500D02*
X102347D01*
X95000Y185000D02*
X96500Y186500D01*
X91000Y185000D02*
X95000D01*
X35000Y78500D02*
Y124000D01*
X48906Y78500D02*
X50000Y77406D01*
X35000Y78500D02*
X48906D01*
X82959Y191496D02*
X83156Y191299D01*
X91000D01*
X91850Y191500D02*
X102347D01*
X125000Y191504D02*
X134541D01*
D55*
X113500Y24500D02*
Y43000D01*
D56*
X216283Y171250D02*
D03*
D57*
X36625Y38250D02*
D03*
D58*
X181125Y181943D02*
D03*
D59*
X201805Y181000D02*
D03*
D60*
X215500D02*
D03*
D61*
X202625Y105750D02*
D03*
D62*
X96550Y24500D02*
D03*
D63*
X72000Y34500D02*
D03*
D64*
X45750Y112250D02*
D03*
D65*
X31396Y61750D02*
D03*
D66*
X106300Y44250D02*
D03*
D67*
X159250Y103875D02*
D03*
D68*
X150250Y20750D02*
D03*
D69*
X136000Y36250D02*
D03*
D70*
X86750Y29125D02*
D03*
D71*
X173625Y119000D02*
D03*
D72*
X175500Y97750D02*
D03*
D73*
X90500Y112000D02*
D03*
D74*
X39000Y162500D02*
D03*
D75*
X37856Y110250D02*
D03*
D76*
X37250Y77900D02*
D03*
D77*
X90750Y194250D02*
D03*
D78*
X35750Y101750D02*
D03*
D79*
X41000Y78600D02*
D03*
D80*
X87000Y96640D02*
D03*
D81*
X50000Y63250D02*
D03*
D82*
X79000Y151500D02*
D03*
D83*
X35000Y145500D02*
D03*
D84*
X220750Y172000D02*
D03*
D85*
X180000Y115750D02*
D03*
D86*
X196000Y100750D02*
D03*
D87*
X58500Y21500D02*
D03*
X48500D02*
D03*
X251658Y215500D02*
D03*
Y11000D02*
D03*
X11500D02*
D03*
Y215500D02*
D03*
D88*
X38658Y21500D02*
D03*
D89*
X180000Y84000D02*
D03*
X179000Y150685D02*
D03*
X18000Y166000D02*
D03*
X18500Y124000D02*
D03*
D90*
X180000Y103685D02*
D03*
X179000Y131000D02*
D03*
D91*
X35000Y78500D02*
D03*
Y62500D02*
D03*
X230000Y105000D02*
D03*
Y121000D02*
D03*
D92*
X105000Y150000D02*
D03*
Y110500D02*
D03*
D93*
X37685Y166000D02*
D03*
X38185Y124000D02*
D03*
D94*
X120587Y43000D02*
D03*
X113500D02*
D03*
X106413D02*
D03*
X99327D02*
D03*
X92240D02*
D03*
D95*
X74000Y11000D02*
D03*
Y18605D02*
D03*
X68000Y11000D02*
D03*
X68500Y18605D02*
D03*
X74000Y25000D02*
D03*
X68500D02*
D03*
X56750Y34250D02*
D03*
X51000Y36750D02*
D03*
X48297Y42500D02*
D03*
X34000Y9000D02*
D03*
X110727Y174500D02*
D03*
X222500Y181500D02*
D03*
X211668Y180713D02*
D03*
X114000Y171500D02*
D03*
X198963Y180713D02*
D03*
X121000Y59000D02*
D03*
X106500Y58500D02*
D03*
X131500Y63078D02*
D03*
X125775Y63500D02*
D03*
X140500Y96250D02*
D03*
X134250Y98000D02*
D03*
X127000Y98114D02*
D03*
X141097Y105000D02*
D03*
X134500Y105500D02*
D03*
X127000Y105000D02*
D03*
X147500Y156500D02*
D03*
X138500D02*
D03*
X129500D02*
D03*
X254000Y42000D02*
D03*
X244000D02*
D03*
X226000Y16000D02*
D03*
X217500Y15797D02*
D03*
X247500Y188000D02*
D03*
X247187Y196000D02*
D03*
X223500Y211500D02*
D03*
Y221000D02*
D03*
X40500Y213000D02*
D03*
Y220500D02*
D03*
X254500Y32000D02*
D03*
X244500D02*
D03*
X230500Y212500D02*
D03*
Y221000D02*
D03*
X254500Y188000D02*
D03*
Y196000D02*
D03*
X31000Y212500D02*
D03*
Y220500D02*
D03*
X17500Y197500D02*
D03*
X11500D02*
D03*
X6500Y28500D02*
D03*
Y34500D02*
D03*
X226500Y7000D02*
D03*
X218000D02*
D03*
X28500Y9000D02*
D03*
X78000Y151000D02*
D03*
Y158000D02*
D03*
Y164500D02*
D03*
X66000Y151000D02*
D03*
X66104Y158000D02*
D03*
Y164032D02*
D03*
X25790Y59113D02*
D03*
X26000Y65165D02*
D03*
Y75748D02*
D03*
Y81000D02*
D03*
X63500Y45000D02*
D03*
X59750Y48559D02*
D03*
X56500Y52250D02*
D03*
X222500Y115500D02*
D03*
X237000Y129000D02*
D03*
X222000Y127750D02*
D03*
X122591Y55000D02*
D03*
X121500Y51000D02*
D03*
X88250Y62363D02*
D03*
X109500Y55000D02*
D03*
X104100D02*
D03*
X106413Y50275D02*
D03*
X87000Y67910D02*
D03*
X77500Y68089D02*
D03*
X76500Y62363D02*
D03*
X66104Y62157D02*
D03*
X70000Y68089D02*
D03*
X62500D02*
D03*
X61500Y107500D02*
D03*
Y93500D02*
D03*
Y101000D02*
D03*
X76000Y94000D02*
D03*
Y101000D02*
D03*
Y107000D02*
D03*
X90500Y100000D02*
D03*
Y106500D02*
D03*
X31500Y123703D02*
D03*
X38791Y173000D02*
D03*
X33612D02*
D03*
X40500Y148000D02*
D03*
X33250Y147500D02*
D03*
X40000Y154500D02*
D03*
X38791Y111500D02*
D03*
X32500D02*
D03*
X40000Y131500D02*
D03*
X33612D02*
D03*
X33250Y154500D02*
D03*
X230000Y114500D02*
D03*
X219000Y120500D02*
D03*
X229500Y129500D02*
D03*
X238922Y99500D02*
D03*
X238767Y105500D02*
D03*
X221342Y102625D02*
D03*
X221500Y108000D02*
D03*
X233000Y97000D02*
D03*
X227000D02*
D03*
X221500D02*
D03*
X242500Y121000D02*
D03*
X190909Y85000D02*
D03*
X188500Y79000D02*
D03*
X180500Y75748D02*
D03*
X185500Y157000D02*
D03*
X178032Y158000D02*
D03*
X171500Y155500D02*
D03*
X170500Y150500D02*
D03*
X22000Y130500D02*
D03*
X20291Y134500D02*
D03*
X21000Y110500D02*
D03*
X20291Y116500D02*
D03*
X15260Y110500D02*
D03*
X15000Y116500D02*
D03*
X15709Y132500D02*
D03*
X14760Y159500D02*
D03*
X18797Y173500D02*
D03*
X18500Y156500D02*
D03*
X108500Y163500D02*
D03*
X102000Y163709D02*
D03*
X94592Y163500D02*
D03*
X109000Y157500D02*
D03*
X102000D02*
D03*
X95000D02*
D03*
X110500Y90000D02*
D03*
X103500D02*
D03*
X110500Y82700D02*
D03*
X103500D02*
D03*
Y75500D02*
D03*
X110588D02*
D03*
X95500D02*
D03*
Y82700D02*
D03*
Y90000D02*
D03*
X72000Y33000D02*
D03*
X113500Y24500D02*
D03*
X150500Y19000D02*
D03*
X84500Y179000D02*
D03*
X91000Y195000D02*
D03*
X50000Y61500D02*
D03*
M02*
