G04*
G04 #@! TF.GenerationSoftware,Altium Limited,Altium Designer,18.1.9 (240)*
G04*
G04 Layer_Color=255*
%FSLAX25Y25*%
%MOIN*%
G70*
G01*
G75*
%ADD17R,0.03937X0.03937*%
%ADD18R,0.05984X0.06299*%
%ADD19R,0.09843X0.09843*%
%ADD20R,0.22000X0.20500*%
%ADD21R,0.08800X0.06000*%
%ADD22R,0.03000X0.03000*%
%ADD23R,0.09843X0.11811*%
%ADD24R,0.07874X0.03937*%
%ADD25R,0.05906X0.04000*%
%ADD26R,0.03937X0.03740*%
%ADD27R,0.04000X0.05906*%
%ADD28R,0.05906X0.01968*%
%ADD29O,0.05906X0.01968*%
%ADD87C,0.05906*%
%ADD88R,0.05906X0.05906*%
%ADD89C,0.07087*%
%ADD90R,0.07087X0.07087*%
%ADD91O,0.11811X0.08661*%
%ADD92O,0.11811X0.07874*%
%ADD93R,0.07087X0.07087*%
%ADD94O,0.04724X0.07874*%
D17*
X50000Y65095D02*
D03*
Y76906D02*
D03*
D18*
X37482Y39000D02*
D03*
X24018D02*
D03*
X37482Y48422D02*
D03*
X24018D02*
D03*
D19*
X210000Y122280D02*
D03*
Y100626D02*
D03*
D20*
X104100Y81800D02*
D03*
D21*
X130100Y90800D02*
D03*
Y72800D02*
D03*
D22*
X134541Y185504D02*
D03*
Y191504D02*
D03*
X72000Y43000D02*
D03*
Y37000D02*
D03*
X82959Y191496D02*
D03*
Y185496D02*
D03*
X218959Y178696D02*
D03*
Y172696D02*
D03*
D23*
X182000Y181500D02*
D03*
D24*
X205000D02*
D03*
Y172445D02*
D03*
Y190555D02*
D03*
D25*
Y211213D02*
D03*
Y202787D02*
D03*
X213500Y211213D02*
D03*
Y202787D02*
D03*
X227500Y180713D02*
D03*
Y172287D02*
D03*
D26*
X91000Y185000D02*
D03*
Y191299D02*
D03*
X75500D02*
D03*
Y185000D02*
D03*
D27*
X24787Y93000D02*
D03*
X33213D02*
D03*
X150213Y23000D02*
D03*
X141787D02*
D03*
X150213Y31500D02*
D03*
X141787D02*
D03*
D28*
X102347Y191500D02*
D03*
D29*
Y186500D02*
D03*
Y181500D02*
D03*
Y176500D02*
D03*
X123846Y191500D02*
D03*
Y186500D02*
D03*
Y181500D02*
D03*
Y176500D02*
D03*
D87*
X58500Y21500D02*
D03*
X48500D02*
D03*
X251658Y215500D02*
D03*
Y11000D02*
D03*
X11500D02*
D03*
Y215500D02*
D03*
D88*
X38658Y21500D02*
D03*
D89*
X180000Y84000D02*
D03*
X179000Y150685D02*
D03*
X18000Y166000D02*
D03*
X18500Y124000D02*
D03*
D90*
X180000Y103685D02*
D03*
X179000Y131000D02*
D03*
D91*
X35000Y78500D02*
D03*
Y62500D02*
D03*
X230000Y105000D02*
D03*
Y121000D02*
D03*
D92*
X105000Y150000D02*
D03*
Y110500D02*
D03*
D93*
X37685Y166000D02*
D03*
X38185Y124000D02*
D03*
D94*
X120587Y43000D02*
D03*
X113500D02*
D03*
X106413D02*
D03*
X99327D02*
D03*
X92240D02*
D03*
M02*
