G04*
G04 #@! TF.GenerationSoftware,Altium Limited,Altium Designer,18.1.9 (240)*
G04*
G04 Layer_Color=2752767*
%FSLAX25Y25*%
%MOIN*%
G70*
G01*
G75*
%ADD106C,0.00200*%
%ADD107C,0.00267*%
D106*
X57700Y20700D02*
Y22300D01*
X59300D01*
Y20700D01*
X57700D01*
X47700D02*
Y22300D01*
X49300D01*
Y20700D01*
X47700D01*
X37857D02*
Y22300D01*
X39457D01*
Y20700D01*
X37857D01*
X35000Y77700D02*
X34200Y79300D01*
X35800D01*
X35000Y77700D01*
Y61700D02*
X34200Y63300D01*
X35800D01*
X35000Y61700D01*
X105000Y149200D02*
X105400Y149600D01*
X105800D01*
X105400Y150000D01*
X105800Y150400D01*
X105400D01*
X105000Y150800D01*
X104600Y150400D01*
X104200D01*
X104600Y150000D01*
X104200Y149600D01*
X104600D01*
X105000Y149200D01*
Y109700D02*
X105400Y110100D01*
X105800D01*
X105400Y110500D01*
X105800Y110900D01*
X105400D01*
X105000Y111300D01*
X104600Y110900D01*
X104200D01*
X104600Y110500D01*
X104200Y110100D01*
X104600D01*
X105000Y109700D01*
X230000Y104200D02*
X229200Y105800D01*
X230800D01*
X230000Y104200D01*
Y120200D02*
X229200Y121800D01*
X230800D01*
X230000Y120200D01*
X250857Y214700D02*
X251257Y215500D01*
X250857Y216300D01*
X251658Y215900D01*
X252457Y216300D01*
X252058Y215500D01*
X252457Y214700D01*
X251658Y215100D01*
X250857Y214700D01*
Y10200D02*
X251257Y11000D01*
X250857Y11800D01*
X251658Y11400D01*
X252457Y11800D01*
X252058Y11000D01*
X252457Y10200D01*
X251658Y10600D01*
X250857Y10200D01*
X10700D02*
X11100Y11000D01*
X10700Y11800D01*
X11500Y11400D01*
X12300Y11800D01*
X11900Y11000D01*
X12300Y10200D01*
X11500Y10600D01*
X10700Y10200D01*
Y214700D02*
X11100Y215500D01*
X10700Y216300D01*
X11500Y215900D01*
X12300Y216300D01*
X11900Y215500D01*
X12300Y214700D01*
X11500Y215100D01*
X10700Y214700D01*
X73600Y10600D02*
Y10200D01*
X74400D01*
Y10600D01*
X74800D01*
Y11400D01*
X74400D01*
Y11800D01*
X73600D01*
Y11400D01*
X73200D01*
Y10600D01*
X73600D01*
Y18205D02*
Y17805D01*
X74400D01*
Y18205D01*
X74800D01*
Y19005D01*
X74400D01*
Y19405D01*
X73600D01*
Y19005D01*
X73200D01*
Y18205D01*
X73600D01*
X67600Y10600D02*
Y10200D01*
X68400D01*
Y10600D01*
X68800D01*
Y11400D01*
X68400D01*
Y11800D01*
X67600D01*
Y11400D01*
X67200D01*
Y10600D01*
X67600D01*
X68100Y18205D02*
Y17805D01*
X68900D01*
Y18205D01*
X69300D01*
Y19005D01*
X68900D01*
Y19405D01*
X68100D01*
Y19005D01*
X67700D01*
Y18205D01*
X68100D01*
X73600Y24600D02*
Y24200D01*
X74400D01*
Y24600D01*
X74800D01*
Y25400D01*
X74400D01*
Y25800D01*
X73600D01*
Y25400D01*
X73200D01*
Y24600D01*
X73600D01*
X68100D02*
Y24200D01*
X68900D01*
Y24600D01*
X69300D01*
Y25400D01*
X68900D01*
Y25800D01*
X68100D01*
Y25400D01*
X67700D01*
Y24600D01*
X68100D01*
X56350Y33850D02*
Y33450D01*
X57150D01*
Y33850D01*
X57550D01*
Y34650D01*
X57150D01*
Y35050D01*
X56350D01*
Y34650D01*
X55950D01*
Y33850D01*
X56350D01*
X50600Y36350D02*
Y35950D01*
X51400D01*
Y36350D01*
X51800D01*
Y37150D01*
X51400D01*
Y37550D01*
X50600D01*
Y37150D01*
X50200D01*
Y36350D01*
X50600D01*
X47897Y42100D02*
Y41700D01*
X48697D01*
Y42100D01*
X49097D01*
Y42900D01*
X48697D01*
Y43300D01*
X47897D01*
Y42900D01*
X47497D01*
Y42100D01*
X47897D01*
X33600Y8600D02*
Y8200D01*
X34400D01*
Y8600D01*
X34800D01*
Y9400D01*
X34400D01*
Y9800D01*
X33600D01*
Y9400D01*
X33200D01*
Y8600D01*
X33600D01*
X110327Y174100D02*
Y173700D01*
X111127D01*
Y174100D01*
X111527D01*
Y174900D01*
X111127D01*
Y175300D01*
X110327D01*
Y174900D01*
X109927D01*
Y174100D01*
X110327D01*
X222100Y181100D02*
Y180700D01*
X222900D01*
Y181100D01*
X223300D01*
Y181900D01*
X222900D01*
Y182300D01*
X222100D01*
Y181900D01*
X221700D01*
Y181100D01*
X222100D01*
X211268Y180313D02*
Y179913D01*
X212068D01*
Y180313D01*
X212468D01*
Y181113D01*
X212068D01*
Y181513D01*
X211268D01*
Y181113D01*
X210868D01*
Y180313D01*
X211268D01*
X113600Y171100D02*
Y170700D01*
X114400D01*
Y171100D01*
X114800D01*
Y171900D01*
X114400D01*
Y172300D01*
X113600D01*
Y171900D01*
X113200D01*
Y171100D01*
X113600D01*
X198563Y180313D02*
Y179913D01*
X199363D01*
Y180313D01*
X199763D01*
Y181113D01*
X199363D01*
Y181513D01*
X198563D01*
Y181113D01*
X198163D01*
Y180313D01*
X198563D01*
X120600Y58600D02*
Y58200D01*
X121400D01*
Y58600D01*
X121800D01*
Y59400D01*
X121400D01*
Y59800D01*
X120600D01*
Y59400D01*
X120200D01*
Y58600D01*
X120600D01*
X106100Y58100D02*
Y57700D01*
X106900D01*
Y58100D01*
X107300D01*
Y58900D01*
X106900D01*
Y59300D01*
X106100D01*
Y58900D01*
X105700D01*
Y58100D01*
X106100D01*
X131100Y62678D02*
Y62278D01*
X131900D01*
Y62678D01*
X132300D01*
Y63478D01*
X131900D01*
Y63878D01*
X131100D01*
Y63478D01*
X130700D01*
Y62678D01*
X131100D01*
X125375Y63100D02*
Y62700D01*
X126175D01*
Y63100D01*
X126575D01*
Y63900D01*
X126175D01*
Y64300D01*
X125375D01*
Y63900D01*
X124975D01*
Y63100D01*
X125375D01*
X140100Y95850D02*
Y95450D01*
X140900D01*
Y95850D01*
X141300D01*
Y96650D01*
X140900D01*
Y97050D01*
X140100D01*
Y96650D01*
X139700D01*
Y95850D01*
X140100D01*
X133850Y97600D02*
Y97200D01*
X134650D01*
Y97600D01*
X135050D01*
Y98400D01*
X134650D01*
Y98800D01*
X133850D01*
Y98400D01*
X133450D01*
Y97600D01*
X133850D01*
X126600Y97714D02*
Y97314D01*
X127400D01*
Y97714D01*
X127800D01*
Y98514D01*
X127400D01*
Y98914D01*
X126600D01*
Y98514D01*
X126200D01*
Y97714D01*
X126600D01*
X140697Y104600D02*
Y104200D01*
X141497D01*
Y104600D01*
X141897D01*
Y105400D01*
X141497D01*
Y105800D01*
X140697D01*
Y105400D01*
X140297D01*
Y104600D01*
X140697D01*
X134100Y105100D02*
Y104700D01*
X134900D01*
Y105100D01*
X135300D01*
Y105900D01*
X134900D01*
Y106300D01*
X134100D01*
Y105900D01*
X133700D01*
Y105100D01*
X134100D01*
X126600Y104600D02*
Y104200D01*
X127400D01*
Y104600D01*
X127800D01*
Y105400D01*
X127400D01*
Y105800D01*
X126600D01*
Y105400D01*
X126200D01*
Y104600D01*
X126600D01*
X147100Y156100D02*
Y155700D01*
X147900D01*
Y156100D01*
X148300D01*
Y156900D01*
X147900D01*
Y157300D01*
X147100D01*
Y156900D01*
X146700D01*
Y156100D01*
X147100D01*
X138100D02*
Y155700D01*
X138900D01*
Y156100D01*
X139300D01*
Y156900D01*
X138900D01*
Y157300D01*
X138100D01*
Y156900D01*
X137700D01*
Y156100D01*
X138100D01*
X129100D02*
Y155700D01*
X129900D01*
Y156100D01*
X130300D01*
Y156900D01*
X129900D01*
Y157300D01*
X129100D01*
Y156900D01*
X128700D01*
Y156100D01*
X129100D01*
X253600Y41600D02*
Y41200D01*
X254400D01*
Y41600D01*
X254800D01*
Y42400D01*
X254400D01*
Y42800D01*
X253600D01*
Y42400D01*
X253200D01*
Y41600D01*
X253600D01*
X243600D02*
Y41200D01*
X244400D01*
Y41600D01*
X244800D01*
Y42400D01*
X244400D01*
Y42800D01*
X243600D01*
Y42400D01*
X243200D01*
Y41600D01*
X243600D01*
X225600Y15600D02*
Y15200D01*
X226400D01*
Y15600D01*
X226800D01*
Y16400D01*
X226400D01*
Y16800D01*
X225600D01*
Y16400D01*
X225200D01*
Y15600D01*
X225600D01*
X217100Y15397D02*
Y14997D01*
X217900D01*
Y15397D01*
X218300D01*
Y16197D01*
X217900D01*
Y16597D01*
X217100D01*
Y16197D01*
X216700D01*
Y15397D01*
X217100D01*
X247100Y187600D02*
Y187200D01*
X247900D01*
Y187600D01*
X248300D01*
Y188400D01*
X247900D01*
Y188800D01*
X247100D01*
Y188400D01*
X246700D01*
Y187600D01*
X247100D01*
X246787Y195600D02*
Y195200D01*
X247587D01*
Y195600D01*
X247987D01*
Y196400D01*
X247587D01*
Y196800D01*
X246787D01*
Y196400D01*
X246387D01*
Y195600D01*
X246787D01*
X223100Y211100D02*
Y210700D01*
X223900D01*
Y211100D01*
X224300D01*
Y211900D01*
X223900D01*
Y212300D01*
X223100D01*
Y211900D01*
X222700D01*
Y211100D01*
X223100D01*
Y220600D02*
Y220200D01*
X223900D01*
Y220600D01*
X224300D01*
Y221400D01*
X223900D01*
Y221800D01*
X223100D01*
Y221400D01*
X222700D01*
Y220600D01*
X223100D01*
X40100Y212600D02*
Y212200D01*
X40900D01*
Y212600D01*
X41300D01*
Y213400D01*
X40900D01*
Y213800D01*
X40100D01*
Y213400D01*
X39700D01*
Y212600D01*
X40100D01*
Y220100D02*
Y219700D01*
X40900D01*
Y220100D01*
X41300D01*
Y220900D01*
X40900D01*
Y221300D01*
X40100D01*
Y220900D01*
X39700D01*
Y220100D01*
X40100D01*
X254100Y31600D02*
Y31200D01*
X254900D01*
Y31600D01*
X255300D01*
Y32400D01*
X254900D01*
Y32800D01*
X254100D01*
Y32400D01*
X253700D01*
Y31600D01*
X254100D01*
X244100D02*
Y31200D01*
X244900D01*
Y31600D01*
X245300D01*
Y32400D01*
X244900D01*
Y32800D01*
X244100D01*
Y32400D01*
X243700D01*
Y31600D01*
X244100D01*
X230100Y212100D02*
Y211700D01*
X230900D01*
Y212100D01*
X231300D01*
Y212900D01*
X230900D01*
Y213300D01*
X230100D01*
Y212900D01*
X229700D01*
Y212100D01*
X230100D01*
Y220600D02*
Y220200D01*
X230900D01*
Y220600D01*
X231300D01*
Y221400D01*
X230900D01*
Y221800D01*
X230100D01*
Y221400D01*
X229700D01*
Y220600D01*
X230100D01*
X254100Y187600D02*
Y187200D01*
X254900D01*
Y187600D01*
X255300D01*
Y188400D01*
X254900D01*
Y188800D01*
X254100D01*
Y188400D01*
X253700D01*
Y187600D01*
X254100D01*
Y195600D02*
Y195200D01*
X254900D01*
Y195600D01*
X255300D01*
Y196400D01*
X254900D01*
Y196800D01*
X254100D01*
Y196400D01*
X253700D01*
Y195600D01*
X254100D01*
X30600Y212100D02*
Y211700D01*
X31400D01*
Y212100D01*
X31800D01*
Y212900D01*
X31400D01*
Y213300D01*
X30600D01*
Y212900D01*
X30200D01*
Y212100D01*
X30600D01*
Y220100D02*
Y219700D01*
X31400D01*
Y220100D01*
X31800D01*
Y220900D01*
X31400D01*
Y221300D01*
X30600D01*
Y220900D01*
X30200D01*
Y220100D01*
X30600D01*
X17100Y197100D02*
Y196700D01*
X17900D01*
Y197100D01*
X18300D01*
Y197900D01*
X17900D01*
Y198300D01*
X17100D01*
Y197900D01*
X16700D01*
Y197100D01*
X17100D01*
X11100D02*
Y196700D01*
X11900D01*
Y197100D01*
X12300D01*
Y197900D01*
X11900D01*
Y198300D01*
X11100D01*
Y197900D01*
X10700D01*
Y197100D01*
X11100D01*
X6100Y28100D02*
Y27700D01*
X6900D01*
Y28100D01*
X7300D01*
Y28900D01*
X6900D01*
Y29300D01*
X6100D01*
Y28900D01*
X5700D01*
Y28100D01*
X6100D01*
Y34100D02*
Y33700D01*
X6900D01*
Y34100D01*
X7300D01*
Y34900D01*
X6900D01*
Y35300D01*
X6100D01*
Y34900D01*
X5700D01*
Y34100D01*
X6100D01*
X226100Y6600D02*
Y6200D01*
X226900D01*
Y6600D01*
X227300D01*
Y7400D01*
X226900D01*
Y7800D01*
X226100D01*
Y7400D01*
X225700D01*
Y6600D01*
X226100D01*
X217600D02*
Y6200D01*
X218400D01*
Y6600D01*
X218800D01*
Y7400D01*
X218400D01*
Y7800D01*
X217600D01*
Y7400D01*
X217200D01*
Y6600D01*
X217600D01*
X28100Y8600D02*
Y8200D01*
X28900D01*
Y8600D01*
X29300D01*
Y9400D01*
X28900D01*
Y9800D01*
X28100D01*
Y9400D01*
X27700D01*
Y8600D01*
X28100D01*
X77600Y150600D02*
Y150200D01*
X78400D01*
Y150600D01*
X78800D01*
Y151400D01*
X78400D01*
Y151800D01*
X77600D01*
Y151400D01*
X77200D01*
Y150600D01*
X77600D01*
Y157600D02*
Y157200D01*
X78400D01*
Y157600D01*
X78800D01*
Y158400D01*
X78400D01*
Y158800D01*
X77600D01*
Y158400D01*
X77200D01*
Y157600D01*
X77600D01*
Y164100D02*
Y163700D01*
X78400D01*
Y164100D01*
X78800D01*
Y164900D01*
X78400D01*
Y165300D01*
X77600D01*
Y164900D01*
X77200D01*
Y164100D01*
X77600D01*
X65600Y150600D02*
Y150200D01*
X66400D01*
Y150600D01*
X66800D01*
Y151400D01*
X66400D01*
Y151800D01*
X65600D01*
Y151400D01*
X65200D01*
Y150600D01*
X65600D01*
X65704Y157600D02*
Y157200D01*
X66504D01*
Y157600D01*
X66904D01*
Y158400D01*
X66504D01*
Y158800D01*
X65704D01*
Y158400D01*
X65304D01*
Y157600D01*
X65704D01*
Y163631D02*
Y163232D01*
X66504D01*
Y163631D01*
X66904D01*
Y164432D01*
X66504D01*
Y164831D01*
X65704D01*
Y164432D01*
X65304D01*
Y163631D01*
X65704D01*
X25390Y58713D02*
Y58313D01*
X26190D01*
Y58713D01*
X26590D01*
Y59513D01*
X26190D01*
Y59913D01*
X25390D01*
Y59513D01*
X24990D01*
Y58713D01*
X25390D01*
X25600Y64764D02*
Y64364D01*
X26400D01*
Y64764D01*
X26800D01*
Y65565D01*
X26400D01*
Y65965D01*
X25600D01*
Y65565D01*
X25200D01*
Y64764D01*
X25600D01*
Y75348D02*
Y74948D01*
X26400D01*
Y75348D01*
X26800D01*
Y76148D01*
X26400D01*
Y76548D01*
X25600D01*
Y76148D01*
X25200D01*
Y75348D01*
X25600D01*
Y80600D02*
Y80200D01*
X26400D01*
Y80600D01*
X26800D01*
Y81400D01*
X26400D01*
Y81800D01*
X25600D01*
Y81400D01*
X25200D01*
Y80600D01*
X25600D01*
X63100Y44600D02*
Y44200D01*
X63900D01*
Y44600D01*
X64300D01*
Y45400D01*
X63900D01*
Y45800D01*
X63100D01*
Y45400D01*
X62700D01*
Y44600D01*
X63100D01*
X59350Y48159D02*
Y47759D01*
X60150D01*
Y48159D01*
X60550D01*
Y48959D01*
X60150D01*
Y49359D01*
X59350D01*
Y48959D01*
X58950D01*
Y48159D01*
X59350D01*
X56100Y51850D02*
Y51450D01*
X56900D01*
Y51850D01*
X57300D01*
Y52650D01*
X56900D01*
Y53050D01*
X56100D01*
Y52650D01*
X55700D01*
Y51850D01*
X56100D01*
X222100Y115100D02*
Y114700D01*
X222900D01*
Y115100D01*
X223300D01*
Y115900D01*
X222900D01*
Y116300D01*
X222100D01*
Y115900D01*
X221700D01*
Y115100D01*
X222100D01*
X236600Y128600D02*
Y128200D01*
X237400D01*
Y128600D01*
X237800D01*
Y129400D01*
X237400D01*
Y129800D01*
X236600D01*
Y129400D01*
X236200D01*
Y128600D01*
X236600D01*
X221600Y127350D02*
Y126950D01*
X222400D01*
Y127350D01*
X222800D01*
Y128150D01*
X222400D01*
Y128550D01*
X221600D01*
Y128150D01*
X221200D01*
Y127350D01*
X221600D01*
X122192Y54600D02*
Y54200D01*
X122992D01*
Y54600D01*
X123391D01*
Y55400D01*
X122992D01*
Y55800D01*
X122192D01*
Y55400D01*
X121792D01*
Y54600D01*
X122192D01*
X121100Y50600D02*
Y50200D01*
X121900D01*
Y50600D01*
X122300D01*
Y51400D01*
X121900D01*
Y51800D01*
X121100D01*
Y51400D01*
X120700D01*
Y50600D01*
X121100D01*
X87850Y61963D02*
Y61563D01*
X88650D01*
Y61963D01*
X89050D01*
Y62763D01*
X88650D01*
Y63163D01*
X87850D01*
Y62763D01*
X87450D01*
Y61963D01*
X87850D01*
X109100Y54600D02*
Y54200D01*
X109900D01*
Y54600D01*
X110300D01*
Y55400D01*
X109900D01*
Y55800D01*
X109100D01*
Y55400D01*
X108700D01*
Y54600D01*
X109100D01*
X103700D02*
Y54200D01*
X104500D01*
Y54600D01*
X104900D01*
Y55400D01*
X104500D01*
Y55800D01*
X103700D01*
Y55400D01*
X103300D01*
Y54600D01*
X103700D01*
X106013Y49875D02*
Y49475D01*
X106813D01*
Y49875D01*
X107213D01*
Y50675D01*
X106813D01*
Y51075D01*
X106013D01*
Y50675D01*
X105613D01*
Y49875D01*
X106013D01*
X86600Y67510D02*
Y67110D01*
X87400D01*
Y67510D01*
X87800D01*
Y68310D01*
X87400D01*
Y68710D01*
X86600D01*
Y68310D01*
X86200D01*
Y67510D01*
X86600D01*
X77100Y67689D02*
Y67289D01*
X77900D01*
Y67689D01*
X78300D01*
Y68489D01*
X77900D01*
Y68889D01*
X77100D01*
Y68489D01*
X76700D01*
Y67689D01*
X77100D01*
X76100Y61963D02*
Y61563D01*
X76900D01*
Y61963D01*
X77300D01*
Y62763D01*
X76900D01*
Y63163D01*
X76100D01*
Y62763D01*
X75700D01*
Y61963D01*
X76100D01*
X65704Y61757D02*
Y61357D01*
X66504D01*
Y61757D01*
X66904D01*
Y62557D01*
X66504D01*
Y62957D01*
X65704D01*
Y62557D01*
X65304D01*
Y61757D01*
X65704D01*
X69600Y67689D02*
Y67289D01*
X70400D01*
Y67689D01*
X70800D01*
Y68489D01*
X70400D01*
Y68889D01*
X69600D01*
Y68489D01*
X69200D01*
Y67689D01*
X69600D01*
X62100D02*
Y67289D01*
X62900D01*
Y67689D01*
X63300D01*
Y68489D01*
X62900D01*
Y68889D01*
X62100D01*
Y68489D01*
X61700D01*
Y67689D01*
X62100D01*
X61100Y107100D02*
Y106700D01*
X61900D01*
Y107100D01*
X62300D01*
Y107900D01*
X61900D01*
Y108300D01*
X61100D01*
Y107900D01*
X60700D01*
Y107100D01*
X61100D01*
Y93100D02*
Y92700D01*
X61900D01*
Y93100D01*
X62300D01*
Y93900D01*
X61900D01*
Y94300D01*
X61100D01*
Y93900D01*
X60700D01*
Y93100D01*
X61100D01*
Y100600D02*
Y100200D01*
X61900D01*
Y100600D01*
X62300D01*
Y101400D01*
X61900D01*
Y101800D01*
X61100D01*
Y101400D01*
X60700D01*
Y100600D01*
X61100D01*
X75600Y93600D02*
Y93200D01*
X76400D01*
Y93600D01*
X76800D01*
Y94400D01*
X76400D01*
Y94800D01*
X75600D01*
Y94400D01*
X75200D01*
Y93600D01*
X75600D01*
Y100600D02*
Y100200D01*
X76400D01*
Y100600D01*
X76800D01*
Y101400D01*
X76400D01*
Y101800D01*
X75600D01*
Y101400D01*
X75200D01*
Y100600D01*
X75600D01*
Y106600D02*
Y106200D01*
X76400D01*
Y106600D01*
X76800D01*
Y107400D01*
X76400D01*
Y107800D01*
X75600D01*
Y107400D01*
X75200D01*
Y106600D01*
X75600D01*
X90100Y99600D02*
Y99200D01*
X90900D01*
Y99600D01*
X91300D01*
Y100400D01*
X90900D01*
Y100800D01*
X90100D01*
Y100400D01*
X89700D01*
Y99600D01*
X90100D01*
Y106100D02*
Y105700D01*
X90900D01*
Y106100D01*
X91300D01*
Y106900D01*
X90900D01*
Y107300D01*
X90100D01*
Y106900D01*
X89700D01*
Y106100D01*
X90100D01*
X31100Y123303D02*
Y122903D01*
X31900D01*
Y123303D01*
X32300D01*
Y124103D01*
X31900D01*
Y124503D01*
X31100D01*
Y124103D01*
X30700D01*
Y123303D01*
X31100D01*
X38391Y172600D02*
Y172200D01*
X39191D01*
Y172600D01*
X39591D01*
Y173400D01*
X39191D01*
Y173800D01*
X38391D01*
Y173400D01*
X37991D01*
Y172600D01*
X38391D01*
X33213D02*
Y172200D01*
X34012D01*
Y172600D01*
X34413D01*
Y173400D01*
X34012D01*
Y173800D01*
X33213D01*
Y173400D01*
X32812D01*
Y172600D01*
X33213D01*
X40100Y147600D02*
Y147200D01*
X40900D01*
Y147600D01*
X41300D01*
Y148400D01*
X40900D01*
Y148800D01*
X40100D01*
Y148400D01*
X39700D01*
Y147600D01*
X40100D01*
X32850Y147100D02*
Y146700D01*
X33650D01*
Y147100D01*
X34050D01*
Y147900D01*
X33650D01*
Y148300D01*
X32850D01*
Y147900D01*
X32450D01*
Y147100D01*
X32850D01*
X39600Y154100D02*
Y153700D01*
X40400D01*
Y154100D01*
X40800D01*
Y154900D01*
X40400D01*
Y155300D01*
X39600D01*
Y154900D01*
X39200D01*
Y154100D01*
X39600D01*
X38391Y111100D02*
Y110700D01*
X39191D01*
Y111100D01*
X39591D01*
Y111900D01*
X39191D01*
Y112300D01*
X38391D01*
Y111900D01*
X37991D01*
Y111100D01*
X38391D01*
X32100D02*
Y110700D01*
X32900D01*
Y111100D01*
X33300D01*
Y111900D01*
X32900D01*
Y112300D01*
X32100D01*
Y111900D01*
X31700D01*
Y111100D01*
X32100D01*
X39600Y131100D02*
Y130700D01*
X40400D01*
Y131100D01*
X40800D01*
Y131900D01*
X40400D01*
Y132300D01*
X39600D01*
Y131900D01*
X39200D01*
Y131100D01*
X39600D01*
X33213D02*
Y130700D01*
X34012D01*
Y131100D01*
X34413D01*
Y131900D01*
X34012D01*
Y132300D01*
X33213D01*
Y131900D01*
X32812D01*
Y131100D01*
X33213D01*
X32850Y154100D02*
Y153700D01*
X33650D01*
Y154100D01*
X34050D01*
Y154900D01*
X33650D01*
Y155300D01*
X32850D01*
Y154900D01*
X32450D01*
Y154100D01*
X32850D01*
X229600Y114100D02*
Y113700D01*
X230400D01*
Y114100D01*
X230800D01*
Y114900D01*
X230400D01*
Y115300D01*
X229600D01*
Y114900D01*
X229200D01*
Y114100D01*
X229600D01*
X218600Y120100D02*
Y119700D01*
X219400D01*
Y120100D01*
X219800D01*
Y120900D01*
X219400D01*
Y121300D01*
X218600D01*
Y120900D01*
X218200D01*
Y120100D01*
X218600D01*
X229100Y129100D02*
Y128700D01*
X229900D01*
Y129100D01*
X230300D01*
Y129900D01*
X229900D01*
Y130300D01*
X229100D01*
Y129900D01*
X228700D01*
Y129100D01*
X229100D01*
X238522Y99100D02*
Y98700D01*
X239322D01*
Y99100D01*
X239722D01*
Y99900D01*
X239322D01*
Y100300D01*
X238522D01*
Y99900D01*
X238122D01*
Y99100D01*
X238522D01*
X238367Y105100D02*
Y104700D01*
X239167D01*
Y105100D01*
X239567D01*
Y105900D01*
X239167D01*
Y106300D01*
X238367D01*
Y105900D01*
X237967D01*
Y105100D01*
X238367D01*
X220942Y102225D02*
Y101825D01*
X221743D01*
Y102225D01*
X222143D01*
Y103025D01*
X221743D01*
Y103425D01*
X220942D01*
Y103025D01*
X220543D01*
Y102225D01*
X220942D01*
X221100Y107600D02*
Y107200D01*
X221900D01*
Y107600D01*
X222300D01*
Y108400D01*
X221900D01*
Y108800D01*
X221100D01*
Y108400D01*
X220700D01*
Y107600D01*
X221100D01*
X232600Y96600D02*
Y96200D01*
X233400D01*
Y96600D01*
X233800D01*
Y97400D01*
X233400D01*
Y97800D01*
X232600D01*
Y97400D01*
X232200D01*
Y96600D01*
X232600D01*
X226600D02*
Y96200D01*
X227400D01*
Y96600D01*
X227800D01*
Y97400D01*
X227400D01*
Y97800D01*
X226600D01*
Y97400D01*
X226200D01*
Y96600D01*
X226600D01*
X221100D02*
Y96200D01*
X221900D01*
Y96600D01*
X222300D01*
Y97400D01*
X221900D01*
Y97800D01*
X221100D01*
Y97400D01*
X220700D01*
Y96600D01*
X221100D01*
X242100Y120600D02*
Y120200D01*
X242900D01*
Y120600D01*
X243300D01*
Y121400D01*
X242900D01*
Y121800D01*
X242100D01*
Y121400D01*
X241700D01*
Y120600D01*
X242100D01*
X190508Y84600D02*
Y84200D01*
X191308D01*
Y84600D01*
X191709D01*
Y85400D01*
X191308D01*
Y85800D01*
X190508D01*
Y85400D01*
X190109D01*
Y84600D01*
X190508D01*
X188100Y78600D02*
Y78200D01*
X188900D01*
Y78600D01*
X189300D01*
Y79400D01*
X188900D01*
Y79800D01*
X188100D01*
Y79400D01*
X187700D01*
Y78600D01*
X188100D01*
X180100Y75348D02*
Y74948D01*
X180900D01*
Y75348D01*
X181300D01*
Y76148D01*
X180900D01*
Y76548D01*
X180100D01*
Y76148D01*
X179700D01*
Y75348D01*
X180100D01*
X185100Y156600D02*
Y156200D01*
X185900D01*
Y156600D01*
X186300D01*
Y157400D01*
X185900D01*
Y157800D01*
X185100D01*
Y157400D01*
X184700D01*
Y156600D01*
X185100D01*
X177631Y157600D02*
Y157200D01*
X178431D01*
Y157600D01*
X178832D01*
Y158400D01*
X178431D01*
Y158800D01*
X177631D01*
Y158400D01*
X177232D01*
Y157600D01*
X177631D01*
X171100Y155100D02*
Y154700D01*
X171900D01*
Y155100D01*
X172300D01*
Y155900D01*
X171900D01*
Y156300D01*
X171100D01*
Y155900D01*
X170700D01*
Y155100D01*
X171100D01*
X170100Y150100D02*
Y149700D01*
X170900D01*
Y150100D01*
X171300D01*
Y150900D01*
X170900D01*
Y151300D01*
X170100D01*
Y150900D01*
X169700D01*
Y150100D01*
X170100D01*
X21600Y130100D02*
Y129700D01*
X22400D01*
Y130100D01*
X22800D01*
Y130900D01*
X22400D01*
Y131300D01*
X21600D01*
Y130900D01*
X21200D01*
Y130100D01*
X21600D01*
X19891Y134100D02*
Y133700D01*
X20691D01*
Y134100D01*
X21091D01*
Y134900D01*
X20691D01*
Y135300D01*
X19891D01*
Y134900D01*
X19491D01*
Y134100D01*
X19891D01*
X20600Y110100D02*
Y109700D01*
X21400D01*
Y110100D01*
X21800D01*
Y110900D01*
X21400D01*
Y111300D01*
X20600D01*
Y110900D01*
X20200D01*
Y110100D01*
X20600D01*
X19891Y116100D02*
Y115700D01*
X20691D01*
Y116100D01*
X21091D01*
Y116900D01*
X20691D01*
Y117300D01*
X19891D01*
Y116900D01*
X19491D01*
Y116100D01*
X19891D01*
X14860Y110100D02*
Y109700D01*
X15660D01*
Y110100D01*
X16060D01*
Y110900D01*
X15660D01*
Y111300D01*
X14860D01*
Y110900D01*
X14460D01*
Y110100D01*
X14860D01*
X14600Y116100D02*
Y115700D01*
X15400D01*
Y116100D01*
X15800D01*
Y116900D01*
X15400D01*
Y117300D01*
X14600D01*
Y116900D01*
X14200D01*
Y116100D01*
X14600D01*
X15309Y132100D02*
Y131700D01*
X16109D01*
Y132100D01*
X16509D01*
Y132900D01*
X16109D01*
Y133300D01*
X15309D01*
Y132900D01*
X14909D01*
Y132100D01*
X15309D01*
X14360Y159100D02*
Y158700D01*
X15160D01*
Y159100D01*
X15560D01*
Y159900D01*
X15160D01*
Y160300D01*
X14360D01*
Y159900D01*
X13960D01*
Y159100D01*
X14360D01*
X18397Y173100D02*
Y172700D01*
X19197D01*
Y173100D01*
X19597D01*
Y173900D01*
X19197D01*
Y174300D01*
X18397D01*
Y173900D01*
X17997D01*
Y173100D01*
X18397D01*
X18100Y156100D02*
Y155700D01*
X18900D01*
Y156100D01*
X19300D01*
Y156900D01*
X18900D01*
Y157300D01*
X18100D01*
Y156900D01*
X17700D01*
Y156100D01*
X18100D01*
X108100Y163100D02*
Y162700D01*
X108900D01*
Y163100D01*
X109300D01*
Y163900D01*
X108900D01*
Y164300D01*
X108100D01*
Y163900D01*
X107700D01*
Y163100D01*
X108100D01*
X101600Y163309D02*
Y162909D01*
X102400D01*
Y163309D01*
X102800D01*
Y164109D01*
X102400D01*
Y164509D01*
X101600D01*
Y164109D01*
X101200D01*
Y163309D01*
X101600D01*
X94192Y163100D02*
Y162700D01*
X94992D01*
Y163100D01*
X95392D01*
Y163900D01*
X94992D01*
Y164300D01*
X94192D01*
Y163900D01*
X93792D01*
Y163100D01*
X94192D01*
X108600Y157100D02*
Y156700D01*
X109400D01*
Y157100D01*
X109800D01*
Y157900D01*
X109400D01*
Y158300D01*
X108600D01*
Y157900D01*
X108200D01*
Y157100D01*
X108600D01*
X101600D02*
Y156700D01*
X102400D01*
Y157100D01*
X102800D01*
Y157900D01*
X102400D01*
Y158300D01*
X101600D01*
Y157900D01*
X101200D01*
Y157100D01*
X101600D01*
X94600D02*
Y156700D01*
X95400D01*
Y157100D01*
X95800D01*
Y157900D01*
X95400D01*
Y158300D01*
X94600D01*
Y157900D01*
X94200D01*
Y157100D01*
X94600D01*
X110100Y89600D02*
Y89200D01*
X110900D01*
Y89600D01*
X111300D01*
Y90400D01*
X110900D01*
Y90800D01*
X110100D01*
Y90400D01*
X109700D01*
Y89600D01*
X110100D01*
X103100D02*
Y89200D01*
X103900D01*
Y89600D01*
X104300D01*
Y90400D01*
X103900D01*
Y90800D01*
X103100D01*
Y90400D01*
X102700D01*
Y89600D01*
X103100D01*
X110100Y82300D02*
Y81900D01*
X110900D01*
Y82300D01*
X111300D01*
Y83100D01*
X110900D01*
Y83500D01*
X110100D01*
Y83100D01*
X109700D01*
Y82300D01*
X110100D01*
X103100D02*
Y81900D01*
X103900D01*
Y82300D01*
X104300D01*
Y83100D01*
X103900D01*
Y83500D01*
X103100D01*
Y83100D01*
X102700D01*
Y82300D01*
X103100D01*
Y75100D02*
Y74700D01*
X103900D01*
Y75100D01*
X104300D01*
Y75900D01*
X103900D01*
Y76300D01*
X103100D01*
Y75900D01*
X102700D01*
Y75100D01*
X103100D01*
X110187D02*
Y74700D01*
X110987D01*
Y75100D01*
X111388D01*
Y75900D01*
X110987D01*
Y76300D01*
X110187D01*
Y75900D01*
X109787D01*
Y75100D01*
X110187D01*
X95100D02*
Y74700D01*
X95900D01*
Y75100D01*
X96300D01*
Y75900D01*
X95900D01*
Y76300D01*
X95100D01*
Y75900D01*
X94700D01*
Y75100D01*
X95100D01*
Y82300D02*
Y81900D01*
X95900D01*
Y82300D01*
X96300D01*
Y83100D01*
X95900D01*
Y83500D01*
X95100D01*
Y83100D01*
X94700D01*
Y82300D01*
X95100D01*
Y89600D02*
Y89200D01*
X95900D01*
Y89600D01*
X96300D01*
Y90400D01*
X95900D01*
Y90800D01*
X95100D01*
Y90400D01*
X94700D01*
Y89600D01*
X95100D01*
X71600Y32600D02*
Y32200D01*
X72400D01*
Y32600D01*
X72800D01*
Y33400D01*
X72400D01*
Y33800D01*
X71600D01*
Y33400D01*
X71200D01*
Y32600D01*
X71600D01*
X113100Y24100D02*
Y23700D01*
X113900D01*
Y24100D01*
X114300D01*
Y24900D01*
X113900D01*
Y25300D01*
X113100D01*
Y24900D01*
X112700D01*
Y24100D01*
X113100D01*
X150100Y18600D02*
Y18200D01*
X150900D01*
Y18600D01*
X151300D01*
Y19400D01*
X150900D01*
Y19800D01*
X150100D01*
Y19400D01*
X149700D01*
Y18600D01*
X150100D01*
X84100Y178600D02*
Y178200D01*
X84900D01*
Y178600D01*
X85300D01*
Y179400D01*
X84900D01*
Y179800D01*
X84100D01*
Y179400D01*
X83700D01*
Y178600D01*
X84100D01*
X90600Y194600D02*
Y194200D01*
X91400D01*
Y194600D01*
X91800D01*
Y195400D01*
X91400D01*
Y195800D01*
X90600D01*
Y195400D01*
X90200D01*
Y194600D01*
X90600D01*
X49600Y61100D02*
Y60700D01*
X50400D01*
Y61100D01*
X50800D01*
Y61900D01*
X50400D01*
Y62300D01*
X49600D01*
Y61900D01*
X49200D01*
Y61100D01*
X49600D01*
D107*
X180800Y84000D02*
G03*
X180800Y84000I-800J0D01*
G01*
Y103685D02*
G03*
X180800Y103685I-800J0D01*
G01*
X179800Y150685D02*
G03*
X179800Y150685I-800J0D01*
G01*
Y131000D02*
G03*
X179800Y131000I-800J0D01*
G01*
X18800Y166000D02*
G03*
X18800Y166000I-800J0D01*
G01*
X38485D02*
G03*
X38485Y166000I-800J0D01*
G01*
X19300Y124000D02*
G03*
X19300Y124000I-800J0D01*
G01*
X38985D02*
G03*
X38985Y124000I-800J0D01*
G01*
X121387Y43000D02*
G03*
X121387Y43000I-800J0D01*
G01*
X114300D02*
G03*
X114300Y43000I-800J0D01*
G01*
X107213D02*
G03*
X107213Y43000I-800J0D01*
G01*
X100127D02*
G03*
X100127Y43000I-800J0D01*
G01*
X93040D02*
G03*
X93040Y43000I-800J0D01*
G01*
M02*
