G04*
G04 #@! TF.GenerationSoftware,Altium Limited,Altium Designer,18.1.9 (240)*
G04*
G04 Layer_Physical_Order=2*
G04 Layer_Color=16711680*
%FSLAX25Y25*%
%MOIN*%
G70*
G01*
G75*
%ADD54C,0.01968*%
%ADD55C,0.03150*%
%ADD87C,0.05906*%
%ADD88R,0.05906X0.05906*%
%ADD89C,0.07087*%
%ADD90R,0.07087X0.07087*%
%ADD91O,0.11811X0.08661*%
%ADD92O,0.11811X0.07874*%
%ADD93R,0.07087X0.07087*%
%ADD94O,0.04724X0.07874*%
%ADD95C,0.03500*%
%ADD96R,0.23500X0.94000*%
%ADD97R,0.55500X0.51500*%
%ADD98R,0.87500X0.31000*%
%ADD99R,0.39500X0.23000*%
%ADD100R,0.26500X0.16500*%
%ADD101R,0.32500X0.09500*%
%ADD102R,0.19500X0.12000*%
%ADD103R,0.05000X0.15500*%
%ADD104R,0.06000X0.07000*%
G36*
X240512Y224659D02*
X239953Y224004D01*
X238767Y222068D01*
X237898Y219971D01*
X237368Y217763D01*
X237190Y215500D01*
X237368Y213237D01*
X237898Y211029D01*
X238767Y208932D01*
X239953Y206996D01*
X241427Y205270D01*
X243154Y203795D01*
X245089Y202609D01*
X247187Y201740D01*
X249394Y201210D01*
X251658Y201032D01*
X253921Y201210D01*
X256128Y201740D01*
X258226Y202609D01*
X260161Y203795D01*
X260659Y204220D01*
X261113Y204011D01*
Y22489D01*
X260659Y22280D01*
X260161Y22705D01*
X258226Y23891D01*
X256128Y24760D01*
X253921Y25290D01*
X251658Y25468D01*
X249394Y25290D01*
X247187Y24760D01*
X245089Y23891D01*
X243154Y22705D01*
X241427Y21230D01*
X239953Y19504D01*
X238767Y17568D01*
X237898Y15471D01*
X237368Y13263D01*
X237190Y11000D01*
X237368Y8737D01*
X237898Y6529D01*
X238767Y4432D01*
X239446Y3323D01*
X239202Y2887D01*
X23956D01*
X23712Y3323D01*
X24391Y4432D01*
X25260Y6529D01*
X25790Y8737D01*
X25968Y11000D01*
X25790Y13263D01*
X25260Y15471D01*
X24391Y17568D01*
X23205Y19504D01*
X21730Y21230D01*
X20004Y22705D01*
X18068Y23891D01*
X15971Y24760D01*
X13763Y25290D01*
X11500Y25468D01*
X9237Y25290D01*
X7029Y24760D01*
X4932Y23891D01*
X3387Y22944D01*
X2887Y23224D01*
Y56186D01*
X3349Y56378D01*
X11613Y48113D01*
X12312Y47577D01*
X13126Y47240D01*
X14000Y47125D01*
X41000D01*
X41874Y47240D01*
X42688Y47577D01*
X43387Y48113D01*
X50365Y55092D01*
X53500D01*
X54422Y55275D01*
X55203Y55797D01*
X55725Y56578D01*
X55909Y57500D01*
Y61797D01*
X57797D01*
X68797Y50797D01*
X69578Y50275D01*
X70500Y50091D01*
X89000D01*
Y48044D01*
X88871Y47944D01*
X88113Y46957D01*
X87637Y45808D01*
X87475Y44575D01*
Y41425D01*
X87637Y40192D01*
X88113Y39043D01*
X88871Y38056D01*
X89633Y37471D01*
X89463Y36971D01*
X73159D01*
X73074Y37006D01*
X72000Y37148D01*
X70926Y37006D01*
X69926Y36592D01*
X69067Y35933D01*
X68408Y35074D01*
X67994Y34073D01*
X67852Y33000D01*
X67994Y31927D01*
X68408Y30926D01*
X69067Y30067D01*
X69926Y29408D01*
X70926Y28994D01*
X72000Y28852D01*
X73074Y28994D01*
X73159Y29029D01*
X93355D01*
X100692Y21692D01*
X101514Y21061D01*
X102472Y20664D01*
X103500Y20529D01*
X112341D01*
X112426Y20494D01*
X113500Y20352D01*
X114574Y20494D01*
X115574Y20908D01*
X116433Y21567D01*
X117092Y22426D01*
X117506Y23426D01*
X117648Y24500D01*
X117506Y25574D01*
X117092Y26574D01*
X116433Y27433D01*
X115656Y28029D01*
X115702Y28351D01*
X115790Y28529D01*
X139355D01*
X146529Y21355D01*
Y20159D01*
X146494Y20074D01*
X146352Y19000D01*
X146494Y17927D01*
X146908Y16926D01*
X147567Y16067D01*
X148426Y15408D01*
X149426Y14994D01*
X150500Y14852D01*
X151574Y14994D01*
X152574Y15408D01*
X153433Y16067D01*
X154092Y16926D01*
X154506Y17927D01*
X154648Y19000D01*
X154506Y20074D01*
X154471Y20159D01*
Y23000D01*
X154336Y24028D01*
X153939Y24985D01*
X153308Y25808D01*
X143808Y35308D01*
X142985Y35939D01*
X142028Y36336D01*
X141000Y36471D01*
X115191D01*
X115092Y36971D01*
X115883Y37298D01*
X116869Y38056D01*
X117627Y39043D01*
X118103Y40192D01*
X118265Y41425D01*
Y44575D01*
X118103Y45808D01*
X117627Y46957D01*
X116869Y47944D01*
X115883Y48702D01*
X114733Y49178D01*
X113500Y49340D01*
X112267Y49178D01*
X111824Y48994D01*
X111408Y49272D01*
Y50502D01*
X116703Y55797D01*
X117225Y56578D01*
X117409Y57500D01*
X117409Y70500D01*
X117409Y70500D01*
Y122000D01*
X117346Y122313D01*
X117500Y122500D01*
X117500D01*
X117500Y133591D01*
X122000D01*
X122922Y133775D01*
X123703Y134297D01*
X124225Y135078D01*
X124408Y136000D01*
Y167000D01*
X124225Y167922D01*
X123703Y168703D01*
X123203Y169203D01*
X122422Y169725D01*
X121500Y169908D01*
X66498D01*
X57703Y178703D01*
X56922Y179225D01*
X56000Y179409D01*
X31000D01*
X30078Y179225D01*
X29297Y178703D01*
X27797Y177203D01*
X27275Y176422D01*
X27092Y175500D01*
Y172500D01*
Y85498D01*
X27002Y85409D01*
X20500D01*
X19578Y85225D01*
X18797Y84703D01*
X18275Y83922D01*
X18091Y83000D01*
Y75000D01*
X12875D01*
Y170602D01*
X27898Y185625D01*
X73102D01*
X80252Y178475D01*
X80292Y178411D01*
X80452Y178243D01*
X80494Y177927D01*
X80908Y176926D01*
X81567Y176067D01*
X82426Y175408D01*
X83426Y174994D01*
X84500Y174852D01*
X85574Y174994D01*
X86574Y175408D01*
X87433Y176067D01*
X88092Y176926D01*
X88506Y177927D01*
X88648Y179000D01*
X88506Y180073D01*
X88092Y181074D01*
X87433Y181933D01*
X86574Y182592D01*
X85574Y183006D01*
X85261Y183047D01*
X85199Y183101D01*
X85112Y183186D01*
X85043Y183231D01*
X77149Y191125D01*
X77356Y191625D01*
X88367D01*
X88441Y191608D01*
X88673Y191602D01*
X88926Y191408D01*
X89926Y190994D01*
X91000Y190852D01*
X92074Y190994D01*
X93074Y191408D01*
X93933Y192067D01*
X94592Y192926D01*
X95006Y193927D01*
X95148Y195000D01*
X95006Y196073D01*
X94592Y197074D01*
X93933Y197933D01*
X93074Y198592D01*
X92074Y199006D01*
X91000Y199148D01*
X89926Y199006D01*
X88926Y198592D01*
X88676Y198400D01*
X88594Y198394D01*
X88473Y198393D01*
X88392Y198375D01*
X23500D01*
X22626Y198260D01*
X21812Y197923D01*
X21113Y197387D01*
X3349Y179622D01*
X2887Y179814D01*
Y203276D01*
X3387Y203556D01*
X4932Y202609D01*
X7029Y201740D01*
X9237Y201210D01*
X11500Y201032D01*
X13763Y201210D01*
X15971Y201740D01*
X18068Y202609D01*
X20004Y203795D01*
X21730Y205270D01*
X23205Y206996D01*
X24391Y208932D01*
X25260Y211029D01*
X25790Y213237D01*
X25968Y215500D01*
X25790Y217763D01*
X25260Y219971D01*
X24391Y222068D01*
X23205Y224004D01*
X22645Y224659D01*
X22855Y225113D01*
X80500Y225113D01*
X240303D01*
X240512Y224659D01*
D02*
G37*
G36*
X89750Y193775D02*
X89695Y193821D01*
X89625Y193862D01*
X89539Y193898D01*
X89437Y193929D01*
X89320Y193956D01*
X89188Y193977D01*
X88876Y194006D01*
X88503Y194016D01*
Y195984D01*
X88697Y195987D01*
X89188Y196023D01*
X89320Y196044D01*
X89437Y196071D01*
X89539Y196102D01*
X89625Y196138D01*
X89695Y196179D01*
X89750Y196225D01*
Y193775D01*
D02*
G37*
G36*
X83570Y181326D02*
X83942Y181005D01*
X84051Y180926D01*
X84152Y180862D01*
X84246Y180813D01*
X84333Y180777D01*
X84411Y180756D01*
X84483Y180750D01*
X82750Y179017D01*
X82744Y179089D01*
X82723Y179167D01*
X82687Y179254D01*
X82638Y179348D01*
X82574Y179449D01*
X82495Y179558D01*
X82296Y179799D01*
X82038Y180070D01*
X83430Y181462D01*
X83570Y181326D01*
D02*
G37*
G36*
X65500Y167500D02*
X121500D01*
X122000Y167000D01*
Y160500D01*
X50000D01*
X48000Y162500D01*
X49000Y163500D01*
Y169500D01*
X29500Y172500D01*
Y175500D01*
X31000Y177000D01*
X56000D01*
X65500Y167500D01*
D02*
G37*
G36*
X65250Y142750D02*
X51000Y128500D01*
X48000Y128500D01*
X39500Y138000D01*
X52500Y151000D01*
X57000D01*
X65250Y142750D01*
D02*
G37*
G36*
X33000Y84000D02*
X33500Y83500D01*
X31000Y81000D01*
X26000D01*
X31000Y86000D01*
X33000D01*
Y84000D01*
D02*
G37*
G36*
X29577Y60538D02*
X29553Y60724D01*
X29484Y60890D01*
X29367Y61036D01*
X29205Y61164D01*
X28995Y61271D01*
X28740Y61359D01*
X28437Y61428D01*
X28089Y61477D01*
X27693Y61506D01*
X27252Y61516D01*
Y63484D01*
X27693Y63494D01*
X28437Y63572D01*
X28740Y63641D01*
X28995Y63729D01*
X29205Y63836D01*
X29367Y63964D01*
X29484Y64110D01*
X29553Y64276D01*
X29577Y64462D01*
Y60538D01*
D02*
G37*
G36*
X71500Y81000D02*
X70926Y80427D01*
Y73000D01*
X77000D01*
X79500Y75500D01*
X80500Y74500D01*
Y52500D01*
X70500D01*
X59500Y63500D01*
Y63625D01*
X58354Y64771D01*
Y121354D01*
X59000Y122000D01*
X60500D01*
X71500Y81000D01*
D02*
G37*
G36*
X115000Y57500D02*
X109500Y52000D01*
X103500D01*
X94635Y60865D01*
X115000Y78320D01*
X115000Y57500D01*
D02*
G37*
%LPC*%
G36*
X19969Y170102D02*
Y167968D01*
X22102D01*
X21969Y168291D01*
X21240Y169240D01*
X20291Y169969D01*
X19969Y170102D01*
D02*
G37*
G36*
X16032D02*
X15709Y169969D01*
X14760Y169240D01*
X14031Y168291D01*
X13898Y167968D01*
X16032D01*
Y170102D01*
D02*
G37*
G36*
X22102Y164032D02*
X19969D01*
Y161898D01*
X20291Y162031D01*
X21240Y162760D01*
X21969Y163709D01*
X22102Y164032D01*
D02*
G37*
G36*
X16032D02*
X13898D01*
X14031Y163709D01*
X14760Y162760D01*
X15709Y162031D01*
X16032Y161898D01*
Y164032D01*
D02*
G37*
G36*
X180968Y154787D02*
Y152654D01*
X183102D01*
X182969Y152976D01*
X182240Y153925D01*
X181291Y154654D01*
X180968Y154787D01*
D02*
G37*
G36*
X177032D02*
X176709Y154654D01*
X175760Y153925D01*
X175031Y152976D01*
X174898Y152654D01*
X177032D01*
Y154787D01*
D02*
G37*
G36*
X183102Y148716D02*
X180968D01*
Y146583D01*
X181291Y146716D01*
X182240Y147445D01*
X182969Y148394D01*
X183102Y148716D01*
D02*
G37*
G36*
X177032D02*
X174898D01*
X175031Y148394D01*
X175760Y147445D01*
X176709Y146716D01*
X177032Y146583D01*
Y148716D01*
D02*
G37*
G36*
X20469Y128102D02*
Y125969D01*
X22602D01*
X22469Y126291D01*
X21740Y127240D01*
X20791Y127969D01*
X20469Y128102D01*
D02*
G37*
G36*
X16532D02*
X16209Y127969D01*
X15260Y127240D01*
X14531Y126291D01*
X14398Y125969D01*
X16532D01*
Y128102D01*
D02*
G37*
G36*
X184906Y136906D02*
X173094D01*
Y125094D01*
X184906D01*
Y136906D01*
D02*
G37*
G36*
X231968Y126325D02*
Y122968D01*
X236529D01*
X236231Y123688D01*
X235377Y124802D01*
X234263Y125656D01*
X232966Y126193D01*
X231968Y126325D01*
D02*
G37*
G36*
X228031D02*
X227034Y126193D01*
X225737Y125656D01*
X224623Y124802D01*
X223769Y123688D01*
X223471Y122968D01*
X228031D01*
Y126325D01*
D02*
G37*
G36*
X22602Y122031D02*
X20469D01*
Y119898D01*
X20791Y120031D01*
X21740Y120760D01*
X22469Y121709D01*
X22602Y122031D01*
D02*
G37*
G36*
X16532D02*
X14398D01*
X14531Y121709D01*
X15260Y120760D01*
X16209Y120031D01*
X16532Y119898D01*
Y122031D01*
D02*
G37*
G36*
X236529Y119032D02*
X231968D01*
Y115675D01*
X232966Y115806D01*
X234263Y116344D01*
X235377Y117198D01*
X236231Y118312D01*
X236529Y119032D01*
D02*
G37*
G36*
X228031D02*
X223471D01*
X223769Y118312D01*
X224623Y117198D01*
X225737Y116344D01*
X227034Y115806D01*
X228031Y115675D01*
Y119032D01*
D02*
G37*
G36*
X185906Y109590D02*
X174094D01*
Y97780D01*
X185906D01*
Y109590D01*
D02*
G37*
G36*
X238000Y112908D02*
X212500D01*
X211578Y112725D01*
X210797Y112203D01*
X210297Y111703D01*
X209775Y110922D01*
X209592Y110000D01*
Y93500D01*
Y93000D01*
X209775Y92078D01*
X210297Y91297D01*
X211797Y89797D01*
X212578Y89275D01*
X213500Y89091D01*
X238000D01*
X238922Y89275D01*
X239703Y89797D01*
X242703Y92797D01*
X243225Y93578D01*
X243408Y94500D01*
Y107500D01*
X243225Y108422D01*
X242703Y109203D01*
X239703Y112203D01*
X238922Y112725D01*
X238000Y112908D01*
D02*
G37*
G36*
X181968Y88102D02*
Y85969D01*
X184102D01*
X183969Y86291D01*
X183240Y87240D01*
X182291Y87969D01*
X181968Y88102D01*
D02*
G37*
G36*
X178032D02*
X177709Y87969D01*
X176760Y87240D01*
X176031Y86291D01*
X175898Y85969D01*
X178032D01*
Y88102D01*
D02*
G37*
G36*
X184102Y82032D02*
X181968D01*
Y79898D01*
X182291Y80031D01*
X183240Y80760D01*
X183969Y81709D01*
X184102Y82032D01*
D02*
G37*
G36*
X178032D02*
X175898D01*
X176031Y81709D01*
X176760Y80760D01*
X177709Y80031D01*
X178032Y79898D01*
Y82032D01*
D02*
G37*
G36*
X50468Y24963D02*
Y23469D01*
X51963D01*
X51953Y23493D01*
X51319Y24319D01*
X50493Y24953D01*
X50468Y24963D01*
D02*
G37*
G36*
X46532D02*
X46507Y24953D01*
X45681Y24319D01*
X45047Y23493D01*
X45037Y23469D01*
X46532D01*
Y24963D01*
D02*
G37*
G36*
X51963Y19532D02*
X50468D01*
Y18037D01*
X50493Y18047D01*
X51319Y18681D01*
X51953Y19507D01*
X51963Y19532D01*
D02*
G37*
G36*
X46532D02*
X45037D01*
X45047Y19507D01*
X45681Y18681D01*
X46507Y18047D01*
X46532Y18037D01*
Y19532D01*
D02*
G37*
G36*
X43972Y26815D02*
X33342D01*
Y16185D01*
X43972D01*
Y26815D01*
D02*
G37*
G36*
X58500Y26861D02*
X57112Y26678D01*
X55820Y26143D01*
X54709Y25291D01*
X53857Y24180D01*
X53322Y22887D01*
X53139Y21500D01*
X53322Y20112D01*
X53857Y18820D01*
X54709Y17709D01*
X55820Y16857D01*
X57112Y16322D01*
X58500Y16139D01*
X59887Y16322D01*
X61180Y16857D01*
X62291Y17709D01*
X63143Y18820D01*
X63678Y20112D01*
X63861Y21500D01*
X63678Y22887D01*
X63143Y24180D01*
X62291Y25291D01*
X61180Y26143D01*
X59887Y26678D01*
X58500Y26861D01*
D02*
G37*
%LPD*%
G36*
X241000Y107500D02*
Y94500D01*
X238000Y91500D01*
X213500D01*
X212000Y93000D01*
Y110000D01*
X212500Y110500D01*
X238000D01*
X241000Y107500D01*
D02*
G37*
D54*
X14000Y62500D02*
X35000D01*
X74500Y189000D02*
X84500Y179000D01*
X26500Y189000D02*
X74500D01*
X9500Y172000D02*
X26500Y189000D01*
X23500Y195000D02*
X91000D01*
X4000Y175500D02*
X23500Y195000D01*
X9500Y67000D02*
X14000Y62500D01*
X9500Y67000D02*
Y172000D01*
X14000Y50500D02*
X41000D01*
X4000Y60500D02*
X14000Y50500D01*
X4000Y175500D02*
X4000Y60500D01*
X41000Y50500D02*
X50000Y59500D01*
Y61500D01*
D55*
X103500Y24500D02*
X113500D01*
X95000Y33000D02*
X103500Y24500D01*
X72000Y33000D02*
X95000D01*
X104500Y32500D02*
X141000D01*
X150500Y23000D01*
Y19000D02*
Y23000D01*
X99327Y37673D02*
X104500Y32500D01*
X99327Y37673D02*
Y43000D01*
D87*
X58500Y21500D02*
D03*
X48500D02*
D03*
X251658Y215500D02*
D03*
Y11000D02*
D03*
X11500D02*
D03*
Y215500D02*
D03*
D88*
X38658Y21500D02*
D03*
D89*
X180000Y84000D02*
D03*
X179000Y150685D02*
D03*
X18000Y166000D02*
D03*
X18500Y124000D02*
D03*
D90*
X180000Y103685D02*
D03*
X179000Y131000D02*
D03*
D91*
X35000Y78500D02*
D03*
Y62500D02*
D03*
X230000Y105000D02*
D03*
Y121000D02*
D03*
D92*
X105000Y150000D02*
D03*
Y110500D02*
D03*
D93*
X37685Y166000D02*
D03*
X38185Y124000D02*
D03*
D94*
X120587Y43000D02*
D03*
X113500D02*
D03*
X106413D02*
D03*
X99327D02*
D03*
X92240D02*
D03*
D95*
X74000Y11000D02*
D03*
Y18605D02*
D03*
X68000Y11000D02*
D03*
X68500Y18605D02*
D03*
X74000Y25000D02*
D03*
X68500D02*
D03*
X56750Y34250D02*
D03*
X51000Y36750D02*
D03*
X48297Y42500D02*
D03*
X34000Y9000D02*
D03*
X110727Y174500D02*
D03*
X222500Y181500D02*
D03*
X211668Y180713D02*
D03*
X114000Y171500D02*
D03*
X198963Y180713D02*
D03*
X121000Y59000D02*
D03*
X106500Y58500D02*
D03*
X131500Y63078D02*
D03*
X125775Y63500D02*
D03*
X140500Y96250D02*
D03*
X134250Y98000D02*
D03*
X127000Y98114D02*
D03*
X141097Y105000D02*
D03*
X134500Y105500D02*
D03*
X127000Y105000D02*
D03*
X147500Y156500D02*
D03*
X138500D02*
D03*
X129500D02*
D03*
X254000Y42000D02*
D03*
X244000D02*
D03*
X226000Y16000D02*
D03*
X217500Y15797D02*
D03*
X247500Y188000D02*
D03*
X247187Y196000D02*
D03*
X223500Y211500D02*
D03*
Y221000D02*
D03*
X40500Y213000D02*
D03*
Y220500D02*
D03*
X254500Y32000D02*
D03*
X244500D02*
D03*
X230500Y212500D02*
D03*
Y221000D02*
D03*
X254500Y188000D02*
D03*
Y196000D02*
D03*
X31000Y212500D02*
D03*
Y220500D02*
D03*
X17500Y197500D02*
D03*
X11500D02*
D03*
X6500Y28500D02*
D03*
Y34500D02*
D03*
X226500Y7000D02*
D03*
X218000D02*
D03*
X28500Y9000D02*
D03*
X78000Y151000D02*
D03*
Y158000D02*
D03*
Y164500D02*
D03*
X66000Y151000D02*
D03*
X66104Y158000D02*
D03*
Y164032D02*
D03*
X25790Y59113D02*
D03*
X26000Y65165D02*
D03*
Y75748D02*
D03*
Y81000D02*
D03*
X63500Y45000D02*
D03*
X59750Y48559D02*
D03*
X56500Y52250D02*
D03*
X222500Y115500D02*
D03*
X237000Y129000D02*
D03*
X222000Y127750D02*
D03*
X122591Y55000D02*
D03*
X121500Y51000D02*
D03*
X88250Y62363D02*
D03*
X109500Y55000D02*
D03*
X104100D02*
D03*
X106413Y50275D02*
D03*
X87000Y67910D02*
D03*
X77500Y68089D02*
D03*
X76500Y62363D02*
D03*
X66104Y62157D02*
D03*
X70000Y68089D02*
D03*
X62500D02*
D03*
X61500Y107500D02*
D03*
Y93500D02*
D03*
Y101000D02*
D03*
X76000Y94000D02*
D03*
Y101000D02*
D03*
Y107000D02*
D03*
X90500Y100000D02*
D03*
Y106500D02*
D03*
X31500Y123703D02*
D03*
X38791Y173000D02*
D03*
X33612D02*
D03*
X40500Y148000D02*
D03*
X33250Y147500D02*
D03*
X40000Y154500D02*
D03*
X38791Y111500D02*
D03*
X32500D02*
D03*
X40000Y131500D02*
D03*
X33612D02*
D03*
X33250Y154500D02*
D03*
X230000Y114500D02*
D03*
X219000Y120500D02*
D03*
X229500Y129500D02*
D03*
X238922Y99500D02*
D03*
X238767Y105500D02*
D03*
X221342Y102625D02*
D03*
X221500Y108000D02*
D03*
X233000Y97000D02*
D03*
X227000D02*
D03*
X221500D02*
D03*
X242500Y121000D02*
D03*
X190909Y85000D02*
D03*
X188500Y79000D02*
D03*
X180500Y75748D02*
D03*
X185500Y157000D02*
D03*
X178032Y158000D02*
D03*
X171500Y155500D02*
D03*
X170500Y150500D02*
D03*
X22000Y130500D02*
D03*
X20291Y134500D02*
D03*
X21000Y110500D02*
D03*
X20291Y116500D02*
D03*
X15260Y110500D02*
D03*
X15000Y116500D02*
D03*
X15709Y132500D02*
D03*
X14760Y159500D02*
D03*
X18797Y173500D02*
D03*
X18500Y156500D02*
D03*
X108500Y163500D02*
D03*
X102000Y163709D02*
D03*
X94592Y163500D02*
D03*
X109000Y157500D02*
D03*
X102000D02*
D03*
X95000D02*
D03*
X110500Y90000D02*
D03*
X103500D02*
D03*
X110500Y82700D02*
D03*
X103500D02*
D03*
Y75500D02*
D03*
X110588D02*
D03*
X95500D02*
D03*
Y82700D02*
D03*
Y90000D02*
D03*
X72000Y33000D02*
D03*
X113500Y24500D02*
D03*
X150500Y19000D02*
D03*
X84500Y179000D02*
D03*
X91000Y195000D02*
D03*
X50000Y61500D02*
D03*
D96*
X41250Y125500D02*
D03*
D97*
X87250Y96250D02*
D03*
D98*
X78250Y151500D02*
D03*
D99*
X90250Y64000D02*
D03*
D100*
X225250Y101750D02*
D03*
D101*
X36750Y78250D02*
D03*
D102*
X32250Y62000D02*
D03*
D103*
X106500Y46250D02*
D03*
D104*
X50500Y61000D02*
D03*
M02*
