G04*
G04 #@! TF.GenerationSoftware,Altium Limited,Altium Designer,18.1.9 (240)*
G04*
G04 Layer_Color=128*
%FSLAX25Y25*%
%MOIN*%
G70*
G01*
G75*
%ADD77C,0.00200*%
D77*
X339547Y97209D02*
X345453D01*
X342500Y94256D02*
Y100161D01*
X339547Y116500D02*
X345453D01*
X342500Y113547D02*
Y119453D01*
X34350Y73543D02*
X40650D01*
X37500Y70393D02*
Y76692D01*
X34350Y57543D02*
X40650D01*
X37500Y54393D02*
Y60693D01*
X332350Y59500D02*
X338650D01*
X335500Y56350D02*
Y62650D01*
X332350Y43500D02*
X338650D01*
X335500Y40350D02*
Y46650D01*
X318504Y19685D02*
X331102D01*
X324803Y13386D02*
Y25984D01*
X42913Y19685D02*
X55512D01*
X49213Y13386D02*
Y25984D01*
X226173Y38620D02*
X229323D01*
X227748Y37045D02*
Y40195D01*
X302173Y38620D02*
X305323D01*
X303748Y37045D02*
Y40195D01*
X110531Y45500D02*
X114469D01*
X112500Y43532D02*
Y47469D01*
X102657Y45500D02*
X106595D01*
X104626Y43532D02*
Y47469D01*
X92815Y45500D02*
X96752D01*
X94784Y43532D02*
Y47469D01*
X132854Y35461D02*
X136004D01*
X134429Y33886D02*
Y37035D01*
X120374Y45500D02*
X124311D01*
X122343Y43532D02*
Y47469D01*
X81122Y35461D02*
X84272D01*
X82697Y33886D02*
Y37035D01*
X292700Y36310D02*
X294300D01*
X293500Y35510D02*
Y37110D01*
X293448Y26088D02*
X295048D01*
X294249Y25288D02*
Y26888D01*
X293200Y31294D02*
X294800D01*
X294000Y30494D02*
Y32094D01*
X288196Y25984D02*
X289796D01*
X288996Y25184D02*
Y26784D01*
X288196Y36310D02*
X289796D01*
X288996Y35510D02*
Y37110D01*
X187200Y45783D02*
X188800D01*
X188000Y44984D02*
Y46584D01*
X181200Y46114D02*
X182800D01*
X182000Y45314D02*
Y46914D01*
X175700Y46114D02*
X177300D01*
X176500Y45314D02*
Y46914D01*
X171200Y45874D02*
X172800D01*
X172000Y45074D02*
Y46674D01*
X183700Y27000D02*
X185300D01*
X184500Y26200D02*
Y27800D01*
X183700Y21000D02*
X185300D01*
X184500Y20200D02*
Y21800D01*
X183700Y16000D02*
X185300D01*
X184500Y15200D02*
Y16800D01*
X177200Y16000D02*
X178800D01*
X178000Y15200D02*
Y16800D01*
X248204Y50000D02*
X249804D01*
X249004Y49200D02*
Y50800D01*
X288196Y30959D02*
X289796D01*
X288996Y30159D02*
Y31759D01*
X24696Y18935D02*
X26296D01*
X25496Y18135D02*
Y19735D01*
X24696Y14805D02*
X26296D01*
X25496Y14005D02*
Y15605D01*
X93196Y21000D02*
X94796D01*
X93996Y20200D02*
Y21800D01*
X93200Y17000D02*
X94800D01*
X94000Y16200D02*
Y17800D01*
X138182Y17000D02*
X139782D01*
X138982Y16200D02*
Y17800D01*
X138178Y21000D02*
X139778D01*
X138978Y20200D02*
Y21800D01*
X283450Y26000D02*
X285050D01*
X284250Y25200D02*
Y26800D01*
X221200Y58000D02*
X222800D01*
X222000Y57200D02*
Y58800D01*
X187700Y16000D02*
X189300D01*
X188500Y15200D02*
Y16800D01*
X268700Y7750D02*
X270300D01*
X269500Y6950D02*
Y8550D01*
X268700Y12000D02*
X270300D01*
X269500Y11200D02*
Y12800D01*
X273696Y12000D02*
X275296D01*
X274496Y11200D02*
Y12800D01*
X273696Y7750D02*
X275296D01*
X274496Y6950D02*
Y8550D01*
X259200Y7750D02*
X260800D01*
X260000Y6950D02*
Y8550D01*
X259200Y12000D02*
X260800D01*
X260000Y11200D02*
Y12800D01*
X264196Y12000D02*
X265796D01*
X264996Y11200D02*
Y12800D01*
X264196Y7750D02*
X265796D01*
X264996Y6950D02*
Y8550D01*
X224374Y65000D02*
X225974D01*
X225174Y64200D02*
Y65800D01*
X224700Y60500D02*
X226300D01*
X225500Y59700D02*
Y61300D01*
X215200Y58000D02*
X216800D01*
X216000Y57200D02*
Y58800D01*
X219700Y61000D02*
X221300D01*
X220500Y60200D02*
Y61800D01*
X16700Y68250D02*
X18300D01*
X17500Y67450D02*
Y69050D01*
X16515Y72500D02*
X18115D01*
X17315Y71700D02*
Y73300D01*
X16700Y76500D02*
X18300D01*
X17500Y75700D02*
Y77300D01*
X21696Y76500D02*
X23296D01*
X22496Y75700D02*
Y77300D01*
X21700Y72500D02*
X23300D01*
X22500Y71700D02*
Y73300D01*
X21696Y68250D02*
X23296D01*
X22496Y67450D02*
Y69050D01*
X7200Y68250D02*
X8800D01*
X8000Y67450D02*
Y69050D01*
X7015Y72500D02*
X8615D01*
X7815Y71700D02*
Y73300D01*
X7200Y76500D02*
X8800D01*
X8000Y75700D02*
Y77300D01*
X12196Y76500D02*
X13796D01*
X12996Y75700D02*
Y77300D01*
X12200Y72500D02*
X13800D01*
X13000Y71700D02*
Y73300D01*
X12196Y68250D02*
X13796D01*
X12996Y67450D02*
Y69050D01*
X298425Y80949D02*
X300025D01*
X299225Y80149D02*
Y81749D01*
X298425Y92000D02*
X300025D01*
X299225Y91200D02*
Y92800D01*
X303421Y92000D02*
X305021D01*
X304221Y91200D02*
Y92800D01*
X303610Y80949D02*
X305210D01*
X304410Y80149D02*
Y81749D01*
X288925Y80949D02*
X290525D01*
X289725Y80149D02*
Y81749D01*
X288925Y92000D02*
X290525D01*
X289725Y91200D02*
Y92800D01*
X293921Y92000D02*
X295521D01*
X294721Y91200D02*
Y92800D01*
X294110Y80949D02*
X295710D01*
X294910Y80149D02*
Y81749D01*
X274700Y80758D02*
X276300D01*
X275500Y79958D02*
Y81558D01*
X274700Y92000D02*
X276300D01*
X275500Y91200D02*
Y92800D01*
X279696Y92000D02*
X281296D01*
X280496Y91200D02*
Y92800D01*
X279885Y80758D02*
X281485D01*
X280685Y79958D02*
Y81558D01*
X265200Y80758D02*
X266800D01*
X266000Y79958D02*
Y81558D01*
X265200Y92000D02*
X266800D01*
X266000Y91200D02*
Y92800D01*
X270196Y92000D02*
X271796D01*
X270996Y91200D02*
Y92800D01*
X270385Y80758D02*
X271985D01*
X271185Y79958D02*
Y81558D01*
X171700Y16000D02*
X173300D01*
X172500Y15200D02*
Y16800D01*
X177200Y27000D02*
X178800D01*
X178000Y26200D02*
Y27800D01*
X177200Y21500D02*
X178800D01*
X178000Y20700D02*
Y22300D01*
X171700Y27000D02*
X173300D01*
X172500Y26200D02*
Y27800D01*
X171700Y21500D02*
X173300D01*
X172500Y20700D02*
Y22300D01*
X187700Y27000D02*
X189300D01*
X188500Y26200D02*
Y27800D01*
X187700Y21250D02*
X189300D01*
X188500Y20450D02*
Y22050D01*
X367200Y9712D02*
X368800D01*
X368000Y8912D02*
Y10512D01*
X363450Y9712D02*
X365050D01*
X364250Y8912D02*
Y10512D01*
X367200Y14500D02*
X368800D01*
X368000Y13700D02*
Y15300D01*
X363450Y14447D02*
X365050D01*
X364250Y13647D02*
Y15247D01*
X132997Y17000D02*
X134597D01*
X133797Y16200D02*
Y17800D01*
X133182Y21000D02*
X134782D01*
X133982Y20200D02*
Y21800D01*
X123497Y17000D02*
X125097D01*
X124297Y16200D02*
Y17800D01*
X123682Y21000D02*
X125282D01*
X124482Y20200D02*
Y21800D01*
X128678Y21000D02*
X130278D01*
X129478Y20200D02*
Y21800D01*
X128682Y17000D02*
X130282D01*
X129482Y16200D02*
Y17800D01*
X88015Y17000D02*
X89615D01*
X88815Y16200D02*
Y17800D01*
X88200Y21000D02*
X89800D01*
X89000Y20200D02*
Y21800D01*
X78515Y17000D02*
X80115D01*
X79315Y16200D02*
Y17800D01*
X78700Y21000D02*
X80300D01*
X79500Y20200D02*
Y21800D01*
X83696Y21000D02*
X85296D01*
X84496Y20200D02*
Y21800D01*
X83700Y17000D02*
X85300D01*
X84500Y16200D02*
Y17800D01*
X19700Y15185D02*
X21300D01*
X20500Y14385D02*
Y15985D01*
X19700Y18935D02*
X21300D01*
X20500Y18135D02*
Y19735D01*
X10200Y15185D02*
X11800D01*
X11000Y14385D02*
Y15985D01*
X10200Y18935D02*
X11800D01*
X11000Y18135D02*
Y19735D01*
X15196Y18935D02*
X16796D01*
X15996Y18135D02*
Y19735D01*
X15196Y14805D02*
X16796D01*
X15996Y14005D02*
Y15605D01*
X26015Y128116D02*
X27615D01*
X26815Y127316D02*
Y128916D01*
X26200Y132116D02*
X27800D01*
X27000Y131316D02*
Y132916D01*
X31196Y132116D02*
X32796D01*
X31996Y131316D02*
Y132916D01*
X31200Y128116D02*
X32800D01*
X32000Y127316D02*
Y128916D01*
X16515Y128116D02*
X18115D01*
X17315Y127316D02*
Y128916D01*
X16700Y132116D02*
X18300D01*
X17500Y131316D02*
Y132916D01*
X21696Y132116D02*
X23296D01*
X22496Y131316D02*
Y132916D01*
X21700Y128116D02*
X23300D01*
X22500Y127316D02*
Y128916D01*
X53306Y57543D02*
X54905D01*
X54106Y56743D02*
Y58343D01*
X49700Y57543D02*
X51300D01*
X50500Y56743D02*
Y58343D01*
X53200Y54000D02*
X54800D01*
X54000Y53200D02*
Y54800D01*
X53306Y61500D02*
X54905D01*
X54106Y60700D02*
Y62300D01*
X49700Y54000D02*
X51300D01*
X50500Y53200D02*
Y54800D01*
X49641Y61500D02*
X51241D01*
X50441Y60700D02*
Y62300D01*
X45200Y57500D02*
X46800D01*
X46000Y56700D02*
Y58300D01*
X43520Y61500D02*
X45120D01*
X44320Y60700D02*
Y62300D01*
X43520Y54000D02*
X45120D01*
X44320Y53200D02*
Y54800D01*
X153298Y38620D02*
X154898D01*
X154098Y37820D02*
Y39420D01*
X325700Y42750D02*
X327300D01*
X326500Y41950D02*
Y43550D01*
X325700Y46114D02*
X327300D01*
X326500Y45314D02*
Y46914D01*
X208700Y38134D02*
X210300D01*
X209500Y37334D02*
Y38934D01*
X208704Y46514D02*
X210304D01*
X209504Y45714D02*
Y47314D01*
X208700Y50514D02*
X210300D01*
X209500Y49714D02*
Y51314D01*
X203704Y50514D02*
X205304D01*
X204504Y49714D02*
Y51314D01*
X203519Y46514D02*
X205119D01*
X204319Y45714D02*
Y47314D01*
X203704Y38514D02*
X205304D01*
X204504Y37714D02*
Y39314D01*
X218200Y38134D02*
X219800D01*
X219000Y37334D02*
Y38934D01*
X218204Y46514D02*
X219804D01*
X219004Y45714D02*
Y47314D01*
X218200Y50514D02*
X219800D01*
X219000Y49714D02*
Y51314D01*
X213204Y50514D02*
X214804D01*
X214004Y49714D02*
Y51314D01*
X213019Y46514D02*
X214619D01*
X213819Y45714D02*
Y47314D01*
X213204Y38514D02*
X214804D01*
X214004Y37714D02*
Y39314D01*
X238700Y25000D02*
X240300D01*
X239500Y24200D02*
Y25800D01*
X238704Y29250D02*
X240304D01*
X239504Y28450D02*
Y30050D01*
X238700Y33250D02*
X240300D01*
X239500Y32450D02*
Y34050D01*
X233704Y33250D02*
X235304D01*
X234504Y32450D02*
Y34050D01*
X233519Y29250D02*
X235119D01*
X234319Y28450D02*
Y30050D01*
X233704Y25000D02*
X235304D01*
X234504Y24200D02*
Y25800D01*
X248200Y25000D02*
X249800D01*
X249000Y24200D02*
Y25800D01*
X248204Y29250D02*
X249804D01*
X249004Y28450D02*
Y30050D01*
X248200Y33250D02*
X249800D01*
X249000Y32450D02*
Y34050D01*
X243204Y33250D02*
X244804D01*
X244004Y32450D02*
Y34050D01*
X243019Y29250D02*
X244619D01*
X243819Y28450D02*
Y30050D01*
X243204Y25000D02*
X244804D01*
X244004Y24200D02*
Y25800D01*
X238700Y41750D02*
X240300D01*
X239500Y40950D02*
Y42550D01*
X238704Y46000D02*
X240304D01*
X239504Y45200D02*
Y46800D01*
X238700Y50000D02*
X240300D01*
X239500Y49200D02*
Y50800D01*
X233704Y50000D02*
X235304D01*
X234504Y49200D02*
Y50800D01*
X233519Y46000D02*
X235119D01*
X234319Y45200D02*
Y46800D01*
X233704Y41750D02*
X235304D01*
X234504Y40950D02*
Y42550D01*
X248200Y41750D02*
X249800D01*
X249000Y40950D02*
Y42550D01*
X248204Y46000D02*
X249804D01*
X249004Y45200D02*
Y46800D01*
X243204Y50000D02*
X244804D01*
X244004Y49200D02*
Y50800D01*
X243019Y46000D02*
X244619D01*
X243819Y45200D02*
Y46800D01*
X243204Y41750D02*
X244804D01*
X244004Y40950D02*
Y42550D01*
X308450Y30004D02*
X310050D01*
X309250Y29204D02*
Y30804D01*
X312700Y34500D02*
X314300D01*
X313500Y33700D02*
Y35300D01*
X308450Y34504D02*
X310050D01*
X309250Y33704D02*
Y35304D01*
X283450Y30996D02*
X285050D01*
X284250Y30196D02*
Y31796D01*
X292515Y44250D02*
X294115D01*
X293315Y43450D02*
Y45050D01*
X292700Y48250D02*
X294300D01*
X293500Y47450D02*
Y49050D01*
X283200Y36250D02*
X284800D01*
X284000Y35450D02*
Y37050D01*
X283015Y44250D02*
X284615D01*
X283815Y43450D02*
Y45050D01*
X283200Y48250D02*
X284800D01*
X284000Y47450D02*
Y49050D01*
X288196Y48250D02*
X289796D01*
X288996Y47450D02*
Y49050D01*
X288200Y44250D02*
X289800D01*
X289000Y43450D02*
Y45050D01*
X187200Y38500D02*
X188800D01*
X188000Y37700D02*
Y39300D01*
X187200Y51000D02*
X188800D01*
X188000Y50200D02*
Y51800D01*
X181200Y38500D02*
X182800D01*
X182000Y37700D02*
Y39300D01*
X176196Y38620D02*
X177796D01*
X176996Y37820D02*
Y39420D01*
X176196Y51000D02*
X177796D01*
X176996Y50200D02*
Y51800D01*
X181200Y51000D02*
X182800D01*
X182000Y50200D02*
Y51800D01*
X171200Y51000D02*
X172800D01*
X172000Y50200D02*
Y51800D01*
X171200Y39000D02*
X172800D01*
X172000Y38200D02*
Y39800D01*
X158200Y50000D02*
X159800D01*
X159000Y49200D02*
Y50800D01*
X154543Y50000D02*
X156142D01*
X155342Y49200D02*
Y50800D01*
X157700Y38620D02*
X159300D01*
X158500Y37820D02*
Y39420D01*
X157700Y43000D02*
X159300D01*
X158500Y42200D02*
Y43800D01*
X153200Y42750D02*
X154800D01*
X154000Y41950D02*
Y43550D01*
X157700Y47000D02*
X159300D01*
X158500Y46200D02*
Y47800D01*
X153200Y47000D02*
X154800D01*
X154000Y46200D02*
Y47800D01*
M02*
