G04*
G04 #@! TF.GenerationSoftware,Altium Limited,Altium Designer,18.1.9 (240)*
G04*
G04 Layer_Color=255*
%FSLAX25Y25*%
%MOIN*%
G70*
G01*
G75*
%ADD26C,0.03937*%
%ADD27O,0.11811X0.08661*%
%ADD28C,0.05906*%
%ADD29O,0.05906X0.25591*%
%ADD30O,0.04724X0.07874*%
%ADD31C,0.07087*%
%ADD32O,0.09843X0.13780*%
%ADD33O,0.09843X0.13780*%
%ADD35R,0.09843X0.13780*%
%ADD36R,0.07874X0.13780*%
%ADD37R,0.11811X0.04724*%
%ADD38R,0.13780X0.11811*%
%ADD39R,0.01181X0.07087*%
%ADD40R,0.03000X0.03000*%
%ADD41R,0.03000X0.03000*%
%ADD42R,0.07284X0.13189*%
%ADD43R,0.09843X0.09843*%
D26*
X342500Y97209D02*
D03*
Y116500D02*
D03*
D27*
X37500Y73543D02*
D03*
Y57543D02*
D03*
X335500Y59500D02*
D03*
Y43500D02*
D03*
D28*
X324803Y19685D02*
D03*
X49213D02*
D03*
D29*
X227748Y38620D02*
D03*
X303748D02*
D03*
D30*
X112500Y45500D02*
D03*
X104626Y45500D02*
D03*
D31*
X94784D02*
D03*
X122343D02*
D03*
D32*
X134429Y35461D02*
D03*
D33*
X82697D02*
D03*
D35*
X341303Y76051D02*
D03*
Y137551D02*
D03*
X365425D02*
D03*
Y76051D02*
D03*
D36*
X341303D02*
D03*
D37*
X331303Y92835D02*
D03*
Y102677D02*
D03*
Y110551D02*
D03*
Y120394D02*
D03*
D38*
X194941Y136000D02*
D03*
X102441D02*
D03*
X103413Y85000D02*
D03*
X195913D02*
D03*
D39*
X187563Y124000D02*
D03*
X185594D02*
D03*
X183626D02*
D03*
X181658D02*
D03*
X179689D02*
D03*
X177720D02*
D03*
X175752D02*
D03*
X173783D02*
D03*
X171815D02*
D03*
X169846D02*
D03*
X167878D02*
D03*
X165909D02*
D03*
X163941D02*
D03*
X161972D02*
D03*
X160004D02*
D03*
X158035D02*
D03*
X156067D02*
D03*
X154098D02*
D03*
X152130D02*
D03*
X150161D02*
D03*
X148193D02*
D03*
X146224D02*
D03*
X144256D02*
D03*
X142287D02*
D03*
X140319D02*
D03*
X138350D02*
D03*
X136382D02*
D03*
X134413D02*
D03*
X132445D02*
D03*
X130476D02*
D03*
X128508D02*
D03*
X126539D02*
D03*
X124571D02*
D03*
X122602D02*
D03*
X120634D02*
D03*
X118665D02*
D03*
X116697D02*
D03*
X114728D02*
D03*
X112760D02*
D03*
X110791D02*
D03*
X110791Y97000D02*
D03*
X112760D02*
D03*
X114728D02*
D03*
X116697D02*
D03*
X118665D02*
D03*
X120634D02*
D03*
X122602D02*
D03*
X124571D02*
D03*
X126539D02*
D03*
X128508D02*
D03*
X130476D02*
D03*
X132445D02*
D03*
X134413D02*
D03*
X136382D02*
D03*
X138350D02*
D03*
X140319D02*
D03*
X142287D02*
D03*
X144256D02*
D03*
X146224D02*
D03*
X148193D02*
D03*
X150161D02*
D03*
X152130D02*
D03*
X154098D02*
D03*
X156067D02*
D03*
X158035D02*
D03*
X160004D02*
D03*
X161972D02*
D03*
X163941D02*
D03*
X165909D02*
D03*
X167878D02*
D03*
X169846D02*
D03*
X171815D02*
D03*
X173783D02*
D03*
X175752D02*
D03*
X177720D02*
D03*
X179689D02*
D03*
X181658D02*
D03*
X183626D02*
D03*
X185594D02*
D03*
X187563D02*
D03*
D40*
X312041Y126496D02*
D03*
Y120496D02*
D03*
D41*
X346996Y32959D02*
D03*
X340996D02*
D03*
X88500Y58000D02*
D03*
X94500D02*
D03*
D42*
X196000Y22886D02*
D03*
Y46114D02*
D03*
X165500Y22886D02*
D03*
Y46114D02*
D03*
D43*
X318000Y65780D02*
D03*
Y44126D02*
D03*
M02*
