G04*
G04 #@! TF.GenerationSoftware,Altium Limited,Altium Designer,18.1.9 (240)*
G04*
G04 Layer_Color=32896*
%FSLAX25Y25*%
%MOIN*%
G70*
G01*
G75*
%ADD11C,0.00500*%
%ADD73C,0.00700*%
%ADD74C,0.00787*%
G36*
X359096Y32118D02*
X360139D01*
Y31680D01*
X359096D01*
Y30626D01*
X358652D01*
Y31680D01*
X357608D01*
Y32118D01*
X358652D01*
Y33162D01*
X359096D01*
Y32118D01*
D02*
G37*
G36*
X367165Y31624D02*
Y31514D01*
X367160Y31408D01*
X367154Y31308D01*
X367143Y31214D01*
X367132Y31131D01*
X367121Y31053D01*
X367104Y30981D01*
X367093Y30914D01*
X367082Y30853D01*
X367066Y30803D01*
X367054Y30759D01*
X367043Y30725D01*
X367032Y30698D01*
X367027Y30676D01*
X367021Y30664D01*
Y30659D01*
X366960Y30537D01*
X366882Y30426D01*
X366805Y30337D01*
X366722Y30259D01*
X366649Y30198D01*
X366588Y30154D01*
X366566Y30143D01*
X366549Y30132D01*
X366538Y30121D01*
X366533D01*
X366394Y30059D01*
X366250Y30015D01*
X366100Y29982D01*
X365961Y29959D01*
X365900Y29954D01*
X365839Y29948D01*
X365784Y29943D01*
X365739D01*
X365700Y29937D01*
X365650D01*
X365451Y29948D01*
X365362Y29959D01*
X365279Y29971D01*
X365195Y29987D01*
X365123Y30004D01*
X365056Y30021D01*
X364995Y30043D01*
X364940Y30065D01*
X364896Y30082D01*
X364851Y30098D01*
X364818Y30115D01*
X364790Y30132D01*
X364773Y30137D01*
X364762Y30148D01*
X364757D01*
X364635Y30231D01*
X364535Y30326D01*
X364457Y30415D01*
X364390Y30503D01*
X364340Y30581D01*
X364307Y30642D01*
X364296Y30664D01*
X364285Y30681D01*
X364279Y30692D01*
Y30698D01*
X364257Y30764D01*
X364235Y30836D01*
X364202Y30986D01*
X364180Y31142D01*
X364163Y31291D01*
X364157Y31358D01*
X364152Y31425D01*
Y31480D01*
X364146Y31530D01*
Y31569D01*
Y31597D01*
Y31619D01*
Y31624D01*
Y33845D01*
X364657D01*
Y31624D01*
Y31497D01*
X364668Y31375D01*
X364679Y31269D01*
X364696Y31169D01*
X364712Y31081D01*
X364735Y30997D01*
X364751Y30925D01*
X364773Y30864D01*
X364796Y30814D01*
X364818Y30764D01*
X364840Y30731D01*
X364857Y30698D01*
X364873Y30676D01*
X364884Y30659D01*
X364890Y30653D01*
X364896Y30648D01*
X364945Y30603D01*
X365001Y30564D01*
X365123Y30503D01*
X365251Y30459D01*
X365384Y30431D01*
X365506Y30409D01*
X365556Y30404D01*
X365606D01*
X365639Y30398D01*
X365695D01*
X365811Y30404D01*
X365917Y30420D01*
X366017Y30437D01*
X366094Y30465D01*
X366161Y30487D01*
X366211Y30503D01*
X366239Y30520D01*
X366250Y30526D01*
X366327Y30576D01*
X366394Y30637D01*
X366449Y30698D01*
X366488Y30753D01*
X366522Y30809D01*
X366549Y30847D01*
X366561Y30875D01*
X366566Y30886D01*
X366583Y30936D01*
X366594Y30986D01*
X366616Y31103D01*
X366633Y31225D01*
X366644Y31347D01*
X366649Y31453D01*
Y31502D01*
X366655Y31541D01*
Y31575D01*
Y31602D01*
Y31619D01*
Y31624D01*
Y33845D01*
X367165D01*
Y31624D01*
D02*
G37*
G36*
X363586Y33389D02*
X362320D01*
Y30004D01*
X361810D01*
Y33389D01*
X360544D01*
Y33845D01*
X363586D01*
Y33389D01*
D02*
G37*
G36*
X369813Y33906D02*
X369952Y33889D01*
X370085Y33861D01*
X370212Y33828D01*
X370329Y33784D01*
X370440Y33739D01*
X370540Y33689D01*
X370629Y33639D01*
X370712Y33589D01*
X370784Y33539D01*
X370845Y33495D01*
X370895Y33450D01*
X370934Y33417D01*
X370967Y33389D01*
X370984Y33373D01*
X370989Y33367D01*
X371078Y33262D01*
X371156Y33151D01*
X371228Y33029D01*
X371284Y32907D01*
X371334Y32779D01*
X371378Y32657D01*
X371411Y32535D01*
X371433Y32418D01*
X371456Y32307D01*
X371472Y32202D01*
X371483Y32107D01*
X371495Y32030D01*
Y31963D01*
X371500Y31913D01*
Y31880D01*
Y31874D01*
Y31869D01*
X371489Y31680D01*
X371467Y31508D01*
X371433Y31341D01*
X371411Y31269D01*
X371389Y31197D01*
X371372Y31136D01*
X371350Y31081D01*
X371334Y31031D01*
X371317Y30986D01*
X371306Y30953D01*
X371295Y30931D01*
X371284Y30914D01*
Y30909D01*
X371189Y30748D01*
X371089Y30609D01*
X370978Y30487D01*
X370873Y30387D01*
X370778Y30304D01*
X370740Y30270D01*
X370706Y30248D01*
X370673Y30226D01*
X370651Y30209D01*
X370640Y30204D01*
X370634Y30198D01*
X370551Y30154D01*
X370468Y30115D01*
X370301Y30048D01*
X370140Y30004D01*
X369990Y29971D01*
X369918Y29959D01*
X369857Y29954D01*
X369802Y29943D01*
X369752D01*
X369718Y29937D01*
X369663D01*
X369480Y29948D01*
X369308Y29976D01*
X369147Y30009D01*
X369075Y30032D01*
X369008Y30054D01*
X368947Y30076D01*
X368892Y30098D01*
X368847Y30115D01*
X368808Y30132D01*
X368775Y30148D01*
X368747Y30159D01*
X368736Y30170D01*
X368730D01*
X368575Y30270D01*
X368442Y30381D01*
X368331Y30498D01*
X368237Y30609D01*
X368159Y30714D01*
X368131Y30753D01*
X368109Y30792D01*
X368087Y30825D01*
X368076Y30847D01*
X368065Y30864D01*
Y30870D01*
X368020Y30959D01*
X367987Y31047D01*
X367926Y31225D01*
X367881Y31403D01*
X367854Y31563D01*
X367848Y31636D01*
X367837Y31702D01*
X367831Y31763D01*
Y31813D01*
X367826Y31858D01*
Y31885D01*
Y31908D01*
Y31913D01*
X367837Y32124D01*
X367859Y32318D01*
X367876Y32407D01*
X367898Y32496D01*
X367920Y32574D01*
X367937Y32646D01*
X367959Y32712D01*
X367981Y32773D01*
X367998Y32823D01*
X368020Y32868D01*
X368031Y32901D01*
X368042Y32923D01*
X368054Y32940D01*
Y32945D01*
X368142Y33106D01*
X368248Y33251D01*
X368359Y33373D01*
X368459Y33473D01*
X368553Y33550D01*
X368597Y33584D01*
X368631Y33611D01*
X368664Y33628D01*
X368686Y33645D01*
X368697Y33650D01*
X368703Y33656D01*
X368786Y33700D01*
X368869Y33739D01*
X369030Y33806D01*
X369197Y33850D01*
X369341Y33878D01*
X369408Y33889D01*
X369474Y33900D01*
X369524Y33906D01*
X369574D01*
X369613Y33911D01*
X369663D01*
X369813Y33906D01*
D02*
G37*
G36*
X314267Y74654D02*
X312807D01*
Y75126D01*
X314267D01*
Y74654D01*
D02*
G37*
G36*
X321165Y75121D02*
Y75010D01*
X321160Y74904D01*
X321154Y74804D01*
X321143Y74710D01*
X321132Y74627D01*
X321121Y74549D01*
X321104Y74477D01*
X321093Y74410D01*
X321082Y74349D01*
X321065Y74299D01*
X321054Y74255D01*
X321043Y74221D01*
X321032Y74194D01*
X321027Y74172D01*
X321021Y74160D01*
Y74155D01*
X320960Y74033D01*
X320882Y73922D01*
X320805Y73833D01*
X320722Y73755D01*
X320649Y73694D01*
X320588Y73650D01*
X320566Y73639D01*
X320549Y73628D01*
X320538Y73616D01*
X320533D01*
X320394Y73555D01*
X320250Y73511D01*
X320100Y73478D01*
X319961Y73456D01*
X319900Y73450D01*
X319839Y73444D01*
X319783Y73439D01*
X319739D01*
X319700Y73433D01*
X319650D01*
X319450Y73444D01*
X319362Y73456D01*
X319279Y73467D01*
X319195Y73483D01*
X319123Y73500D01*
X319056Y73517D01*
X318995Y73539D01*
X318940Y73561D01*
X318896Y73578D01*
X318851Y73594D01*
X318818Y73611D01*
X318790Y73628D01*
X318773Y73633D01*
X318762Y73644D01*
X318757D01*
X318635Y73728D01*
X318535Y73822D01*
X318457Y73911D01*
X318390Y74000D01*
X318340Y74077D01*
X318307Y74138D01*
X318296Y74160D01*
X318285Y74177D01*
X318279Y74188D01*
Y74194D01*
X318257Y74260D01*
X318235Y74332D01*
X318202Y74482D01*
X318180Y74638D01*
X318163Y74788D01*
X318157Y74854D01*
X318152Y74921D01*
Y74976D01*
X318146Y75026D01*
Y75065D01*
Y75093D01*
Y75115D01*
Y75121D01*
Y77341D01*
X318657D01*
Y75121D01*
Y74993D01*
X318668Y74871D01*
X318679Y74765D01*
X318696Y74665D01*
X318712Y74577D01*
X318735Y74493D01*
X318751Y74421D01*
X318773Y74360D01*
X318796Y74310D01*
X318818Y74260D01*
X318840Y74227D01*
X318857Y74194D01*
X318873Y74172D01*
X318884Y74155D01*
X318890Y74149D01*
X318896Y74144D01*
X318945Y74099D01*
X319001Y74061D01*
X319123Y74000D01*
X319251Y73955D01*
X319384Y73927D01*
X319506Y73905D01*
X319556Y73900D01*
X319606D01*
X319639Y73894D01*
X319695D01*
X319811Y73900D01*
X319917Y73916D01*
X320017Y73933D01*
X320094Y73961D01*
X320161Y73983D01*
X320211Y74000D01*
X320239Y74016D01*
X320250Y74022D01*
X320327Y74072D01*
X320394Y74133D01*
X320449Y74194D01*
X320488Y74249D01*
X320522Y74305D01*
X320549Y74344D01*
X320561Y74371D01*
X320566Y74382D01*
X320583Y74432D01*
X320594Y74482D01*
X320616Y74599D01*
X320633Y74721D01*
X320644Y74843D01*
X320649Y74949D01*
Y74998D01*
X320655Y75037D01*
Y75071D01*
Y75098D01*
Y75115D01*
Y75121D01*
Y77341D01*
X321165D01*
Y75121D01*
D02*
G37*
G36*
X317586Y76885D02*
X316320D01*
Y73500D01*
X315810D01*
Y76885D01*
X314544D01*
Y77341D01*
X317586D01*
Y76885D01*
D02*
G37*
G36*
X323813Y77402D02*
X323952Y77385D01*
X324085Y77357D01*
X324212Y77324D01*
X324329Y77280D01*
X324440Y77235D01*
X324540Y77185D01*
X324629Y77135D01*
X324712Y77085D01*
X324784Y77035D01*
X324845Y76991D01*
X324895Y76947D01*
X324934Y76913D01*
X324967Y76885D01*
X324984Y76869D01*
X324989Y76863D01*
X325078Y76758D01*
X325156Y76647D01*
X325228Y76525D01*
X325284Y76403D01*
X325333Y76275D01*
X325378Y76153D01*
X325411Y76031D01*
X325433Y75914D01*
X325456Y75803D01*
X325472Y75698D01*
X325483Y75603D01*
X325495Y75526D01*
Y75459D01*
X325500Y75409D01*
Y75376D01*
Y75370D01*
Y75365D01*
X325489Y75176D01*
X325467Y75004D01*
X325433Y74837D01*
X325411Y74765D01*
X325389Y74693D01*
X325372Y74632D01*
X325350Y74577D01*
X325333Y74527D01*
X325317Y74482D01*
X325306Y74449D01*
X325295Y74427D01*
X325284Y74410D01*
Y74405D01*
X325189Y74244D01*
X325089Y74105D01*
X324978Y73983D01*
X324873Y73883D01*
X324779Y73800D01*
X324740Y73766D01*
X324706Y73744D01*
X324673Y73722D01*
X324651Y73705D01*
X324640Y73700D01*
X324634Y73694D01*
X324551Y73650D01*
X324468Y73611D01*
X324301Y73544D01*
X324140Y73500D01*
X323990Y73467D01*
X323918Y73456D01*
X323857Y73450D01*
X323802Y73439D01*
X323752D01*
X323718Y73433D01*
X323663D01*
X323480Y73444D01*
X323308Y73472D01*
X323147Y73506D01*
X323075Y73528D01*
X323008Y73550D01*
X322947Y73572D01*
X322891Y73594D01*
X322847Y73611D01*
X322808Y73628D01*
X322775Y73644D01*
X322747Y73655D01*
X322736Y73667D01*
X322730D01*
X322575Y73766D01*
X322442Y73877D01*
X322331Y73994D01*
X322237Y74105D01*
X322159Y74210D01*
X322131Y74249D01*
X322109Y74288D01*
X322087Y74321D01*
X322076Y74344D01*
X322065Y74360D01*
Y74366D01*
X322020Y74455D01*
X321987Y74543D01*
X321926Y74721D01*
X321881Y74899D01*
X321854Y75060D01*
X321848Y75132D01*
X321837Y75198D01*
X321831Y75259D01*
Y75309D01*
X321826Y75354D01*
Y75381D01*
Y75404D01*
Y75409D01*
X321837Y75620D01*
X321859Y75814D01*
X321876Y75903D01*
X321898Y75992D01*
X321920Y76070D01*
X321937Y76142D01*
X321959Y76208D01*
X321981Y76269D01*
X321998Y76319D01*
X322020Y76364D01*
X322031Y76397D01*
X322042Y76419D01*
X322054Y76436D01*
Y76442D01*
X322142Y76602D01*
X322248Y76747D01*
X322359Y76869D01*
X322459Y76969D01*
X322553Y77047D01*
X322597Y77080D01*
X322631Y77108D01*
X322664Y77124D01*
X322686Y77141D01*
X322697Y77146D01*
X322703Y77152D01*
X322786Y77196D01*
X322869Y77235D01*
X323030Y77302D01*
X323197Y77346D01*
X323341Y77374D01*
X323408Y77385D01*
X323474Y77396D01*
X323524Y77402D01*
X323574D01*
X323613Y77407D01*
X323663D01*
X323813Y77402D01*
D02*
G37*
G36*
X27039Y44500D02*
X26550D01*
Y47514D01*
X24541Y44500D01*
X24014D01*
Y48341D01*
X24502D01*
Y45321D01*
X26517Y48341D01*
X27039D01*
Y44500D01*
D02*
G37*
G36*
X22238Y46615D02*
X23281D01*
Y46176D01*
X22238D01*
Y45122D01*
X21794D01*
Y46176D01*
X20751D01*
Y46615D01*
X21794D01*
Y47658D01*
X22238D01*
Y46615D01*
D02*
G37*
G36*
X31018Y44500D02*
X30485D01*
X28987Y48341D01*
X29503D01*
X30546Y45549D01*
X30591Y45432D01*
X30630Y45321D01*
X30663Y45216D01*
X30691Y45122D01*
X30718Y45038D01*
X30735Y44977D01*
X30741Y44955D01*
X30746Y44938D01*
X30752Y44927D01*
Y44922D01*
X30818Y45144D01*
X30852Y45249D01*
X30885Y45344D01*
X30913Y45427D01*
X30924Y45460D01*
X30929Y45494D01*
X30940Y45516D01*
X30946Y45532D01*
X30951Y45543D01*
Y45549D01*
X31951Y48341D01*
X32506D01*
X31018Y44500D01*
D02*
G37*
G36*
X28443D02*
X27932D01*
Y48341D01*
X28443D01*
Y44500D01*
D02*
G37*
G36*
X23409Y82654D02*
X21949D01*
Y83126D01*
X23409D01*
Y82654D01*
D02*
G37*
G36*
X27039Y81500D02*
X26550D01*
Y84514D01*
X24541Y81500D01*
X24014D01*
Y85341D01*
X24502D01*
Y82321D01*
X26517Y85341D01*
X27039D01*
Y81500D01*
D02*
G37*
G36*
X31018D02*
X30485D01*
X28987Y85341D01*
X29503D01*
X30546Y82549D01*
X30591Y82432D01*
X30630Y82321D01*
X30663Y82216D01*
X30691Y82122D01*
X30718Y82038D01*
X30735Y81977D01*
X30741Y81955D01*
X30746Y81938D01*
X30752Y81927D01*
Y81922D01*
X30818Y82144D01*
X30852Y82249D01*
X30885Y82344D01*
X30913Y82427D01*
X30924Y82460D01*
X30929Y82493D01*
X30940Y82516D01*
X30946Y82532D01*
X30951Y82543D01*
Y82549D01*
X31951Y85341D01*
X32506D01*
X31018Y81500D01*
D02*
G37*
G36*
X28443D02*
X27932D01*
Y85341D01*
X28443D01*
Y81500D01*
D02*
G37*
G36*
X348955Y69852D02*
X349049Y69919D01*
X349088Y69952D01*
X349127Y69980D01*
X349160Y70008D01*
X349183Y70030D01*
X349199Y70047D01*
X349205Y70052D01*
X349233Y70080D01*
X349260Y70113D01*
X349332Y70191D01*
X349416Y70280D01*
X349499Y70374D01*
X349571Y70463D01*
X349604Y70502D01*
X349638Y70535D01*
X349660Y70563D01*
X349677Y70585D01*
X349688Y70596D01*
X349693Y70601D01*
X349771Y70690D01*
X349843Y70779D01*
X349915Y70857D01*
X349976Y70929D01*
X350037Y70995D01*
X350093Y71051D01*
X350143Y71106D01*
X350187Y71151D01*
X350232Y71195D01*
X350265Y71229D01*
X350293Y71256D01*
X350320Y71284D01*
X350354Y71312D01*
X350365Y71323D01*
X350459Y71401D01*
X350542Y71467D01*
X350626Y71523D01*
X350692Y71567D01*
X350753Y71601D01*
X350798Y71623D01*
X350826Y71634D01*
X350836Y71639D01*
X350920Y71673D01*
X351003Y71695D01*
X351081Y71717D01*
X351147Y71728D01*
X351208Y71734D01*
X351253Y71739D01*
X351280D01*
X351292D01*
X351375Y71734D01*
X351453Y71723D01*
X351530Y71711D01*
X351597Y71689D01*
X351730Y71634D01*
X351836Y71578D01*
X351886Y71545D01*
X351924Y71517D01*
X351963Y71489D01*
X351991Y71462D01*
X352013Y71439D01*
X352035Y71428D01*
X352041Y71417D01*
X352046Y71412D01*
X352102Y71351D01*
X352152Y71284D01*
X352191Y71212D01*
X352224Y71140D01*
X352280Y70995D01*
X352318Y70851D01*
X352329Y70790D01*
X352341Y70729D01*
X352346Y70674D01*
X352352Y70629D01*
X352357Y70590D01*
Y70535D01*
X352352Y70435D01*
X352346Y70341D01*
X352329Y70252D01*
X352313Y70169D01*
X352291Y70091D01*
X352268Y70019D01*
X352241Y69952D01*
X352213Y69891D01*
X352185Y69836D01*
X352157Y69791D01*
X352135Y69752D01*
X352113Y69719D01*
X352096Y69691D01*
X352080Y69675D01*
X352074Y69664D01*
X352069Y69658D01*
X352013Y69602D01*
X351952Y69552D01*
X351886Y69503D01*
X351819Y69464D01*
X351686Y69397D01*
X351553Y69353D01*
X351491Y69336D01*
X351430Y69319D01*
X351380Y69308D01*
X351336Y69297D01*
X351297Y69292D01*
X351270D01*
X351253Y69286D01*
X351247D01*
X351197Y69769D01*
X351325Y69780D01*
X351436Y69802D01*
X351536Y69836D01*
X351613Y69874D01*
X351680Y69908D01*
X351725Y69941D01*
X351752Y69963D01*
X351763Y69974D01*
X351830Y70058D01*
X351880Y70146D01*
X351919Y70241D01*
X351941Y70324D01*
X351958Y70402D01*
X351963Y70468D01*
X351969Y70490D01*
Y70524D01*
X351963Y70640D01*
X351941Y70746D01*
X351908Y70835D01*
X351874Y70912D01*
X351836Y70973D01*
X351808Y71012D01*
X351786Y71040D01*
X351775Y71051D01*
X351697Y71118D01*
X351619Y71168D01*
X351541Y71206D01*
X351464Y71229D01*
X351403Y71245D01*
X351347Y71251D01*
X351314Y71256D01*
X351308D01*
X351303D01*
X351203Y71245D01*
X351097Y71223D01*
X351003Y71184D01*
X350914Y71145D01*
X350842Y71101D01*
X350781Y71062D01*
X350759Y71051D01*
X350742Y71040D01*
X350737Y71029D01*
X350731D01*
X350670Y70984D01*
X350609Y70929D01*
X350542Y70868D01*
X350476Y70801D01*
X350343Y70662D01*
X350209Y70524D01*
X350148Y70452D01*
X350093Y70390D01*
X350043Y70329D01*
X349998Y70280D01*
X349965Y70241D01*
X349937Y70207D01*
X349921Y70185D01*
X349915Y70180D01*
X349799Y70041D01*
X349688Y69913D01*
X349588Y69808D01*
X349505Y69725D01*
X349432Y69652D01*
X349382Y69602D01*
X349349Y69575D01*
X349344Y69564D01*
X349338D01*
X349244Y69486D01*
X349155Y69425D01*
X349066Y69369D01*
X348988Y69325D01*
X348922Y69292D01*
X348872Y69269D01*
X348838Y69258D01*
X348833Y69253D01*
X348827D01*
X348766Y69231D01*
X348711Y69219D01*
X348655Y69208D01*
X348605Y69203D01*
X348561Y69197D01*
X348528D01*
X348505D01*
X348500D01*
Y71745D01*
X348955D01*
Y69852D01*
D02*
G37*
G36*
X352341Y68115D02*
X349693D01*
X349577D01*
X349477Y68104D01*
X349394Y68098D01*
X349327Y68087D01*
X349277Y68076D01*
X349238Y68071D01*
X349216Y68060D01*
X349210D01*
X349155Y68037D01*
X349111Y68010D01*
X349072Y67976D01*
X349033Y67949D01*
X349011Y67915D01*
X348988Y67893D01*
X348977Y67876D01*
X348972Y67871D01*
X348944Y67815D01*
X348922Y67760D01*
X348911Y67704D01*
X348900Y67654D01*
X348894Y67604D01*
X348888Y67571D01*
Y67538D01*
X348894Y67449D01*
X348916Y67366D01*
X348938Y67299D01*
X348972Y67238D01*
X349000Y67194D01*
X349027Y67160D01*
X349044Y67138D01*
X349049Y67133D01*
X349083Y67105D01*
X349122Y67083D01*
X349210Y67049D01*
X349310Y67016D01*
X349410Y67000D01*
X349505Y66983D01*
X349543D01*
X349577Y66977D01*
X349610Y66972D01*
X349632D01*
X349643D01*
X349649D01*
X349582Y66511D01*
X349477D01*
X349382Y66517D01*
X349288Y66533D01*
X349205Y66544D01*
X349127Y66567D01*
X349061Y66589D01*
X348994Y66611D01*
X348938Y66633D01*
X348888Y66661D01*
X348844Y66683D01*
X348805Y66705D01*
X348778Y66728D01*
X348755Y66744D01*
X348733Y66755D01*
X348728Y66761D01*
X348722Y66766D01*
X348672Y66822D01*
X348628Y66877D01*
X348589Y66939D01*
X348555Y67005D01*
X348505Y67133D01*
X348472Y67255D01*
X348450Y67371D01*
X348445Y67416D01*
X348439Y67460D01*
X348433Y67493D01*
Y67543D01*
X348439Y67665D01*
X348456Y67777D01*
X348478Y67876D01*
X348505Y67965D01*
X348528Y68037D01*
X348550Y68087D01*
X348567Y68121D01*
X348572Y68132D01*
X348628Y68221D01*
X348694Y68298D01*
X348761Y68359D01*
X348822Y68415D01*
X348883Y68454D01*
X348927Y68481D01*
X348961Y68498D01*
X348966Y68503D01*
X348972D01*
X349083Y68542D01*
X349199Y68576D01*
X349327Y68598D01*
X349449Y68609D01*
X349554Y68620D01*
X349599D01*
X349643Y68626D01*
X349677D01*
X349699D01*
X349715D01*
X349721D01*
X352341D01*
Y68115D01*
D02*
G37*
G36*
X15857Y87235D02*
X15763Y87179D01*
X15674Y87118D01*
X15585Y87046D01*
X15508Y86979D01*
X15441Y86913D01*
X15385Y86863D01*
X15369Y86841D01*
X15352Y86824D01*
X15347Y86818D01*
X15341Y86813D01*
X15247Y86696D01*
X15158Y86580D01*
X15080Y86469D01*
X15019Y86358D01*
X14964Y86263D01*
X14942Y86225D01*
X14925Y86191D01*
X14908Y86164D01*
X14903Y86141D01*
X14892Y86130D01*
Y86125D01*
X14436D01*
X14470Y86208D01*
X14509Y86291D01*
X14548Y86374D01*
X14586Y86452D01*
X14620Y86519D01*
X14647Y86574D01*
X14670Y86607D01*
X14675Y86613D01*
Y86619D01*
X14736Y86718D01*
X14797Y86807D01*
X14853Y86885D01*
X14903Y86946D01*
X14942Y87002D01*
X14975Y87035D01*
X14997Y87063D01*
X15002Y87068D01*
X12000D01*
Y87540D01*
X15857D01*
Y87235D01*
D02*
G37*
G36*
X15841Y84615D02*
X13193D01*
X13077D01*
X12977Y84604D01*
X12893Y84598D01*
X12827Y84587D01*
X12777Y84576D01*
X12738Y84571D01*
X12716Y84560D01*
X12710D01*
X12655Y84537D01*
X12610Y84510D01*
X12572Y84476D01*
X12533Y84449D01*
X12511Y84415D01*
X12488Y84393D01*
X12477Y84376D01*
X12472Y84371D01*
X12444Y84315D01*
X12422Y84260D01*
X12411Y84204D01*
X12400Y84154D01*
X12394Y84104D01*
X12388Y84071D01*
Y84038D01*
X12394Y83949D01*
X12416Y83866D01*
X12438Y83799D01*
X12472Y83738D01*
X12500Y83694D01*
X12527Y83661D01*
X12544Y83638D01*
X12550Y83633D01*
X12583Y83605D01*
X12622Y83583D01*
X12710Y83549D01*
X12810Y83516D01*
X12910Y83499D01*
X13005Y83483D01*
X13043D01*
X13077Y83477D01*
X13110Y83472D01*
X13132D01*
X13143D01*
X13149D01*
X13082Y83011D01*
X12977D01*
X12882Y83017D01*
X12788Y83033D01*
X12705Y83044D01*
X12627Y83067D01*
X12561Y83089D01*
X12494Y83111D01*
X12438Y83133D01*
X12388Y83161D01*
X12344Y83183D01*
X12305Y83205D01*
X12278Y83227D01*
X12255Y83244D01*
X12233Y83255D01*
X12228Y83261D01*
X12222Y83266D01*
X12172Y83322D01*
X12128Y83377D01*
X12089Y83438D01*
X12055Y83505D01*
X12005Y83633D01*
X11972Y83755D01*
X11950Y83871D01*
X11945Y83916D01*
X11939Y83960D01*
X11933Y83993D01*
Y84043D01*
X11939Y84166D01*
X11956Y84276D01*
X11978Y84376D01*
X12005Y84465D01*
X12028Y84537D01*
X12050Y84587D01*
X12067Y84621D01*
X12072Y84632D01*
X12128Y84720D01*
X12194Y84798D01*
X12261Y84859D01*
X12322Y84915D01*
X12383Y84954D01*
X12427Y84981D01*
X12461Y84998D01*
X12466Y85004D01*
X12472D01*
X12583Y85042D01*
X12699Y85076D01*
X12827Y85098D01*
X12949Y85109D01*
X13055Y85120D01*
X13099D01*
X13143Y85126D01*
X13177D01*
X13199D01*
X13216D01*
X13221D01*
X15841D01*
Y84615D01*
D02*
G37*
G36*
X327880Y139973D02*
X327975Y140040D01*
X328013Y140073D01*
X328052Y140101D01*
X328086Y140129D01*
X328108Y140151D01*
X328124Y140167D01*
X328130Y140173D01*
X328158Y140201D01*
X328186Y140234D01*
X328258Y140312D01*
X328341Y140400D01*
X328424Y140495D01*
X328496Y140584D01*
X328530Y140622D01*
X328563Y140656D01*
X328585Y140683D01*
X328602Y140706D01*
X328613Y140717D01*
X328618Y140722D01*
X328696Y140811D01*
X328768Y140900D01*
X328840Y140978D01*
X328902Y141050D01*
X328963Y141116D01*
X329018Y141172D01*
X329068Y141227D01*
X329112Y141272D01*
X329157Y141316D01*
X329190Y141349D01*
X329218Y141377D01*
X329246Y141405D01*
X329279Y141433D01*
X329290Y141444D01*
X329384Y141522D01*
X329468Y141588D01*
X329551Y141644D01*
X329618Y141688D01*
X329679Y141721D01*
X329723Y141744D01*
X329751Y141755D01*
X329762Y141760D01*
X329845Y141794D01*
X329928Y141816D01*
X330006Y141838D01*
X330073Y141849D01*
X330134Y141855D01*
X330178Y141860D01*
X330206D01*
X330217D01*
X330300Y141855D01*
X330378Y141843D01*
X330455Y141832D01*
X330522Y141810D01*
X330655Y141755D01*
X330761Y141699D01*
X330811Y141666D01*
X330850Y141638D01*
X330888Y141610D01*
X330916Y141583D01*
X330938Y141560D01*
X330961Y141549D01*
X330966Y141538D01*
X330972Y141533D01*
X331027Y141472D01*
X331077Y141405D01*
X331116Y141333D01*
X331149Y141261D01*
X331205Y141116D01*
X331244Y140972D01*
X331255Y140911D01*
X331266Y140850D01*
X331271Y140795D01*
X331277Y140750D01*
X331282Y140711D01*
Y140656D01*
X331277Y140556D01*
X331271Y140462D01*
X331255Y140373D01*
X331238Y140289D01*
X331216Y140212D01*
X331194Y140140D01*
X331166Y140073D01*
X331138Y140012D01*
X331110Y139956D01*
X331083Y139912D01*
X331060Y139873D01*
X331038Y139840D01*
X331022Y139812D01*
X331005Y139795D01*
X330999Y139784D01*
X330994Y139779D01*
X330938Y139723D01*
X330877Y139673D01*
X330811Y139623D01*
X330744Y139585D01*
X330611Y139518D01*
X330478Y139474D01*
X330417Y139457D01*
X330356Y139440D01*
X330306Y139429D01*
X330261Y139418D01*
X330222Y139412D01*
X330195D01*
X330178Y139407D01*
X330172D01*
X330122Y139890D01*
X330250Y139901D01*
X330361Y139923D01*
X330461Y139956D01*
X330539Y139995D01*
X330605Y140029D01*
X330650Y140062D01*
X330678Y140084D01*
X330689Y140095D01*
X330755Y140178D01*
X330805Y140267D01*
X330844Y140362D01*
X330866Y140445D01*
X330883Y140523D01*
X330888Y140589D01*
X330894Y140611D01*
Y140645D01*
X330888Y140761D01*
X330866Y140867D01*
X330833Y140955D01*
X330800Y141033D01*
X330761Y141094D01*
X330733Y141133D01*
X330711Y141161D01*
X330700Y141172D01*
X330622Y141238D01*
X330544Y141288D01*
X330467Y141327D01*
X330389Y141349D01*
X330328Y141366D01*
X330272Y141372D01*
X330239Y141377D01*
X330234D01*
X330228D01*
X330128Y141366D01*
X330023Y141344D01*
X329928Y141305D01*
X329839Y141266D01*
X329767Y141222D01*
X329706Y141183D01*
X329684Y141172D01*
X329667Y141161D01*
X329662Y141150D01*
X329656D01*
X329595Y141105D01*
X329534Y141050D01*
X329468Y140989D01*
X329401Y140922D01*
X329268Y140783D01*
X329135Y140645D01*
X329074Y140573D01*
X329018Y140511D01*
X328968Y140450D01*
X328924Y140400D01*
X328890Y140362D01*
X328863Y140328D01*
X328846Y140306D01*
X328840Y140301D01*
X328724Y140162D01*
X328613Y140034D01*
X328513Y139929D01*
X328430Y139845D01*
X328358Y139773D01*
X328308Y139723D01*
X328274Y139696D01*
X328269Y139684D01*
X328263D01*
X328169Y139607D01*
X328080Y139546D01*
X327991Y139490D01*
X327914Y139446D01*
X327847Y139412D01*
X327797Y139390D01*
X327764Y139379D01*
X327758Y139374D01*
X327753D01*
X327692Y139351D01*
X327636Y139340D01*
X327581Y139329D01*
X327531Y139324D01*
X327486Y139318D01*
X327453D01*
X327431D01*
X327425D01*
Y141866D01*
X327880D01*
Y139973D01*
D02*
G37*
G36*
X328663Y138874D02*
X328774Y138852D01*
X328868Y138819D01*
X328957Y138785D01*
X329024Y138752D01*
X329074Y138719D01*
X329107Y138697D01*
X329118Y138691D01*
X329207Y138613D01*
X329279Y138530D01*
X329340Y138436D01*
X329390Y138353D01*
X329429Y138275D01*
X329451Y138208D01*
X329462Y138186D01*
X329468Y138169D01*
X329473Y138158D01*
Y138153D01*
X329529Y138247D01*
X329584Y138330D01*
X329645Y138397D01*
X329701Y138452D01*
X329745Y138497D01*
X329789Y138530D01*
X329812Y138547D01*
X329823Y138552D01*
X329906Y138597D01*
X329984Y138630D01*
X330062Y138658D01*
X330134Y138674D01*
X330195Y138686D01*
X330245Y138691D01*
X330272D01*
X330283D01*
X330378Y138686D01*
X330472Y138669D01*
X330555Y138641D01*
X330633Y138613D01*
X330700Y138586D01*
X330744Y138558D01*
X330777Y138541D01*
X330788Y138536D01*
X330872Y138475D01*
X330949Y138408D01*
X331011Y138336D01*
X331060Y138269D01*
X331099Y138214D01*
X331127Y138164D01*
X331144Y138130D01*
X331149Y138125D01*
Y138119D01*
X331188Y138014D01*
X331216Y137897D01*
X331238Y137781D01*
X331249Y137670D01*
X331260Y137570D01*
Y137525D01*
X331266Y137487D01*
Y135977D01*
X327425D01*
Y137442D01*
X327431Y137575D01*
X327436Y137692D01*
X327447Y137797D01*
X327459Y137886D01*
X327470Y137958D01*
X327475Y138014D01*
X327486Y138047D01*
Y138058D01*
X327514Y138153D01*
X327542Y138230D01*
X327575Y138303D01*
X327608Y138364D01*
X327630Y138414D01*
X327653Y138452D01*
X327669Y138475D01*
X327675Y138480D01*
X327725Y138541D01*
X327786Y138597D01*
X327847Y138641D01*
X327903Y138686D01*
X327958Y138719D01*
X327997Y138741D01*
X328025Y138758D01*
X328036Y138763D01*
X328124Y138802D01*
X328213Y138830D01*
X328296Y138852D01*
X328374Y138863D01*
X328441Y138874D01*
X328496Y138880D01*
X328530D01*
X328535D01*
X328541D01*
X328663Y138874D01*
D02*
G37*
G36*
X328613Y135294D02*
X328718Y135278D01*
X328813Y135250D01*
X328890Y135222D01*
X328957Y135189D01*
X329007Y135167D01*
X329035Y135145D01*
X329046Y135139D01*
X329129Y135072D01*
X329207Y134995D01*
X329273Y134912D01*
X329334Y134828D01*
X329379Y134756D01*
X329412Y134695D01*
X329423Y134673D01*
X329434Y134656D01*
X329440Y134645D01*
Y134640D01*
X329462Y134595D01*
X329479Y134540D01*
X329501Y134479D01*
X329523Y134412D01*
X329562Y134273D01*
X329601Y134129D01*
X329618Y134062D01*
X329634Y134001D01*
X329651Y133940D01*
X329662Y133890D01*
X329673Y133851D01*
X329679Y133818D01*
X329684Y133796D01*
Y133790D01*
X329712Y133679D01*
X329734Y133580D01*
X329762Y133491D01*
X329784Y133413D01*
X329812Y133341D01*
X329834Y133280D01*
X329856Y133224D01*
X329873Y133174D01*
X329895Y133135D01*
X329912Y133102D01*
X329923Y133080D01*
X329939Y133058D01*
X329956Y133030D01*
X329961Y133025D01*
X330017Y132975D01*
X330073Y132941D01*
X330128Y132913D01*
X330184Y132897D01*
X330228Y132886D01*
X330267Y132880D01*
X330289D01*
X330300D01*
X330389Y132891D01*
X330467Y132913D01*
X330533Y132947D01*
X330594Y132986D01*
X330639Y133019D01*
X330678Y133052D01*
X330700Y133074D01*
X330705Y133086D01*
X330733Y133130D01*
X330761Y133174D01*
X330805Y133280D01*
X330833Y133391D01*
X330855Y133502D01*
X330866Y133602D01*
X330872Y133646D01*
X330877Y133679D01*
Y133757D01*
X330872Y133913D01*
X330850Y134051D01*
X330816Y134162D01*
X330783Y134257D01*
X330750Y134329D01*
X330716Y134384D01*
X330694Y134412D01*
X330689Y134423D01*
X330611Y134501D01*
X330528Y134562D01*
X330439Y134612D01*
X330350Y134645D01*
X330267Y134667D01*
X330206Y134684D01*
X330178Y134689D01*
X330161Y134695D01*
X330150D01*
X330145D01*
X330184Y135183D01*
X330306Y135172D01*
X330417Y135145D01*
X330522Y135117D01*
X330611Y135078D01*
X330683Y135045D01*
X330738Y135017D01*
X330755Y135006D01*
X330772Y134995D01*
X330777Y134989D01*
X330783D01*
X330877Y134917D01*
X330961Y134839D01*
X331033Y134756D01*
X331088Y134673D01*
X331138Y134601D01*
X331166Y134545D01*
X331177Y134523D01*
X331188Y134506D01*
X331194Y134495D01*
Y134490D01*
X331238Y134368D01*
X331271Y134234D01*
X331299Y134112D01*
X331316Y133996D01*
X331327Y133890D01*
Y133851D01*
X331332Y133813D01*
Y133740D01*
X331327Y133596D01*
X331310Y133468D01*
X331288Y133346D01*
X331266Y133241D01*
X331244Y133158D01*
X331233Y133119D01*
X331221Y133091D01*
X331210Y133069D01*
X331205Y133052D01*
X331199Y133041D01*
Y133036D01*
X331144Y132925D01*
X331083Y132825D01*
X331016Y132741D01*
X330955Y132675D01*
X330900Y132625D01*
X330855Y132586D01*
X330822Y132558D01*
X330816Y132553D01*
X330811D01*
X330716Y132497D01*
X330622Y132458D01*
X330528Y132431D01*
X330444Y132414D01*
X330372Y132403D01*
X330317Y132392D01*
X330294D01*
X330278D01*
X330272D01*
X330267D01*
X330172Y132397D01*
X330084Y132414D01*
X330000Y132436D01*
X329928Y132458D01*
X329873Y132481D01*
X329828Y132503D01*
X329801Y132519D01*
X329789Y132525D01*
X329712Y132580D01*
X329640Y132647D01*
X329579Y132714D01*
X329529Y132780D01*
X329484Y132836D01*
X329456Y132886D01*
X329434Y132919D01*
X329429Y132925D01*
Y132930D01*
X329407Y132975D01*
X329384Y133025D01*
X329345Y133135D01*
X329307Y133263D01*
X329268Y133385D01*
X329235Y133496D01*
X329223Y133546D01*
X329212Y133591D01*
X329201Y133624D01*
X329196Y133652D01*
X329190Y133668D01*
Y133674D01*
X329168Y133768D01*
X329146Y133857D01*
X329123Y133935D01*
X329107Y134001D01*
X329090Y134068D01*
X329074Y134123D01*
X329062Y134173D01*
X329046Y134212D01*
X329035Y134251D01*
X329029Y134279D01*
X329012Y134323D01*
X329007Y134351D01*
X329001Y134356D01*
X328968Y134440D01*
X328929Y134512D01*
X328890Y134573D01*
X328857Y134617D01*
X328824Y134656D01*
X328802Y134678D01*
X328785Y134695D01*
X328779Y134701D01*
X328729Y134739D01*
X328674Y134767D01*
X328618Y134784D01*
X328574Y134801D01*
X328530Y134806D01*
X328496Y134812D01*
X328469D01*
X328463D01*
X328397Y134806D01*
X328335Y134795D01*
X328280Y134778D01*
X328236Y134756D01*
X328191Y134734D01*
X328163Y134717D01*
X328141Y134706D01*
X328136Y134701D01*
X328080Y134656D01*
X328036Y134601D01*
X327997Y134545D01*
X327958Y134495D01*
X327936Y134445D01*
X327914Y134406D01*
X327903Y134379D01*
X327897Y134368D01*
X327869Y134284D01*
X327847Y134195D01*
X327836Y134107D01*
X327825Y134029D01*
X327819Y133962D01*
X327814Y133907D01*
Y133857D01*
X327819Y133735D01*
X327830Y133624D01*
X327847Y133524D01*
X327869Y133435D01*
X327891Y133363D01*
X327908Y133308D01*
X327914Y133291D01*
X327919Y133274D01*
X327925Y133269D01*
Y133263D01*
X327969Y133174D01*
X328019Y133091D01*
X328069Y133030D01*
X328119Y132975D01*
X328158Y132930D01*
X328197Y132902D01*
X328219Y132886D01*
X328224Y132880D01*
X328296Y132841D01*
X328374Y132802D01*
X328457Y132780D01*
X328530Y132758D01*
X328602Y132741D01*
X328652Y132730D01*
X328674D01*
X328691Y132725D01*
X328696D01*
X328702D01*
X328657Y132247D01*
X328519Y132259D01*
X328385Y132281D01*
X328269Y132314D01*
X328163Y132353D01*
X328080Y132392D01*
X328047Y132408D01*
X328019Y132420D01*
X327997Y132436D01*
X327980Y132442D01*
X327969Y132453D01*
X327963D01*
X327858Y132536D01*
X327764Y132625D01*
X327686Y132719D01*
X327620Y132808D01*
X327570Y132886D01*
X327536Y132952D01*
X327525Y132975D01*
X327514Y132991D01*
X327508Y133002D01*
Y133008D01*
X327459Y133147D01*
X327420Y133291D01*
X327397Y133435D01*
X327375Y133574D01*
X327370Y133641D01*
X327364Y133696D01*
Y133746D01*
X327359Y133790D01*
Y133879D01*
X327364Y134029D01*
X327381Y134168D01*
X327409Y134295D01*
X327436Y134401D01*
X327459Y134490D01*
X327475Y134529D01*
X327486Y134562D01*
X327497Y134584D01*
X327503Y134601D01*
X327508Y134612D01*
Y134617D01*
X327570Y134734D01*
X327636Y134834D01*
X327708Y134923D01*
X327775Y134995D01*
X327830Y135050D01*
X327880Y135089D01*
X327914Y135117D01*
X327919Y135122D01*
X327925D01*
X328030Y135183D01*
X328130Y135228D01*
X328224Y135256D01*
X328313Y135278D01*
X328391Y135289D01*
X328452Y135300D01*
X328474D01*
X328491D01*
X328496D01*
X328502D01*
X328613Y135294D01*
D02*
G37*
G36*
X331266Y131060D02*
X329046D01*
X328918D01*
X328796Y131049D01*
X328691Y131038D01*
X328591Y131021D01*
X328502Y131004D01*
X328419Y130982D01*
X328346Y130965D01*
X328285Y130943D01*
X328236Y130921D01*
X328186Y130899D01*
X328152Y130877D01*
X328119Y130860D01*
X328097Y130843D01*
X328080Y130832D01*
X328075Y130827D01*
X328069Y130821D01*
X328025Y130771D01*
X327986Y130716D01*
X327925Y130594D01*
X327880Y130466D01*
X327853Y130333D01*
X327830Y130211D01*
X327825Y130161D01*
Y130111D01*
X327819Y130077D01*
Y130022D01*
X327825Y129905D01*
X327841Y129800D01*
X327858Y129700D01*
X327886Y129622D01*
X327908Y129556D01*
X327925Y129506D01*
X327941Y129478D01*
X327947Y129467D01*
X327997Y129389D01*
X328058Y129323D01*
X328119Y129267D01*
X328174Y129228D01*
X328230Y129195D01*
X328269Y129167D01*
X328296Y129156D01*
X328308Y129151D01*
X328358Y129134D01*
X328408Y129123D01*
X328524Y129101D01*
X328646Y129084D01*
X328768Y129073D01*
X328874Y129067D01*
X328924D01*
X328963Y129062D01*
X328996D01*
X329024D01*
X329040D01*
X329046D01*
X331266D01*
Y128551D01*
X329046D01*
X328935D01*
X328829Y128557D01*
X328729Y128562D01*
X328635Y128573D01*
X328552Y128585D01*
X328474Y128596D01*
X328402Y128612D01*
X328335Y128623D01*
X328274Y128634D01*
X328224Y128651D01*
X328180Y128662D01*
X328147Y128673D01*
X328119Y128684D01*
X328097Y128690D01*
X328086Y128695D01*
X328080D01*
X327958Y128756D01*
X327847Y128834D01*
X327758Y128912D01*
X327680Y128995D01*
X327620Y129067D01*
X327575Y129128D01*
X327564Y129151D01*
X327553Y129167D01*
X327542Y129178D01*
Y129184D01*
X327481Y129323D01*
X327436Y129467D01*
X327403Y129617D01*
X327381Y129755D01*
X327375Y129817D01*
X327370Y129878D01*
X327364Y129933D01*
Y129978D01*
X327359Y130016D01*
Y130066D01*
X327370Y130266D01*
X327381Y130355D01*
X327392Y130438D01*
X327409Y130521D01*
X327425Y130594D01*
X327442Y130660D01*
X327464Y130721D01*
X327486Y130777D01*
X327503Y130821D01*
X327519Y130866D01*
X327536Y130899D01*
X327553Y130927D01*
X327558Y130943D01*
X327570Y130954D01*
Y130960D01*
X327653Y131082D01*
X327747Y131182D01*
X327836Y131260D01*
X327925Y131326D01*
X328002Y131376D01*
X328064Y131409D01*
X328086Y131421D01*
X328102Y131432D01*
X328113Y131437D01*
X328119D01*
X328186Y131459D01*
X328258Y131482D01*
X328408Y131515D01*
X328563Y131537D01*
X328713Y131554D01*
X328779Y131559D01*
X328846Y131565D01*
X328902D01*
X328952Y131570D01*
X328990D01*
X329018D01*
X329040D01*
X329046D01*
X331266D01*
Y131060D01*
D02*
G37*
G36*
X81455Y136974D02*
X81550Y137040D01*
X81588Y137074D01*
X81627Y137101D01*
X81660Y137129D01*
X81683Y137151D01*
X81699Y137168D01*
X81705Y137174D01*
X81733Y137201D01*
X81760Y137235D01*
X81832Y137312D01*
X81916Y137401D01*
X81999Y137496D01*
X82071Y137584D01*
X82104Y137623D01*
X82138Y137656D01*
X82160Y137684D01*
X82177Y137706D01*
X82188Y137717D01*
X82193Y137723D01*
X82271Y137812D01*
X82343Y137901D01*
X82415Y137978D01*
X82476Y138050D01*
X82537Y138117D01*
X82593Y138173D01*
X82643Y138228D01*
X82687Y138273D01*
X82732Y138317D01*
X82765Y138350D01*
X82793Y138378D01*
X82820Y138406D01*
X82854Y138433D01*
X82865Y138445D01*
X82959Y138522D01*
X83042Y138589D01*
X83126Y138644D01*
X83192Y138689D01*
X83253Y138722D01*
X83298Y138744D01*
X83325Y138755D01*
X83337Y138761D01*
X83420Y138794D01*
X83503Y138816D01*
X83581Y138839D01*
X83647Y138850D01*
X83708Y138855D01*
X83753Y138861D01*
X83781D01*
X83792D01*
X83875Y138855D01*
X83953Y138844D01*
X84030Y138833D01*
X84097Y138811D01*
X84230Y138755D01*
X84336Y138700D01*
X84386Y138667D01*
X84424Y138639D01*
X84463Y138611D01*
X84491Y138583D01*
X84513Y138561D01*
X84535Y138550D01*
X84541Y138539D01*
X84547Y138533D01*
X84602Y138472D01*
X84652Y138406D01*
X84691Y138333D01*
X84724Y138261D01*
X84780Y138117D01*
X84818Y137973D01*
X84829Y137912D01*
X84841Y137851D01*
X84846Y137795D01*
X84852Y137751D01*
X84857Y137712D01*
Y137656D01*
X84852Y137557D01*
X84846Y137462D01*
X84829Y137373D01*
X84813Y137290D01*
X84791Y137212D01*
X84768Y137140D01*
X84741Y137074D01*
X84713Y137013D01*
X84685Y136957D01*
X84657Y136913D01*
X84635Y136874D01*
X84613Y136841D01*
X84596Y136813D01*
X84580Y136796D01*
X84574Y136785D01*
X84569Y136779D01*
X84513Y136724D01*
X84452Y136674D01*
X84386Y136624D01*
X84319Y136585D01*
X84186Y136519D01*
X84052Y136474D01*
X83991Y136458D01*
X83930Y136441D01*
X83880Y136430D01*
X83836Y136419D01*
X83797Y136413D01*
X83769D01*
X83753Y136408D01*
X83747D01*
X83697Y136891D01*
X83825Y136902D01*
X83936Y136924D01*
X84036Y136957D01*
X84114Y136996D01*
X84180Y137029D01*
X84224Y137063D01*
X84252Y137085D01*
X84263Y137096D01*
X84330Y137179D01*
X84380Y137268D01*
X84419Y137362D01*
X84441Y137446D01*
X84458Y137523D01*
X84463Y137590D01*
X84469Y137612D01*
Y137645D01*
X84463Y137762D01*
X84441Y137867D01*
X84408Y137956D01*
X84374Y138034D01*
X84336Y138095D01*
X84308Y138134D01*
X84286Y138162D01*
X84275Y138173D01*
X84197Y138239D01*
X84119Y138289D01*
X84041Y138328D01*
X83964Y138350D01*
X83903Y138367D01*
X83847Y138372D01*
X83814Y138378D01*
X83808D01*
X83803D01*
X83703Y138367D01*
X83597Y138345D01*
X83503Y138306D01*
X83414Y138267D01*
X83342Y138223D01*
X83281Y138184D01*
X83259Y138173D01*
X83242Y138162D01*
X83237Y138150D01*
X83231D01*
X83170Y138106D01*
X83109Y138050D01*
X83042Y137989D01*
X82976Y137923D01*
X82843Y137784D01*
X82709Y137645D01*
X82648Y137573D01*
X82593Y137512D01*
X82543Y137451D01*
X82499Y137401D01*
X82465Y137362D01*
X82437Y137329D01*
X82421Y137307D01*
X82415Y137301D01*
X82299Y137162D01*
X82188Y137035D01*
X82088Y136929D01*
X82004Y136846D01*
X81932Y136774D01*
X81882Y136724D01*
X81849Y136696D01*
X81844Y136685D01*
X81838D01*
X81744Y136608D01*
X81655Y136547D01*
X81566Y136491D01*
X81488Y136447D01*
X81422Y136413D01*
X81372Y136391D01*
X81339Y136380D01*
X81333Y136374D01*
X81327D01*
X81266Y136352D01*
X81211Y136341D01*
X81155Y136330D01*
X81105Y136325D01*
X81061Y136319D01*
X81028D01*
X81006D01*
X81000D01*
Y138866D01*
X81455D01*
Y136974D01*
D02*
G37*
G36*
X83830Y135925D02*
X83930Y135914D01*
X84019Y135892D01*
X84097Y135875D01*
X84163Y135853D01*
X84214Y135830D01*
X84241Y135819D01*
X84252Y135814D01*
X84336Y135769D01*
X84408Y135714D01*
X84474Y135664D01*
X84524Y135614D01*
X84563Y135570D01*
X84596Y135536D01*
X84613Y135514D01*
X84619Y135503D01*
X84663Y135431D01*
X84702Y135348D01*
X84735Y135270D01*
X84763Y135198D01*
X84780Y135131D01*
X84791Y135081D01*
X84802Y135042D01*
Y135031D01*
X84813Y134948D01*
X84824Y134854D01*
X84829Y134754D01*
X84835Y134659D01*
X84841Y134576D01*
Y133000D01*
X81000D01*
Y133511D01*
X82560D01*
Y134493D01*
X82565Y134637D01*
X82576Y134776D01*
X82593Y134898D01*
X82615Y135009D01*
X82637Y135115D01*
X82665Y135203D01*
X82698Y135287D01*
X82732Y135359D01*
X82759Y135420D01*
X82793Y135475D01*
X82820Y135520D01*
X82848Y135553D01*
X82865Y135581D01*
X82881Y135597D01*
X82893Y135608D01*
X82898Y135614D01*
X82965Y135670D01*
X83031Y135720D01*
X83098Y135758D01*
X83170Y135797D01*
X83242Y135830D01*
X83309Y135853D01*
X83437Y135892D01*
X83498Y135903D01*
X83553Y135914D01*
X83603Y135919D01*
X83642Y135925D01*
X83681Y135930D01*
X83703D01*
X83719D01*
X83725D01*
X83830Y135925D01*
D02*
G37*
G36*
X201582Y105959D02*
X201487Y105903D01*
X201398Y105842D01*
X201310Y105770D01*
X201232Y105703D01*
X201165Y105637D01*
X201110Y105587D01*
X201093Y105565D01*
X201077Y105548D01*
X201071Y105542D01*
X201065Y105537D01*
X200971Y105420D01*
X200882Y105304D01*
X200805Y105193D01*
X200744Y105082D01*
X200688Y104987D01*
X200666Y104948D01*
X200649Y104915D01*
X200633Y104887D01*
X200627Y104865D01*
X200616Y104854D01*
Y104849D01*
X200161D01*
X200194Y104932D01*
X200233Y105015D01*
X200272Y105098D01*
X200311Y105176D01*
X200344Y105243D01*
X200372Y105298D01*
X200394Y105332D01*
X200399Y105337D01*
Y105343D01*
X200461Y105443D01*
X200522Y105531D01*
X200577Y105609D01*
X200627Y105670D01*
X200666Y105726D01*
X200699Y105759D01*
X200721Y105787D01*
X200727Y105792D01*
X197724D01*
Y106264D01*
X201582D01*
Y105959D01*
D02*
G37*
G36*
X200555Y104027D02*
X200655Y104016D01*
X200744Y103994D01*
X200821Y103977D01*
X200888Y103955D01*
X200938Y103933D01*
X200966Y103922D01*
X200977Y103916D01*
X201060Y103872D01*
X201132Y103816D01*
X201199Y103766D01*
X201249Y103716D01*
X201288Y103672D01*
X201321Y103639D01*
X201337Y103616D01*
X201343Y103605D01*
X201387Y103533D01*
X201426Y103450D01*
X201460Y103372D01*
X201487Y103300D01*
X201504Y103234D01*
X201515Y103184D01*
X201526Y103145D01*
Y103134D01*
X201537Y103050D01*
X201548Y102956D01*
X201554Y102856D01*
X201559Y102762D01*
X201565Y102679D01*
Y101102D01*
X197724D01*
Y101613D01*
X199284D01*
Y102595D01*
X199290Y102740D01*
X199301Y102878D01*
X199317Y103000D01*
X199339Y103112D01*
X199362Y103217D01*
X199389Y103306D01*
X199423Y103389D01*
X199456Y103461D01*
X199484Y103522D01*
X199517Y103578D01*
X199545Y103622D01*
X199573Y103655D01*
X199589Y103683D01*
X199606Y103700D01*
X199617Y103711D01*
X199622Y103716D01*
X199689Y103772D01*
X199756Y103822D01*
X199822Y103861D01*
X199894Y103900D01*
X199967Y103933D01*
X200033Y103955D01*
X200161Y103994D01*
X200222Y104005D01*
X200277Y104016D01*
X200327Y104022D01*
X200366Y104027D01*
X200405Y104033D01*
X200427D01*
X200444D01*
X200449D01*
X200555Y104027D01*
D02*
G37*
G36*
X211455Y30968D02*
X211549Y31035D01*
X211588Y31068D01*
X211627Y31096D01*
X211660Y31124D01*
X211683Y31146D01*
X211699Y31163D01*
X211705Y31168D01*
X211733Y31196D01*
X211760Y31229D01*
X211832Y31307D01*
X211916Y31396D01*
X211999Y31490D01*
X212071Y31579D01*
X212104Y31618D01*
X212138Y31651D01*
X212160Y31679D01*
X212177Y31701D01*
X212188Y31712D01*
X212193Y31718D01*
X212271Y31806D01*
X212343Y31895D01*
X212415Y31973D01*
X212476Y32045D01*
X212537Y32111D01*
X212593Y32167D01*
X212643Y32223D01*
X212687Y32267D01*
X212732Y32311D01*
X212765Y32345D01*
X212793Y32372D01*
X212820Y32400D01*
X212854Y32428D01*
X212865Y32439D01*
X212959Y32517D01*
X213042Y32583D01*
X213126Y32639D01*
X213192Y32683D01*
X213253Y32717D01*
X213298Y32739D01*
X213326Y32750D01*
X213336Y32755D01*
X213420Y32789D01*
X213503Y32811D01*
X213581Y32833D01*
X213647Y32844D01*
X213708Y32850D01*
X213753Y32855D01*
X213780D01*
X213792D01*
X213875Y32850D01*
X213953Y32839D01*
X214030Y32827D01*
X214097Y32805D01*
X214230Y32750D01*
X214336Y32694D01*
X214386Y32661D01*
X214424Y32633D01*
X214463Y32605D01*
X214491Y32578D01*
X214513Y32555D01*
X214535Y32544D01*
X214541Y32533D01*
X214546Y32528D01*
X214602Y32467D01*
X214652Y32400D01*
X214691Y32328D01*
X214724Y32256D01*
X214780Y32111D01*
X214818Y31967D01*
X214829Y31906D01*
X214841Y31845D01*
X214846Y31790D01*
X214852Y31745D01*
X214857Y31706D01*
Y31651D01*
X214852Y31551D01*
X214846Y31457D01*
X214829Y31368D01*
X214813Y31285D01*
X214791Y31207D01*
X214768Y31135D01*
X214741Y31068D01*
X214713Y31007D01*
X214685Y30952D01*
X214657Y30907D01*
X214635Y30868D01*
X214613Y30835D01*
X214596Y30807D01*
X214580Y30791D01*
X214574Y30780D01*
X214569Y30774D01*
X214513Y30718D01*
X214452Y30669D01*
X214386Y30619D01*
X214319Y30580D01*
X214186Y30513D01*
X214053Y30469D01*
X213991Y30452D01*
X213930Y30435D01*
X213880Y30424D01*
X213836Y30413D01*
X213797Y30408D01*
X213770D01*
X213753Y30402D01*
X213747D01*
X213697Y30885D01*
X213825Y30896D01*
X213936Y30918D01*
X214036Y30952D01*
X214113Y30990D01*
X214180Y31024D01*
X214225Y31057D01*
X214252Y31079D01*
X214263Y31090D01*
X214330Y31174D01*
X214380Y31262D01*
X214419Y31357D01*
X214441Y31440D01*
X214458Y31518D01*
X214463Y31584D01*
X214469Y31607D01*
Y31640D01*
X214463Y31756D01*
X214441Y31862D01*
X214408Y31951D01*
X214374Y32028D01*
X214336Y32089D01*
X214308Y32128D01*
X214286Y32156D01*
X214275Y32167D01*
X214197Y32234D01*
X214119Y32284D01*
X214041Y32322D01*
X213964Y32345D01*
X213903Y32361D01*
X213847Y32367D01*
X213814Y32372D01*
X213808D01*
X213803D01*
X213703Y32361D01*
X213597Y32339D01*
X213503Y32300D01*
X213414Y32261D01*
X213342Y32217D01*
X213281Y32178D01*
X213259Y32167D01*
X213242Y32156D01*
X213237Y32145D01*
X213231D01*
X213170Y32100D01*
X213109Y32045D01*
X213042Y31984D01*
X212976Y31917D01*
X212843Y31779D01*
X212709Y31640D01*
X212648Y31568D01*
X212593Y31507D01*
X212543Y31446D01*
X212498Y31396D01*
X212465Y31357D01*
X212437Y31324D01*
X212421Y31301D01*
X212415Y31296D01*
X212299Y31157D01*
X212188Y31029D01*
X212088Y30924D01*
X212005Y30841D01*
X211932Y30768D01*
X211882Y30718D01*
X211849Y30691D01*
X211844Y30680D01*
X211838D01*
X211744Y30602D01*
X211655Y30541D01*
X211566Y30485D01*
X211488Y30441D01*
X211422Y30408D01*
X211372Y30386D01*
X211338Y30374D01*
X211333Y30369D01*
X211327D01*
X211266Y30347D01*
X211211Y30336D01*
X211155Y30325D01*
X211105Y30319D01*
X211061Y30313D01*
X211028D01*
X211005D01*
X211000D01*
Y32861D01*
X211455D01*
Y30968D01*
D02*
G37*
G36*
Y27511D02*
X212759D01*
Y29636D01*
X213214D01*
Y27511D01*
X214386D01*
Y29781D01*
X214841D01*
Y27000D01*
X211000D01*
Y29869D01*
X211455D01*
Y27511D01*
D02*
G37*
G36*
X151357Y49351D02*
X151263Y49295D01*
X151174Y49234D01*
X151085Y49162D01*
X151008Y49095D01*
X150941Y49029D01*
X150885Y48979D01*
X150869Y48957D01*
X150852Y48940D01*
X150847Y48934D01*
X150841Y48929D01*
X150747Y48812D01*
X150658Y48696D01*
X150580Y48585D01*
X150519Y48474D01*
X150464Y48379D01*
X150442Y48341D01*
X150425Y48307D01*
X150408Y48280D01*
X150403Y48257D01*
X150392Y48246D01*
Y48241D01*
X149936D01*
X149970Y48324D01*
X150009Y48407D01*
X150048Y48490D01*
X150086Y48568D01*
X150120Y48635D01*
X150147Y48690D01*
X150170Y48724D01*
X150175Y48729D01*
Y48735D01*
X150236Y48835D01*
X150297Y48923D01*
X150353Y49001D01*
X150403Y49062D01*
X150442Y49118D01*
X150475Y49151D01*
X150497Y49179D01*
X150503Y49184D01*
X147500D01*
Y49656D01*
X151357D01*
Y49351D01*
D02*
G37*
G36*
X147955Y45011D02*
X149259D01*
Y47136D01*
X149715D01*
Y45011D01*
X150885D01*
Y47280D01*
X151341D01*
Y44500D01*
X147500D01*
Y47369D01*
X147955D01*
Y45011D01*
D02*
G37*
G36*
X310357Y58650D02*
X310263Y58595D01*
X310174Y58534D01*
X310085Y58462D01*
X310008Y58395D01*
X309941Y58328D01*
X309886Y58279D01*
X309869Y58256D01*
X309852Y58240D01*
X309847Y58234D01*
X309841Y58229D01*
X309747Y58112D01*
X309658Y57995D01*
X309580Y57885D01*
X309519Y57774D01*
X309464Y57679D01*
X309441Y57640D01*
X309425Y57607D01*
X309408Y57579D01*
X309403Y57557D01*
X309392Y57546D01*
Y57540D01*
X308937D01*
X308970Y57624D01*
X309009Y57707D01*
X309047Y57790D01*
X309086Y57868D01*
X309120Y57934D01*
X309147Y57990D01*
X309170Y58023D01*
X309175Y58029D01*
Y58034D01*
X309236Y58134D01*
X309297Y58223D01*
X309353Y58301D01*
X309403Y58362D01*
X309441Y58417D01*
X309475Y58451D01*
X309497Y58478D01*
X309503Y58484D01*
X306500D01*
Y58956D01*
X310357D01*
Y58650D01*
D02*
G37*
G36*
X308626Y56669D02*
X308798Y56652D01*
X308953Y56625D01*
X309025Y56613D01*
X309086Y56597D01*
X309147Y56580D01*
X309197Y56569D01*
X309242Y56558D01*
X309280Y56541D01*
X309314Y56536D01*
X309336Y56525D01*
X309347Y56519D01*
X309353D01*
X309497Y56458D01*
X309625Y56386D01*
X309736Y56308D01*
X309830Y56236D01*
X309908Y56170D01*
X309963Y56114D01*
X309980Y56092D01*
X309997Y56075D01*
X310002Y56070D01*
X310008Y56064D01*
X310080Y55975D01*
X310135Y55881D01*
X310185Y55787D01*
X310224Y55698D01*
X310252Y55620D01*
X310268Y55559D01*
X310280Y55537D01*
Y55520D01*
X310285Y55509D01*
Y55503D01*
X310302Y55409D01*
X310318Y55298D01*
X310330Y55187D01*
X310335Y55076D01*
X310341Y54976D01*
Y53500D01*
X306500D01*
Y54882D01*
X306505Y55010D01*
X306511Y55126D01*
X306522Y55232D01*
X306533Y55320D01*
X306544Y55398D01*
X306550Y55454D01*
X306556Y55470D01*
X306561Y55487D01*
Y55498D01*
X306589Y55598D01*
X306622Y55687D01*
X306650Y55764D01*
X306683Y55831D01*
X306711Y55887D01*
X306733Y55925D01*
X306750Y55948D01*
X306755Y55959D01*
X306805Y56031D01*
X306866Y56092D01*
X306922Y56153D01*
X306977Y56203D01*
X307027Y56247D01*
X307066Y56281D01*
X307094Y56303D01*
X307105Y56308D01*
X307194Y56364D01*
X307288Y56419D01*
X307377Y56464D01*
X307466Y56497D01*
X307543Y56530D01*
X307604Y56552D01*
X307627Y56558D01*
X307643Y56564D01*
X307654Y56569D01*
X307660D01*
X307793Y56602D01*
X307926Y56630D01*
X308054Y56647D01*
X308176Y56664D01*
X308282Y56669D01*
X308326D01*
X308365Y56675D01*
X308393D01*
X308420D01*
X308431D01*
X308437D01*
X308626Y56669D01*
D02*
G37*
G36*
X310848Y136844D02*
X310970Y136821D01*
X311076Y136788D01*
X311164Y136755D01*
X311237Y136722D01*
X311292Y136688D01*
X311325Y136666D01*
X311336Y136661D01*
X311420Y136583D01*
X311492Y136500D01*
X311547Y136411D01*
X311592Y136322D01*
X311625Y136244D01*
X311647Y136183D01*
X311653Y136161D01*
X311658Y136144D01*
X311664Y136133D01*
Y136128D01*
X311714Y136222D01*
X311764Y136300D01*
X311819Y136366D01*
X311869Y136422D01*
X311914Y136466D01*
X311952Y136500D01*
X311975Y136516D01*
X311986Y136522D01*
X312064Y136566D01*
X312141Y136600D01*
X312219Y136627D01*
X312291Y136644D01*
X312352Y136655D01*
X312397Y136661D01*
X312430D01*
X312441D01*
X312535Y136655D01*
X312630Y136638D01*
X312713Y136616D01*
X312785Y136588D01*
X312846Y136561D01*
X312896Y136538D01*
X312924Y136522D01*
X312935Y136516D01*
X313018Y136461D01*
X313090Y136394D01*
X313151Y136328D01*
X313207Y136261D01*
X313246Y136205D01*
X313279Y136155D01*
X313296Y136122D01*
X313301Y136117D01*
Y136111D01*
X313346Y136011D01*
X313379Y135911D01*
X313407Y135811D01*
X313423Y135723D01*
X313434Y135650D01*
X313440Y135589D01*
Y135451D01*
X313429Y135373D01*
X313401Y135223D01*
X313357Y135095D01*
X313312Y134984D01*
X313284Y134934D01*
X313262Y134896D01*
X313240Y134857D01*
X313218Y134829D01*
X313201Y134807D01*
X313190Y134790D01*
X313185Y134779D01*
X313179Y134774D01*
X313074Y134668D01*
X312957Y134585D01*
X312835Y134518D01*
X312713Y134463D01*
X312607Y134429D01*
X312563Y134413D01*
X312524Y134402D01*
X312491Y134396D01*
X312469Y134391D01*
X312452Y134385D01*
X312446D01*
X312363Y134857D01*
X312485Y134879D01*
X312591Y134912D01*
X312680Y134951D01*
X312752Y134990D01*
X312807Y135029D01*
X312846Y135062D01*
X312874Y135084D01*
X312879Y135090D01*
X312935Y135162D01*
X312979Y135240D01*
X313007Y135312D01*
X313029Y135384D01*
X313040Y135451D01*
X313051Y135501D01*
Y135545D01*
X313046Y135645D01*
X313024Y135734D01*
X312996Y135811D01*
X312968Y135878D01*
X312935Y135928D01*
X312907Y135967D01*
X312885Y135995D01*
X312879Y136000D01*
X312813Y136061D01*
X312741Y136106D01*
X312668Y136133D01*
X312602Y136155D01*
X312541Y136167D01*
X312496Y136178D01*
X312463D01*
X312457D01*
X312452D01*
X312391D01*
X312335Y136167D01*
X312241Y136139D01*
X312158Y136100D01*
X312086Y136056D01*
X312036Y136011D01*
X311997Y135972D01*
X311975Y135945D01*
X311969Y135939D01*
Y135933D01*
X311919Y135839D01*
X311880Y135750D01*
X311853Y135656D01*
X311836Y135573D01*
X311825Y135501D01*
X311814Y135440D01*
Y135367D01*
X311819Y135345D01*
Y135317D01*
X311403Y135262D01*
X311420Y135334D01*
X311431Y135401D01*
X311442Y135456D01*
X311447Y135506D01*
X311453Y135545D01*
Y135595D01*
X311442Y135711D01*
X311420Y135817D01*
X311386Y135911D01*
X311348Y135989D01*
X311309Y136050D01*
X311275Y136094D01*
X311253Y136122D01*
X311242Y136133D01*
X311159Y136205D01*
X311070Y136261D01*
X310981Y136300D01*
X310892Y136322D01*
X310820Y136339D01*
X310759Y136344D01*
X310737Y136350D01*
X310720D01*
X310709D01*
X310704D01*
X310582Y136339D01*
X310471Y136311D01*
X310376Y136277D01*
X310293Y136233D01*
X310226Y136189D01*
X310176Y136155D01*
X310143Y136128D01*
X310132Y136117D01*
X310054Y136028D01*
X309999Y135933D01*
X309960Y135839D01*
X309932Y135750D01*
X309916Y135673D01*
X309910Y135612D01*
X309905Y135589D01*
Y135556D01*
X309910Y135456D01*
X309932Y135362D01*
X309960Y135278D01*
X309993Y135212D01*
X310021Y135156D01*
X310049Y135112D01*
X310071Y135090D01*
X310077Y135079D01*
X310154Y135012D01*
X310243Y134957D01*
X310337Y134907D01*
X310437Y134868D01*
X310521Y134840D01*
X310559Y134829D01*
X310593Y134824D01*
X310620Y134818D01*
X310643Y134812D01*
X310654Y134807D01*
X310659D01*
X310598Y134335D01*
X310509Y134346D01*
X310426Y134363D01*
X310271Y134413D01*
X310138Y134474D01*
X310082Y134507D01*
X310027Y134540D01*
X309977Y134574D01*
X309938Y134607D01*
X309899Y134635D01*
X309871Y134662D01*
X309849Y134679D01*
X309832Y134696D01*
X309821Y134707D01*
X309816Y134712D01*
X309766Y134779D01*
X309716Y134846D01*
X309677Y134912D01*
X309644Y134984D01*
X309588Y135123D01*
X309555Y135256D01*
X309544Y135317D01*
X309533Y135373D01*
X309527Y135423D01*
X309522Y135467D01*
X309516Y135501D01*
Y135550D01*
X309522Y135656D01*
X309533Y135750D01*
X309549Y135845D01*
X309572Y135933D01*
X309599Y136017D01*
X309627Y136089D01*
X309660Y136161D01*
X309694Y136222D01*
X309721Y136283D01*
X309755Y136333D01*
X309782Y136377D01*
X309810Y136411D01*
X309832Y136439D01*
X309849Y136461D01*
X309860Y136472D01*
X309866Y136477D01*
X309932Y136544D01*
X310004Y136600D01*
X310077Y136649D01*
X310149Y136694D01*
X310215Y136727D01*
X310287Y136760D01*
X310421Y136805D01*
X310482Y136816D01*
X310537Y136827D01*
X310587Y136838D01*
X310632Y136844D01*
X310665Y136849D01*
X310693D01*
X310709D01*
X310715D01*
X310848Y136844D01*
D02*
G37*
G36*
X310926Y133386D02*
X310837Y133364D01*
X310754Y133336D01*
X310676Y133308D01*
X310604Y133281D01*
X310537Y133247D01*
X310482Y133214D01*
X310426Y133175D01*
X310376Y133142D01*
X310332Y133114D01*
X310299Y133081D01*
X310265Y133053D01*
X310238Y133031D01*
X310221Y133009D01*
X310204Y132992D01*
X310199Y132986D01*
X310193Y132981D01*
X310149Y132925D01*
X310115Y132864D01*
X310054Y132742D01*
X310010Y132626D01*
X309982Y132509D01*
X309960Y132409D01*
X309955Y132370D01*
Y132332D01*
X309949Y132298D01*
Y132259D01*
X309955Y132132D01*
X309977Y132010D01*
X310004Y131899D01*
X310038Y131799D01*
X310071Y131721D01*
X310088Y131688D01*
X310099Y131660D01*
X310110Y131638D01*
X310121Y131621D01*
X310126Y131610D01*
Y131604D01*
X310204Y131499D01*
X310287Y131410D01*
X310382Y131333D01*
X310471Y131272D01*
X310548Y131221D01*
X310615Y131188D01*
X310643Y131177D01*
X310659Y131166D01*
X310670Y131160D01*
X310676D01*
X310820Y131116D01*
X310965Y131083D01*
X311109Y131055D01*
X311242Y131038D01*
X311303Y131033D01*
X311359Y131027D01*
X311409D01*
X311447Y131022D01*
X311481D01*
X311508D01*
X311525D01*
X311531D01*
X311675Y131027D01*
X311808Y131038D01*
X311930Y131061D01*
X312041Y131083D01*
X312136Y131099D01*
X312175Y131111D01*
X312208Y131122D01*
X312235Y131127D01*
X312252Y131133D01*
X312263Y131138D01*
X312269D01*
X312397Y131194D01*
X312513Y131255D01*
X312607Y131321D01*
X312691Y131394D01*
X312757Y131455D01*
X312802Y131504D01*
X312829Y131543D01*
X312841Y131549D01*
Y131554D01*
X312913Y131671D01*
X312968Y131799D01*
X313007Y131921D01*
X313029Y132037D01*
X313046Y132143D01*
X313051Y132187D01*
Y132226D01*
X313057Y132254D01*
Y132298D01*
X313051Y132437D01*
X313029Y132565D01*
X312996Y132670D01*
X312963Y132764D01*
X312924Y132837D01*
X312896Y132892D01*
X312874Y132925D01*
X312863Y132936D01*
X312779Y133025D01*
X312685Y133108D01*
X312585Y133175D01*
X312485Y133231D01*
X312397Y133275D01*
X312352Y133292D01*
X312319Y133303D01*
X312291Y133314D01*
X312269Y133325D01*
X312258Y133331D01*
X312252D01*
X312369Y133830D01*
X312469Y133797D01*
X312557Y133763D01*
X312641Y133719D01*
X312724Y133680D01*
X312796Y133636D01*
X312863Y133586D01*
X312929Y133541D01*
X312985Y133497D01*
X313029Y133453D01*
X313074Y133414D01*
X313112Y133375D01*
X313140Y133347D01*
X313168Y133319D01*
X313185Y133297D01*
X313190Y133286D01*
X313196Y133281D01*
X313246Y133203D01*
X313296Y133125D01*
X313334Y133047D01*
X313368Y132964D01*
X313418Y132798D01*
X313451Y132648D01*
X313468Y132576D01*
X313473Y132515D01*
X313479Y132454D01*
X313484Y132404D01*
X313490Y132365D01*
Y132309D01*
X313479Y132126D01*
X313451Y131949D01*
X313418Y131793D01*
X313396Y131721D01*
X313373Y131654D01*
X313351Y131593D01*
X313329Y131538D01*
X313312Y131493D01*
X313296Y131449D01*
X313279Y131421D01*
X313268Y131399D01*
X313262Y131382D01*
X313257Y131377D01*
X313162Y131227D01*
X313051Y131099D01*
X312940Y130988D01*
X312829Y130894D01*
X312730Y130822D01*
X312685Y130794D01*
X312646Y130772D01*
X312618Y130750D01*
X312596Y130739D01*
X312580Y130733D01*
X312574Y130728D01*
X312402Y130650D01*
X312224Y130594D01*
X312047Y130555D01*
X311886Y130528D01*
X311814Y130517D01*
X311742Y130511D01*
X311686Y130506D01*
X311631D01*
X311592Y130500D01*
X311558D01*
X311536D01*
X311531D01*
X311331Y130511D01*
X311137Y130533D01*
X310965Y130561D01*
X310881Y130583D01*
X310809Y130600D01*
X310743Y130617D01*
X310682Y130639D01*
X310626Y130655D01*
X310582Y130666D01*
X310548Y130683D01*
X310521Y130689D01*
X310504Y130700D01*
X310498D01*
X310332Y130783D01*
X310182Y130877D01*
X310054Y130977D01*
X310004Y131027D01*
X309955Y131072D01*
X309910Y131116D01*
X309871Y131160D01*
X309838Y131199D01*
X309816Y131233D01*
X309793Y131255D01*
X309777Y131277D01*
X309771Y131288D01*
X309766Y131294D01*
X309721Y131371D01*
X309682Y131449D01*
X309622Y131616D01*
X309577Y131782D01*
X309549Y131943D01*
X309538Y132021D01*
X309527Y132087D01*
X309522Y132148D01*
Y132198D01*
X309516Y132243D01*
Y132304D01*
X309522Y132415D01*
X309533Y132520D01*
X309544Y132620D01*
X309566Y132714D01*
X309594Y132803D01*
X309622Y132887D01*
X309649Y132964D01*
X309682Y133036D01*
X309710Y133097D01*
X309738Y133158D01*
X309766Y133203D01*
X309793Y133247D01*
X309816Y133275D01*
X309827Y133303D01*
X309838Y133314D01*
X309843Y133319D01*
X309910Y133397D01*
X309977Y133464D01*
X310054Y133525D01*
X310132Y133586D01*
X310287Y133686D01*
X310443Y133763D01*
X310515Y133797D01*
X310582Y133825D01*
X310643Y133847D01*
X310693Y133863D01*
X310737Y133880D01*
X310770Y133891D01*
X310792Y133897D01*
X310798D01*
X310926Y133386D01*
D02*
G37*
G36*
X80455Y59918D02*
X80550Y59984D01*
X80588Y60018D01*
X80627Y60045D01*
X80660Y60073D01*
X80683Y60095D01*
X80699Y60112D01*
X80705Y60118D01*
X80733Y60145D01*
X80760Y60179D01*
X80832Y60256D01*
X80916Y60345D01*
X80999Y60439D01*
X81071Y60528D01*
X81104Y60567D01*
X81138Y60601D01*
X81160Y60628D01*
X81177Y60650D01*
X81188Y60662D01*
X81193Y60667D01*
X81271Y60756D01*
X81343Y60845D01*
X81415Y60922D01*
X81476Y60994D01*
X81537Y61061D01*
X81593Y61117D01*
X81643Y61172D01*
X81687Y61216D01*
X81732Y61261D01*
X81765Y61294D01*
X81793Y61322D01*
X81820Y61350D01*
X81854Y61377D01*
X81865Y61388D01*
X81959Y61466D01*
X82042Y61533D01*
X82126Y61588D01*
X82192Y61633D01*
X82253Y61666D01*
X82298Y61688D01*
X82326Y61699D01*
X82336Y61705D01*
X82420Y61738D01*
X82503Y61760D01*
X82581Y61783D01*
X82647Y61794D01*
X82708Y61799D01*
X82753Y61805D01*
X82781D01*
X82792D01*
X82875Y61799D01*
X82953Y61788D01*
X83030Y61777D01*
X83097Y61755D01*
X83230Y61699D01*
X83336Y61644D01*
X83385Y61611D01*
X83424Y61583D01*
X83463Y61555D01*
X83491Y61527D01*
X83513Y61505D01*
X83535Y61494D01*
X83541Y61483D01*
X83547Y61477D01*
X83602Y61416D01*
X83652Y61350D01*
X83691Y61278D01*
X83724Y61205D01*
X83780Y61061D01*
X83818Y60917D01*
X83829Y60856D01*
X83841Y60795D01*
X83846Y60739D01*
X83852Y60695D01*
X83857Y60656D01*
Y60601D01*
X83852Y60501D01*
X83846Y60406D01*
X83829Y60317D01*
X83813Y60234D01*
X83791Y60156D01*
X83768Y60084D01*
X83741Y60018D01*
X83713Y59957D01*
X83685Y59901D01*
X83657Y59857D01*
X83635Y59818D01*
X83613Y59785D01*
X83596Y59757D01*
X83580Y59740D01*
X83574Y59729D01*
X83569Y59724D01*
X83513Y59668D01*
X83452Y59618D01*
X83385Y59568D01*
X83319Y59529D01*
X83186Y59463D01*
X83052Y59418D01*
X82991Y59402D01*
X82930Y59385D01*
X82880Y59374D01*
X82836Y59363D01*
X82797Y59357D01*
X82769D01*
X82753Y59352D01*
X82747D01*
X82697Y59835D01*
X82825Y59846D01*
X82936Y59868D01*
X83036Y59901D01*
X83113Y59940D01*
X83180Y59973D01*
X83224Y60007D01*
X83252Y60029D01*
X83263Y60040D01*
X83330Y60123D01*
X83380Y60212D01*
X83419Y60306D01*
X83441Y60390D01*
X83458Y60467D01*
X83463Y60534D01*
X83469Y60556D01*
Y60589D01*
X83463Y60706D01*
X83441Y60811D01*
X83408Y60900D01*
X83374Y60978D01*
X83336Y61039D01*
X83308Y61078D01*
X83286Y61106D01*
X83275Y61117D01*
X83197Y61183D01*
X83119Y61233D01*
X83041Y61272D01*
X82964Y61294D01*
X82903Y61311D01*
X82847Y61316D01*
X82814Y61322D01*
X82808D01*
X82803D01*
X82703Y61311D01*
X82597Y61289D01*
X82503Y61250D01*
X82414Y61211D01*
X82342Y61167D01*
X82281Y61128D01*
X82259Y61117D01*
X82242Y61106D01*
X82237Y61094D01*
X82231D01*
X82170Y61050D01*
X82109Y60994D01*
X82042Y60934D01*
X81976Y60867D01*
X81843Y60728D01*
X81709Y60589D01*
X81648Y60517D01*
X81593Y60456D01*
X81543Y60395D01*
X81498Y60345D01*
X81465Y60306D01*
X81437Y60273D01*
X81421Y60251D01*
X81415Y60245D01*
X81299Y60106D01*
X81188Y59979D01*
X81088Y59873D01*
X81005Y59790D01*
X80932Y59718D01*
X80882Y59668D01*
X80849Y59640D01*
X80844Y59629D01*
X80838D01*
X80744Y59552D01*
X80655Y59490D01*
X80566Y59435D01*
X80488Y59390D01*
X80422Y59357D01*
X80372Y59335D01*
X80339Y59324D01*
X80333Y59318D01*
X80327D01*
X80266Y59296D01*
X80211Y59285D01*
X80155Y59274D01*
X80105Y59268D01*
X80061Y59263D01*
X80028D01*
X80006D01*
X80000D01*
Y61810D01*
X80455D01*
Y59918D01*
D02*
G37*
G36*
X81343Y58386D02*
X81254Y58364D01*
X81171Y58336D01*
X81093Y58308D01*
X81021Y58281D01*
X80955Y58247D01*
X80899Y58214D01*
X80844Y58175D01*
X80794Y58142D01*
X80749Y58114D01*
X80716Y58081D01*
X80683Y58053D01*
X80655Y58031D01*
X80638Y58009D01*
X80622Y57992D01*
X80616Y57986D01*
X80611Y57981D01*
X80566Y57925D01*
X80533Y57864D01*
X80472Y57742D01*
X80427Y57626D01*
X80400Y57509D01*
X80377Y57409D01*
X80372Y57370D01*
Y57332D01*
X80366Y57298D01*
Y57259D01*
X80372Y57132D01*
X80394Y57010D01*
X80422Y56899D01*
X80455Y56799D01*
X80488Y56721D01*
X80505Y56688D01*
X80516Y56660D01*
X80527Y56638D01*
X80538Y56621D01*
X80544Y56610D01*
Y56604D01*
X80622Y56499D01*
X80705Y56410D01*
X80799Y56332D01*
X80888Y56271D01*
X80966Y56221D01*
X81032Y56188D01*
X81060Y56177D01*
X81077Y56166D01*
X81088Y56160D01*
X81093D01*
X81238Y56116D01*
X81382Y56083D01*
X81526Y56055D01*
X81660Y56038D01*
X81721Y56033D01*
X81776Y56027D01*
X81826D01*
X81865Y56022D01*
X81898D01*
X81926D01*
X81942D01*
X81948D01*
X82092Y56027D01*
X82226Y56038D01*
X82348Y56061D01*
X82459Y56083D01*
X82553Y56099D01*
X82592Y56111D01*
X82625Y56122D01*
X82653Y56127D01*
X82670Y56133D01*
X82681Y56138D01*
X82686D01*
X82814Y56194D01*
X82930Y56255D01*
X83025Y56321D01*
X83108Y56394D01*
X83175Y56455D01*
X83219Y56504D01*
X83247Y56543D01*
X83258Y56549D01*
Y56555D01*
X83330Y56671D01*
X83385Y56799D01*
X83424Y56921D01*
X83447Y57037D01*
X83463Y57143D01*
X83469Y57187D01*
Y57226D01*
X83474Y57254D01*
Y57298D01*
X83469Y57437D01*
X83447Y57565D01*
X83413Y57670D01*
X83380Y57764D01*
X83341Y57837D01*
X83313Y57892D01*
X83291Y57925D01*
X83280Y57937D01*
X83197Y58025D01*
X83102Y58109D01*
X83003Y58175D01*
X82903Y58231D01*
X82814Y58275D01*
X82769Y58292D01*
X82736Y58303D01*
X82708Y58314D01*
X82686Y58325D01*
X82675Y58331D01*
X82670D01*
X82786Y58830D01*
X82886Y58797D01*
X82975Y58763D01*
X83058Y58719D01*
X83141Y58680D01*
X83214Y58636D01*
X83280Y58586D01*
X83347Y58541D01*
X83402Y58497D01*
X83447Y58453D01*
X83491Y58414D01*
X83530Y58375D01*
X83558Y58347D01*
X83585Y58319D01*
X83602Y58297D01*
X83608Y58286D01*
X83613Y58281D01*
X83663Y58203D01*
X83713Y58125D01*
X83752Y58047D01*
X83785Y57964D01*
X83835Y57798D01*
X83868Y57648D01*
X83885Y57576D01*
X83890Y57515D01*
X83896Y57454D01*
X83902Y57404D01*
X83907Y57365D01*
Y57309D01*
X83896Y57126D01*
X83868Y56949D01*
X83835Y56793D01*
X83813Y56721D01*
X83791Y56654D01*
X83768Y56593D01*
X83746Y56538D01*
X83730Y56493D01*
X83713Y56449D01*
X83696Y56421D01*
X83685Y56399D01*
X83680Y56382D01*
X83674Y56377D01*
X83580Y56227D01*
X83469Y56099D01*
X83358Y55988D01*
X83247Y55894D01*
X83147Y55822D01*
X83102Y55794D01*
X83064Y55772D01*
X83036Y55750D01*
X83014Y55739D01*
X82997Y55733D01*
X82991Y55727D01*
X82819Y55650D01*
X82642Y55594D01*
X82464Y55555D01*
X82303Y55528D01*
X82231Y55517D01*
X82159Y55511D01*
X82103Y55506D01*
X82048D01*
X82009Y55500D01*
X81976D01*
X81954D01*
X81948D01*
X81748Y55511D01*
X81554Y55533D01*
X81382Y55561D01*
X81299Y55583D01*
X81226Y55600D01*
X81160Y55616D01*
X81099Y55639D01*
X81043Y55655D01*
X80999Y55667D01*
X80966Y55683D01*
X80938Y55689D01*
X80921Y55700D01*
X80916D01*
X80749Y55783D01*
X80599Y55877D01*
X80472Y55977D01*
X80422Y56027D01*
X80372Y56072D01*
X80327Y56116D01*
X80289Y56160D01*
X80255Y56199D01*
X80233Y56233D01*
X80211Y56255D01*
X80194Y56277D01*
X80189Y56288D01*
X80183Y56294D01*
X80139Y56371D01*
X80100Y56449D01*
X80039Y56616D01*
X79994Y56782D01*
X79967Y56943D01*
X79956Y57021D01*
X79944Y57087D01*
X79939Y57148D01*
Y57198D01*
X79933Y57243D01*
Y57304D01*
X79939Y57415D01*
X79950Y57520D01*
X79961Y57620D01*
X79983Y57714D01*
X80011Y57803D01*
X80039Y57886D01*
X80067Y57964D01*
X80100Y58036D01*
X80128Y58097D01*
X80155Y58158D01*
X80183Y58203D01*
X80211Y58247D01*
X80233Y58275D01*
X80244Y58303D01*
X80255Y58314D01*
X80261Y58319D01*
X80327Y58397D01*
X80394Y58464D01*
X80472Y58525D01*
X80550Y58586D01*
X80705Y58686D01*
X80860Y58763D01*
X80932Y58797D01*
X80999Y58824D01*
X81060Y58847D01*
X81110Y58863D01*
X81154Y58880D01*
X81188Y58891D01*
X81210Y58897D01*
X81215D01*
X81343Y58386D01*
D02*
G37*
G36*
X336357Y36259D02*
X336263Y36203D01*
X336174Y36142D01*
X336085Y36070D01*
X336008Y36004D01*
X335941Y35937D01*
X335886Y35887D01*
X335869Y35865D01*
X335852Y35848D01*
X335847Y35843D01*
X335841Y35837D01*
X335747Y35721D01*
X335658Y35604D01*
X335580Y35493D01*
X335519Y35382D01*
X335464Y35288D01*
X335441Y35249D01*
X335425Y35216D01*
X335408Y35188D01*
X335403Y35166D01*
X335392Y35155D01*
Y35149D01*
X334936D01*
X334970Y35232D01*
X335009Y35315D01*
X335047Y35399D01*
X335086Y35476D01*
X335120Y35543D01*
X335147Y35598D01*
X335170Y35632D01*
X335175Y35637D01*
Y35643D01*
X335236Y35743D01*
X335297Y35832D01*
X335353Y35909D01*
X335403Y35970D01*
X335441Y36026D01*
X335475Y36059D01*
X335497Y36087D01*
X335503Y36092D01*
X332500D01*
Y36564D01*
X336357D01*
Y36259D01*
D02*
G37*
G36*
X333843Y33845D02*
X333754Y33823D01*
X333671Y33795D01*
X333593Y33767D01*
X333521Y33739D01*
X333455Y33706D01*
X333399Y33673D01*
X333344Y33634D01*
X333294Y33601D01*
X333249Y33573D01*
X333216Y33539D01*
X333183Y33512D01*
X333155Y33490D01*
X333138Y33467D01*
X333122Y33451D01*
X333116Y33445D01*
X333110Y33440D01*
X333066Y33384D01*
X333033Y33323D01*
X332972Y33201D01*
X332927Y33084D01*
X332900Y32968D01*
X332877Y32868D01*
X332872Y32829D01*
Y32790D01*
X332866Y32757D01*
Y32718D01*
X332872Y32590D01*
X332894Y32468D01*
X332922Y32357D01*
X332955Y32257D01*
X332988Y32180D01*
X333005Y32146D01*
X333016Y32119D01*
X333027Y32096D01*
X333038Y32080D01*
X333044Y32069D01*
Y32063D01*
X333122Y31958D01*
X333205Y31869D01*
X333299Y31791D01*
X333388Y31730D01*
X333466Y31680D01*
X333532Y31647D01*
X333560Y31636D01*
X333577Y31625D01*
X333588Y31619D01*
X333593D01*
X333738Y31575D01*
X333882Y31541D01*
X334026Y31514D01*
X334159Y31497D01*
X334221Y31492D01*
X334276Y31486D01*
X334326D01*
X334365Y31480D01*
X334398D01*
X334426D01*
X334442D01*
X334448D01*
X334592Y31486D01*
X334726Y31497D01*
X334848Y31519D01*
X334959Y31541D01*
X335053Y31558D01*
X335092Y31569D01*
X335125Y31580D01*
X335153Y31586D01*
X335170Y31591D01*
X335181Y31597D01*
X335186D01*
X335314Y31652D01*
X335430Y31714D01*
X335525Y31780D01*
X335608Y31852D01*
X335675Y31913D01*
X335719Y31963D01*
X335747Y32002D01*
X335758Y32008D01*
Y32013D01*
X335830Y32130D01*
X335886Y32257D01*
X335924Y32379D01*
X335946Y32496D01*
X335963Y32601D01*
X335969Y32646D01*
Y32685D01*
X335974Y32713D01*
Y32757D01*
X335969Y32896D01*
X335946Y33023D01*
X335913Y33129D01*
X335880Y33223D01*
X335841Y33295D01*
X335813Y33351D01*
X335791Y33384D01*
X335780Y33395D01*
X335697Y33484D01*
X335602Y33567D01*
X335503Y33634D01*
X335403Y33689D01*
X335314Y33734D01*
X335269Y33750D01*
X335236Y33762D01*
X335208Y33773D01*
X335186Y33784D01*
X335175Y33789D01*
X335170D01*
X335286Y34289D01*
X335386Y34255D01*
X335475Y34222D01*
X335558Y34178D01*
X335641Y34139D01*
X335714Y34095D01*
X335780Y34045D01*
X335847Y34000D01*
X335902Y33956D01*
X335946Y33911D01*
X335991Y33872D01*
X336030Y33834D01*
X336057Y33806D01*
X336085Y33778D01*
X336102Y33756D01*
X336107Y33745D01*
X336113Y33739D01*
X336163Y33661D01*
X336213Y33584D01*
X336252Y33506D01*
X336285Y33423D01*
X336335Y33256D01*
X336368Y33106D01*
X336385Y33034D01*
X336390Y32973D01*
X336396Y32912D01*
X336402Y32862D01*
X336407Y32824D01*
Y32768D01*
X336396Y32585D01*
X336368Y32407D01*
X336335Y32252D01*
X336313Y32180D01*
X336291Y32113D01*
X336268Y32052D01*
X336246Y31997D01*
X336230Y31952D01*
X336213Y31908D01*
X336196Y31880D01*
X336185Y31858D01*
X336180Y31841D01*
X336174Y31836D01*
X336080Y31686D01*
X335969Y31558D01*
X335858Y31447D01*
X335747Y31353D01*
X335647Y31281D01*
X335602Y31253D01*
X335564Y31231D01*
X335536Y31208D01*
X335514Y31197D01*
X335497Y31192D01*
X335491Y31186D01*
X335319Y31109D01*
X335142Y31053D01*
X334964Y31014D01*
X334803Y30986D01*
X334731Y30975D01*
X334659Y30970D01*
X334604Y30964D01*
X334548D01*
X334509Y30959D01*
X334476D01*
X334454D01*
X334448D01*
X334248Y30970D01*
X334054Y30992D01*
X333882Y31020D01*
X333799Y31042D01*
X333727Y31059D01*
X333660Y31075D01*
X333599Y31097D01*
X333543Y31114D01*
X333499Y31125D01*
X333466Y31142D01*
X333438Y31147D01*
X333421Y31159D01*
X333416D01*
X333249Y31242D01*
X333099Y31336D01*
X332972Y31436D01*
X332922Y31486D01*
X332872Y31530D01*
X332827Y31575D01*
X332789Y31619D01*
X332755Y31658D01*
X332733Y31691D01*
X332711Y31714D01*
X332694Y31736D01*
X332689Y31747D01*
X332683Y31752D01*
X332639Y31830D01*
X332600Y31908D01*
X332539Y32074D01*
X332494Y32241D01*
X332467Y32402D01*
X332456Y32479D01*
X332445Y32546D01*
X332439Y32607D01*
Y32657D01*
X332433Y32701D01*
Y32763D01*
X332439Y32873D01*
X332450Y32979D01*
X332461Y33079D01*
X332483Y33173D01*
X332511Y33262D01*
X332539Y33345D01*
X332567Y33423D01*
X332600Y33495D01*
X332628Y33556D01*
X332655Y33617D01*
X332683Y33661D01*
X332711Y33706D01*
X332733Y33734D01*
X332744Y33762D01*
X332755Y33773D01*
X332761Y33778D01*
X332827Y33856D01*
X332894Y33922D01*
X332972Y33983D01*
X333049Y34045D01*
X333205Y34144D01*
X333360Y34222D01*
X333432Y34255D01*
X333499Y34283D01*
X333560Y34305D01*
X333610Y34322D01*
X333654Y34339D01*
X333688Y34350D01*
X333710Y34355D01*
X333716D01*
X333843Y33845D01*
D02*
G37*
%LPC*%
G36*
X369713Y33473D02*
X369663D01*
X369524Y33467D01*
X369391Y33445D01*
X369274Y33412D01*
X369175Y33378D01*
X369091Y33340D01*
X369058Y33323D01*
X369030Y33312D01*
X369003Y33295D01*
X368986Y33290D01*
X368980Y33278D01*
X368975D01*
X368869Y33201D01*
X368775Y33112D01*
X368692Y33023D01*
X368625Y32934D01*
X368575Y32857D01*
X368536Y32790D01*
X368525Y32768D01*
X368514Y32751D01*
X368509Y32740D01*
Y32735D01*
X368453Y32601D01*
X368414Y32457D01*
X368387Y32324D01*
X368370Y32196D01*
X368359Y32135D01*
X368353Y32085D01*
Y32035D01*
X368348Y31996D01*
Y31963D01*
Y31941D01*
Y31924D01*
Y31919D01*
X368353Y31786D01*
X368364Y31658D01*
X368381Y31536D01*
X368403Y31425D01*
X368436Y31325D01*
X368464Y31231D01*
X368497Y31142D01*
X368531Y31064D01*
X368570Y30997D01*
X368603Y30936D01*
X368631Y30886D01*
X368658Y30847D01*
X368686Y30814D01*
X368703Y30786D01*
X368714Y30775D01*
X368720Y30770D01*
X368792Y30698D01*
X368869Y30637D01*
X368947Y30587D01*
X369025Y30537D01*
X369102Y30498D01*
X369186Y30470D01*
X369258Y30442D01*
X369336Y30420D01*
X369402Y30404D01*
X369469Y30392D01*
X369524Y30381D01*
X369574Y30376D01*
X369613D01*
X369641Y30370D01*
X369669D01*
X369774Y30376D01*
X369874Y30387D01*
X369963Y30409D01*
X370052Y30431D01*
X370135Y30465D01*
X370212Y30498D01*
X370285Y30531D01*
X370351Y30570D01*
X370407Y30609D01*
X370457Y30642D01*
X370501Y30676D01*
X370540Y30709D01*
X370568Y30731D01*
X370590Y30753D01*
X370601Y30764D01*
X370606Y30770D01*
X370673Y30847D01*
X370728Y30931D01*
X370778Y31020D01*
X370823Y31108D01*
X370856Y31203D01*
X370889Y31291D01*
X370934Y31469D01*
X370945Y31547D01*
X370956Y31624D01*
X370967Y31691D01*
X370973Y31747D01*
X370978Y31797D01*
Y31835D01*
Y31858D01*
Y31863D01*
X370973Y32019D01*
X370962Y32163D01*
X370945Y32302D01*
X370917Y32424D01*
X370889Y32535D01*
X370856Y32635D01*
X370817Y32729D01*
X370784Y32807D01*
X370745Y32879D01*
X370712Y32940D01*
X370679Y32990D01*
X370651Y33029D01*
X370623Y33062D01*
X370606Y33084D01*
X370595Y33095D01*
X370590Y33101D01*
X370518Y33167D01*
X370440Y33223D01*
X370362Y33273D01*
X370279Y33317D01*
X370201Y33351D01*
X370124Y33384D01*
X369979Y33428D01*
X369913Y33439D01*
X369852Y33450D01*
X369802Y33462D01*
X369752Y33467D01*
X369713Y33473D01*
D02*
G37*
G36*
X323713Y76969D02*
X323663D01*
X323524Y76963D01*
X323391Y76941D01*
X323274Y76908D01*
X323175Y76874D01*
X323091Y76836D01*
X323058Y76819D01*
X323030Y76808D01*
X323003Y76791D01*
X322986Y76786D01*
X322980Y76775D01*
X322975D01*
X322869Y76697D01*
X322775Y76608D01*
X322692Y76519D01*
X322625Y76430D01*
X322575Y76353D01*
X322536Y76286D01*
X322525Y76264D01*
X322514Y76247D01*
X322509Y76236D01*
Y76231D01*
X322453Y76097D01*
X322414Y75953D01*
X322387Y75820D01*
X322370Y75692D01*
X322359Y75631D01*
X322353Y75581D01*
Y75531D01*
X322348Y75492D01*
Y75459D01*
Y75437D01*
Y75420D01*
Y75415D01*
X322353Y75282D01*
X322364Y75154D01*
X322381Y75032D01*
X322403Y74921D01*
X322436Y74821D01*
X322464Y74726D01*
X322497Y74638D01*
X322531Y74560D01*
X322570Y74493D01*
X322603Y74432D01*
X322631Y74382D01*
X322658Y74344D01*
X322686Y74310D01*
X322703Y74283D01*
X322714Y74272D01*
X322720Y74266D01*
X322792Y74194D01*
X322869Y74133D01*
X322947Y74083D01*
X323025Y74033D01*
X323102Y73994D01*
X323186Y73966D01*
X323258Y73939D01*
X323336Y73916D01*
X323402Y73900D01*
X323469Y73888D01*
X323524Y73877D01*
X323574Y73872D01*
X323613D01*
X323641Y73866D01*
X323669D01*
X323774Y73872D01*
X323874Y73883D01*
X323963Y73905D01*
X324051Y73927D01*
X324135Y73961D01*
X324212Y73994D01*
X324285Y74027D01*
X324351Y74066D01*
X324407Y74105D01*
X324457Y74138D01*
X324501Y74172D01*
X324540Y74205D01*
X324568Y74227D01*
X324590Y74249D01*
X324601Y74260D01*
X324606Y74266D01*
X324673Y74344D01*
X324728Y74427D01*
X324779Y74516D01*
X324823Y74604D01*
X324856Y74699D01*
X324889Y74788D01*
X324934Y74965D01*
X324945Y75043D01*
X324956Y75121D01*
X324967Y75187D01*
X324973Y75243D01*
X324978Y75293D01*
Y75331D01*
Y75354D01*
Y75359D01*
X324973Y75515D01*
X324962Y75659D01*
X324945Y75798D01*
X324917Y75920D01*
X324889Y76031D01*
X324856Y76131D01*
X324817Y76225D01*
X324784Y76303D01*
X324745Y76375D01*
X324712Y76436D01*
X324679Y76486D01*
X324651Y76525D01*
X324623Y76558D01*
X324606Y76580D01*
X324595Y76591D01*
X324590Y76597D01*
X324518Y76664D01*
X324440Y76719D01*
X324362Y76769D01*
X324279Y76813D01*
X324201Y76847D01*
X324124Y76880D01*
X323979Y76924D01*
X323913Y76935D01*
X323852Y76947D01*
X323802Y76958D01*
X323752Y76963D01*
X323713Y76969D01*
D02*
G37*
G36*
X330256Y138191D02*
X330234D01*
X330222D01*
X330150Y138186D01*
X330084Y138175D01*
X330028Y138158D01*
X329984Y138142D01*
X329945Y138125D01*
X329912Y138108D01*
X329895Y138097D01*
X329889Y138092D01*
X329845Y138053D01*
X329801Y138003D01*
X329767Y137953D01*
X329745Y137908D01*
X329723Y137864D01*
X329706Y137831D01*
X329701Y137809D01*
X329695Y137797D01*
X329684Y137736D01*
X329673Y137659D01*
X329667Y137581D01*
X329662Y137503D01*
X329656Y137431D01*
Y136488D01*
X330811D01*
Y137398D01*
X330800Y137520D01*
X330794Y137614D01*
X330783Y137698D01*
X330772Y137759D01*
X330766Y137797D01*
X330755Y137825D01*
Y137831D01*
X330733Y137892D01*
X330700Y137947D01*
X330666Y137992D01*
X330633Y138031D01*
X330605Y138058D01*
X330578Y138081D01*
X330561Y138092D01*
X330555Y138097D01*
X330500Y138130D01*
X330444Y138153D01*
X330389Y138169D01*
X330333Y138180D01*
X330289Y138186D01*
X330256Y138191D01*
D02*
G37*
G36*
X328574Y138358D02*
X328552D01*
X328541D01*
X328474Y138353D01*
X328408Y138347D01*
X328352Y138336D01*
X328308Y138319D01*
X328269Y138303D01*
X328236Y138291D01*
X328219Y138286D01*
X328213Y138280D01*
X328163Y138247D01*
X328119Y138219D01*
X328086Y138180D01*
X328052Y138153D01*
X328030Y138125D01*
X328013Y138103D01*
X328002Y138086D01*
X327997Y138081D01*
X327952Y137986D01*
X327919Y137892D01*
X327908Y137853D01*
X327903Y137820D01*
X327897Y137797D01*
Y137792D01*
X327891Y137748D01*
X327886Y137698D01*
X327880Y137581D01*
Y136488D01*
X329201D01*
Y137498D01*
X329190Y137614D01*
X329179Y137709D01*
X329168Y137786D01*
X329157Y137847D01*
X329146Y137897D01*
X329140Y137920D01*
X329135Y137931D01*
X329107Y138003D01*
X329074Y138064D01*
X329035Y138119D01*
X328996Y138164D01*
X328963Y138197D01*
X328935Y138219D01*
X328913Y138236D01*
X328907Y138242D01*
X328846Y138280D01*
X328785Y138308D01*
X328724Y138330D01*
X328668Y138341D01*
X328618Y138353D01*
X328574Y138358D01*
D02*
G37*
G36*
X83747Y135409D02*
X83719D01*
X83714D01*
X83708D01*
X83592Y135398D01*
X83492Y135375D01*
X83403Y135342D01*
X83331Y135303D01*
X83276Y135264D01*
X83231Y135231D01*
X83209Y135209D01*
X83198Y135198D01*
X83165Y135159D01*
X83137Y135109D01*
X83092Y135003D01*
X83059Y134887D01*
X83037Y134771D01*
X83026Y134665D01*
X83020Y134621D01*
Y134582D01*
X83015Y134543D01*
Y133511D01*
X84386D01*
Y134609D01*
X84380Y134709D01*
X84374Y134793D01*
X84369Y134859D01*
X84358Y134904D01*
X84352Y134937D01*
X84347Y134959D01*
Y134965D01*
X84319Y135037D01*
X84286Y135098D01*
X84252Y135153D01*
X84214Y135203D01*
X84175Y135237D01*
X84147Y135264D01*
X84125Y135281D01*
X84119Y135287D01*
X84052Y135326D01*
X83986Y135359D01*
X83914Y135381D01*
X83853Y135392D01*
X83797Y135403D01*
X83747Y135409D01*
D02*
G37*
G36*
X200472Y103511D02*
X200444D01*
X200438D01*
X200433D01*
X200316Y103500D01*
X200216Y103478D01*
X200128Y103445D01*
X200055Y103406D01*
X200000Y103367D01*
X199955Y103333D01*
X199933Y103311D01*
X199922Y103300D01*
X199889Y103261D01*
X199861Y103211D01*
X199817Y103106D01*
X199783Y102989D01*
X199761Y102873D01*
X199750Y102767D01*
X199745Y102723D01*
Y102684D01*
X199739Y102645D01*
Y101613D01*
X201110D01*
Y102712D01*
X201104Y102812D01*
X201099Y102895D01*
X201093Y102962D01*
X201082Y103006D01*
X201077Y103039D01*
X201071Y103061D01*
Y103067D01*
X201043Y103139D01*
X201010Y103200D01*
X200977Y103256D01*
X200938Y103306D01*
X200899Y103339D01*
X200871Y103367D01*
X200849Y103383D01*
X200844Y103389D01*
X200777Y103428D01*
X200710Y103461D01*
X200638Y103483D01*
X200577Y103494D01*
X200522Y103506D01*
X200472Y103511D01*
D02*
G37*
G36*
X308504Y56153D02*
X308476D01*
X308454D01*
X308448D01*
X308293Y56147D01*
X308148Y56136D01*
X308021Y56120D01*
X307910Y56103D01*
X307865Y56092D01*
X307826Y56081D01*
X307788Y56070D01*
X307760Y56064D01*
X307738Y56059D01*
X307721Y56053D01*
X307710Y56047D01*
X307704D01*
X307599Y56009D01*
X307505Y55964D01*
X307421Y55914D01*
X307349Y55870D01*
X307294Y55831D01*
X307255Y55798D01*
X307233Y55775D01*
X307222Y55770D01*
X307177Y55714D01*
X307138Y55659D01*
X307105Y55603D01*
X307072Y55548D01*
X307049Y55498D01*
X307033Y55459D01*
X307027Y55431D01*
X307022Y55420D01*
X306999Y55337D01*
X306983Y55237D01*
X306972Y55137D01*
X306966Y55043D01*
X306961Y54960D01*
X306955Y54921D01*
Y54011D01*
X309886D01*
Y54899D01*
X309880Y54971D01*
Y55043D01*
X309874Y55110D01*
X309858Y55221D01*
X309847Y55309D01*
X309830Y55381D01*
X309813Y55431D01*
X309808Y55459D01*
X309802Y55470D01*
X309752Y55570D01*
X309691Y55664D01*
X309619Y55748D01*
X309547Y55820D01*
X309480Y55875D01*
X309425Y55920D01*
X309403Y55931D01*
X309386Y55942D01*
X309375Y55953D01*
X309369D01*
X309308Y55986D01*
X309236Y56020D01*
X309092Y56070D01*
X308937Y56103D01*
X308787Y56131D01*
X308720Y56136D01*
X308653Y56142D01*
X308598Y56147D01*
X308548D01*
X308504Y56153D01*
D02*
G37*
%LPD*%
D11*
X335803Y133051D02*
X375303D01*
X335803Y80551D02*
Y133051D01*
Y80551D02*
X375303D01*
Y133051D01*
X7000Y49543D02*
Y81043D01*
X19000Y52543D02*
X45500D01*
Y78543D01*
X19000D02*
X45500D01*
X19000Y49543D02*
Y81043D01*
X-19500D02*
X19000D01*
X-19500Y49543D02*
Y81043D01*
Y49543D02*
X19000D01*
X354000Y67500D02*
X392500D01*
Y36000D02*
Y67500D01*
X354000Y36000D02*
X392500D01*
X354000D02*
Y67500D01*
X327500Y38500D02*
X354000D01*
X327500D02*
Y64500D01*
X354000D01*
X366000Y36000D02*
Y67500D01*
X98441Y122000D02*
Y140000D01*
X199941D01*
Y122000D02*
Y140000D01*
X190441Y122000D02*
X199941D01*
X98441D02*
X106941D01*
X199913Y81000D02*
Y99000D01*
X98413Y81000D02*
X199913D01*
X98413D02*
Y99000D01*
X107913D01*
X191413D02*
X199913D01*
X318000Y50500D02*
Y58500D01*
X315000Y56500D02*
X321000D01*
X318000Y53500D02*
X321000Y56500D01*
X315000D02*
X318000Y53500D01*
X313500D02*
X322000D01*
X325000Y38000D02*
Y55000D01*
X311000Y38000D02*
X325000D01*
X311000D02*
Y72000D01*
X325000D01*
Y55000D02*
Y72000D01*
D73*
X309390Y118595D02*
G03*
X314693Y118595I2652J2652D01*
G01*
Y128398D02*
G03*
X309390Y128398I-2652J-2652D01*
G01*
X339095Y35610D02*
G03*
X339095Y30307I2652J-2652D01*
G01*
X348898D02*
G03*
X348898Y35610I-2652J2652D01*
G01*
X96402Y55348D02*
G03*
X96402Y60652I-2652J2652D01*
G01*
X86598D02*
G03*
X86598Y55348I2652J-2652D01*
G01*
X309391Y118595D02*
Y121845D01*
X314691Y118595D02*
X314693Y121845D01*
X314691Y125398D02*
Y128398D01*
X309391Y125398D02*
Y128398D01*
X339095Y35609D02*
X342345D01*
X339095Y30309D02*
X342345Y30307D01*
X345898Y30309D02*
X348898D01*
X345898Y35609D02*
X348898D01*
X93152Y55350D02*
X96402D01*
X93152Y60652D02*
X96402Y60650D01*
X86598D02*
X89598D01*
X86598Y55350D02*
X89598D01*
D74*
X208992Y21508D02*
Y42817D01*
X200823Y21508D02*
X208992D01*
X183008D02*
X191177D01*
X183008D02*
Y42817D01*
X200823Y47492D02*
X204317D01*
X208992Y42817D01*
X183008D02*
X187683Y47492D01*
X191177D01*
X178492Y21508D02*
Y42817D01*
X170323Y21508D02*
X178492D01*
X152508D02*
X160677D01*
X152508D02*
Y42817D01*
X170323Y47492D02*
X173817D01*
X178492Y42817D01*
X152508D02*
X157183Y47492D01*
X160677D01*
M02*
