G04*
G04 #@! TF.GenerationSoftware,Altium Limited,Altium Designer,18.1.9 (240)*
G04*
G04 Layer_Physical_Order=2*
G04 Layer_Color=16711680*
%FSLAX25Y25*%
%MOIN*%
G70*
G01*
G75*
%ADD10C,0.01000*%
%ADD26C,0.03937*%
%ADD27O,0.11811X0.08661*%
%ADD28C,0.05906*%
%ADD29O,0.05906X0.25591*%
%ADD30O,0.04724X0.07874*%
%ADD31C,0.07087*%
%ADD32O,0.09843X0.13780*%
%ADD33O,0.09843X0.13780*%
%ADD34C,0.02800*%
%ADD35R,0.09843X0.13780*%
%ADD36R,0.07874X0.13780*%
%ADD37R,0.11811X0.04724*%
%ADD38R,0.13780X0.11811*%
%ADD39R,0.01181X0.07087*%
%ADD40R,0.03000X0.03000*%
%ADD41R,0.03000X0.03000*%
%ADD42R,0.07284X0.13189*%
%ADD43R,0.09843X0.09843*%
%ADD44C,0.01968*%
%ADD45C,0.03150*%
%ADD46R,0.14500X0.20384*%
%ADD47R,0.13000X0.19446*%
%ADD48R,0.09000X0.11712*%
%ADD49R,0.18736X0.12693*%
%ADD50R,0.17884X0.12693*%
%ADD51R,0.13966X0.04250*%
%ADD52R,0.17319X0.11957*%
%ADD53R,0.17000X0.12000*%
%ADD54R,0.28012X0.12378*%
%ADD55R,0.28000X0.32250*%
%ADD56R,0.32000X0.33500*%
%ADD57R,0.22996X0.11000*%
%ADD58R,0.20500X0.13000*%
%ADD59R,0.29500X0.12000*%
%ADD60R,0.31248X0.08500*%
%ADD61R,0.37721X0.16500*%
%ADD62R,0.30500X0.09000*%
%ADD63R,0.07150X0.14000*%
G36*
X355961Y125054D02*
X356116Y124274D01*
X356558Y123612D01*
X357220Y123170D01*
X358000Y123015D01*
X371000D01*
X371376Y123090D01*
X371876Y122680D01*
Y91923D01*
X358000D01*
X357220Y91768D01*
X356558Y91326D01*
X356116Y90664D01*
X355961Y89884D01*
Y69500D01*
X356116Y68720D01*
X356558Y68058D01*
X357220Y67616D01*
X358000Y67461D01*
X358504D01*
Y67161D01*
X371876D01*
Y2139D01*
X2139D01*
Y143530D01*
X89733D01*
X90144Y143030D01*
X90077Y142693D01*
Y130000D01*
X90232Y129220D01*
X90674Y128558D01*
X91336Y128116D01*
X92116Y127961D01*
X108201D01*
Y118457D01*
X108242D01*
Y102543D01*
X108201D01*
Y93039D01*
X94500D01*
X93720Y92884D01*
X93058Y92442D01*
X92616Y91780D01*
X92461Y91000D01*
Y79000D01*
X92616Y78220D01*
X93058Y77558D01*
X93720Y77116D01*
X94500Y76961D01*
X111500D01*
X112172Y77095D01*
X112303D01*
Y77131D01*
X112942Y77558D01*
X113384Y78220D01*
X113539Y79000D01*
Y91000D01*
X113525Y91070D01*
X113842Y91457D01*
X184666D01*
X184983Y91070D01*
X184961Y90957D01*
Y79000D01*
X185116Y78220D01*
X185558Y77558D01*
X186220Y77116D01*
X187000Y76961D01*
X204319D01*
X205099Y77116D01*
X205761Y77558D01*
X206203Y78220D01*
X206358Y79000D01*
Y90957D01*
X206203Y91737D01*
X205761Y92399D01*
X205099Y92841D01*
X204803Y92900D01*
Y92905D01*
X204773D01*
X204319Y92996D01*
X190154D01*
Y102543D01*
X190112D01*
Y118457D01*
X190154D01*
Y127961D01*
X206000D01*
X206780Y128116D01*
X207442Y128558D01*
X207884Y129220D01*
X208039Y130000D01*
Y142693D01*
X207972Y143030D01*
X208383Y143530D01*
X355961D01*
Y125054D01*
D02*
G37*
%LPC*%
G36*
X339209Y124756D02*
X323398D01*
Y123365D01*
X323388Y123365D01*
X323332Y123353D01*
X315624D01*
X315573Y123365D01*
X315541Y123366D01*
Y123996D01*
X313666D01*
X313529Y124023D01*
X313393Y123996D01*
X313270D01*
X313212Y123999D01*
X313206Y123996D01*
X310877D01*
X310871Y123999D01*
X310812Y123996D01*
X310690D01*
X310553Y124023D01*
X310417Y123996D01*
X308541D01*
Y123364D01*
X308489Y123353D01*
X255343D01*
X254563Y123250D01*
X253837Y122949D01*
X253214Y122471D01*
X200753Y70010D01*
X100500D01*
X99721Y69907D01*
X98995Y69607D01*
X98372Y69128D01*
X92372Y63128D01*
X91893Y62505D01*
X91593Y61779D01*
X91556Y61500D01*
X91000D01*
Y59625D01*
X90973Y59488D01*
X91000Y59351D01*
Y59225D01*
X90998Y59170D01*
X91000Y59164D01*
Y56649D01*
X90973Y56512D01*
X91000Y56375D01*
Y54500D01*
X91480D01*
X91490Y54454D01*
Y51076D01*
X91479Y51030D01*
X91469Y50824D01*
X91452Y50704D01*
X91421Y50570D01*
X91373Y50419D01*
X91304Y50251D01*
X91212Y50065D01*
X91108Y49887D01*
X90756Y49387D01*
X90539Y49125D01*
X90445Y48952D01*
X89941Y48296D01*
X89383Y46947D01*
X89192Y45500D01*
X89383Y44053D01*
X89941Y42704D01*
X90830Y41546D01*
X91988Y40658D01*
X93336Y40099D01*
X94784Y39909D01*
X96231Y40099D01*
X97579Y40658D01*
X98737Y41546D01*
X99625Y42704D01*
X99821Y43175D01*
X100334Y43108D01*
X100376Y42786D01*
X100816Y41725D01*
X101515Y40814D01*
X102426Y40115D01*
X103487Y39675D01*
X104626Y39525D01*
X105765Y39675D01*
X106826Y40115D01*
X107737Y40814D01*
X108263Y41499D01*
X108280Y41508D01*
X108846D01*
X108863Y41499D01*
X109389Y40814D01*
X110300Y40115D01*
X111361Y39675D01*
X112500Y39525D01*
X113639Y39675D01*
X114700Y40115D01*
X115611Y40814D01*
X116310Y41725D01*
X116750Y42786D01*
X116900Y43925D01*
Y47075D01*
X116750Y48214D01*
X116310Y49275D01*
X115611Y50186D01*
X115379Y50364D01*
X115346Y50863D01*
X117934Y53451D01*
X153414D01*
X153605Y52989D01*
X153448Y52832D01*
X152918Y52425D01*
X152510Y51894D01*
X151058Y50442D01*
X150616Y49780D01*
X150461Y49000D01*
Y36500D01*
X150616Y35720D01*
X151058Y35058D01*
X151720Y34616D01*
X152500Y34461D01*
X218655D01*
X219961Y33155D01*
Y25500D01*
Y19500D01*
X220116Y18720D01*
X220558Y18058D01*
X221220Y17616D01*
X222000Y17461D01*
X256500D01*
X257280Y17616D01*
X257942Y18058D01*
X258038Y18154D01*
X258500Y17963D01*
Y17957D01*
X279657Y17957D01*
Y18336D01*
X281371D01*
X282000Y18211D01*
X310000D01*
X310308Y18272D01*
X310842Y17868D01*
X310872Y17479D01*
X311389Y15326D01*
X312236Y13282D01*
X313392Y11395D01*
X314830Y9712D01*
X316513Y8274D01*
X318400Y7118D01*
X320445Y6271D01*
X322597Y5754D01*
X324803Y5581D01*
X327010Y5754D01*
X329162Y6271D01*
X331206Y7118D01*
X333094Y8274D01*
X334776Y9712D01*
X336214Y11395D01*
X337370Y13282D01*
X338217Y15326D01*
X338734Y17479D01*
X338908Y19685D01*
X338734Y21892D01*
X338217Y24044D01*
X337370Y26088D01*
X336223Y27961D01*
X336274Y28195D01*
X336397Y28461D01*
X343000D01*
X343780Y28616D01*
X344442Y29058D01*
X344884Y29720D01*
X345039Y30500D01*
Y38054D01*
X345055Y38134D01*
Y49134D01*
X344900Y49914D01*
X344458Y50576D01*
X343796Y51018D01*
X343016Y51173D01*
X330237D01*
X327468Y53942D01*
X326807Y54384D01*
X326026Y54539D01*
X322966Y54539D01*
X322966Y54539D01*
X282000D01*
X282000Y54539D01*
X280250D01*
X279734Y54436D01*
X279657Y54500D01*
Y54500D01*
X258306Y54500D01*
X257760Y54563D01*
X257280Y54884D01*
X256500Y55039D01*
X228808D01*
X226424Y55039D01*
X226424Y55039D01*
X209547D01*
X209356Y55501D01*
X254806Y100951D01*
X323398D01*
Y98315D01*
X337271D01*
X337601Y97939D01*
X337505Y97209D01*
X337675Y95916D01*
X338174Y94711D01*
X338968Y93676D01*
X340002Y92882D01*
X341207Y92383D01*
X342500Y92213D01*
X343793Y92383D01*
X344998Y92882D01*
X346032Y93676D01*
X346826Y94711D01*
X347325Y95916D01*
X347496Y97209D01*
X347325Y98502D01*
X346826Y99706D01*
X346032Y100741D01*
X344998Y101535D01*
X343793Y102034D01*
X342500Y102204D01*
X341207Y102034D01*
X340002Y101535D01*
X339657Y101270D01*
X339209Y101491D01*
Y106189D01*
Y112217D01*
X339657Y112439D01*
X340002Y112174D01*
X341207Y111675D01*
X342500Y111504D01*
X343793Y111675D01*
X344998Y112174D01*
X346032Y112968D01*
X346826Y114002D01*
X347325Y115207D01*
X347496Y116500D01*
X347325Y117793D01*
X346826Y118998D01*
X346032Y120032D01*
X344998Y120826D01*
X343793Y121325D01*
X342500Y121495D01*
X341207Y121325D01*
X340002Y120826D01*
X339657Y120561D01*
X339209Y120782D01*
Y124756D01*
D02*
G37*
G36*
X39469Y78868D02*
Y75511D01*
X44029D01*
X43731Y76231D01*
X42877Y77345D01*
X41763Y78199D01*
X40466Y78736D01*
X39469Y78868D01*
D02*
G37*
G36*
X35532Y78868D02*
X34534Y78736D01*
X33237Y78199D01*
X32123Y77345D01*
X31269Y76231D01*
X30971Y75511D01*
X35532D01*
Y78868D01*
D02*
G37*
G36*
X44029Y71574D02*
X39469D01*
Y68218D01*
X40466Y68349D01*
X41763Y68887D01*
X42877Y69741D01*
X43731Y70855D01*
X44029Y71574D01*
D02*
G37*
G36*
X35532D02*
X30971D01*
X31269Y70855D01*
X32123Y69741D01*
X33237Y68887D01*
X34534Y68349D01*
X35532Y68218D01*
Y71574D01*
D02*
G37*
G36*
X337469Y64825D02*
Y61468D01*
X342029D01*
X341731Y62188D01*
X340877Y63302D01*
X339763Y64156D01*
X338466Y64693D01*
X337469Y64825D01*
D02*
G37*
G36*
X333531D02*
X332534Y64693D01*
X331237Y64156D01*
X330123Y63302D01*
X329269Y62188D01*
X328971Y61468D01*
X333531D01*
Y64825D01*
D02*
G37*
G36*
X342029Y57531D02*
X337469D01*
Y54175D01*
X338466Y54307D01*
X339763Y54844D01*
X340877Y55698D01*
X341731Y56812D01*
X342029Y57531D01*
D02*
G37*
G36*
X333531D02*
X328971D01*
X329269Y56812D01*
X330123Y55698D01*
X331237Y54844D01*
X332534Y54307D01*
X333531Y54175D01*
Y57531D01*
D02*
G37*
G36*
X55512Y66039D02*
X27500D01*
X26720Y65884D01*
X26058Y65442D01*
X25616Y64780D01*
X25461Y64000D01*
Y51622D01*
X25616Y50842D01*
X26058Y50180D01*
X26720Y49738D01*
X27500Y49583D01*
X55512D01*
X56292Y49738D01*
X56954Y50180D01*
X57396Y50842D01*
X57551Y51622D01*
Y64000D01*
X57396Y64780D01*
X56954Y65442D01*
X56292Y65884D01*
X55512Y66039D01*
D02*
G37*
G36*
X124311Y49602D02*
Y47468D01*
X126445D01*
X126311Y47791D01*
X125583Y48740D01*
X124634Y49469D01*
X124311Y49602D01*
D02*
G37*
G36*
X120374Y49602D02*
X120051Y49469D01*
X119102Y48740D01*
X118374Y47791D01*
X118240Y47468D01*
X120374D01*
Y49602D01*
D02*
G37*
G36*
X126445Y43531D02*
X124311D01*
Y41398D01*
X124634Y41532D01*
X125583Y42260D01*
X126311Y43209D01*
X126445Y43531D01*
D02*
G37*
G36*
X120374D02*
X118240D01*
X118374Y43209D01*
X119102Y42260D01*
X120051Y41532D01*
X120374Y41398D01*
Y43531D01*
D02*
G37*
G36*
X136398Y43020D02*
Y37429D01*
X140379D01*
X140265Y38590D01*
X139926Y39706D01*
X139376Y40735D01*
X138636Y41636D01*
X137735Y42376D01*
X136706Y42926D01*
X136398Y43020D01*
D02*
G37*
G36*
X132460Y43020D02*
X132152Y42926D01*
X131123Y42376D01*
X130222Y41636D01*
X129482Y40735D01*
X128932Y39706D01*
X128594Y38590D01*
X128479Y37429D01*
X132460D01*
Y43020D01*
D02*
G37*
G36*
X84665Y43020D02*
Y37429D01*
X88647D01*
X88532Y38590D01*
X88194Y39706D01*
X87644Y40735D01*
X86904Y41636D01*
X86002Y42376D01*
X84974Y42926D01*
X84665Y43020D01*
D02*
G37*
G36*
X80728Y43020D02*
X80420Y42926D01*
X79391Y42376D01*
X78490Y41636D01*
X77750Y40735D01*
X77200Y39706D01*
X76861Y38590D01*
X76747Y37429D01*
X80728D01*
Y43020D01*
D02*
G37*
G36*
X132460Y33492D02*
X128479D01*
Y33492D01*
X128594Y32331D01*
X128932Y31215D01*
X129482Y30187D01*
X130222Y29285D01*
X131123Y28545D01*
X132152Y27995D01*
X132460Y27902D01*
Y33492D01*
D02*
G37*
G36*
X88647Y33492D02*
X84665D01*
Y27902D01*
X84974Y27995D01*
X86002Y28545D01*
X86904Y29285D01*
X87644Y30187D01*
X88194Y31215D01*
X88532Y32331D01*
X88647Y33492D01*
Y33492D01*
D02*
G37*
G36*
X80728D02*
X76747D01*
Y33492D01*
X76861Y32331D01*
X77200Y31215D01*
X77750Y30187D01*
X78490Y29285D01*
X79391Y28545D01*
X80420Y27995D01*
X80728Y27902D01*
Y33492D01*
D02*
G37*
G36*
X140379Y33492D02*
X136398D01*
Y27902D01*
X136706Y27995D01*
X137735Y28545D01*
X138636Y29285D01*
X139376Y30187D01*
X139926Y31215D01*
X140265Y32331D01*
X140379Y33492D01*
Y33492D01*
D02*
G37*
G36*
X49213Y33790D02*
X47006Y33616D01*
X44854Y33099D01*
X42809Y32252D01*
X40922Y31096D01*
X39239Y29658D01*
X37802Y27975D01*
X36645Y26088D01*
X35798Y24044D01*
X35282Y21892D01*
X35108Y19685D01*
X35282Y17479D01*
X35798Y15326D01*
X36645Y13282D01*
X37802Y11395D01*
X39239Y9712D01*
X40922Y8274D01*
X42809Y7118D01*
X44854Y6271D01*
X47006Y5754D01*
X49213Y5581D01*
X51419Y5754D01*
X53571Y6271D01*
X55616Y7118D01*
X57503Y8274D01*
X59186Y9712D01*
X60623Y11395D01*
X61780Y13282D01*
X62627Y15326D01*
X63143Y17479D01*
X63317Y19685D01*
X63143Y21892D01*
X62627Y24044D01*
X61780Y26088D01*
X60623Y27975D01*
X59186Y29658D01*
X57503Y31096D01*
X55616Y32252D01*
X53571Y33099D01*
X51419Y33616D01*
X49213Y33790D01*
D02*
G37*
%LPD*%
G36*
X313549Y121859D02*
X313608Y121748D01*
X313706Y121649D01*
X313844Y121563D01*
X314021Y121491D01*
X314238Y121432D01*
X314494Y121386D01*
X314789Y121353D01*
X315498Y121327D01*
Y119358D01*
X315124Y119355D01*
X314021Y119271D01*
X313844Y119232D01*
X313706Y119187D01*
X313608Y119134D01*
X313549Y119075D01*
X313529Y119008D01*
Y121984D01*
X313549Y121859D01*
D02*
G37*
G36*
X310553Y119008D02*
X310534Y119075D01*
X310475Y119134D01*
X310376Y119187D01*
X310238Y119232D01*
X310061Y119271D01*
X309845Y119302D01*
X309294Y119344D01*
X308585Y119358D01*
Y121327D01*
X308959Y121333D01*
X309589Y121386D01*
X309845Y121432D01*
X310061Y121491D01*
X310238Y121563D01*
X310376Y121649D01*
X310475Y121748D01*
X310534Y121859D01*
X310553Y121984D01*
Y119008D01*
D02*
G37*
G36*
X325422Y118374D02*
X325402Y118561D01*
X325342Y118728D01*
X325243Y118876D01*
X325105Y119004D01*
X324926Y119112D01*
X324709Y119201D01*
X324451Y119270D01*
X324154Y119319D01*
X323817Y119348D01*
X323441Y119358D01*
Y121327D01*
X323817Y121337D01*
X324154Y121366D01*
X324451Y121415D01*
X324709Y121484D01*
X324926Y121573D01*
X325105Y121681D01*
X325243Y121809D01*
X325342Y121957D01*
X325402Y122124D01*
X325422Y122311D01*
Y118374D01*
D02*
G37*
G36*
Y110000D02*
X325412Y110095D01*
X325381Y110180D01*
X325331Y110255D01*
X325260Y110320D01*
X325169Y110375D01*
X325057Y110420D01*
X324926Y110455D01*
X324774Y110480D01*
X324602Y110495D01*
X324410Y110500D01*
Y111500D01*
X324602Y111505D01*
X324774Y111520D01*
X324926Y111545D01*
X325057Y111580D01*
X325169Y111625D01*
X325260Y111680D01*
X325331Y111745D01*
X325381Y111820D01*
X325412Y111905D01*
X325422Y112000D01*
Y110000D01*
D02*
G37*
G36*
Y102500D02*
X325412Y102595D01*
X325381Y102680D01*
X325331Y102755D01*
X325260Y102820D01*
X325169Y102875D01*
X325057Y102920D01*
X324926Y102955D01*
X324774Y102980D01*
X324602Y102995D01*
X324410Y103000D01*
Y104000D01*
X324602Y104005D01*
X324774Y104020D01*
X324926Y104045D01*
X325057Y104080D01*
X325169Y104125D01*
X325260Y104180D01*
X325331Y104245D01*
X325381Y104320D01*
X325412Y104405D01*
X325422Y104500D01*
Y102500D01*
D02*
G37*
G36*
X95489Y60713D02*
X95530Y60229D01*
X95565Y60032D01*
X95610Y59866D01*
X95666Y59730D01*
X95731Y59624D01*
X95807Y59548D01*
X95892Y59503D01*
X95988Y59488D01*
X93012D01*
X93108Y59503D01*
X93193Y59548D01*
X93269Y59624D01*
X93334Y59730D01*
X93390Y59866D01*
X93435Y60032D01*
X93470Y60229D01*
X93496Y60456D01*
X93516Y61000D01*
X95484D01*
X95489Y60713D01*
D02*
G37*
G36*
X95892Y56492D02*
X95807Y56433D01*
X95731Y56335D01*
X95666Y56197D01*
X95610Y56020D01*
X95565Y55803D01*
X95530Y55547D01*
X95489Y54918D01*
X95484Y54544D01*
X93516D01*
X93511Y54918D01*
X93435Y55803D01*
X93390Y56020D01*
X93334Y56197D01*
X93269Y56335D01*
X93193Y56433D01*
X93108Y56492D01*
X93012Y56512D01*
X95988D01*
X95892Y56492D01*
D02*
G37*
G36*
X105128Y49971D02*
X105156Y49604D01*
X105173Y49514D01*
X105193Y49441D01*
X105217Y49384D01*
X105245Y49343D01*
X105277Y49318D01*
X105312Y49310D01*
X103940D01*
X103975Y49318D01*
X104007Y49343D01*
X104035Y49384D01*
X104059Y49441D01*
X104079Y49514D01*
X104096Y49604D01*
X104109Y49710D01*
X104124Y49971D01*
X104126Y50126D01*
X105126D01*
X105128Y49971D01*
D02*
G37*
G36*
X113005Y50154D02*
X113045Y49775D01*
X113079Y49621D01*
X113124Y49491D01*
X113178Y49384D01*
X113242Y49301D01*
X113316Y49242D01*
X113400Y49206D01*
X113494Y49195D01*
X111506D01*
X111600Y49206D01*
X111684Y49242D01*
X111758Y49301D01*
X111822Y49384D01*
X111876Y49491D01*
X111921Y49621D01*
X111955Y49775D01*
X111980Y49953D01*
X111995Y50154D01*
X112000Y50379D01*
X113000D01*
X113005Y50154D01*
D02*
G37*
G36*
X95500Y50788D02*
X95547Y50482D01*
X95626Y50181D01*
X95735Y49885D01*
X95876Y49595D01*
X96049Y49310D01*
X96253Y49030D01*
X96488Y48755D01*
X96755Y48485D01*
X97053Y48221D01*
X92109Y47824D01*
X92376Y48147D01*
X92826Y48784D01*
X93009Y49099D01*
X93164Y49411D01*
X93291Y49721D01*
X93389Y50028D01*
X93459Y50333D01*
X93502Y50635D01*
X93516Y50935D01*
X95484Y51099D01*
X95500Y50788D01*
D02*
G37*
G36*
X188856Y46904D02*
X188973Y46843D01*
X189092Y46790D01*
X189212Y46743D01*
X189334Y46704D01*
X189457Y46671D01*
X189583Y46646D01*
X189709Y46628D01*
X189837Y46618D01*
X189967Y46614D01*
X190230Y45614D01*
X190093Y45609D01*
X189964Y45592D01*
X189843Y45565D01*
X189729Y45527D01*
X189622Y45478D01*
X189523Y45417D01*
X189432Y45346D01*
X189348Y45264D01*
X189272Y45171D01*
X189203Y45067D01*
X188000Y46246D01*
X186797Y45067D01*
X186728Y45171D01*
X186652Y45264D01*
X186568Y45346D01*
X186477Y45417D01*
X186378Y45478D01*
X186271Y45527D01*
X186157Y45565D01*
X186036Y45592D01*
X185907Y45609D01*
X185770Y45614D01*
X186033Y46614D01*
X186163Y46618D01*
X186291Y46628D01*
X186417Y46646D01*
X186542Y46671D01*
X186666Y46704D01*
X186788Y46743D01*
X186908Y46790D01*
X187027Y46843D01*
X187144Y46904D01*
X187260Y46972D01*
X188000Y46246D01*
X188740Y46972D01*
X188856Y46904D01*
D02*
G37*
G36*
X330623Y47903D02*
Y46114D01*
X318860D01*
X318746Y46000D01*
Y50848D01*
X320436Y52500D01*
X326026Y52500D01*
X330623Y47903D01*
D02*
G37*
G36*
X183096Y47003D02*
X183196Y46921D01*
X183301Y46849D01*
X183409Y46787D01*
X183522Y46734D01*
X183639Y46691D01*
X183760Y46657D01*
X183885Y46633D01*
X184014Y46619D01*
X184148Y46614D01*
Y45614D01*
X184014Y45609D01*
X183885Y45595D01*
X183760Y45571D01*
X183639Y45537D01*
X183522Y45494D01*
X183409Y45441D01*
X183301Y45379D01*
X183196Y45307D01*
X183096Y45225D01*
X183000Y45134D01*
X182000Y46114D01*
X183000Y47094D01*
X183096Y47003D01*
D02*
G37*
G36*
X182000Y46114D02*
X181000Y45134D01*
X180904Y45225D01*
X180804Y45307D01*
X180699Y45379D01*
X180591Y45441D01*
X180478Y45494D01*
X180361Y45537D01*
X180240Y45571D01*
X180115Y45595D01*
X179986Y45609D01*
X179852Y45614D01*
Y46614D01*
X179986Y46619D01*
X180115Y46633D01*
X180240Y46657D01*
X180361Y46691D01*
X180478Y46734D01*
X180591Y46787D01*
X180699Y46849D01*
X180804Y46921D01*
X180904Y47003D01*
X181000Y47094D01*
X182000Y46114D01*
D02*
G37*
G36*
X177596Y47003D02*
X177696Y46921D01*
X177801Y46849D01*
X177909Y46787D01*
X178022Y46734D01*
X178139Y46691D01*
X178260Y46657D01*
X178385Y46633D01*
X178514Y46619D01*
X178648Y46614D01*
Y45614D01*
X178514Y45609D01*
X178385Y45595D01*
X178260Y45571D01*
X178139Y45537D01*
X178022Y45494D01*
X177909Y45441D01*
X177801Y45379D01*
X177696Y45307D01*
X177596Y45225D01*
X177500Y45134D01*
X176500Y46114D01*
X177500Y47094D01*
X177596Y47003D01*
D02*
G37*
G36*
X176500Y46114D02*
X175500Y45134D01*
X175404Y45225D01*
X175304Y45307D01*
X175199Y45379D01*
X175091Y45441D01*
X174978Y45494D01*
X174861Y45537D01*
X174740Y45571D01*
X174615Y45595D01*
X174486Y45609D01*
X174352Y45614D01*
Y46614D01*
X174486Y46619D01*
X174615Y46633D01*
X174740Y46657D01*
X174861Y46691D01*
X174978Y46734D01*
X175091Y46787D01*
X175199Y46849D01*
X175304Y46921D01*
X175404Y47003D01*
X175500Y47094D01*
X176500Y46114D01*
D02*
G37*
G36*
X192382Y45114D02*
X192372Y45209D01*
X192342Y45294D01*
X192291Y45369D01*
X192220Y45434D01*
X192129Y45489D01*
X192018Y45534D01*
X191886Y45569D01*
X191735Y45594D01*
X191562Y45609D01*
X191370Y45614D01*
Y46614D01*
X191562Y46619D01*
X191735Y46634D01*
X191886Y46659D01*
X192018Y46694D01*
X192129Y46739D01*
X192220Y46794D01*
X192291Y46859D01*
X192342Y46934D01*
X192372Y47019D01*
X192382Y47114D01*
Y45114D01*
D02*
G37*
G36*
X172928Y46936D02*
X173042Y46868D01*
X173158Y46809D01*
X173276Y46757D01*
X173396Y46713D01*
X173518Y46678D01*
X173643Y46650D01*
X173769Y46630D01*
X173898Y46618D01*
X174028Y46614D01*
X174216Y45614D01*
X174080Y45609D01*
X173951Y45593D01*
X173828Y45566D01*
X173712Y45529D01*
X173603Y45481D01*
X173500Y45422D01*
X173403Y45352D01*
X173313Y45272D01*
X173230Y45182D01*
X173153Y45080D01*
X172000Y46210D01*
X172817Y47011D01*
X172928Y46936D01*
D02*
G37*
G36*
X169128Y47019D02*
X169158Y46934D01*
X169209Y46859D01*
X169280Y46794D01*
X169371Y46739D01*
X169482Y46694D01*
X169614Y46659D01*
X169765Y46634D01*
X169937Y46619D01*
X170045Y46616D01*
X170102Y46618D01*
X170231Y46630D01*
X170358Y46650D01*
X170482Y46678D01*
X170604Y46713D01*
X170724Y46757D01*
X170842Y46809D01*
X170958Y46868D01*
X171072Y46936D01*
X171183Y47011D01*
X172000Y46210D01*
X170847Y45080D01*
X170770Y45182D01*
X170687Y45272D01*
X170597Y45352D01*
X170500Y45422D01*
X170397Y45481D01*
X170288Y45529D01*
X170172Y45566D01*
X170049Y45593D01*
X169926Y45608D01*
X169765Y45594D01*
X169614Y45569D01*
X169482Y45534D01*
X169371Y45489D01*
X169280Y45434D01*
X169209Y45369D01*
X169158Y45294D01*
X169128Y45209D01*
X169118Y45114D01*
Y47114D01*
X169128Y47019D01*
D02*
G37*
G36*
X230000Y53000D02*
X233000Y50000D01*
X233000Y25000D01*
X231500Y23500D01*
X224000D01*
X222000Y25500D01*
Y34000D01*
X217000Y39000D01*
X220264Y42264D01*
X223924Y42264D01*
X226424Y53000D01*
X230000Y53000D01*
D02*
G37*
G36*
X166905Y39534D02*
X166820Y39503D01*
X166745Y39453D01*
X166680Y39382D01*
X166625Y39291D01*
X166580Y39179D01*
X166545Y39048D01*
X166520Y38896D01*
X166505Y38724D01*
X166500Y38532D01*
X165500D01*
X165495Y38724D01*
X165480Y38896D01*
X165455Y39048D01*
X165420Y39179D01*
X165375Y39291D01*
X165320Y39382D01*
X165255Y39453D01*
X165180Y39503D01*
X165095Y39534D01*
X165000Y39544D01*
X167000D01*
X166905Y39534D01*
D02*
G37*
G36*
X201000Y52000D02*
Y36500D01*
X195500D01*
X194500Y37500D01*
Y50500D01*
X197000Y53000D01*
X200000D01*
X201000Y52000D01*
D02*
G37*
G36*
X163500Y46500D02*
Y38028D01*
X161972Y36500D01*
X152500D01*
Y49000D01*
X156500Y53000D01*
X159280D01*
X163500Y46500D01*
D02*
G37*
G36*
X341500Y39500D02*
Y33500D01*
X336385D01*
X330385Y39500D01*
X327000Y40500D01*
X340500D01*
X341500Y39500D01*
D02*
G37*
G36*
X326042Y42212D02*
X304205Y20375D01*
X279625Y20375D01*
X277875Y22125D01*
Y50125D01*
X280250Y52500D01*
X285369D01*
X326042Y42212D01*
D02*
G37*
G36*
X258000Y51500D02*
Y21000D01*
X256500Y19500D01*
X253500D01*
Y23500D01*
X246500Y30500D01*
X253000Y53000D01*
X256500D01*
X258000Y51500D01*
D02*
G37*
D10*
X253750Y103500D02*
X327214D01*
X206250Y56000D02*
X253750Y103500D01*
X253500Y111000D02*
X326500D01*
X202500Y60000D02*
X253500Y111000D01*
X173783Y97000D02*
Y124000D01*
X171815Y99685D02*
Y124000D01*
X169846Y124000D02*
X169846Y124000D01*
X169846Y97000D02*
Y124000D01*
X167878Y97000D02*
X167878Y97000D01*
Y124000D01*
X165909Y97000D02*
Y124000D01*
X163941Y97000D02*
Y124000D01*
X161972Y97000D02*
Y124000D01*
X160004Y97000D02*
Y124000D01*
X158035Y124000D02*
X158035Y124000D01*
X158035Y97000D02*
Y124000D01*
X156067Y97000D02*
Y124000D01*
X154098Y97000D02*
Y124000D01*
X152130Y97000D02*
Y124000D01*
X150161Y124000D02*
X150161Y124000D01*
X150161Y97000D02*
Y124000D01*
X175752Y100252D02*
Y124000D01*
X177720Y124000D02*
X177720Y124000D01*
X177720Y97000D02*
Y124000D01*
X179689Y97000D02*
Y124000D01*
X181658Y97000D02*
Y124000D01*
X183626Y97000D02*
Y124000D01*
X185594Y97000D02*
Y124000D01*
X187563Y97000D02*
X187563Y97000D01*
Y124000D01*
X148193Y97000D02*
Y124000D01*
X146224Y97000D02*
Y124000D01*
X144256Y97000D02*
Y124000D01*
X142287Y97000D02*
Y124000D01*
X140319Y97000D02*
Y124000D01*
X138350Y124000D02*
X138350Y124000D01*
X138350Y97000D02*
Y124000D01*
X136382Y97000D02*
Y124000D01*
X134413Y97000D02*
Y124000D01*
X132445Y97000D02*
Y124000D01*
X130476Y124000D02*
X130476Y124000D01*
X130476Y97000D02*
Y124000D01*
X128508Y97000D02*
X128508Y97000D01*
Y124000D01*
X126539Y97000D02*
Y124000D01*
X124571Y99929D02*
Y124000D01*
X122602Y97000D02*
Y124000D01*
X120634Y97000D02*
X120634Y97000D01*
Y124000D01*
X118665Y124000D02*
X118665Y124000D01*
X118665Y97000D02*
Y124000D01*
X116697Y97000D02*
Y124000D01*
X114728Y97000D02*
Y124000D01*
X112760Y97000D02*
Y124000D01*
X110791Y100291D02*
Y124000D01*
X114500Y60000D02*
X202500D01*
X116878Y56000D02*
X206250D01*
X312494Y38620D02*
X318000Y44126D01*
X303748Y38620D02*
X312494D01*
X94500Y45783D02*
X94784Y45500D01*
X104626Y50126D02*
X114500Y60000D01*
X112500Y51622D02*
X116878Y56000D01*
X104626Y45500D02*
Y50126D01*
X165500Y46114D02*
X166000Y45614D01*
Y38500D02*
Y45614D01*
X112500Y45500D02*
Y51622D01*
X165500Y46114D02*
X196000D01*
X104626Y45500D02*
X105000Y45874D01*
D26*
X342500Y97209D02*
D03*
Y116500D02*
D03*
D27*
X37500Y73543D02*
D03*
Y57543D02*
D03*
X335500Y59500D02*
D03*
Y43500D02*
D03*
D28*
X324803Y19685D02*
D03*
X49213D02*
D03*
D29*
X227748Y38620D02*
D03*
X303748D02*
D03*
D30*
X112500Y45500D02*
D03*
X104626Y45500D02*
D03*
D31*
X94784D02*
D03*
X122343D02*
D03*
D32*
X134429Y35461D02*
D03*
D33*
X82697D02*
D03*
D34*
X293500Y36310D02*
D03*
X294249Y26088D02*
D03*
X294000Y31294D02*
D03*
X288996Y25984D02*
D03*
Y36310D02*
D03*
X188000Y45783D02*
D03*
X182000Y46114D02*
D03*
X176500D02*
D03*
X172000Y45874D02*
D03*
X184500Y27000D02*
D03*
Y21000D02*
D03*
Y16000D02*
D03*
X178000D02*
D03*
X249004Y50000D02*
D03*
X288996Y30959D02*
D03*
X25496Y18935D02*
D03*
Y14805D02*
D03*
X93996Y21000D02*
D03*
X94000Y17000D02*
D03*
X138982D02*
D03*
X138978Y21000D02*
D03*
X284250Y26000D02*
D03*
X222000Y58000D02*
D03*
X188500Y16000D02*
D03*
X269500Y7750D02*
D03*
Y12000D02*
D03*
X274496D02*
D03*
Y7750D02*
D03*
X260000D02*
D03*
Y12000D02*
D03*
X264996D02*
D03*
Y7750D02*
D03*
X225174Y65000D02*
D03*
X225500Y60500D02*
D03*
X216000Y58000D02*
D03*
X220500Y61000D02*
D03*
X17500Y68250D02*
D03*
X17315Y72500D02*
D03*
X17500Y76500D02*
D03*
X22496D02*
D03*
X22500Y72500D02*
D03*
X22496Y68250D02*
D03*
X8000D02*
D03*
X7815Y72500D02*
D03*
X8000Y76500D02*
D03*
X12996D02*
D03*
X13000Y72500D02*
D03*
X12996Y68250D02*
D03*
X299225Y80949D02*
D03*
Y92000D02*
D03*
X304221D02*
D03*
X304410Y80949D02*
D03*
X289725D02*
D03*
Y92000D02*
D03*
X294721D02*
D03*
X294910Y80949D02*
D03*
X275500Y80758D02*
D03*
Y92000D02*
D03*
X280496D02*
D03*
X280685Y80758D02*
D03*
X266000D02*
D03*
Y92000D02*
D03*
X270996D02*
D03*
X271185Y80758D02*
D03*
X172500Y16000D02*
D03*
X178000Y27000D02*
D03*
Y21500D02*
D03*
X172500Y27000D02*
D03*
Y21500D02*
D03*
X188500Y27000D02*
D03*
Y21250D02*
D03*
X368000Y9712D02*
D03*
X364250D02*
D03*
X368000Y14500D02*
D03*
X364250Y14447D02*
D03*
X133797Y17000D02*
D03*
X133982Y21000D02*
D03*
X124297Y17000D02*
D03*
X124482Y21000D02*
D03*
X129478D02*
D03*
X129482Y17000D02*
D03*
X88815D02*
D03*
X89000Y21000D02*
D03*
X79315Y17000D02*
D03*
X79500Y21000D02*
D03*
X84496D02*
D03*
X84500Y17000D02*
D03*
X20500Y15185D02*
D03*
Y18935D02*
D03*
X11000Y15185D02*
D03*
Y18935D02*
D03*
X15996D02*
D03*
Y14805D02*
D03*
X26815Y128116D02*
D03*
X27000Y132116D02*
D03*
X31996D02*
D03*
X32000Y128116D02*
D03*
X17315D02*
D03*
X17500Y132116D02*
D03*
X22496D02*
D03*
X22500Y128116D02*
D03*
X54106Y57543D02*
D03*
X50500D02*
D03*
X54000Y54000D02*
D03*
X54106Y61500D02*
D03*
X50500Y54000D02*
D03*
X50441Y61500D02*
D03*
X46000Y57500D02*
D03*
X44320Y61500D02*
D03*
Y54000D02*
D03*
X154098Y38620D02*
D03*
X326500Y42750D02*
D03*
Y46114D02*
D03*
X209500Y38134D02*
D03*
X209504Y46514D02*
D03*
X209500Y50514D02*
D03*
X204504D02*
D03*
X204319Y46514D02*
D03*
X204504Y38514D02*
D03*
X219000Y38134D02*
D03*
X219004Y46514D02*
D03*
X219000Y50514D02*
D03*
X214004D02*
D03*
X213819Y46514D02*
D03*
X214004Y38514D02*
D03*
X239500Y25000D02*
D03*
X239504Y29250D02*
D03*
X239500Y33250D02*
D03*
X234504D02*
D03*
X234319Y29250D02*
D03*
X234504Y25000D02*
D03*
X249000D02*
D03*
X249004Y29250D02*
D03*
X249000Y33250D02*
D03*
X244004D02*
D03*
X243819Y29250D02*
D03*
X244004Y25000D02*
D03*
X239500Y41750D02*
D03*
X239504Y46000D02*
D03*
X239500Y50000D02*
D03*
X234504D02*
D03*
X234319Y46000D02*
D03*
X234504Y41750D02*
D03*
X249000D02*
D03*
X249004Y46000D02*
D03*
X244004Y50000D02*
D03*
X243819Y46000D02*
D03*
X244004Y41750D02*
D03*
X309250Y30004D02*
D03*
X313500Y34500D02*
D03*
X309250Y34504D02*
D03*
X284250Y30996D02*
D03*
X293315Y44250D02*
D03*
X293500Y48250D02*
D03*
X284000Y36250D02*
D03*
X283815Y44250D02*
D03*
X284000Y48250D02*
D03*
X288996D02*
D03*
X289000Y44250D02*
D03*
X188000Y38500D02*
D03*
Y51000D02*
D03*
X182000Y38500D02*
D03*
X176996Y38620D02*
D03*
Y51000D02*
D03*
X182000D02*
D03*
X172000D02*
D03*
Y39000D02*
D03*
X159000Y50000D02*
D03*
X155342D02*
D03*
X158500Y38620D02*
D03*
Y43000D02*
D03*
X154000Y42750D02*
D03*
X158500Y47000D02*
D03*
X154000D02*
D03*
D35*
X341303Y76051D02*
D03*
Y137551D02*
D03*
X365425D02*
D03*
Y76051D02*
D03*
D36*
X341303D02*
D03*
D37*
X331303Y92835D02*
D03*
Y102677D02*
D03*
Y110551D02*
D03*
Y120394D02*
D03*
D38*
X194941Y136000D02*
D03*
X102441D02*
D03*
X103413Y85000D02*
D03*
X195913D02*
D03*
D39*
X187563Y124000D02*
D03*
X185594D02*
D03*
X183626D02*
D03*
X181658D02*
D03*
X179689D02*
D03*
X177720D02*
D03*
X175752D02*
D03*
X173783D02*
D03*
X171815D02*
D03*
X169846D02*
D03*
X167878D02*
D03*
X165909D02*
D03*
X163941D02*
D03*
X161972D02*
D03*
X160004D02*
D03*
X158035D02*
D03*
X156067D02*
D03*
X154098D02*
D03*
X152130D02*
D03*
X150161D02*
D03*
X148193D02*
D03*
X146224D02*
D03*
X144256D02*
D03*
X142287D02*
D03*
X140319D02*
D03*
X138350D02*
D03*
X136382D02*
D03*
X134413D02*
D03*
X132445D02*
D03*
X130476D02*
D03*
X128508D02*
D03*
X126539D02*
D03*
X124571D02*
D03*
X122602D02*
D03*
X120634D02*
D03*
X118665D02*
D03*
X116697D02*
D03*
X114728D02*
D03*
X112760D02*
D03*
X110791D02*
D03*
X110791Y97000D02*
D03*
X112760D02*
D03*
X114728D02*
D03*
X116697D02*
D03*
X118665D02*
D03*
X120634D02*
D03*
X122602D02*
D03*
X124571D02*
D03*
X126539D02*
D03*
X128508D02*
D03*
X130476D02*
D03*
X132445D02*
D03*
X134413D02*
D03*
X136382D02*
D03*
X138350D02*
D03*
X140319D02*
D03*
X142287D02*
D03*
X144256D02*
D03*
X146224D02*
D03*
X148193D02*
D03*
X150161D02*
D03*
X152130D02*
D03*
X154098D02*
D03*
X156067D02*
D03*
X158035D02*
D03*
X160004D02*
D03*
X161972D02*
D03*
X163941D02*
D03*
X165909D02*
D03*
X167878D02*
D03*
X169846D02*
D03*
X171815D02*
D03*
X173783D02*
D03*
X175752D02*
D03*
X177720D02*
D03*
X179689D02*
D03*
X181658D02*
D03*
X183626D02*
D03*
X185594D02*
D03*
X187563D02*
D03*
D40*
X312041Y126496D02*
D03*
Y120496D02*
D03*
D41*
X346996Y32959D02*
D03*
X340996D02*
D03*
X88500Y58000D02*
D03*
X94500D02*
D03*
D42*
X196000Y22886D02*
D03*
Y46114D02*
D03*
X165500Y22886D02*
D03*
Y46114D02*
D03*
D43*
X318000Y65780D02*
D03*
Y44126D02*
D03*
D44*
X255343Y120343D02*
X328325D01*
X202000Y67000D02*
X255343Y120343D01*
X100500Y67000D02*
X202000D01*
X94500Y61000D02*
X100500Y67000D01*
X94500Y58000D02*
Y61000D01*
Y45783D02*
Y58000D01*
D45*
X338291Y32959D02*
X340996D01*
X335500Y35750D02*
X338291Y32959D01*
X335500Y35750D02*
Y43500D01*
D46*
X365250Y79692D02*
D03*
D47*
X364500Y134777D02*
D03*
D48*
X338500Y36356D02*
D03*
D49*
X196632Y136346D02*
D03*
D50*
X101058D02*
D03*
D51*
X315983Y50375D02*
D03*
D52*
X195659Y84978D02*
D03*
D53*
X103000Y85000D02*
D03*
D54*
X41506Y57811D02*
D03*
D55*
X296000Y36375D02*
D03*
D56*
X238000Y36250D02*
D03*
D57*
X331518Y43634D02*
D03*
D58*
X311053Y45500D02*
D03*
D59*
X213250Y47000D02*
D03*
D60*
X212124Y40750D02*
D03*
D61*
X178140Y44750D02*
D03*
D62*
X181250Y45000D02*
D03*
D63*
X165547Y43500D02*
D03*
M02*
