G04*
G04 #@! TF.GenerationSoftware,Altium Limited,Altium Designer,18.1.9 (240)*
G04*
G04 Layer_Color=16711935*
%FSLAX25Y25*%
%MOIN*%
G70*
G01*
G75*
%ADD12C,0.04737*%
%ADD13O,0.12611X0.09461*%
%ADD14C,0.06706*%
%ADD15O,0.06706X0.26391*%
%ADD16O,0.05524X0.08674*%
%ADD17C,0.07887*%
%ADD18O,0.10642X0.14580*%
%ADD19O,0.10642X0.14580*%
%ADD64R,0.10642X0.14580*%
%ADD65R,0.08674X0.14580*%
%ADD66R,0.12611X0.05524*%
%ADD67R,0.14580X0.12611*%
%ADD68R,0.01981X0.07887*%
%ADD69R,0.03800X0.03800*%
%ADD70R,0.03800X0.03800*%
%ADD71R,0.08083X0.13989*%
%ADD72R,0.10642X0.10642*%
D12*
X342500Y97209D02*
D03*
Y116500D02*
D03*
D13*
X37500Y73543D02*
D03*
Y57543D02*
D03*
X335500Y59500D02*
D03*
Y43500D02*
D03*
D14*
X324803Y19685D02*
D03*
X49213D02*
D03*
D15*
X227748Y38620D02*
D03*
X303748D02*
D03*
D16*
X112500Y45500D02*
D03*
X104626Y45500D02*
D03*
D17*
X94784D02*
D03*
X122343D02*
D03*
D18*
X134429Y35461D02*
D03*
D19*
X82697D02*
D03*
D64*
X341303Y76051D02*
D03*
Y137551D02*
D03*
X365425D02*
D03*
Y76051D02*
D03*
D65*
X341303D02*
D03*
D66*
X331303Y92835D02*
D03*
Y102677D02*
D03*
Y110551D02*
D03*
Y120394D02*
D03*
D67*
X194941Y136000D02*
D03*
X102441D02*
D03*
X103413Y85000D02*
D03*
X195913D02*
D03*
D68*
X187563Y124000D02*
D03*
X185594D02*
D03*
X183626D02*
D03*
X181658D02*
D03*
X179689D02*
D03*
X177720D02*
D03*
X175752D02*
D03*
X173783D02*
D03*
X171815D02*
D03*
X169846D02*
D03*
X167878D02*
D03*
X165909D02*
D03*
X163941D02*
D03*
X161972D02*
D03*
X160004D02*
D03*
X158035D02*
D03*
X156067D02*
D03*
X154098D02*
D03*
X152130D02*
D03*
X150161D02*
D03*
X148193D02*
D03*
X146224D02*
D03*
X144256D02*
D03*
X142287D02*
D03*
X140319D02*
D03*
X138350D02*
D03*
X136382D02*
D03*
X134413D02*
D03*
X132445D02*
D03*
X130476D02*
D03*
X128508D02*
D03*
X126539D02*
D03*
X124571D02*
D03*
X122602D02*
D03*
X120634D02*
D03*
X118665D02*
D03*
X116697D02*
D03*
X114728D02*
D03*
X112760D02*
D03*
X110791D02*
D03*
X110791Y97000D02*
D03*
X112760D02*
D03*
X114728D02*
D03*
X116697D02*
D03*
X118665D02*
D03*
X120634D02*
D03*
X122602D02*
D03*
X124571D02*
D03*
X126539D02*
D03*
X128508D02*
D03*
X130476D02*
D03*
X132445D02*
D03*
X134413D02*
D03*
X136382D02*
D03*
X138350D02*
D03*
X140319D02*
D03*
X142287D02*
D03*
X144256D02*
D03*
X146224D02*
D03*
X148193D02*
D03*
X150161D02*
D03*
X152130D02*
D03*
X154098D02*
D03*
X156067D02*
D03*
X158035D02*
D03*
X160004D02*
D03*
X161972D02*
D03*
X163941D02*
D03*
X165909D02*
D03*
X167878D02*
D03*
X169846D02*
D03*
X171815D02*
D03*
X173783D02*
D03*
X175752D02*
D03*
X177720D02*
D03*
X179689D02*
D03*
X181658D02*
D03*
X183626D02*
D03*
X185594D02*
D03*
X187563D02*
D03*
D69*
X312041Y126496D02*
D03*
Y120496D02*
D03*
D70*
X346996Y32959D02*
D03*
X340996D02*
D03*
X88500Y58000D02*
D03*
X94500D02*
D03*
D71*
X196000Y22886D02*
D03*
Y46114D02*
D03*
X165500Y22886D02*
D03*
Y46114D02*
D03*
D72*
X318000Y65780D02*
D03*
Y44126D02*
D03*
M02*
