M48
;Layer_Color=9474304
;FILE_FORMAT=2:5
INCH,LZ
;TYPE=PLATED
T1F00S00C0.01600
T3F00S00C0.03937
T4F00S00C0.05906
T5F00S00C0.06299
T6F00S00C0.12598
%
T01
X028425Y0026
X0288996Y0025984
Y0030959
X028425Y0030996
X0284Y003625
X0288996Y003631
X02935
X0294Y0031294
X0294249Y0026088
X030925Y0030004
Y0034504
X03135Y00345
X03265Y004275
Y0046114
X0293315Y004425
X02935Y004825
X0288996
X0289Y004425
X0283815
X0284Y004825
X036425Y0014447
X0368Y00145
Y0009712
X036425
X0274496Y000775
Y0012
X02695
Y000775
X0264996
Y0012
X026
Y000775
X0249Y0025
X0249004Y002925
X0249Y003325
X0244004
X0243819Y002925
X0239504
X02395Y003325
X0234504
X0234319Y002925
X0234504Y0025
X02395
X0244004
Y004175
X0243819Y0046
X0244004Y005
X02395
X0239504Y0046
X02395Y004175
X0234504
X0234319Y0046
X0234504Y005
X0249004
Y0046
X0249Y004175
X0219Y0038134
X0214004Y0038514
X02095Y0038134
X0204504Y0038514
X0204319Y0046514
X0204504Y0050514
X02095
X0209504Y0046514
X0213819
X0214004Y0050514
X0219
X0219004Y0046514
X0188Y0045783
Y0051
X0182
Y0046114
X01765
X0172Y0045874
Y0051
X0176996
Y003862
X0182Y00385
X0188
X01885Y0027
X01845
Y0021
X01885Y002125
Y0016
X01845
X0178
X01725
Y00215
X0178
Y0027
X01725
X0172Y0039
X01585Y003862
Y0043
Y0047
X0159Y005
X0155342
X0154Y0047
Y004275
X0154098Y003862
X0138978Y0021
X0138982Y0017
X0133797
X0133982Y0021
X0129478
X0129482Y0017
X0124297
X0124482Y0021
X0093996
X0094Y0017
X0088815
X0089Y0021
X0084496
X00845Y0017
X0079315
X00795Y0021
X0025496Y0018935
Y0014805
X00205Y0015185
Y0018935
X0015996
Y0014805
X0011Y0015185
Y0018935
X0012996Y006825
X0013Y00725
X0012996Y00765
X00175
X0017315Y00725
X00175Y006825
X0022496
X00225Y00725
X0022496Y00765
X0008
X0007815Y00725
X0008Y006825
X004432Y00615
X0046Y00575
X00505Y0057543
Y0054
X0054
X0054106Y0057543
Y00615
X0050441
X004432Y0054
X0032Y0128116
X0031996Y0132116
X0027
X0026815Y0128116
X00225
X0022496Y0132116
X00175
X0017315Y0128116
X0216Y0058
X0222
X02205Y0061
X02255Y00605
X0225174Y0065
X0266Y0080758
X0271185
X02755
X0280685
X0280496Y0092
X02755
X0270996
X0266
X0289725
X0294721
X0299225
X0304221
X030441Y0080949
X0299225
X029491
X0289725
T03
X0094784Y00455
X0104626
X01125Y00455
X0122343Y00455
T04
X03425Y0097209
Y01165
T05
X03355Y00435
X00375Y0057543
Y0073543
X03355Y00595
T06
X0324803Y0019685
X0049213
M30
